<?xml version="1.0" encoding="UTF-8"?><svg id="uuid-5e7c8416-4dd7-4537-8995-b503fccb075d" xmlns="http://www.w3.org/2000/svg" viewBox="0 0 1316.3 144.67"><path d="M195.939,124.206v-11.082c.097-1.752-.036-3.51-.395-5.228-.192-.542-.641-.953-1.197-1.098-.718-.182-1.457-.263-2.197-.242v-.901c.637,0,1.571,0,2.812,.077,1.241,.077,2.197,.077,2.812,.077s1.647,0,2.987-.077c1.34-.077,2.328-.077,2.987-.077v.901h-1.373c-.385,.047-.758,.166-1.098,.351-.399,.192-.71,.53-.868,.945-.354,1.719-.483,3.476-.384,5.228v11.697c0,2.515,.329,4.119,1.021,4.811,.692,.692,2.262,1.043,4.756,1.043h.351c1.798,.143,3.603-.194,5.228-.977,.586-.353,1.088-.829,1.472-1.395,.311-.447,.542-.945,.681-1.472,.11-.454,.242-1.135,.395-2.043h.988l-.351,6.952c-.945-.055-1.625-.11-2.054-.165-2.255,0-9.028,.055-20.318,.165v-.901h1.384c.385-.046,.758-.165,1.098-.351,.404-.186,.717-.526,.868-.945,.365-1.739,.498-3.519,.395-5.294h0Zm41.582,7.897c-3.719,.081-7.328-1.267-10.082-3.767-2.747-2.418-4.28-5.93-4.185-9.588-.065-3.697,1.512-7.232,4.305-9.654,2.743-2.557,6.366-3.957,10.115-3.91,3.681-.067,7.246,1.29,9.951,3.789,2.711,2.4,4.232,5.869,4.163,9.489,.121,3.706-1.369,7.284-4.086,9.808-2.755,2.571-6.415,3.949-10.181,3.833h0Zm0-25.854c-2.979-.068-5.757,1.5-7.238,4.086-.709,1.251-1.245,2.592-1.593,3.987-.352,1.438-.529,2.913-.527,4.393-.009,1.527,.164,3.05,.516,4.536,.326,1.371,.864,2.682,1.593,3.888,.72,1.199,1.752,2.178,2.987,2.834,1.38,.741,2.926,1.119,4.492,1.098,1.537,.043,3.057-.336,4.393-1.098,1.201-.718,2.178-1.757,2.823-2.998,.672-1.233,1.16-2.558,1.45-3.932,.312-1.443,.467-2.916,.461-4.393,.003-1.192-.096-2.383-.297-3.558-.206-1.134-.545-2.24-1.01-3.295-.43-1.035-1.028-1.992-1.768-2.834-.74-.852-1.659-1.531-2.691-1.988-1.132-.494-2.356-.741-3.591-.725Zm23.778,25.118v-7.688h.901c.967,4.876,3.441,7.315,7.424,7.315,1.447,.049,2.865-.41,4.009-1.296,1.084-.882,1.684-2.228,1.614-3.624,.005-.76-.164-1.512-.494-2.197-.338-.693-.844-1.289-1.472-1.735-.576-.416-1.186-.783-1.823-1.098-.56-.297-1.296-.615-2.197-.988-.925-.349-1.831-.749-2.713-1.197-.799-.425-1.559-.917-2.273-1.472-.766-.576-1.381-1.33-1.79-2.197-.417-.905-.624-1.892-.604-2.889-.097-1.966,.712-3.869,2.197-5.162,1.555-1.326,3.548-2.023,5.59-1.955,2.141,.029,4.218,.737,5.931,2.021l.912-1.527h.428l.198,6.798h-.879c-1.098-4.141-3.295-6.205-6.59-6.205-1.196-.053-2.37,.338-3.295,1.098-.887,.752-1.381,1.869-1.34,3.031-.008,.57,.116,1.134,.362,1.647,.188,.434,.44,.837,.747,1.197,.374,.399,.812,.733,1.296,.988,.425,.261,.865,.496,1.318,.703l1.505,.648c1.318,.549,2.361,1.032,3.152,1.439,.914,.492,1.792,1.05,2.625,1.669,.929,.634,1.684,1.492,2.197,2.493,.491,1.028,.735,2.156,.714,3.295,.087,2.232-.973,4.354-2.812,5.623-1.93,1.347-4.237,2.047-6.59,1.999-2.488-.007-4.904-.833-6.875-2.35l-.945,1.647-.428-.033Zm55.409-12.466l8.336,9.544c.497,.626,1.081,1.177,1.735,1.636,.657,.362,1.376,.597,2.12,.692v.901c-.395,0-.988,0-1.768-.077s-1.384-.088-1.768-.088-.846,0-1.494,.088-1.098,.077-1.461,.077l-1.845-2.284-6.524-8.094-.505-.626c-.144-.18-.298-.353-.461-.516-.066,0-.176-.143-.329-.275-.131-.118-.297-.192-.472-.209l-.571-.066h-.879v4.635c-.09,1.75,.028,3.505,.351,5.228,.09,.3,.261,.57,.494,.78,.256,.233,.579,.379,.923,.417,.298,.056,.598,.096,.901,.121h1.021v.901c-.582,0-1.483,0-2.713-.066l-2.834-.099c-.648,0-1.636,0-2.943,.088s-2.295,.077-2.943,.077v-.901h1.373c.385-.047,.758-.166,1.098-.351,.395-.185,.695-.528,.824-.945,.318-1.723,.436-3.478,.351-5.228v-11.137c.085-1.75-.033-3.505-.351-5.228-.098-.3-.268-.571-.494-.791-.254-.221-.567-.362-.901-.406-.298-.057-.598-.097-.901-.121h-1.098v-.901c.725,0,1.856,0,3.372,.077s2.647,.077,3.383,.077c.549,0,1.384,0,2.493-.077s1.944-.077,2.504-.077c1.103-.006,2.205,.078,3.295,.253,.975,.179,1.92,.49,2.812,.923,.89,.438,1.622,1.14,2.098,2.01,.526,1.016,.783,2.151,.747,3.295,.089,1.806-.646,3.556-1.999,4.756-1.411,1.164-3.15,1.859-4.975,1.988h0Zm-5.887-10.654v10.258h2.812c.741-.063,1.475-.185,2.197-.362,.704-.116,1.364-.42,1.911-.879,.488-.487,.863-1.076,1.098-1.724,.329-.892,.486-1.839,.461-2.79,.075-1.565-.447-3.1-1.461-4.294-1.047-1.101-2.525-1.687-4.042-1.604h-2.559c-.278,.117-.417,.6-.417,1.45v-.055Zm28.04,15.958v-11.082c.097-1.752-.036-3.51-.395-5.228-.196-.54-.643-.95-1.197-1.098-.718-.181-1.457-.262-2.197-.242v-.901c.626,0,1.571,0,2.834,.077s2.197,.077,2.823,.077l2.987-.099h2.954v.901h-1.384c-.385,.046-.758,.165-1.098,.351-.401,.19-.713,.529-.868,.945-.36,1.718-.493,3.475-.395,5.228v11.082c-.097,1.752,.036,3.51,.395,5.228,.196,.54,.643,.95,1.197,1.098,.718,.176,1.457,.257,2.197,.242v.901c-.604,0-1.538,0-2.812-.066s-2.197-.066-2.856-.099-1.636,.055-2.965,.088-2.306,0-2.965,.077v-.901h1.373c.385-.047,.758-.166,1.098-.351,.399-.192,.71-.53,.868-.945,.368-1.735,.504-3.512,.406-5.283h0Zm31.104,7.897c-3.719,.081-7.328-1.267-10.082-3.767-2.747-2.418-4.28-5.93-4.185-9.588-.06-3.696,1.516-7.229,4.305-9.654,2.743-2.557,6.366-3.957,10.115-3.91,3.681-.067,7.246,1.29,9.951,3.789,2.716,2.397,4.238,5.868,4.163,9.489,.115,3.71-1.383,7.287-4.108,9.808-2.749,2.566-6.4,3.943-10.159,3.833h0Zm0-25.854c-1.509-.036-2.998,.344-4.305,1.098-1.215,.718-2.222,1.74-2.921,2.965-.718,1.246-1.255,2.589-1.593,3.987-.355,1.437-.536,2.912-.538,4.393-.009,1.527,.164,3.05,.516,4.536,.326,1.371,.864,2.682,1.593,3.888,.72,1.199,1.752,2.178,2.987,2.834,1.384,.741,2.933,1.119,4.503,1.098,1.538,.045,3.058-.335,4.393-1.098,1.194-.714,2.167-1.744,2.812-2.976,.671-1.235,1.162-2.559,1.461-3.932,.303-1.445,.454-2.917,.45-4.393,.003-1.192-.096-2.383-.297-3.558-.202-1.134-.537-2.24-.999-3.295-.439-1.031-1.035-1.987-1.768-2.834-.746-.824-1.66-1.48-2.68-1.922-1.134-.521-2.366-.79-3.613-.791h0Zm23.811,25.118v-7.688h.901c.967,4.876,3.445,7.315,7.435,7.315,1.446,.045,2.863-.413,4.009-1.296,1.08-.885,1.675-2.23,1.604-3.624,.003-.759-.162-1.509-.483-2.197-.345-.691-.854-1.286-1.483-1.735-.576-.416-1.186-.783-1.823-1.098-.56-.297-1.296-.615-2.197-.988-.925-.349-1.831-.749-2.713-1.197-.799-.425-1.559-.917-2.273-1.472-.766-.576-1.381-1.33-1.79-2.197-.417-.905-.624-1.892-.604-2.889-.097-1.966,.712-3.869,2.197-5.162,1.553-1.3,3.533-1.981,5.557-1.911,2.14,.014,4.22,.706,5.942,1.977l.912-1.527h.428l.198,6.798h-.901c-1.15-4.144-3.346-6.213-6.59-6.205-1.196-.053-2.37,.338-3.295,1.098-.887,.752-1.381,1.869-1.34,3.031-.008,.57,.116,1.134,.362,1.647,.188,.434,.44,.837,.747,1.197,.374,.399,.812,.733,1.296,.988,.427,.256,.867,.491,1.318,.703l1.505,.648c1.318,.549,2.361,1.032,3.152,1.439,.914,.492,1.792,1.05,2.625,1.669,.929,.634,1.684,1.492,2.197,2.493,.491,1.028,.735,2.156,.714,3.295,.087,2.232-.973,4.354-2.812,5.623-1.93,1.347-4.237,2.047-6.59,1.999-2.488-.007-4.904-.833-6.875-2.35l-.945,1.647-.384-.033Zm64.228-23.745l.626-1.845h.593l.308,7.688h-.901c-.254-2.062-1.222-3.97-2.735-5.393-1.529-1.349-3.52-2.054-5.557-1.966-1.545-.036-3.069,.368-4.393,1.164-1.22,.743-2.209,1.812-2.856,3.086-.65,1.289-1.137,2.654-1.45,4.064-.323,1.49-.481,3.011-.472,4.536-.005,1.479,.161,2.953,.494,4.393,.32,1.361,.831,2.669,1.516,3.888,.674,1.201,1.666,2.193,2.867,2.867,1.339,.756,2.857,1.135,4.393,1.098,1.196,.024,2.385-.196,3.493-.648,.976-.421,1.83-1.082,2.482-1.922,.641-.835,1.182-1.742,1.614-2.702,.465-1.089,.833-2.217,1.098-3.372h.703v8.6h-.505l-.967-1.988c-2.468,1.957-5.538,2.997-8.688,2.943-3.588,.159-7.088-1.136-9.709-3.591-2.516-2.535-3.855-6.009-3.69-9.577-.253-7.341,5.493-13.498,12.834-13.751,.305-.011,.611-.011,.916,0,1.389-.024,2.774,.162,4.108,.549,1.365,.464,2.667,1.095,3.877,1.878h0Zm25.151,24.481c-3.719,.081-7.328-1.267-10.082-3.767-2.747-2.418-4.28-5.93-4.185-9.588-.06-3.696,1.516-7.229,4.305-9.654,2.743-2.557,6.366-3.957,10.115-3.91,3.681-.067,7.246,1.29,9.951,3.789,2.711,2.4,4.232,5.869,4.163,9.489,.115,3.71-1.383,7.287-4.108,9.808-2.749,2.566-6.4,3.943-10.159,3.833h0Zm0-25.854c-2.977-.071-5.753,1.498-7.227,4.086-.717,1.248-1.257,2.59-1.604,3.987-.352,1.438-.529,2.913-.527,4.393-.009,1.527,.164,3.05,.516,4.536,.326,1.371,.864,2.682,1.593,3.888,.72,1.199,1.752,2.178,2.987,2.834,1.38,.741,2.926,1.119,4.492,1.098,1.537,.043,3.057-.336,4.393-1.098,1.201-.7,2.186-1.719,2.845-2.943,.672-1.233,1.16-2.558,1.45-3.932,.312-1.443,.467-2.916,.461-4.393,.003-1.192-.096-2.383-.297-3.558-.206-1.134-.545-2.24-1.01-3.295-.43-1.035-1.028-1.992-1.768-2.834-.741-.826-1.651-1.481-2.669-1.922-1.136-.542-2.377-.83-3.635-.846h0Zm51.598,6.052v14.278c0,1.889,.176,3.031,.538,3.416s1.472,.67,3.361,.835v.901l-3.031-.099c-1.303-.044-2.259-.066-2.867-.066-.659,0-1.647,.055-2.965,.088s-2.317,0-2.976,.077v-.901c1.889-.165,3.009-.439,3.361-.835s.538-1.527,.538-3.416v-17.177h-.077l-4.481,10.983c-.56,1.263-1.373,3.152-2.46,5.667s-1.911,4.393-2.46,5.656h-.395l-9.544-22.306h-.077v16.54c-.098,1.25,.169,2.501,.769,3.602,.752,.857,1.86,1.316,2.998,1.241v.901c-.472,0-1.186,0-2.197-.077s-1.713-.088-2.197-.088-1.098,.055-2.043,.088-1.614,0-2.087,.077v-.901c2.358,0,3.537-1.193,3.537-3.58v-16.705c.039-.867-.08-1.734-.351-2.559-.192-.542-.641-.953-1.197-1.098-.717-.182-1.457-.264-2.197-.242v-.901c.923,0,2.197,.11,3.976,.154s2.779-.099,3.613-.154l8.644,20.121,8.413-20.121c.791,0,2.021,.11,3.701,.154s2.965-.099,3.888-.154v.945c-1.867,0-2.987,.439-3.383,1.34-.342,1.412-.461,2.868-.351,4.316h0Zm40.483,0v14.278c0,1.889,.176,3.031,.527,3.416s1.483,.67,3.361,.835v.901l-3.02-.099c-1.307,0-2.273-.066-2.867-.066s-1.647,.055-2.976,.088-2.306,0-2.965,.077v-.901c1.889-.165,3.009-.439,3.361-.835s.527-1.527,.527-3.416v-17.177h-.077l-4.481,10.983-2.449,5.667c-1.098,2.515-1.911,4.393-2.46,5.656h-.395l-9.544-22.306h-.077v16.54c-.095,1.248,.168,2.498,.758,3.602,.759,.855,1.869,1.313,3.009,1.241v.901c-.472,0-1.186,0-2.197-.077s-1.702-.088-2.197-.088-1.098,.055-2.043,.088-1.614,0-2.087,.077v-.901c2.358,0,3.537-1.193,3.537-3.58v-16.705c.039-.867-.08-1.734-.351-2.559-.192-.542-.641-.953-1.197-1.098-.718-.182-1.457-.263-2.197-.242v-.901c.923,0,2.197,.11,3.976,.154s2.779-.099,3.613-.154l8.644,20.121,8.413-20.121c.791,0,2.021,.11,3.69,.154s2.976-.099,3.899-.154v.945c-1.867,0-2.987,.439-3.383,1.34-.342,1.412-.461,2.868-.351,4.316h0Zm36.474,1.691v7.271c0,3.661-.798,6.385-2.394,8.171-1.604,1.779-4.217,2.669-7.864,2.669s-6.26-.725-7.941-2.197-2.515-3.932-2.515-7.414v-9.39c.097-1.752-.035-3.51-.395-5.228-.192-.542-.641-.953-1.197-1.098-.717-.183-1.457-.264-2.197-.242v-.901c.593,0,1.516,0,2.768,.077s2.197,.077,2.812,.077,1.636,0,2.965-.077,2.328-.077,3.009-.077v.901h-1.098c-.306,.023-.61,.063-.912,.121-.339,.049-.658,.189-.923,.406-.237,.213-.412,.486-.505,.791-.324,1.722-.442,3.477-.351,5.228v9.665c-.159,2.117,.453,4.22,1.724,5.92,1.15,1.318,3.024,1.977,5.623,1.977,5.426,0,8.138-2.698,8.138-8.094v-8.6c.092-1.883-.041-3.771-.395-5.623-.178-.66-.653-1.2-1.285-1.461-.764-.256-1.567-.375-2.372-.351v-.901c.527,0,1.285,0,2.273,.077s1.757,.077,2.284,.077h2.197l2.197-.099v.901c-.887-.049-1.77,.14-2.559,.549-.291,.22-.509,.522-.626,.868-.447,1.969-.603,3.993-.461,6.008h0Zm16.112,9.423v-14.498c-.466-.734-1.089-1.357-1.823-1.823-.767-.368-1.61-.552-2.46-.538v-.901c.417,0,1.043,0,1.867,.077s1.45,.077,1.867,.077,.857,0,1.549-.077,1.219-.077,1.56-.077l16.584,20.22h.077v-10.983c.062-2.024-.055-4.049-.351-6.052-.067-.271-.147-.539-.242-.802-.067-.212-.18-.407-.329-.571-.116-.133-.241-.257-.373-.373-.158-.121-.343-.204-.538-.242l-.549-.132c-.11,0-.351-.066-.703-.121l-.769-.121v-.901c.472,0,1.197,0,2.197,.077s1.691,.077,2.197,.077h2.043l2.12-.099v.901h-.571c-.192,.011-.383,.036-.571,.077l-.45,.099c-.169,.021-.331,.081-.472,.176l-.351,.297c-.14,.117-.252,.263-.329,.428-.096,.198-.177,.404-.242,.615-.42,2.266-.578,4.573-.472,6.875v16.936h-1.241c-.582-.703-1.439-1.79-2.592-3.295l-15.376-18.671h-.088v13.18c-.126,1.934,.075,3.876,.593,5.744,.094,.19,.201,.373,.319,.549,.107,.162,.245,.3,.406,.406,.176,.121,.319,.22,.439,.286,.166,.079,.344,.131,.527,.154,.171,.02,.34,.053,.505,.099,.203,.038,.409,.064,.615,.077h.604v.901c-.494,0-1.252,0-2.251-.077s-1.768-.088-2.262-.088-1.197,0-2.197,.088-1.702,.077-2.197,.077v-.901c.549-.055,.934-.099,1.153-.143l.923-.231c.346-.086,.652-.288,.868-.571,.203-.3,.348-.635,.428-.988,.272-1.725,.393-3.471,.362-5.217h0Zm35.684,.791v-11.082c.097-1.752-.035-3.51-.395-5.228-.192-.542-.641-.953-1.197-1.098-.717-.183-1.457-.264-2.197-.242v-.901c.626,0,1.571,0,2.823,.077s2.197,.077,2.834,.077l2.987-.099h2.943v.901h-1.373c-.385,.047-.758,.166-1.098,.351-.399,.19-.706,.529-.857,.945-.36,1.718-.493,3.475-.395,5.228v11.082c-.097,1.752,.036,3.51,.395,5.228,.192,.542,.641,.953,1.197,1.098,.718,.177,1.457,.258,2.197,.242v.901c-.604,0-1.538,0-2.812-.066s-2.197-.066-2.845-.099-1.647,.055-2.965,.088-2.317,0-2.965,.077v-.901h1.373c.385-.048,.757-.167,1.098-.351,.399-.19,.706-.529,.857-.945,.364-1.736,.497-3.512,.395-5.283h0Zm39.989-18.55l.351,6.128h-1.098c-.099-1.889-.56-3.163-1.373-3.844-1.189-.797-2.616-1.161-4.042-1.032h-2.109c-.231,0-.46,.034-.681,.099l-.516,.198c-.159,.055-.298,.159-.395,.297-.084,.135-.126,.292-.121,.45v18.671c-.12,1.125,.168,2.255,.813,3.185,.538,.582,1.724,.901,3.558,.988v.901c-.714,0-1.79,0-3.295-.077s-2.548-.088-3.295-.088-1.724,0-3.108,.066l-3.141,.099v-.901c1.834-.088,3.02-.406,3.558-.988,.635-.934,.919-2.062,.802-3.185v-18.671c.01-.229-.068-.453-.22-.626-.198-.187-.454-.299-.725-.319-.287-.049-.577-.082-.868-.099h-1.494c-.866-.013-1.731,.028-2.592,.121-.603,.09-1.187,.283-1.724,.571-.583,.307-1.022,.832-1.219,1.461-.276,.881-.409,1.801-.395,2.724h-.835v-6.128h24.163Zm18.924,15.64v5.228c0,1.889,.176,3.031,.527,3.416s1.483,.67,3.361,.835v.901c-.648,0-1.636,0-2.943-.077s-2.295-.088-2.943-.088-1.658,0-2.987,.088-2.35,.077-3.031,.077v-.901c1.889-.165,3.02-.439,3.405-.846s.571-1.549,.571-3.405v-4.876l-3.624-6.249-.703-1.329c-.472-.923-.923-1.768-1.362-2.537s-.912-1.604-1.45-2.471c-.363-.639-.79-1.238-1.274-1.79-.164-.205-.375-.367-.615-.472-.284-.095-.58-.15-.879-.165-.265-.006-.529-.032-.791-.077v-.901c.604,0,1.505,0,2.691,.077s2.076,.077,2.658,.077,1.516,0,2.746-.077,2.197-.077,2.79-.077v.901c-1.955,0-2.943,.417-2.943,1.263,.139,.978,.487,1.915,1.021,2.746l5.107,9.478,2.515-4.009c2.592-4.327,3.899-6.93,3.899-7.82,.002-.149-.02-.297-.066-.439-.032-.133-.101-.255-.198-.351l-.242-.22c-.094-.095-.211-.163-.34-.198l-.373-.132c-.136-.056-.281-.089-.428-.099l-.406-.066h-.791v-.901c.472,0,1.175,0,2.098,.077s1.636,.077,2.109,.077,1.098,0,1.922-.077,1.505-.077,1.933-.077v.901c-.68,.042-1.335,.274-1.889,.67-.451,.301-.851,.672-1.186,1.098-.231,.34-.604,.923-1.098,1.735l-6.788,11.082Zm53.926-13.674l.626-1.845h.593l.308,7.688h-.901c-.254-2.062-1.222-3.97-2.735-5.393-1.516-1.378-3.51-2.111-5.557-2.043-1.545-.036-3.069,.368-4.393,1.164-1.218,.742-2.204,1.812-2.845,3.086-.658,1.287-1.149,2.652-1.461,4.064-.323,1.49-.481,3.011-.472,4.536-.005,1.479,.161,2.953,.494,4.393,.32,1.361,.831,2.669,1.516,3.888,.674,1.201,1.666,2.193,2.867,2.867,1.339,.756,2.857,1.135,4.393,1.098,1.2,.026,2.392-.195,3.504-.648,.973-.421,1.824-1.082,2.471-1.922,.644-.833,1.186-1.74,1.614-2.702,.465-1.089,.833-2.217,1.098-3.372h.714v8.6h-.505l-.945-1.999c-2.468,1.957-5.538,2.997-8.687,2.943-3.588,.159-7.088-1.136-9.709-3.591-2.516-2.535-3.855-6.009-3.69-9.577-.253-7.341,5.493-13.498,12.834-13.751,.305-.011,.611-.011,.916,0,1.389-.024,2.774,.161,4.108,.549,1.358,.494,2.649,1.155,3.844,1.966h0Zm25.151,24.481c-3.719,.081-7.328-1.267-10.082-3.767-2.747-2.418-4.28-5.93-4.185-9.588-.06-3.696,1.516-7.229,4.305-9.654,2.743-2.557,6.366-3.957,10.115-3.91,3.681-.067,7.246,1.29,9.951,3.789,2.716,2.397,4.238,5.868,4.163,9.489,.115,3.71-1.383,7.287-4.108,9.808-2.749,2.566-6.4,3.943-10.159,3.833h0Zm0-25.854c-1.509-.036-2.998,.344-4.305,1.098-1.215,.718-2.222,1.74-2.921,2.965-.718,1.246-1.255,2.589-1.593,3.987-.355,1.437-.536,2.912-.538,4.393-.009,1.527,.164,3.05,.516,4.536,.326,1.371,.864,2.682,1.593,3.888,.72,1.199,1.752,2.178,2.987,2.834,1.383,.742,2.933,1.12,4.503,1.098,1.538,.045,3.058-.335,4.393-1.098,1.19-.716,2.159-1.746,2.801-2.976,.671-1.235,1.162-2.559,1.461-3.932,.303-1.445,.454-2.917,.45-4.393,.003-1.192-.096-2.383-.297-3.558-.202-1.134-.537-2.24-.999-3.295-.439-1.031-1.035-1.987-1.768-2.834-.746-.824-1.66-1.48-2.68-1.922-1.13-.519-2.359-.789-3.602-.791Zm26.809,17.957v-11.082c.092-1.752-.041-3.509-.395-5.228-.196-.543-.648-.955-1.208-1.098-.717-.183-1.457-.264-2.197-.242v-.901c.626,0,1.571,0,2.812,.077s2.197,.077,2.812,.077,1.647,0,2.987-.077,2.328-.077,2.987-.077v.901h-1.384c-.385,.046-.758,.165-1.098,.351-.404,.186-.717,.526-.868,.945-.36,1.718-.493,3.475-.395,5.228v11.697c0,2.519,.34,4.122,1.021,4.811,.681,.703,2.262,1.043,4.756,1.043h.351c2.493,0,4.239-.329,5.228-.977,.588-.35,1.091-.826,1.472-1.395,.318-.444,.553-.943,.692-1.472,.11-.454,.242-1.135,.395-2.043h.978l-.351,6.952c-.945-.059-1.625-.113-2.043-.165-2.255,0-9.028,.055-20.318,.165v-.901h1.373c.385-.047,.758-.166,1.098-.351,.399-.192,.71-.53,.868-.945,.37-1.739,.514-3.518,.428-5.294h0Zm30.258,0v-11.082c.097-1.752-.036-3.51-.395-5.228-.192-.542-.641-.953-1.197-1.098-.718-.182-1.457-.263-2.197-.242v-.901c.637,0,1.571,0,2.812,.077s2.197,.077,2.812,.077,1.647,0,2.987-.077,2.328-.077,2.987-.077v.901h-1.373c-.385,.047-.758,.166-1.098,.351-.399,.192-.71,.53-.868,.945-.36,1.718-.493,3.475-.395,5.228v11.697c0,2.519,.34,4.122,1.021,4.811,.692,.703,2.273,1.043,4.767,1.043h.351c1.798,.143,3.603-.194,5.228-.977,.586-.353,1.088-.829,1.472-1.395,.311-.447,.542-.945,.681-1.472,.11-.454,.242-1.135,.395-2.043h.988l-.362,6.952c-.934-.055-1.614-.11-2.032-.165-2.262,0-9.039,.055-20.329,.165v-.901h1.384c.385-.048,.757-.167,1.098-.351,.399-.19,.706-.529,.857-.945,.369-1.739,.505-3.519,.406-5.294h0Zm30.258-.077v-10.851c.097-1.752-.036-3.51-.395-5.228-.192-.542-.641-.953-1.197-1.098-.719-.173-1.457-.25-2.197-.231v-1.098h19.528v5.975h-.901c-.128-.929-.387-1.835-.769-2.691-.309-.644-.828-1.163-1.472-1.472-.611-.304-1.268-.504-1.944-.593-.924-.087-1.851-.124-2.779-.11h-2.823c-.604,0-.934,0-.988,.154-.026,.483-.026,.967,0,1.45v9.314c2.46,.11,4.108-.253,4.953-1.098,.921-1.036,1.436-2.37,1.45-3.756h.901c0,2.416-.099,4.196-.154,5.349s.11,2.669,.154,4.876h-.901c-.264-1.922-.846-3.119-1.768-3.602-1.472-.582-3.055-.83-4.635-.725v6.447c0,2.021,.231,3.295,.703,3.965,.732,1.003,2.409,1.475,5.03,1.417,.949-.005,1.896-.078,2.834-.22,.73-.12,1.437-.349,2.098-.681,.697-.334,1.258-.896,1.593-1.593,.411-.871,.663-1.808,.747-2.768h.901l-.351,6.326h-21.384v-.912h1.373c.384-.052,.756-.171,1.098-.351,.399-.19,.706-.529,.857-.945,.376-1.723,.524-3.488,.439-5.25h0Zm50.511-18.243l-.439,7.787h-.824c-.04-2.053-.857-4.015-2.284-5.491-1.433-1.425-3.395-2.189-5.415-2.109-1.344-.025-2.677,.253-3.899,.813-1.043,.473-1.964,1.18-2.691,2.065-.717,.922-1.274,1.958-1.647,3.064-.419,1.147-.71,2.337-.868,3.548-.146,1.261-.216,2.53-.209,3.8-.012,1.452,.146,2.901,.472,4.316,.295,1.303,.792,2.551,1.472,3.701,.674,1.131,1.647,2.055,2.812,2.669,1.295,.682,2.743,1.022,4.206,.988,1.73,.1,3.437-.426,4.811-1.483,1.215-1.126,1.857-2.74,1.746-4.393,.114-.909-.147-1.826-.725-2.537-.784-.532-1.711-.812-2.658-.802v-.912h10.302v.912c-.726-.12-1.464,.131-1.966,.67-.374,.712-.537,1.516-.472,2.317v4.163h-1.713c-.226,.024-.45,.064-.67,.121l-.527,.143c-.203,.061-.402,.139-.593,.231l-.549,.253-.681,.395c-.384,.22-.648,.373-.813,.45-1.905,.983-4.018,1.495-6.161,1.494-3.512,.144-6.936-1.122-9.511-3.515-2.502-2.428-3.849-5.808-3.701-9.292-.12-3.744,1.26-7.381,3.833-10.104,4.923-4.701,12.455-5.341,18.1-1.538l.824-1.768,.439,.044Zm14.728,18.243v-10.851c.092-1.752-.037-3.508-.384-5.228-.201-.54-.651-.949-1.208-1.098-.719-.173-1.457-.25-2.197-.231v-1.098h19.528v5.975h-.901c-.128-.929-.387-1.835-.769-2.691-.305-.646-.826-1.166-1.472-1.472-.611-.304-1.268-.504-1.944-.593-.92-.087-1.844-.124-2.768-.11h-2.834c-.604,0-.934,0-.978,.154-.037,.483-.037,.967,0,1.45v9.314c2.46,.11,4.108-.253,4.953-1.098,.921-1.036,1.436-2.37,1.45-3.756h.912c0,2.416-.11,4.196-.165,5.349s.11,2.669,.165,4.876h-.912c-.264-1.922-.846-3.119-1.768-3.602-1.472-.583-3.055-.831-4.635-.725v6.447c0,2.021,.231,3.295,.703,3.965,.732,1.003,2.409,1.475,5.03,1.417,.949-.004,1.896-.078,2.834-.22,.733-.121,1.443-.351,2.109-.681,.68-.329,1.232-.873,1.57-1.549,.411-.871,.663-1.808,.747-2.768h.912l-.362,6.326h-21.384v-.912h1.373c.384-.052,.756-.171,1.098-.351,.399-.192,.71-.53,.868-.945,.368-1.739,.512-3.518,.428-5.294h0Zm46.381,.077v-10.983c.085-1.75-.033-3.505-.351-5.228-.101-.299-.27-.569-.494-.791-.254-.221-.567-.362-.901-.406-.301-.058-.606-.098-.912-.121h-1.032v-.977h2.449l2.493,.099c.714,0,1.768,0,3.185-.077s2.482-.077,3.185-.077c3.82-.221,7.573,1.065,10.456,3.58,2.788,2.547,4.3,6.2,4.13,9.973,0,4.097-1.23,7.216-3.679,9.379s-5.744,3.185-9.885,3.086c-.758,0-1.922-.055-3.482-.077s-2.724-.055-3.515-.088c-.604,0-1.494,.066-2.691,.099s-2.076,.066-2.647,.066v-.901h1.373c.385-.046,.758-.165,1.098-.351,.4-.181,.704-.525,.835-.945,.331-1.733,.46-3.498,.384-5.261h0Zm4.042-15.991v18.385c0,.165,0,.461,.077,.846,.021,.337,.087,.669,.198,.988,.082,.254,.209,.492,.373,.703,.681,.999,2.197,1.494,4.393,1.494,1.432,.044,2.855-.238,4.163-.824,1.083-.512,1.973-1.359,2.537-2.416,.558-1.055,.954-2.188,1.175-3.361,.236-1.375,.346-2.768,.329-4.163,0-4.25-.78-7.49-2.35-9.753s-4.393-3.372-8.292-3.372c-.798-.097-1.607-.003-2.361,.275-.206,.363-.291,.783-.242,1.197h0Zm31.214,15.991v-11.082c.097-1.752-.036-3.51-.395-5.228-.196-.54-.643-.95-1.197-1.098-.718-.182-1.457-.263-2.197-.242v-.901c.637,0,1.571,0,2.834,.077s2.197,.077,2.834,.077l2.976-.099h2.954v.901h-1.373c-.385,.047-.758,.166-1.098,.351-.401,.19-.713,.529-.868,.945-.36,1.718-.493,3.475-.395,5.228v11.082c-.097,1.752,.036,3.51,.395,5.228,.199,.538,.645,.946,1.197,1.098,.718,.176,1.457,.257,2.197,.242v.901c-.604,0-1.538,0-2.812-.066s-2.197-.066-2.845-.099-1.647,.055-2.976,.088-2.306,0-2.965,.077v-.901h1.373c.385-.047,.758-.166,1.098-.351,.401-.19,.713-.529,.868-.945,.364-1.736,.497-3.512,.395-5.283h0Zm16.738,7.161v-7.688h.901c.981,4.876,3.46,7.315,7.435,7.315,1.446,.045,2.863-.413,4.009-1.296,1.084-.882,1.684-2.228,1.614-3.624,.005-.76-.164-1.512-.494-2.197-.345-.688-.849-1.283-1.472-1.735-.582-.414-1.195-.781-1.834-1.098-.56-.297-1.285-.615-2.197-.988-.926-.347-1.832-.747-2.713-1.197-.802-.424-1.566-.917-2.284-1.472-.763-.579-1.377-1.332-1.79-2.197-.417-.905-.624-1.892-.604-2.889-.097-1.966,.712-3.869,2.197-5.162,1.554-1.299,3.533-1.979,5.557-1.911,2.142,.024,4.221,.724,5.942,1.999l.901-1.527h.527l.198,6.798h-.901c-1.15-4.144-3.346-6.213-6.59-6.205-1.196-.051-2.369,.34-3.295,1.098-.884,.753-1.374,1.871-1.329,3.031-.011,.569,.109,1.133,.351,1.647,.188,.434,.44,.837,.747,1.197,.376,.397,.814,.731,1.296,.988,.427,.256,.867,.491,1.318,.703l1.516,.648c1.307,.549,2.35,1.032,3.141,1.439,.918,.492,1.799,1.05,2.636,1.669,.926,.638,1.681,1.494,2.197,2.493,.482,1.031,.722,2.157,.703,3.295,.092,2.233-.97,4.357-2.812,5.623-1.929,1.349-4.237,2.049-6.59,1.999-2.488-.005-4.905-.831-6.875-2.35l-.945,1.647-.461-.055Zm49.522-25.711l.351,6.128h-1.098c-.11-1.889-.571-3.163-1.384-3.844-1.189-.797-2.616-1.161-4.042-1.032h-2.109c-.231,0-.46,.034-.681,.099l-.516,.198c-.157,.059-.295,.162-.395,.297-.08,.136-.118,.293-.11,.45v18.671c-.123,1.123,.161,2.254,.802,3.185,.538,.582,1.724,.901,3.558,.988v.901c-.714,0-1.79,0-3.295-.077s-2.548-.088-3.295-.088-1.713,0-3.108,.066l-3.141,.099v-.901c1.834-.088,3.02-.406,3.558-.988,.641-.931,.925-2.062,.802-3.185v-18.671c.01-.229-.068-.453-.22-.626-.197-.187-.454-.299-.725-.319-.287-.049-.577-.082-.868-.099h-1.494c-.866-.013-1.731,.028-2.592,.121-.603,.09-1.187,.283-1.724,.571-.583,.307-1.022,.832-1.219,1.461-.271,.882-.404,1.801-.395,2.724h-.901v-6.128h24.239Zm21.614,13.245l8.336,9.544c.496,.623,1.077,1.173,1.724,1.636,.658,.359,1.377,.593,2.12,.692v.901c-.384,0-.978,0-1.768-.077s-1.373-.088-1.768-.088-.835,0-1.494,.088-1.098,.077-1.45,.077l-1.834-2.284-6.524-8.094-.516-.626c-.138-.182-.289-.354-.45-.516l-.329-.275c-.132-.116-.297-.189-.472-.209l-.571-.066h-.89v4.635c-.089,1.751,.033,3.506,.362,5.228,.09,.298,.257,.567,.483,.78,.257,.231,.579,.376,.923,.417,.395,.066,.703,.11,.912,.121h1.021v.901c-.582,0-1.483,0-2.713-.066l-2.834-.099c-.659,0-1.636,0-2.943,.088s-2.295,.077-2.954,.077v-.901h1.384c.385-.046,.758-.165,1.098-.351,.401-.178,.702-.523,.824-.945,.33-1.722,.451-3.477,.362-5.228v-11.137c.089-1.751-.032-3.506-.362-5.228-.09-.301-.256-.574-.483-.791-.254-.221-.567-.362-.901-.406-.301-.058-.606-.098-.912-.121h-1.098v-.901c.736,0,1.867,0,3.383,.077s2.647,.077,3.383,.077c.549,0,1.384,0,2.493-.077s1.944-.077,2.493-.077c1.103-.007,2.205,.078,3.295,.253,.975,.176,1.922,.486,2.812,.923,.895,.434,1.632,1.137,2.109,2.01,.526,1.016,.783,2.151,.747,3.295,.09,1.809-.65,3.56-2.01,4.756-1.414,1.167-3.157,1.862-4.986,1.988h0Zm-5.898-10.653v10.258h2.812c.741-.063,1.475-.185,2.197-.362,.704-.116,1.364-.42,1.911-.879,.488-.487,.863-1.076,1.098-1.724,.321-.894,.474-1.84,.45-2.79,.078-1.563-.44-3.098-1.45-4.294-1.051-1.103-2.532-1.689-4.053-1.604h-2.548c-.275,.11-.417,.582-.417,1.45v-.055Zm28.062,15.958v-11.082c.097-1.752-.036-3.51-.395-5.228-.189-.544-.639-.957-1.197-1.098-.717-.183-1.457-.264-2.197-.242v-.901c.626,0,1.571,0,2.823,.077s2.197,.077,2.834,.077l2.987-.099h2.943v.901h-1.373c-.385,.047-.758,.166-1.098,.351-.399,.19-.706,.529-.857,.945-.36,1.718-.493,3.475-.395,5.228v11.082c-.097,1.752,.036,3.51,.395,5.228,.192,.542,.641,.953,1.197,1.098,.718,.177,1.457,.258,2.197,.242v.901c-.604,0-1.538,0-2.812-.066s-2.197-.066-2.845-.099-1.647,.055-2.965,.088-2.317,0-2.965,.077v-.901h1.373c.385-.048,.757-.167,1.098-.351,.399-.19,.706-.529,.857-.945,.364-1.736,.497-3.512,.395-5.283h0Zm38.561-16.584l.626-1.845h.582l.318,7.688h-.901c-.254-2.062-1.222-3.97-2.735-5.393-1.517-1.377-3.51-2.11-5.557-2.043-1.545-.036-3.069,.368-4.393,1.164-1.22,.743-2.209,1.812-2.856,3.086-.65,1.289-1.137,2.654-1.45,4.064-.323,1.49-.481,3.011-.472,4.536-.005,1.479,.161,2.953,.494,4.393,.316,1.362,.826,2.672,1.516,3.888,.674,1.201,1.666,2.193,2.867,2.867,1.339,.756,2.857,1.135,4.393,1.098,1.196,.024,2.385-.196,3.493-.648,.976-.421,1.83-1.082,2.482-1.922,.644-.833,1.186-1.74,1.614-2.702,.465-1.089,.833-2.217,1.098-3.372h.703v8.6h-.472l-.945-1.999c-2.468,1.957-5.538,2.997-8.687,2.943-3.588,.159-7.088-1.136-9.709-3.591-2.516-2.535-3.855-6.009-3.69-9.577-.253-7.341,5.493-13.498,12.834-13.751,.305-.011,.611-.011,.916,0,1.389-.023,2.774,.162,4.108,.549,1.35,.496,2.634,1.156,3.822,1.966h0Zm33.992-1.966l.351,6.128h-1.098c-.11-1.889-.571-3.163-1.384-3.844-1.189-.797-2.616-1.161-4.042-1.032h-2.109c-.231,0-.46,.034-.681,.099l-.516,.198c-.157,.059-.295,.162-.395,.297-.08,.136-.118,.293-.11,.45v18.671c-.123,1.123,.161,2.254,.802,3.185,.538,.582,1.724,.901,3.558,.988v.901c-.714,0-1.79,0-3.24-.077s-2.548-.088-3.295-.088-1.713,0-3.108,.066l-3.141,.099v-.901c1.834-.088,3.02-.406,3.558-.988,.641-.931,.925-2.062,.802-3.185v-18.671c.016-.23-.063-.457-.22-.626-.197-.187-.454-.299-.725-.319-.287-.049-.577-.082-.868-.099h-1.406c-.869-.013-1.739,.027-2.603,.121-.603,.09-1.187,.283-1.724,.571-.583,.307-1.022,.832-1.219,1.461-.271,.882-.404,1.801-.395,2.724h-.901v-6.128h24.108Z" fill="#0f2c4e"/><path d="M211.639,48.295c-2,0-2.29,.08-2.8,1.69l-3.31,9.84c-.351,.963-.551,1.975-.59,3,0,.51,1.1,1,3.47,1.44l2.55,.43c.51,.59,.68,2.54-.17,3-3-.17-6-.17-9.58-.26-2.89,0-4.84,.26-8.74,.26-.93-.51-.85-2.29-.25-3l2.29-.26c2-.25,3.73-.93,5.17-4.24s3.05-7.46,5.34-13.56l7.72-20.7c2-5.34,3.39-8.3,3.14-10.77,4.07-.93,7.2-5.08,7.38-5.08,1.1,0,1.61,.42,1.94,1.69,.68,2.46,1.7,5.6,3.82,11.62l11.54,33.24c1.77,5.09,2.54,7,5.68,7.55l3.22,.51c.51,.42,.68,2.46-.09,3-4.03-.15-8.65-.26-13.03-.26-4.24,0-7.54,.09-11.44,.26-.866-.612-1.071-1.81-.459-2.676,.084-.119,.181-.227,.289-.324l2.71-.43c1.95-.33,2.29-.93,2.29-1.44-.378-1.961-.917-3.887-1.61-5.76l-2.29-7.3c-.42-1.35-1.1-1.52-4.07-1.52l-10.12,.05Zm9.67-4.5c1.95,0,2.37-.25,1.69-2.46l-2.2-6.9c-1.19-3.64-2.72-8.22-3.48-10-.68,1.95-2.38,6.53-3.65,10.43l-2.12,6.36c-.76,2.29-.34,2.54,1.78,2.54l7.98,.03Zm33.87-22.6c-.59-.59-.59-2.36,.22-2.58,2.5,.15,5.67,.22,9.28,.22,2.43,0,4.57,0,7.22-.22,0,4.57,2.58,9.06,5.82,16l4.86,10.38c.66,1.48,3.32,6.12,4.35,8,1-1.77,2.13-4.05,4.12-8.4l3.76-8.1c3.53-7.59,5.38-11.49,7-17.83,2.424,.207,4.858,.281,7.29,.22,2.43,0,5.82-.07,8.47-.22,.768,.654,.867,1.805,.22,2.58l-2.13,.37c-3,.52-4.5,1.4-4.5,5.3,0,15.18,.15,23.13,.59,32.42,.15,3.38,.44,5.15,3.32,5.52l2.35,.3c.59,.58,.59,2.28-.14,2.57-3.39-.14-6.56-.22-10.17-.22-3.31,0-7.37,.08-10.9,.22-.759-.514-.957-1.547-.443-2.305,.065-.096,.14-.184,.223-.265l2.21-.3c3.38-.44,3.38-1.33,3.38-5.82l-.14-19.2v-8.4h-.1c-5.45,11.79-11.34,24.09-16.21,36.54-.419,.331-.937,.51-1.47,.51-.664,.023-1.323-.129-1.91-.44-2.88-9.13-11.94-27.4-16.06-37h-.15c-.3,4.79-.37,8-.44,11.86-.07,4.79-.15,12.16-.15,16.58,0,3.68,.44,4.71,3.39,5.15l2.87,.45c.55,.788,.488,1.851-.15,2.57-2.72-.12-5.94-.22-8.72-.22-2.35,0-5.15,.08-8.1,.22-1-.29-1-2.21-.3-2.57l1.33-.23c3.76-.66,4.2-1.1,4.64-5.67,.37-3.61,.59-10,1-17,.3-4.93,.45-10.9,.45-14.87,0-4.2-1.63-5.31-4.57-5.82l-1.61-.3Zm84.23,16.8c0,2.06,.08,2.21,2.07,2.21h5.08c3.83,0,4.71-.52,5.45-4.05l.37-1.85c.51-.58,2.36-.58,2.73,.08-.15,2.35-.23,5-.23,7.8s.08,5.46,.23,7.81c-.37,.67-2.22,.74-2.73,.08l-.37-1.84c-.74-3.54-1.62-4.13-5.45-4.13h-5.08c-2,0-2.07,.08-2.07,2.28v8.77c0,3.39,.3,5.75,1.18,7s2.36,1.91,7.74,1.91c6.41,0,8.91-.22,13-8.54,.728-.669,1.86-.622,2.529,.106,.075,.082,.142,.17,.201,.264-.452,4.056-1.493,8.024-3.09,11.78-3.91-.14-11-.22-17-.22h-9.63c-3.53,0-7.14,.08-12.67,.22-.589-.755-.589-1.815,0-2.57l3.46-.52c3.32-.52,3.76-1,3.76-7.74V29.375c0-6.71-.44-7.15-3.76-7.81l-1.84-.37c-.659-.758-.592-1.903,.15-2.58,3.46,.15,7.07,.22,10.61,.22h15.61c4.72,0,8.92-.07,9.88-.22,.07,1.18,.58,6.49,.95,11.42-.29,.81-2,1-2.72,.29-.554-2.098-1.504-4.07-2.8-5.81-1.4-1.4-3.61-2.29-7.22-2.29h-5.89c-2.44,0-2.44,.15-2.44,2.88l-.01,12.89Zm32.76-7.22c0-7.37-.14-8.18-3.24-8.62l-2-.29c-.678-.642-.706-1.712-.064-2.389,.066-.07,.138-.133,.214-.191,5.53-.37,11.27-.67,18.27-.67,6.26,0,11.64,1,14.44,2.65,4.27,2.51,6.48,6.19,6.48,10.91,0,6.55-4.42,9.35-7.81,11-.74,.36-.74,.81-.37,1.62,4.87,9.87,7.89,15.39,11.42,18.41,1.401,1.172,3.122,1.893,4.94,2.07,.591,.457,.718,1.298,.29,1.91-1.889,.547-3.856,.774-5.82,.67-6.78,0-11-2.44-14.29-7.74-2.179-3.667-4.097-7.484-5.74-11.42-.54-1.668-2.164-2.74-3.91-2.58-2.58,0-2.72,.15-2.72,1.62v9.06c0,6.78,.44,7.3,3.75,7.89l2,.37c.521,.778,.521,1.792,0,2.57-3.9-.14-7.29-.22-10.83-.22s-6.92,.08-10.75,.22c-.589-.755-.589-1.815,0-2.57l2-.37c3.31-.59,3.75-1.11,3.75-7.89l-.01-26.02Zm10.1,9.35c0,2.58,.22,2.8,4.56,2.8,2.079,.172,4.128-.582,5.6-2.06,1.25-1.25,2.65-3.61,2.65-8,0-6.63-3.9-10.9-9.65-10.9-3,0-3.16,.22-3.16,3.76v14.4Zm51.17,16.58c0,6.92,.44,7.44,3.83,8l2.06,.37c.569,.771,.54,1.831-.07,2.57-4-.14-7.59-.22-11-.22s-7.22,.08-11.2,.22c-.589-.755-.589-1.815,0-2.57l2.06-.37c3.39-.59,3.83-1.11,3.83-8V29.595c0-6.93-.44-7.44-3.83-8l-2.06-.37c-.591-.759-.591-1.821,0-2.58,4,.15,7.66,.22,11.2,.22s7.14-.07,11.12-.22c.591,.759,.591,1.821,0,2.58l-2.06,.37c-3.39,.59-3.83,1.1-3.83,8l-.05,27.11Zm54.05-37.13c.06,3.843,.344,7.68,.85,11.49-.3,.89-2.29,1.18-2.8,.52-2-6.85-6.71-10.54-13.85-10.54-8.18,0-16.95,7-16.95,21.66s8.48,22.54,17.32,22.54,13-6.41,15-11.41c.925-.58,2.139-.359,2.8,.51-.51,5.45-1.76,9.87-2.8,11.56-4,1.11-9.2,2.73-14.95,2.73-7.22,0-14.58-1.69-19.81-5.6-6.099-4.507-9.597-11.72-9.36-19.3-.213-7.535,3.077-14.744,8.91-19.52,5.23-4.35,12.75-6.56,20.41-6.56s13.02,1.78,15.23,1.92h0Zm20.23,31.23c-1.76,0-2,.08-2.43,1.48l-2.87,8.54c-.309,.851-.484,1.745-.52,2.65,0,.45,1,.89,3,1.26l2.21,.37c.44,.51,.58,2.2-.15,2.57-2.58-.14-5.23-.14-8.33-.22-2.5,0-4.2,.22-7.58,.22-.81-.44-.74-2-.22-2.57l2-.23c1.77-.22,3.25-.81,4.5-3.68s2.65-6.48,4.64-11.79l6.7-18c1.7-4.64,2.95-7.22,2.73-9.35,3.53-.82,6.26-4.43,6.41-4.43,.95,0,1.39,.37,1.69,1.48,.59,2.13,1.47,4.86,3.31,10.09l10,28.88c1.55,4.42,2.21,6.11,4.94,6.55l2.8,.45c.44,.36,.59,2.13-.08,2.57-3.53-.14-7.51-.22-11.34-.22s-6.55,.08-10,.22c-.742-.548-.898-1.594-.35-2.336,.062-.085,.133-.163,.21-.234l2.36-.37c1.69-.3,2-.81,2-1.26-.329-1.703-.801-3.376-1.41-5l-2-6.34c-.37-1.18-1-1.33-3.54-1.33l-8.68,.03Zm8.4-3.9c1.7,0,2.06-.22,1.48-2.14l-1.92-6c-1-3.17-2.36-7.15-3-8.69-.59,1.69-2.06,5.67-3.17,9.06l-1.84,5.52c-.66,2-.29,2.21,1.55,2.21l6.9,.04Zm74.45,8.03c0,4.79,0,9.43,.15,11.86-.52,.88-2.58,1.69-4.35,1.69-.07,0-2.5-3.75-6-8l-16.98-21.05c-4.27-5.23-6.7-8.33-8-9.43-.37,.73-.37,2-.37,4.71v14.25c0,6,.3,11.49,1.11,13.48,.66,1.55,2.35,2.07,4.27,2.36l2.06,.3c.515,.779,.515,1.791,0,2.57-4-.14-6.92-.22-9.87-.22-2.72,0-5.45,.08-8.25,.22-.515-.779-.515-1.791,0-2.57l1.25-.23c2-.36,3.46-.88,4-2.43,.81-2,1-7.51,1-13.48V30.255c0-4-.08-5.23-.52-6.26-.59-1.25-1.62-2.13-4.2-2.5l-2.06-.3c-.52-.59-.44-2.36,.29-2.58,3.47,.15,7.15,.22,10.17,.22,2.5,0,4.64-.07,6.19-.22,.73,3.32,5.52,8.92,12.15,16.8l6.19,7.29c3.24,3.83,5.38,6.41,7.07,8.1,.278-1.08,.379-2.198,.3-3.31v-10.17c0-6-.3-11.49-1.11-13.48-.66-1.54-2.28-2.06-4.27-2.35l-2-.3c-.517-.782-.517-1.798,0-2.58,4,.15,6.85,.22,9.87,.22,2.72,0,5.38-.07,8.25-.22,.517,.782,.517,1.798,0,2.58l-1.33,.22c-1.91,.3-3.31,.89-4,2.43-.81,2-1.11,7.52-1.11,13.48l.1,17.61Zm38.07-29.71c0-8.48-.17-9.41-3.74-9.92l-2.29-.34c-.84-.42-.84-2.54,.17-3,6.37-.42,13-.76,21-.76,7.2,0,13.39,1.1,16.62,3.05,4.91,2.89,7.46,7.12,7.46,12.55,0,7.55-5.09,10.77-9,12.72-.85,.43-.85,.94-.42,1.87,5.59,11.36,9.07,17.72,13.14,21.2,1.626,1.375,3.638,2.214,5.76,2.4,.68,.531,.829,1.499,.34,2.21-1.36,.59-4.07,.76-6.7,.76-7.8,0-12.72-2.8-16.45-8.9-2.504-4.226-4.713-8.619-6.61-13.15-.608-1.934-2.481-3.183-4.5-3-3,0-3.14,.16-3.14,1.86v10.47c0,7.8,.51,8.4,4.33,9.07l2.29,.43c.59,.42,.59,2.46,0,3-4.5-.17-8.4-.26-12.47-.26-4.24,0-8,.09-12.38,.26-.68-.51-.68-2.55,0-3l2.29-.43c3.82-.67,4.33-1.27,4.33-9.07l-.03-30.02Zm11.61,10.77c0,3,.26,3.22,5.26,3.22,3.05,0,4.84-.76,6.45-2.37,1.44-1.44,3-4.16,3-9.16,0-7.63-4.5-12.55-11.11-12.55-3.48,0-3.65,.25-3.65,4.32l.05,16.54Zm57.59,20.71c0,6.92,.45,7.44,3.84,8l2.06,.37c.566,.774,.533,1.833-.08,2.57-4-.14-7.59-.22-11.05-.22s-7.22,.08-11.19,.22c-.589-.755-.589-1.815,0-2.57l2.06-.37c3.39-.59,3.83-1.11,3.83-8V29.595c0-6.93-.44-7.44-3.83-8l-2.06-.37c-.591-.759-.591-1.821,0-2.58,4,.15,7.66,.22,11.19,.22s7.15-.07,11.13-.22c.591,.759,.591,1.821,0,2.58l-2.06,.37c-3.39,.59-3.84,1.1-3.84,8v27.11Zm43.6-7.52c-3.76,8.92-5.67,14.74-7.37,18.86-.79,.429-1.682,.633-2.58,.59-.716,.049-1.425-.161-2-.59-.81-2-2.06-5.89-3.09-8.39l-11.93-30c-2.8-7.07-3.17-7.22-5.53-7.8l-2.94-.74c-.569-.785-.443-1.875,.29-2.51,3.76,.08,6.19,.22,10,.22,3.39,0,6.55-.07,11-.22,.59,.45,.51,1.85,.07,2.51l-2.21,.44c-1.32,.3-1.84,.74-1.84,1.4s1.18,3.68,3,8.1l6.48,16.58,2.43,6.19c.59-1.26,1.77-3.76,2.65-6l2.8-6.93c1.84-4.64,5-12.89,5.89-15.39,.373-.843,.622-1.736,.74-2.65,0-.52-.59-.81-2.36-1.26l-2.35-.51c-.59-.59-.59-2.14,.29-2.51,3.46,.15,6.26,.22,9.06,.22,2.51,0,4.72-.07,6.85-.22,.59,.3,.66,2.07,.15,2.51l-1.92,.37c-2.06,.37-3.31,.88-4.27,2.43-1.62,2.43-3.46,6.55-6,12.52l-5.31,12.78Zm36.14-11.19c0,2.06,.08,2.21,2.07,2.21h5.08c3.83,0,4.71-.52,5.45-4.05l.37-1.85c.51-.58,2.36-.58,2.72,.08-.14,2.35-.22,5-.22,7.8s.08,5.46,.22,7.81c-.36,.67-2.21,.74-2.72,.08l-.37-1.84c-.74-3.54-1.62-4.13-5.45-4.13h-5.08c-2,0-2.07,.08-2.07,2.28v8.77c0,3.39,.3,5.75,1.18,7s2.36,1.91,7.74,1.91c6.41,0,8.91-.22,13-8.54,.728-.669,1.86-.621,2.529,.106,.075,.082,.142,.17,.201,.264-.455,4.057-1.499,8.025-3.1,11.78-3.9-.14-11-.22-17-.22h-9.58c-3.54,0-7.15,.08-12.67,.22-.589-.755-.589-1.815,0-2.57l3.46-.52c3.32-.52,3.76-1,3.76-7.74V29.375c0-6.71-.44-7.15-3.76-7.81l-1.84-.37c-.659-.758-.592-1.903,.15-2.58,3.46,.15,7.07,.22,10.6,.22h15.62c4.72,0,8.92-.07,9.87-.22,.08,1.18,.59,6.49,1,11.42-.29,.81-2,1-2.73,.29-.556-2.095-1.502-4.066-2.79-5.81-1.4-1.4-3.61-2.29-7.22-2.29h-5.9c-2.43,0-2.43,.15-2.43,2.88l-.09,12.89Zm32.76-7.22c0-7.37-.15-8.18-3.24-8.62l-2-.29c-.679-.625-.722-1.681-.097-2.36,.075-.081,.158-.155,.247-.22,5.52-.37,11.27-.67,18.27-.67,6.26,0,11.64,1,14.43,2.65,4.28,2.51,6.49,6.19,6.49,10.91,0,6.55-4.42,9.35-7.81,11-.74,.36-.74,.81-.37,1.62,4.86,9.87,7.88,15.39,11.42,18.41,1.396,1.173,3.115,1.895,4.93,2.07,.599,.451,.732,1.297,.3,1.91-1.889,.547-3.856,.773-5.82,.67-6.78,0-11-2.44-14.29-7.74-2.178-3.67-4.099-7.485-5.75-11.42-.533-1.669-2.155-2.743-3.9-2.58-2.58,0-2.73,.15-2.73,1.62v9.06c0,6.78,.44,7.3,3.76,7.89l2,.37c.51,.781,.51,1.789,0,2.57-3.91-.09-7.29-.19-10.84-.19s-6.93,.08-10.76,.22c-.589-.755-.589-1.815,0-2.57l2-.37c3.32-.59,3.76-1.11,3.76-7.89V30.775Zm10.09,9.35c0,2.58,.22,2.8,4.57,2.8,2.079,.172,4.128-.582,5.6-2.06,1.25-1.25,2.65-3.61,2.65-8,0-6.63-3.9-10.9-9.65-10.9-3,0-3.17,.22-3.17,3.76v14.4Zm106.37-27.79c.074,4.426,.408,8.843,1,13.23-.34,1-2.63,1.36-3.22,.59-2.29-7.88-7.72-12.12-15.94-12.12-9.41,0-19.5,8-19.5,24.93s9.75,26,19.92,26,15-7.38,17.3-13.15c1.07-.663,2.469-.403,3.23,.6-.6,6.27-2,11.36-3.23,13.31-4.58,1.27-10.6,3.14-17.21,3.14-8.31,0-16.79-1.95-22.81-6.45-6.11-4.66-10.77-11.7-10.77-22.21,0-10.35,4.41-17.64,10.26-22.47,6-5,14.67-7.55,23.49-7.55,8.66-.05,14.93,1.98,17.48,2.15Zm59.33,30.59c0,16.06-10.76,25.71-26.6,25.71-14.8,0-25.56-9.72-25.56-25.12,0-14.58,10.9-25.86,26.3-25.86s25.86,10.32,25.86,25.27Zm-26.45-21.88c-9.06,0-13.92,8.48-13.92,20.78,0,9,3.17,23.42,15.17,23.42,9.65,0,13.41-9.43,13.41-21.36,0-12.6-5.52-22.84-14.66-22.84Zm46.66,34.18c0,3.47,.29,5.82,1.25,7s2.28,1.84,7.66,1.84c6.7,0,8.76-.22,13.11-8.76,.59-.74,2.29-.44,2.8,.44-.51,4.102-1.577,8.116-3.17,11.93-3.9-.14-11-.22-17-.22h-9.87c-3.38,0-7.07,.08-11.63,.22-.693-.686-.79-1.772-.23-2.57l2.81-.37c3.31-.44,3.75-1,3.75-7.89V29.435c0-6.85-.44-7.51-3.75-7.95l-2.14-.3c-.679-.625-.722-1.681-.097-2.36,.075-.081,.158-.155,.247-.22,3.827,.147,7.493,.22,11,.22,3.54,0,7.23-.07,10.91-.22,.591,.759,.591,1.821,0,2.58l-1.92,.3c-3.31,.51-3.75,1.1-3.75,7.95l.02,25.79Zm44.93,0c0,3.47,.29,5.82,1.25,7s2.28,1.84,7.66,1.84c6.71,0,8.77-.22,13.12-8.76,.58-.74,2.28-.44,2.79,.44-.505,4.103-1.572,8.117-3.17,11.93-3.9-.14-11-.22-17-.22h-9.87c-3.39,0-7.07,.08-11.64,.22-.69-.689-.783-1.774-.22-2.57l2.8-.37c3.31-.44,3.75-1,3.75-7.89V29.435c0-6.85-.44-7.51-3.75-7.95l-2.14-.3c-.679-.625-.722-1.681-.097-2.36,.075-.081,.158-.155,.247-.22,3.827,.147,7.493,.22,11,.22,3.54,0,7.22-.07,10.9-.22,.591,.759,.591,1.821,0,2.58l-1.92,.3c-3.31,.51-3.75,1.1-3.75,7.95l.04,25.79Zm44.91-17.23c0,2.06,.08,2.21,2.07,2.21h5.09c3.83,0,4.71-.52,5.45-4.05l.37-1.85c.51-.58,2.36-.58,2.72,.08-.15,2.35-.22,5-.22,7.8s.07,5.46,.22,7.81c-.36,.67-2.21,.74-2.72,.08l-.37-1.84c-.74-3.54-1.62-4.13-5.45-4.13h-5.08c-2,0-2.07,.08-2.07,2.28v8.77c0,3.39,.3,5.75,1.18,7s2.36,1.91,7.74,1.91c6.41,0,8.91-.22,13-8.54,.728-.669,1.86-.621,2.529,.106,.075,.082,.142,.17,.201,.264-.45,4.058-1.494,8.027-3.1,11.78-3.9-.14-11-.22-17-.22h-9.58c-3.53,0-7.14,.08-12.67,.22-.589-.755-.589-1.815,0-2.57l3.47-.52c3.31-.52,3.75-1,3.75-7.74V29.375c0-6.71-.44-7.15-3.75-7.81l-1.85-.37c-.659-.758-.592-1.903,.15-2.58,3.46,.15,7.07,.22,10.6,.22h15.62c4.72,0,8.91-.07,9.87-.22,.08,1.18,.59,6.49,1,11.42-.29,.81-2,1-2.72,.29-.557-2.098-1.511-4.071-2.81-5.81-1.4-1.4-3.6-2.29-7.21-2.29h-5.9c-2.43,0-2.43,.15-2.43,2.88l-.1,12.89Zm73.72,21.14c0,3.09,.15,4.57,1.55,4.86,.29,.3,.21,1.55-.23,1.77-1.746,.229-3.472,.597-5.16,1.1-4.25,1.09-8.613,1.684-13,1.77-4.961,.13-9.898-.748-14.51-2.58-8.62-3.46-14.52-11.64-14.52-22.24,0-9.21,4.13-17.31,13-22.25,5.332-2.716,11.258-4.06,17.24-3.91,8.17,0,12.23,1.77,14.58,1.77,.22,2.21,.3,7.37,1,11.86-.29,.81-2.28,.89-2.8,.15-2.35-6.92-7-10.39-13.85-10.39-11.71,0-17.38,9.73-17.38,21.37,0,10.53,3.61,16.79,8.4,20,3.011,1.913,6.523,2.887,10.09,2.8,4.2,0,5.08-.81,5.08-5.59v-4.62c0-4-.44-4.42-4-4.93l-3.24-.44c-.712-.586-.815-1.638-.229-2.351,.069-.084,.146-.161,.229-.229,5.23,.14,8.84,.22,12.45,.22s7.15-.08,9.65-.22c.591,.759,.591,1.821,0,2.58l-1.69,.29c-2.21,.37-2.65,1.11-2.65,5.08l-.01,4.13Zm24.13-21.14c0,2.06,.08,2.21,2.07,2.21h5.08c3.83,0,4.71-.52,5.45-4.05l.37-1.85c.51-.58,2.35-.58,2.72,.08-.15,2.35-.22,5-.22,7.8s.07,5.46,.22,7.81c-.37,.67-2.21,.74-2.72,.08l-.37-1.84c-.74-3.54-1.62-4.13-5.45-4.13h-5.08c-2,0-2.07,.08-2.07,2.28v8.77c0,3.39,.3,5.75,1.18,7s2.36,1.91,7.73,1.91c6.41,0,8.92-.22,13-8.54,.728-.669,1.86-.621,2.529,.106,.075,.082,.142,.17,.201,.264-.455,4.057-1.499,8.025-3.1,11.78-3.9-.14-11-.22-17-.22h-9.58c-3.53,0-7.14,.08-12.67,.22-.589-.755-.589-1.815,0-2.57l3.46-.52c3.32-.52,3.76-1,3.76-7.74V29.375c0-6.71-.44-7.15-3.76-7.81l-1.84-.37c-.659-.758-.592-1.903,.15-2.58,3.46,.15,7.07,.22,10.6,.22h15.62c4.72,0,8.91-.07,9.87-.22,.08,1.18,.59,6.49,1,11.42-.29,.81-2,1-2.73,.29-.554-2.098-1.505-4.07-2.8-5.81-1.4-1.4-3.61-2.29-7.22-2.29h-5.89c-2.43,0-2.43,.15-2.43,2.88l-.08,12.89Z" fill="#cd1f40"/><rect x="191.769" y="85.365" width="1026.871" height="2.54" fill="#0f2c4e"/><g><path d="M153.589,109.653l-.028,.116c-.231,.983-.749,2.867-.749,2.867-.834,3.005-1.836,5.845-3.203,9.162l-.134,.141c-5.461,2.621-10.622,3.645-16.666,3.645-11.162,0-21.747-4.387-27.407-12.94-2.27-3.436-3.746-7.544-4.147-12.309-.041-.491-.071-.99-.089-1.494l-.011-.854,.02-.344h-1.157c-1.494,2.674-3.94,4.697-7.027,6.388l-.133,.073,.076,.132c1.485,2.595,3.145,5.512,5.053,8.427h.005c.7,1.069,1.435,2.139,2.206,3.194h1.437l-.177-.239c-.721-.966-1.418-1.964-2.097-2.978h-.002c-1.698-2.545-3.279-5.221-4.8-7.864l-.134-.234,.232-.136c1.903-1.127,3.618-2.495,4.976-4.171l.427-.527,.056,.676c.386,4.722,1.784,8.817,3.934,12.28h.002c5.803,9.327,17.072,14.063,28.758,14.063,6.485,0,11.732-1.127,17.649-3.993l.021-.052c1.804-3.708,3.029-8.071,4.216-12.842l.044-.185h-1.15Zm-35.749,23.093l-1.318-.062c-3.26-.154-6.724-.138-10.012-.676-3.279-.535-6.37-1.619-8.955-4.002l-1.594,.021,.24,.249c2.707,2.799,5.876,4.083,9.302,4.715,4.258,.785,8.815,.731,13.135,.935l.128,.006,.783-3.916h-1.165l-.545,2.729h0Zm-29.318-.671h-28.379v1.141h29.52v-3.807h-1.142v2.666h0Zm-21.76-6.947h-16.308v1.141h16.308v-1.141h0Zm-26.766,0H17.174v1.141h23.962v-3.878h-1.141v2.737h0Zm-4.527-21.649c-.806,2.21-1.651,4.404-2.414,6.63-.304,.887-.583,1.746-.826,2.553h.003c-.42,1.405-.727,2.661-.856,3.649l-.021,.167h1.149l.018-.127c.136-.962,.458-2.239,.912-3.721h0c.208-.678,.444-1.399,.702-2.15,.699-2.037,1.476-4.083,2.102-5.781l.066-.177h13.398v-1.142h-14.196l-.035,.099h0Zm43.589,5.235l.748,.041c2.728,.146,3.589,.35,4.869,2.699h1.285l-.115-.219c-1.041-1.982-2.005-2.863-3.222-3.265-.601-.2-1.257-.28-1.999-.329-.738-.05-1.573-.067-2.545-.138l-.161-.012-.062,13.036h1.141l.062-11.814h0Zm-.98-27.041l-.161-.013v19.683h1.141v-18.444l.305,.037c5.726,.684,9.805,3.597,10.187,8.791l.011,.139h1.143l-.01-.16c-.452-7.003-6.599-9.573-12.616-10.032h0Zm-11.978,2.861c.445,.764,.689,2.023,.804,4.451l.007,.143h1.144l-.007-.157c-.118-2.51-.383-4.019-.962-5.012-.983-1.682-3.907-2.066-6.148-2.247l-.161-.013v1.133l.136,.012c2.2,.203,4.559,.614,5.187,1.69h0Zm-25.035,11.128h-1.538l3.487-9.646,1.471,3.678,.371-.071v-2.074l-1.897-4.74-5.058,13.993h3.163v-1.141h0Zm73.143,1.091c0-12.151,7.121-21.895,19.148-21.895,7.453,0,11.698,4.801,13.004,12.572l.375,2.232h6.083v-14.973h-1.141v13.832h-3.976l-.041-.225c-1.399-7.931-4.884-14.579-14.305-14.579-12.849,0-20.289,10.465-20.289,23.036v.149h1.141v-.149h0Z" fill="#cd163d"/><path d="M68.569,71.844h-.13c-6.685,0-12.989,.051-15.772,.128,.219-1.077,1.01-5.583,.911-14.214v-.062s-1.168-.592-1.168-.592l-.398-.645-.783-.181c.094,9.263,.217,17.207,.218,17.286v.086s.086-.003,.086-.003c.071-.002,7.227-.225,15.022-.342h.042s.479-.681,.479-.681l1.398-.554,.131-.067-.037-.16h0Z" fill="#cd163d"/><path d="M111.815,56.617l.002,.062c.184,6.981,.243,14.52,.274,15.361-.425-.053-4.374-.271-7.078-.271-3.88,0-8.35,.065-9.348,.123l-.005,.271,2.312,.745,.599,1.136c6.086-.057,14.361-.032,14.447-.039l.074-.007,.002-.075c.002-.095,.259-9.557,.37-17.756l.002-.12-1.649,.569h0Z" fill="#cd163d"/><path d="M113.055,11.604c-.074-.002-8.232,.134-17.13,.05l-.203-.002,.143,.146c.588,.597,.805,.902,.978,1.071l.692,1.108,.147-.012c1.592-.257,1.571-.287,1.703-.311,.861-.159,2.76-.386,4.064-.416,3.501-.079,7.882,.427,8.553,.498-.028,.777-.267,7.048-.61,9.255-.012,.07-.021,.168-.03,.309l-.005,.067,.806,.616,.435,.773h.329c.14-6.334,.208-13.001,.21-13.065l.002-.085-.084-.002h0Z" fill="#cd163d"/><path d="M73.537,11.726c-7.046,0-14.492,.132-16.226,.274-.963,.079-2.51,.222-3.387,.222-1.486,0-1.902-.007-1.911-.011l-.485-.052,.01,.13c.007,.097,.641,9.548-.085,11.585-.207,.58-.129,4.625-.021,10.223,.069,3.596,.148,7.672,.172,11.837l.879-.084,.78-1.768,.004-.014v-.015c-.745-13.264,.175-28.665,.255-29.872,1.019,.024,11.437,.016,21.35,.163l.103,.002,2.014-2.619c-1.216-.003-2.259,0-3.451,0h0Z" fill="#cd163d"/><path d="M151.774,106.563l-.033,.078c-3.406,8.176-7.295,15.514-17.32,15.514-10.867,0-22.503-10.207-22.503-25.401,0-11.794,6.803-24.486,21.739-24.486,8.436,0,13.962,5.233,15.56,14.733l.011,.069h1.297v-12.643l-.04-.024c-4.639-2.742-10.275-4.132-16.752-4.132-20.243,0-30.834,13.784-30.834,27.399,0,8.124,3.153,14.946,9.121,19.732,5.429,4.355,12.924,6.753,21.103,6.753,5.93,0,11.034-1.076,15.601-3.29l.028-.013,.012-.03c1.912-4.622,3.326-9.224,4.201-13.674l.013-.066-1.206-.517h0Z" fill="#002a4e"/><path d="M50.7,98.254h-14.867l7.058-19.522,7.809,19.522h0Zm41.471-5.712c0,8.023-7.873,11.713-15.705,11.819v-24.174c.056,0,.112,0,.168,0,7.511,0,15.537,3.246,15.537,12.356h0Zm-.819,11.836l-.251-.439-.323-.451c6.425-2.882,9.417-6.871,9.417-12.548,0-2.977-1.014-5.612-2.934-7.621-3.124-3.27-8.557-4.928-16.147-4.928-.572,0-1.163,.009-1.758,.028l-18.699,.613v1.225l.075,.007c8.359,.746,8.852,2.294,8.852,14.109v23.651c-.034,1.162-.066,2.261-.127,3.224-3.052-1.402-4.151-3.876-5.585-7.756l-16.837-44.847-.091,.109c-1.559,1.857-3.423,3.236-5.538,4.096l-.088,.036,.048,.082c.671,1.159,.121,2.613-.463,4.153-.128,.339-.261,.69-.383,1.042l-4.578,12.436-8.622,22.51c-2.322,5.843-2.947,7.415-9.787,9.26l-.061,.017v1.29h21.073v-1.298l-.07-.011c-.433-.068-.889-.126-1.371-.187-3.233-.411-7.257-.924-7.257-4.92,0-2.805,2.019-8.234,3.493-12.199,.432-1.162,.84-2.261,1.138-3.13h17.28c.268,.721,.552,1.475,.843,2.247,1.882,4.988,4.015,10.641,4.015,13.389,0,3.208-2.749,4.101-5.81,4.801l-.065,.015v1.293h18.438c-.686,3.533-2.726,4.804-8.983,5.639l-.072,.009v1.301h26.95v-1.299l-.072-.011c-5.601-.776-7.916-1.546-9.171-3.052-1.302-1.561-1.363-3.897-1.363-8.235v-12.186c1.261,.209,2.388,.268,3.383,.322,3.197,.169,5.308,.28,7.598,5.033,1.548,3.169,5.526,9.956,10.622,15.283,4.019,4.158,9.406,4.378,16.227,4.657,.746,.03,1.51,.061,2.295,.099l.072,.002,.258-1.295-.081-.016c-12.378-2.551-19.647-15.302-25.489-25.548h0Z" fill="#002a4e"/><path d="M98.778,41.513l-1.139,.995,.628,1.055-1.098,.417-.745,.756v.995l1.157,.656-.059,.518-2.547,.179-.587-2.985-1.198-.894,1.432-.279,2.137-2.407,2.841-.536,.394,.954-1.215,.577h0Zm-4.608,6.148l-1.685-.518-2.706,.119,.117-2.346,.747-1.472,.628-.059,1.097,.239,.47,1.292,.98,.238,.629,2.049-.277,.459h0Zm-5.665-1.572l-.059,1.054-3.117,1.59-.293-2.346,1.216-1.115,1.215-1.411,2.254-.418-1.215,2.646h0Zm-2.783-3.7l2.372-1.174-.177-1.054,.704,.239,2.707-.418,.645-.696,.981-.119-1.451,3.52-4.626,.239-1.726,1.572-.235-.518,.805-1.59h0Zm-.98-5.909l1.918-.418,.513-1.228,1.566,.573-2.372,4.813-2.488,.536,.864-4.277h0Zm-3.176,4.974l-.687-1.054,1.274-2.806,.452-1.829-.117-3.52,.956-1.418,1.298,.603-.687,3.282-.687,3.461-1.802,3.282h0Zm-2.254,8.215l-.746-2.008-3.939-2.448v-3.163l.175-1.113-.863-2.008v-1.292l-2.313-2.228,.705-.518,.217-1.114,1.332,.357,1.157,5.391,.411,.816,3.469,3.878,.453,1.632,1.156,.816,.469,2.586-1.684,.417h0Zm-6.059-5.63l-1.391-.834-1.215,1.115-.628,1.012-.88-1.233-3.058,.459,.353-1.233,.922-.459,.352-.596-.763-.995,.587-1.173,.863,.358v.876l.863-.061,.293-2.049,.469-.816,1.04,2.466v.697l2.588,.637-.393,1.829h0Zm.804-11.258l.352-.536-.528-1.692,.235-.119,.981,1.692,2.136,1.055,.058,2.644,1.844,4.992,.117,1.752-3.41-2.925-1.433-5.927-1.274-.935h.922Zm6.469,.816l.588-2.806,.804,2.346-.235,3.979-1.156,2.169-1.608-1.692-.234-2.066,1.843-1.93h0Zm11.782-.459l.059,2.228,1.332-.476-1.097,3.64-2.607,.638-1.256-.357,1.668-3.92,1.901-1.752h0Zm3.076,5.612l.277-1.114,.98,.357-.099,1.59-2.154,2.687h-1.843l1.039-3.52,.645-.399,1.157,.399h0Zm20.152,9.295l.352-1.055-1.96-.816-.587-2.169,1.449-.518,.393-2.228-.745-1.114,.529-1.59,.058-1.233-1.626-.458-.745-1.651,1.274-1.692-.118-2.067-1.509-.577,.588-.876v-1.59l-2.196-1.115,.862-.815-.529-1.293-1.96-.578-.117-1.947-1.609-.817-1.978,.358-.804,1.334-2.313-.22-.452,.458-1.86-1.394-.058-.715,.352-2.109-1.667-.518,.058-1.471-1.685-.596-1.039,.059-.059-1.174,.687-1.394-.803-.774-.982,.179-.234-1.292-1.961-.875-1.391,.756-2.647,.715-.705-1.054-2.137-.06-.276-.715-1.802-.697-4.567,2.705-.569-.239-2.137,2.347,.352,1.811-1.509,1.769,.059,1.454-1.509,1.113-1.215-1.113-2.413,.596-.41,1.453h-1.04l-.921-1.275-3.822,1.632-1.274-.875-1.844,.697-.51,2.526-1.685,.578-1.725,4.116,1.215,1.453,.276,3.937-1.374,.298-.822,2.925,1.861,.697,.099,2.007-1.374,1.572-.234,1.531h-1.567l-1.04,3.223-1.608,.059-.352,1.632-.804,1.174,.293,2.526h1.491l.805,3.163,2.195,.655,1.743-.357,1.843-2.287,.235-1.591,2.313-.459,.569,1.115-1.55,1.352,.295,2.925,2.195,1.531,.569,2.287,2.765-.476,.763,.119,.235,.697,1.902-1.573,1.45-1.173,.745-2.109-.529-.476-1.039-1.293,.645-2.406-1.567-.935-.51-2.627,1.374-1.888,.922-.876,1.155,.059,5.154,3.98,.511,2.586,2.371,.756,.118,8.512-.863,8.036-2.606,2.508-5.882,.238-2.666,1.054-.293,.417,2.9-.715-.177,1.012-1.626,.995,.717-.092,2.006-.682,.863-1.454,3.587-.06,.687,1.114-1.53,1.191,2.334-.673,.763-1.352,3.117-1.114,3.528,1.233,3.117-.816h2.941l2.196,.417,.587,.578,2.766,.06,.235-.357-2.9-.221-.394-.595-2.841-.578-.335-.715-4.056-.339-1.157-5.451,.411-3.461,.352-1.233-.981-5.927,.804-1.989,.922-1.055,.864-1.93,2.547-.655,2.019-.059,3.352,1.71,.805,3.043,2.724,2.347-1.215,.757-.177,.875,.646,1.651,2.353,.577,2.549-.935,.41-1.989,1.157-.476,1.097,.416,1.668-.577,.981-1.412,2.488,.059,2.549-1.471,1.315-2.049-.453-1.412,.805-1.173-.058-1.412h0Z" fill="#002a4e" fill-rule="evenodd"/></g></svg>