<?xml version="1.0" encoding="utf-8"?>
<!-- Generator: Adobe Illustrator 28.0.0, SVG Export Plug-In . SVG Version: 6.00 Build 0)  -->
<svg version="1.1" id="Layer_1" xmlns="http://www.w3.org/2000/svg" xmlns:xlink="http://www.w3.org/1999/xlink" x="0px" y="0px"
	 viewBox="0 0 58.1 58.4" style="enable-background:new 0 0 58.1 58.4;" xml:space="preserve">
<style type="text/css">
	.st0{fill-rule:evenodd;clip-rule:evenodd;fill:#FFFFFF;}
	.st1{fill-rule:evenodd;clip-rule:evenodd;fill:url(#SVGID_1_);}
	.st2{fill-rule:evenodd;clip-rule:evenodd;fill:url(#SVGID_00000075844066331463289540000017969705807843081146_);}
	.st3{fill-rule:evenodd;clip-rule:evenodd;fill:#231F20;}
	.st4{fill-rule:evenodd;clip-rule:evenodd;fill:url(#SVGID_00000023276596963086734610000010994129069942791564_);}
	.st5{fill-rule:evenodd;clip-rule:evenodd;fill:#FFFFFF;stroke:#FFFFFF;stroke-width:8.000000e-02;}
	.st6{fill:#231F20;}
</style>
<g>
	<g>
		<path class="st0" d="M29,50.7c11.7,0,21.2-9.6,21.2-21.3S40.7,7.9,29,7.9S7.8,17.5,7.8,29.3S17.4,50.7,29,50.7z"/>
		
			<linearGradient id="SVGID_1_" gradientUnits="userSpaceOnUse" x1="5.04" y1="1055.6324" x2="20.07" y2="1055.6324" gradientTransform="matrix(1 0 0 1 0 -1020.34)">
			<stop  offset="0" style="stop-color:#B68400"/>
			<stop  offset="1" style="stop-color:#FFFFFB"/>
		</linearGradient>
		<path class="st1" d="M22.7,34.2c-2,0.2,2.6-0.7,1.5,0c-6.1,0.7-12.2,1.6-15.1,2.7c-0.3-0.8-0.5-1.7-0.8-2.5
			C13.5,33.4,24.9,33.9,22.7,34.2L22.7,34.2z"/>
		
			<linearGradient id="SVGID_00000113352046377338738070000009767055619653288630_" gradientUnits="userSpaceOnUse" x1="11.42" y1="1062.7588" x2="38.2376" y2="1062.7588" gradientTransform="matrix(1 0 0 1 0 -1020.34)">
			<stop  offset="0" style="stop-color:#B68400"/>
			<stop  offset="1" style="stop-color:#FFFFFB"/>
		</linearGradient>
		<path style="fill-rule:evenodd;clip-rule:evenodd;fill:url(#SVGID_00000113352046377338738070000009767055619653288630_);" d="
			M11.4,41.3c5.9-3,11-4,16.8-5.2c0.7,1.1,8.3-2.4,9.9-1.1c1.7,6.8-11.8,7.1-14.2,15.1c-1.5-0.3-3.1-0.8-4.6-1.6
			C16,46.9,13.4,44.3,11.4,41.3L11.4,41.3L11.4,41.3z"/>
		<path class="st3" d="M29,50.8c-1.9-0.1-3.9-0.2-5.6-0.8c0-5,14.2-14,14.2-14.2c0-2.4,3.1-2.2,4.8-2.3h7.5
			c-0.1,0.4-0.1,0.5-0.2,0.8c-9.8-0.2-3.7,1.6-0.5,1.8c0,0.1-0.1,0.2-0.1,0.3c-0.5,1.3-1,2.6-1.7,3.8c-0.8,1.1-1.6,2.2-2.2,2.8
			c-0.1,0.3-0.8,1-1,1.2c-4.2,3.8-8,5.7-13.6,6.4C30.1,50.7,29.6,50.8,29,50.8L29,50.8L29,50.8z"/>
		<path class="st3" d="M9,36.5c1.8-1.4,13.1-2.4,15.3-2.6c2.7-1.6,4.6-1.8,7.7-2.1h18.1c0,0.4,0,0.3-0.1,0.6
			c-0.1,0.1-8.8,0-12.5,0.1c-2.6,0.3-4.3,0.3-6.4,1.7c-0.9,1.7-1.7,1.3-3.4,2c-2.9,0.7-14.5,5.8-15.9,5.8C10.7,40.3,9.7,38.5,9,36.5
			L9,36.5L9,36.5z"/>
		<path class="st3" d="M8,31.7l13.8-0.1c0.1,0.1,0.1,0.1,0.2,0.1V32c-0.9,0.3-1.6,0.5-2.4,1c-3.9,0-7.4,0.4-11.2,0.9
			C8.2,33.2,8,32.5,8,31.7L8,31.7L8,31.7z"/>
		<path class="st3" d="M16,46.4c-0.9-0.7-1.6-1.5-2.4-2.3c3.1-2.2,6.7-3.8,10.2-5.3c2.9-1,5.6-2.1,8.5-2.9c1.4-1.8,2.2-2.3,4.6-2.3
			c0,0,0.1,0,0,0.1c-0.6,0.6-1.8,0.3-2.3,1.5c-0.1,0.3-0.2,0.7,0,1v0.1c-0.7,0.5-2.8,0.5-3.2,1C26.3,39,19.7,42.3,16,46.4
			C16.1,46.4,16,46.4,16,46.4z"/>
		<path class="st3" d="M50.2,30.8H7.8c-0.1-0.5-0.1-1.1-0.1-1.6C7.8,17.3,17.3,7.6,29,7.6s21.3,9.6,21.3,21.5
			C50.3,29.7,50.3,30.2,50.2,30.8z"/>
		
			<linearGradient id="SVGID_00000060030626429276348250000013396537427136318102_" gradientUnits="userSpaceOnUse" x1="28.1542" y1="1029.7598" x2="29.2142" y2="1049.9697" gradientTransform="matrix(1 0 0 1 0 -1020.34)">
			<stop  offset="0" style="stop-color:#B68400"/>
			<stop  offset="1" style="stop-color:#FFFFFB"/>
		</linearGradient>
		<path style="fill-rule:evenodd;clip-rule:evenodd;fill:url(#SVGID_00000060030626429276348250000013396537427136318102_);" d="
			M47,29c-3-0.6-7.2-2.5-9.3-4.6c-0.9-1.4-0.7-1.3-2-1.6c-1.2-0.9-0.2-2.5-1.8-2.9c-5.4-0.1-10.2,0.6-15.5,1.7
			c-0.6,0.4-2.2,0.1-2.8,0.7c-0.3,1.6-1,1.9-2.3,2.9c-1.9,1-2.2,1.2-2.3,1.2c0.3-1.9,0.8-3.7,1.6-5.4c0.4-0.8,0.9-1.6,1.4-2.4
			c2.4-3.4,5.5-5.7,9.1-7c1.8-0.6,3.9-1,5.9-1c10,0,18.2,8.2,18.3,18.4L47,29L47,29L47,29z"/>
		<path class="st0" d="M29.8,20.1l4.2-0.1c0.8,0.3,0.8,0.5,1,1.5c0,0.3,0.3,1.2,0.7,1.3c0.5,0.1,0.7,0.1,1,0.3
			c2-0.8,3.1-2.9,3.1-4.8c0-2.9-2.3-5.3-5.2-5.3s-5.1,2.4-5.1,5.3C29.4,18.8,29.6,19.5,29.8,20.1L29.8,20.1L29.8,20.1z"/>
		<path class="st5" d="M10.2,26.6L9,27.1c1-10.4,9.6-18.5,20-18.5c11.1,0,20.1,9.2,20.1,20.5H48V29c0-10.6-8.5-19.2-19-19.2
			C19.2,9.8,11.1,16.9,10.2,26.6L10.2,26.6z"/>
	</g>
	<g>
		<g>
			<path class="st3" d="M3.9,34.4l-3.3,0.5l-0.2-1.6l0.4-0.1L1,34.4l1-0.2l-0.2-1.5l0.4-0.1l0.2,1.6L3.5,34l-0.2-1.7
				c0,0,0-0.1,0-0.1L3.6,32c0,0.1,0,0.2,0,0.2L3.9,34.4L3.9,34.4L3.9,34.4z M0.4,33.3l-0.1-0.6c0-0.4-0.1-0.7,0-0.8
				c-0.1-0.3,0.1-0.6,0.3-0.7c0.1,0,0.2-0.1,0.4-0.2c0.2,0,0.4,0,0.5,0.1c0.1,0,0.2,0.1,0.2,0.2c0-0.2,0.1-0.3,0.2-0.4
				c0.1-0.1,0.3-0.2,0.5-0.2c0.3-0.1,0.5,0,0.7,0.1c0.1,0.1,0.1,0.2,0.2,0.3c0,0.1,0.1,0.2,0.1,0.5c0,0.1,0.1,0.2,0.1,0.4l-0.4,0.1
				c0-0.3-0.1-0.4-0.1-0.6c-0.1-0.2-0.1-0.2-0.2-0.3c0-0.1-0.2-0.1-0.4,0c-0.2,0-0.3,0.1-0.4,0.2c0,0.1-0.1,0.2,0,0.3
				c0,0.1,0,0.4,0.1,0.8v0.1l-0.4,0.1l0-0.3c0-0.3,0-0.5-0.1-0.6s-0.1-0.2-0.1-0.2c-0.1-0.1-0.3-0.2-0.5-0.2
				c-0.2,0.1-0.3,0.1-0.4,0.2c-0.1,0,0,0.1-0.1,0.2c0,0.1,0,0.3,0.1,0.7l0.1,0.5L0.4,33.3L0.4,33.3L0.4,33.3z"/>
			<path class="st3" d="M0,29.8l0-0.4l1.6,0.1c0.5,0,0.8,0,0.8,0c0.1,0,0.3,0,0.3-0.1c0.1,0,0.1-0.1,0.1-0.2c0-0.2,0.1-0.6,0.1-1
				c0-0.6,0.1-1,0.1-1.2C3,26.8,3,26.7,3,26.6c-0.1,0-0.2-0.1-0.3-0.1c-0.2,0-0.4-0.1-0.8-0.1l-1.6-0.1l0-0.4L1.9,26
				c0.4,0,0.7,0.1,0.9,0.1c0.3,0.1,0.5,0.2,0.6,0.4c0,0.1,0.1,0.2,0.1,0.4c0,0.2,0,0.5,0,1.2c0,0.6,0,0.9-0.1,1c0,0.1,0,0.2-0.1,0.4
				c0,0.2-0.2,0.4-0.5,0.5c-0.1,0-0.2,0.1-0.3,0.1c-0.1,0-0.4,0-0.9,0L0,29.8L0,29.8L0,29.8z"/>
			<polygon class="st3" points="0.3,25 1.1,21.3 1.5,21.4 1.1,23 4,23.6 3.9,24 1,23.5 0.7,25 			"/>
			<polygon class="st3" points="1.3,20.7 2.6,17.1 3,17.3 2.4,18.8 5.2,19.8 5,20.2 2.3,19.2 1.7,20.8 			"/>
			<polygon class="st3" points="5.9,17.8 3.1,16.1 4.7,13.3 5,13.5 3.6,15.9 4.5,16.5 5.9,14.1 6.2,14.3 4.9,16.6 5.8,17.2 
				7.3,14.8 7.6,15 			"/>
			<polygon class="st3" points="8.1,12 9.4,10.5 9.7,10.8 8.4,12.3 			"/>
			<path class="st3" d="M12.9,6.9l1.8-1.2c0.3,0.4,0.5,0.7,0.5,0.8c0.1,0.2,0.1,0.3,0.1,0.4c0,0.1-0.1,0.2-0.2,0.4
				c-0.2,0.1-0.5,0.4-1.1,0.8c-0.6,0.4-1,0.7-1.2,0.8c-0.2,0.1-0.4,0.1-0.6,0c-0.2-0.1-0.5-0.4-0.9-1c-0.3-0.4-0.5-0.7-0.5-0.9
				c-0.1-0.2-0.1-0.4,0.1-0.7c0.1-0.2,0.5-0.5,1-0.9c0.2-0.2,0.5-0.2,0.7-0.4c0.2-0.2,0.4-0.2,0.5-0.3c0.2-0.1,0.4-0.1,0.6-0.1
				c0.1,0,0.2,0.1,0.3,0.2c0.1,0.1,0.2,0.2,0.3,0.4L14,5.5c-0.1-0.2-0.3-0.3-0.4-0.3c-0.1,0-0.1,0.1-0.2,0.1c-0.1,0-0.2,0.1-0.4,0.1
				c-0.2,0.1-0.4,0.3-0.7,0.5c-0.4,0.3-0.6,0.5-0.8,0.6c-0.2,0.1-0.2,0.2-0.3,0.3c0,0.2,0,0.2,0.1,0.4c0.1,0.1,0.2,0.3,0.4,0.6
				c0.3,0.4,0.5,0.6,0.6,0.7c0.1,0.1,0.1,0.1,0.2,0.1c0.1,0,0.2,0,0.3,0C13,8.4,13.4,8.2,14,7.7c0.3-0.2,0.6-0.4,0.7-0.6
				c0.2-0.1,0.2-0.2,0.2-0.4c0-0.1-0.1-0.3-0.3-0.6l-1.5,1L12.9,6.9L12.9,6.9L12.9,6.9z"/>
			<polygon class="st3" points="14.8,3.8 15.2,3.6 16.5,6.2 18.8,5.1 19,5.4 16.2,6.8 			"/>
			<polygon class="st3" points="19.4,5.2 18.3,2.1 21.4,1.1 21.5,1.4 18.9,2.3 19.2,3.3 21.8,2.4 21.9,2.7 19.3,3.7 19.7,4.8 
				22.4,3.8 22.5,4.2 			"/>
			<polygon class="st3" points="22.6,0.7 23.3,0.6 26.5,3.1 26.6,3.2 26.3,0.2 26.7,0.2 27.2,3.5 26.4,3.6 23.2,1 23,1.1 23.4,3.9 
				23,4 			"/>
			<polygon class="st3" points="28.1,0 28.8,0 31.5,3.1 31.6,3.1 31.8,0.2 32.2,0.2 32.1,3.6 31.3,3.5 28.6,0.4 28.5,0.4 28.3,3.3 
				27.9,3.3 			"/>
			<path class="st3" d="M38.6,4L39,4.1c-0.1,0.3-0.2,0.5-0.2,0.6C38.7,4.9,38.5,5,38.2,5C38,4.9,37.6,4.9,37,4.7
				c-0.7-0.2-1.2-0.4-1.4-0.5c-0.2-0.1-0.3-0.3-0.4-0.5c0-0.2,0-0.6,0.2-1.1c0.2-0.5,0.3-0.9,0.4-1.1c0.2-0.2,0.4-0.4,0.7-0.3
				s0.8,0.2,1.3,0.4c0.5,0.1,0.9,0.2,1.2,0.5c0.1,0,0.2,0.1,0.3,0.2c0,0.1,0.1,0.2,0.1,0.3c0,0.1,0,0.3-0.1,0.5L38.9,3
				c0-0.1,0-0.1,0-0.1c0-0.1,0-0.3,0.1-0.4c0-0.1,0-0.1-0.2-0.2s-0.5-0.2-1.1-0.4c-0.4-0.1-0.7-0.2-0.9-0.3c-0.2,0-0.4-0.1-0.4,0
				s-0.2,0.1-0.2,0.3C36.1,2,36.1,2.2,36,2.5c0,0.1-0.1,0.3-0.1,0.5s-0.1,0.3-0.1,0.5c0,0.1,0,0.2,0,0.3c0,0.1,0.1,0.2,0.2,0.2
				c0.2,0.1,0.6,0.3,1,0.4c0.2,0.1,0.3,0.1,0.6,0.2c0.2,0.1,0.4,0.1,0.4,0.1c0.1,0,0.2,0,0.3,0c0.1,0,0.1-0.1,0.2-0.1
				C38.4,4.4,38.5,4.2,38.6,4L38.6,4L38.6,4z"/>
			<path class="st3" d="M43.8,4.2C44,4.3,44.1,4.4,44,4.5c0,0.1,0.1,0.2,0,0.3C44.1,5,44,5,44,5.2c0,0.2-0.2,0.4-0.3,0.8
				c-0.2,0.3-0.3,0.6-0.5,0.7S42.9,6.9,42.7,7c-0.1,0.1-0.3,0-0.5,0c-0.2-0.1-0.5-0.3-1-0.5c-0.2-0.1-0.5-0.2-0.8-0.4
				c-0.2-0.1-0.4-0.3-0.5-0.3c-0.1,0-0.1-0.1-0.2-0.1l0.5-0.2l0.1,0C40.7,5.7,41,5.9,41.3,6c0.5,0.3,0.8,0.4,1,0.5
				c0.2,0.1,0.4,0.1,0.4-0.1c0.1-0.2,0.3-0.4,0.5-0.7c0.2-0.4,0.3-0.6,0.4-0.8c0-0.2,0-0.3-0.2-0.5c0-0.1-0.1,0-0.1-0.1L43.8,4.2
				L43.8,4.2z M42.7,3.5c0.5,0.3,0.8,0.5,1,0.6l0,0.1l-0.4,0.2c-0.1,0-0.2-0.1-0.3-0.2C43,4.1,42.7,4,42.3,3.7
				c-0.4-0.2-0.7-0.3-0.9-0.4c-0.2-0.1-0.2,0-0.3,0c-0.1,0-0.2,0.1-0.3,0.2c-0.1,0.1-0.2,0.4-0.4,0.7c-0.2,0.3-0.3,0.5-0.3,0.7
				C40,5,40,5.1,40,5.2c0,0.1,0,0.1,0.1,0.2c0,0.1,0.1,0.1,0.2,0.2l-0.5,0.2c0-0.1-0.1-0.1-0.1-0.2c-0.1-0.1-0.2-0.2-0.2-0.3
				c0-0.1,0-0.3,0.1-0.5c0.1-0.2,0.2-0.4,0.4-0.8c0.3-0.5,0.5-0.7,0.7-1c0.2-0.2,0.5-0.2,0.7-0.1C41.7,3,42.1,3.2,42.7,3.5z"/>
			<polygon class="st3" points="45.5,5.1 46.2,5.7 45.8,9 49,7.9 49.7,8.5 47.6,11.1 47.2,10.8 49,8.6 48.9,8.5 45.7,9.5 45.3,9.2 
				45.8,5.8 45.6,5.7 43.8,7.9 43.4,7.7 			"/>
			<polygon class="st3" points="50.8,9.7 51.3,10.4 50.1,13.5 53.4,13.2 53.9,13.9 51.3,15.9 51,15.6 53.4,13.9 53.2,13.7 49.8,14 
				49.6,13.6 50.8,10.4 50.7,10.3 48.4,12 48.1,11.6 			"/>
			<path class="st3" d="M54.5,15.1l0.2,0.4l-1.5,0.7c-0.4,0.2-0.7,0.3-0.8,0.4c-0.1,0.1-0.2,0.2-0.2,0.2c0,0.1,0,0.2,0.1,0.3
				c0.1,0.2,0.2,0.5,0.4,0.9c0.2,0.5,0.4,0.9,0.5,1c0,0.1,0.2,0.2,0.2,0.2c0.1,0,0.1,0,0.3-0.1c0.1,0,0.3-0.2,0.7-0.4l1.5-0.7
				l0.2,0.4l-1.5,0.7c-0.4,0.2-0.7,0.3-0.8,0.3c-0.3,0.1-0.5,0.1-0.7,0c-0.1,0-0.2-0.2-0.3-0.3c-0.1-0.1-0.3-0.5-0.6-1
				c-0.2-0.5-0.3-0.8-0.4-1c0-0.1-0.1-0.2-0.1-0.4c0-0.2,0-0.4,0.1-0.5c0.1-0.1,0.2-0.2,0.3-0.3c0.1-0.1,0.3-0.2,0.8-0.4L54.5,15.1z
				"/>
			<polygon class="st3" points="56.7,19.9 56.8,20.6 54.7,24.2 54.8,24.3 57.6,23.5 57.7,24 54.5,24.8 54.2,24.1 56.3,20.5 
				56.3,20.5 53.5,21.2 53.4,20.7 			"/>
			<polygon class="st3" points="57.8,25 57.8,25.5 54.5,26 54.5,25.6 			"/>
			<polygon class="st3" points="58,26.4 58.1,30.2 57.7,30.1 57.7,28.5 54.8,28.5 54.7,28.1 57.6,28.1 57.7,26.4 			"/>
			<polygon class="st3" points="58,31 57.9,31.6 56.2,33 57.5,34.7 57.5,35.4 55.8,33.2 54.5,33 54.5,32.6 55.8,32.8 			"/>
		</g>
		<path class="st6" d="M4.6,41l-0.3,0.2c-1.1,0.7-1.2,1.1-0.6,2.2l0.7,1.1c0.2,0.4,0.5,0.7,0.8,0.8c0.2,0.1,0.5,0,0.7-0.2l0,0
			l-0.2-0.4l0,0c-0.2,0.1-0.3,0.1-0.4,0.1c-0.2,0-0.3-0.2-0.5-0.5l-0.7-1.1c-0.2-0.4-0.3-0.6-0.3-0.8c0-0.2,0.3-0.4,0.8-0.7l0.3-0.2
			C5.7,41,5.9,41,6.4,41.8L7,42.9c0.2,0.3,0.2,0.5,0.2,0.7c0,0.1-0.1,0.2-0.3,0.3l0,0l0.2,0.4l0,0c0.3-0.2,0.4-0.3,0.5-0.6
			c0.1-0.3,0-0.6-0.2-1l-0.6-1C6.2,40.6,5.7,40.4,4.6,41L4.6,41L4.6,41z"/>
		<path d="M9.8,45.8l-0.4-0.4c-0.4-0.5-0.8-0.9-1.2-0.9c-0.4,0-0.8,0.2-1.2,0.6l-0.2,0.2c-1,0.8-1,1.3-0.1,2.4L7,48.1
			C7.5,48.6,7.8,49,8.2,49c0.4,0,0.7-0.2,1.2-0.6l0.2-0.2c0.4-0.4,0.8-0.7,0.8-1.1C10.5,46.8,10.2,46.4,9.8,45.8L9.8,45.8L9.8,45.8z
			 M9.4,47.9l-0.2,0.2c-0.8,0.7-1,0.7-1.7-0.3L7,47.4c-0.8-0.9-0.8-1.1,0-1.8l0.2-0.2C7.7,45.1,8,45,8.2,45c0.2,0,0.5,0.3,0.9,0.8
			l0.4,0.4c0.4,0.5,0.6,0.8,0.6,1C10,47.4,9.8,47.6,9.4,47.9L9.4,47.9L9.4,47.9z"/>
		<path class="st6" d="M8.9,50.1l2.3,2l0.3-0.3c0,0-1.9-1.6-1.9-1.7c0.1-0.1,2-2.3,2-2.3l-0.3-0.3L8.9,50.1z"/>
		<path class="st6" d="M11.9,52.7l2.5,1.7l0.2-0.4c0,0-2.1-1.4-2.1-1.4c0.1-0.1,1.7-2.6,1.7-2.6l-0.4-0.2L11.9,52.7L11.9,52.7
			L11.9,52.7z"/>
		<path class="st6" d="M15.2,54.8l2.8,1.4l0.2-0.4c0,0-2.3-1.1-2.4-1.2c0-0.1,0.5-1,0.5-1c0.1,0,2.4,1.1,2.4,1.1l0.2-0.4
			c0,0-2.3-1.1-2.4-1.1c0-0.1,0.4-0.8,0.4-0.9c0.1,0,2.4,1.2,2.4,1.2l0.2-0.4l-2.8-1.4L15.2,54.8L15.2,54.8L15.2,54.8z"/>
		<path class="st6" d="M20.2,53.6c-0.3,0.2-0.5,0.5-0.7,1.1L19.4,55c-0.2,0.7-0.2,1.1-0.1,1.3c0.1,0.3,0.5,0.5,1.1,0.7l1.2,0.4
			c0.5,0.2,0.8,0.2,1,0c0.3-0.2,0.5-0.6,0.7-1.3v0l-2.1-0.6l-0.1,0.4c0,0,1.5,0.5,1.6,0.5c-0.1,0.3-0.2,0.5-0.4,0.6
			c-0.1,0.1-0.3,0.1-0.7,0l-1.2-0.4c-0.9-0.3-1-0.5-0.7-1.4l0.1-0.3c0.1-0.5,0.3-0.8,0.5-0.9c0.2-0.1,0.5-0.1,1,0.1l1.2,0.3
			c0.7,0.2,0.7,0.5,0.6,0.8v0l0.4,0.1v0c0.1-0.3,0.1-0.5,0-0.8c-0.1-0.3-0.4-0.5-0.9-0.6l-1.1-0.3C20.9,53.4,20.5,53.4,20.2,53.6
			L20.2,53.6z"/>
		<path class="st6" d="M23.8,57.9l3.1,0.4l0.1-0.5c0,0-2.6-0.3-2.7-0.4c0-0.1,0.1-1,0.1-1.1c0.1,0,2.6,0.3,2.6,0.3l0.1-0.5
			c0,0-2.5-0.3-2.6-0.3c0-0.1,0.1-0.9,0.1-1c0.1,0,2.7,0.4,2.7,0.4l0.1-0.5l-3.1-0.4L23.8,57.9L23.8,57.9L23.8,57.9z"/>
		<path d="M34.6,56.3l0-0.3c-0.2-1.2-0.6-1.6-1.8-1.4l-2.3,0.3l0.4,3.5l2.4-0.3C34.5,58,34.8,57.6,34.6,56.3L34.6,56.3L34.6,56.3z
			 M34.1,57.4c-0.1,0.2-0.4,0.2-0.8,0.3c0,0-1.9,0.2-2,0.2c0-0.1-0.3-2.5-0.3-2.6c0.1,0,1.9-0.2,1.9-0.2c1-0.1,1.2,0,1.3,1l0,0.3
			c0,0.2,0,0.4,0,0.5C34.2,57.1,34.2,57.3,34.1,57.4z"/>
		<path class="st6" d="M35.1,54.2l0.8,3.4l0.4-0.1l-0.8-3.4L35.1,54.2L35.1,54.2L35.1,54.2z"/>
		<path class="st6" d="M39,53l-1.7,0.6c-0.7,0.3-0.9,0.7-0.7,1.3c0.2,0.7,0.6,0.8,1.6,0.4l1.1-0.4c0.9-0.3,1.1-0.2,1.2,0.1
			c0.1,0.4,0,0.6-0.5,0.8l-1.5,0.6c-0.7,0.2-0.9,0-1-0.2l0,0l-0.4,0.2l0,0c0.2,0.6,0.7,0.8,1.5,0.6l1.7-0.6c0.8-0.3,1-0.7,0.8-1.4
			c-0.3-0.7-0.7-0.8-1.9-0.4l-1,0.3c-0.8,0.3-1,0.2-1.1-0.1c-0.1-0.3-0.1-0.5,0.4-0.7l1.6-0.6c0.7-0.2,0.9,0,1,0.2l0,0l0.4-0.2l0,0
			c-0.1-0.3-0.3-0.5-0.5-0.6C39.7,52.8,39.4,52.8,39,53L39,53L39,53z"/>
		<path class="st6" d="M40.3,52.5l0.2,0.4c0,0,1.4-0.8,1.5-0.8c0,0.1,1.5,2.7,1.5,2.7l0.4-0.2c0,0-1.5-2.6-1.5-2.7
			c0.1,0,1.5-0.8,1.5-0.8l-0.2-0.4L40.3,52.5C40.3,52.5,40.3,52.5,40.3,52.5z"/>
		<path d="M48.4,49.9c-0.4-0.5-0.7-0.5-0.9-0.4c0,0,0-0.1,0-0.2c0-0.2-0.1-0.3-0.2-0.5c-0.4-0.5-0.9-0.5-1.5,0l-2,1.6l2.2,2.8
			l0.4-0.3c0,0-0.9-1.2-1-1.2c0.1-0.1,1.8-1.4,1.8-1.4c0.2-0.2,0.4-0.3,0.5-0.3c0.1,0,0.2,0.1,0.3,0.2l0.7,0.8l0.4-0.3L48.4,49.9
			L48.4,49.9L48.4,49.9z M46.7,50c0,0-1.6,1.3-1.7,1.3c0-0.1-0.5-0.7-0.6-0.8c0.1-0.1,1.7-1.4,1.7-1.4c0.3-0.3,0.6-0.3,0.8,0
			c0.1,0.1,0.1,0.2,0.1,0.3C47.1,49.6,47,49.8,46.7,50L46.7,50L46.7,50z"/>
		<path class="st6" d="M47.3,47.5l2.5,2.5l0.3-0.3l-2.5-2.5L47.3,47.5z"/>
		<path class="st6" d="M50.8,43.8c-0.3,0-0.6,0.2-0.9,0.6l-0.7,0.9c-0.8,1-0.7,1.5,0.3,2.3l0.2,0.2c1,0.8,1.5,0.8,2.2-0.2l0.8-1
			c0.5-0.7,0.5-1.2,0-1.6l0,0l-0.3,0.4l0,0c0.3,0.2,0.4,0.5-0.1,1l-0.8,1c-0.3,0.3-0.5,0.5-0.7,0.5s-0.5-0.1-0.9-0.5l-0.2-0.2
			c-0.8-0.6-0.8-0.9-0.2-1.6l0.8-1c0.5-0.6,0.7-0.5,1-0.3l0,0l0.3-0.4l0,0C51.3,43.9,51,43.8,50.8,43.8L50.8,43.8L50.8,43.8z"/>
		<path class="st6" d="M50.8,43.3l0.4,0.2c0,0,0.8-1.4,0.8-1.5c0.1,0,2.7,1.5,2.7,1.5l0.2-0.4c0,0-2.6-1.5-2.7-1.5
			c0-0.1,0.8-1.5,0.8-1.5L52.7,40L50.8,43.3L50.8,43.3L50.8,43.3z"/>
	</g>
</g>
</svg>
