<?xml version="1.0" encoding="UTF-8"?><svg id="Layer_1" xmlns="http://www.w3.org/2000/svg" viewBox="0 0 500 172.71"><defs><style>.cls-1{fill:#f15a25;}.cls-1,.cls-2{stroke-width:0px;}.cls-2{fill:#004371;}</style></defs><path class="cls-2" d="m124.47,119.8c-8.97,9.44-21.64,15.35-35.69,15.35-27.19,0-49.21-22.05-49.21-49.21,0-13.62,5.53-25.94,14.47-34.85-13.3-3.36-24.67-7.6-32.87-17.94-5.14,6.32-9.29,13.53-12.28,21.55-7.6,22.61,5.73,38.24,5.73,38.24-4.49-1.81-8.13-3.89-11.09-6.17.19,23.76,16.51,35.38,17.47,36.06-4.27-.93-7.94-2.15-11.09-3.52,12.39,30.18,41.73,49.11,77.89,49.11,26.32,0,47.12-9.97,60.82-25.88l-24.17-22.77Z"/><path class="cls-2" d="m148.65,29.3c-13.72-15.93-34.51-25.88-60.84-25.88-17.58,0-33.54,4.49-46.73,12.55,12.76,7.21,22.47,9.4,34.41,12.08,5.77,1.29,12.31,2.76,19.77,4.96,14.64,4.33,24.01,11.53,29.21,19.06l24.18-22.76Z"/><path class="cls-1" d="m62.34,53.08c-9.42,7.71-15.44,19.42-15.44,32.54,0,23.23,18.83,42.06,42.06,42.06,11.84,0,22.53-4.89,30.18-12.77l-11.34-10.63c-4.81,4.85-11.47,7.86-18.84,7.86-14.65,0-26.53-11.88-26.53-26.53,0-13.88,10.67-25.23,24.24-26.39-3.28-.97-6.68-1.86-10.05-2.74-4.45-1.16-13.63-3.3-14.29-3.41"/><path class="cls-1" d="m123.16,90.33c.46-.82,1.55-2.84,2.62-5.27.64-1.46,1.55-3.68,1.87-4.76.15-.5.4-.54.69-.2.43.5,4.35,5.06,5.7,8.59,1.25,3.26.69,7.06-3.02,11.45-.31.42-.92.2-.81-.41.77-4.11-.82-5.39-6.94-8.87-.13-.07-.26-.29-.12-.52"/><path class="cls-1" d="m93.68,38.22c-29.41-8.7-42.52-5.21-77.13-32.5-.19-.15-.45-.13-.65-.05-.27.11-.4.43-.34.72,7.69,37.17,30.51,36.55,62.4,44.84,12.45,3.23,23.97,6.31,30.96,12.7,6.22,5.69,9.71,13.04,8.52,23.37-.07.59.71.84,1,.32,1.89-3.44,5.01-9.97,5.79-15.92,1.29-9.71-4.23-25.7-30.56-33.48"/><path class="cls-1" d="m107.08,85.95c-7.23,4.51-15.85,1.6-19.64-4.32-3.73-5.79-3.04-13.31,2.1-18.26,1.88-1.82,3.26-2.1,5.11-1.47,2.63.91,4.82,1.97,6.67,3.23-3.51,1.32-5.48,5.07-5.04,9.52.5,5.17,5.76,7.86,9.68,7.36,2.44-.31,4.45-1.82,5.64-3.91.06.25.12.5.16.75.31,2.38-1.79,5.32-4.67,7.11"/><path class="cls-1" d="m236.14,139.95c7.62,0,13.86-6.82,13.86-15.9s-6.24-15.24-13.86-15.24-13.86,6.53-13.86,15.24,6.24,15.9,13.86,15.9m0-42.39c15.82,0,27.29,11.61,27.29,26.49s-11.47,27.15-27.29,27.15-27.29-11.9-27.29-27.15,11.47-26.49,27.29-26.49"/><polygon class="cls-1" points="265.44 140.71 271.25 140.71 271.25 107.68 265.44 107.68 265.44 98.25 290.05 98.25 290.05 107.68 284.24 107.68 284.24 140.68 295.19 140.68 296.14 132.36 306.3 132.36 305.35 150.15 265.44 150.15 265.44 140.71"/><polygon class="cls-1" points="354.74 140.71 360.54 140.71 360.54 107.69 354.74 107.69 354.74 98.25 394.65 98.25 395.6 113.56 385.44 113.56 384.49 107.68 373.53 107.68 373.53 118.94 388.71 118.94 388.71 129.1 373.53 129.1 373.53 140.68 384.49 140.68 385.44 134.83 395.6 134.83 394.65 150.15 354.74 150.15 354.74 140.71"/><polygon class="cls-1" points="452.51 140.71 458.31 140.71 458.31 107.69 452.51 107.69 452.51 98.25 492.42 98.25 493.37 113.56 483.21 113.56 482.26 107.68 471.31 107.68 471.31 118.94 486.48 118.94 486.48 129.1 471.31 129.1 471.31 140.68 482.26 140.68 483.21 134.83 493.37 134.83 492.42 150.15 452.51 150.15 452.51 140.71"/><polygon class="cls-1" points="310.1 140.71 315.91 140.71 315.91 107.68 310.1 107.68 310.1 98.25 334.71 98.25 334.71 107.68 328.9 107.68 328.9 140.68 339.85 140.68 340.8 132.36 350.97 132.36 350.01 150.15 310.1 150.15 310.1 140.71"/><path class="cls-1" d="m428,133.07h8.38v3.57c0,.7-.32,1.28-.83,1.76-2.34,1.57-5.84,1.97-8.72,2.02-1.99-.03-3.79-.23-5.41-.79-5.87-2.07-8.83-8.02-8.95-15.2h0c.14-7.99,5.09-14.16,11.52-15.4.78-.14,1.58-.23,2.39-.23.1,0,.19,0,.29,0,3.91.08,7.74,1.77,10.42,4.4l8.63-8.13c-.98-.96-2.05-1.84-3.18-2.63h0s-.1-.06-.14-.1c-4.42-3.07-9.89-4.86-16.03-4.86-1.6,0-3.15.13-4.65.36-13.43,2.04-22.74,12.81-22.74,26.25,0,.06,0,.11,0,.17,0,.05,0,.1,0,.15h0s0,0,0,0h0c.16,15.15,11.62,26.93,27.39,26.93,10.21,0,21.66-2.75,21.66-10.42v-17.34h-20.04v9.47Z"/><path class="cls-1" d="m189.24,139.79c-7.65,0-13.92-6.85-13.92-15.96s6.27-15.31,13.92-15.31c4,0,7.62,1.81,10.16,4.77l9.19-8.65c-4.84-4.61-11.57-7.41-19.36-7.41-15.89,0-27.4,11.66-27.4,26.6s11.52,27.26,27.4,27.26c7.6,0,14.19-2.74,19.01-7.26l-9.16-8.62c-2.53,2.87-6.01,4.59-9.85,4.59"/><path class="cls-2" d="m248.77,22.19h0v66.66h-22.6v-44.07c0-12.48,10.12-22.6,22.6-22.6"/><path class="cls-2" d="m292.42,88.86h-22.41v-47.74h-16.38v-18.93h36.25c10.45,0,18.92,8.47,18.92,18.93h-16.38v47.74Z"/><path class="cls-2" d="m335.01,50.35h4.43c.75,0,1.58-.06,2.5-.19.91-.12,1.76-.39,2.54-.8.78-.41,1.44-.97,1.98-1.7.53-.72.8-1.68.8-2.87s-.22-2.13-.66-2.82c-.44-.69-1-1.21-1.7-1.55-.69-.34-1.44-.56-2.26-.66-.82-.09-1.57-.14-2.26-.14h-5.37v10.73Zm-21.47-28.15h28.72c3.26,0,6.51.33,9.75.99,3.23.66,6.12,1.82,8.66,3.48,2.54,1.66,4.6,3.89,6.17,6.69,1.57,2.79,2.35,6.29,2.35,10.5s-1,7.67-3.01,10.78c-2.01,3.11-4.9,5.51-8.66,7.2l16.95,27.02h-25.8l-12.81-23.82h-.66v23.82h-9.5c-6.71,0-12.16-5.44-12.16-12.16V22.19Z"/><path class="cls-2" d="m465.84,90.74c-2.7,0-5.35-.24-7.96-.71-2.61-.47-5.12-1.16-7.53-2.07-2.42-.91-4.69-1.98-6.83-3.2-2.13-1.22-4.05-2.59-5.74-4.1l13.65-14.88c1.57,1.69,3.66,3.2,6.26,4.52,2.6,1.32,5.29,1.98,8.05,1.98,1.25,0,2.4-.22,3.44-.66,1.04-.44,1.55-1.25,1.55-2.45,0-.63-.17-1.16-.52-1.6-.35-.44-.96-.89-1.84-1.37-.88-.47-2.09-.99-3.62-1.55-1.54-.56-3.47-1.22-5.79-1.98-2.26-.75-4.43-1.65-6.5-2.68-2.07-1.04-3.91-2.31-5.51-3.81-1.6-1.51-2.87-3.31-3.81-5.41-.94-2.1-1.41-4.63-1.41-7.58,0-4.14.85-7.66,2.54-10.55,1.7-2.89,3.88-5.26,6.54-7.11,2.67-1.85,5.66-3.19,8.99-4,3.33-.82,6.62-1.22,9.89-1.22,4.39,0,8.87.85,13.42,2.54,4.55,1.7,8.55,4.14,12.01,7.34l-13.93,14.22c-1.51-1.88-3.36-3.31-5.56-4.28-2.2-.97-4.17-1.46-5.93-1.46-1.63,0-2.95.24-3.95.71-1,.47-1.51,1.24-1.51,2.31,0,1,.52,1.76,1.55,2.26,1.04.5,2.71,1.13,5.04,1.88,2.38.75,4.9,1.63,7.53,2.64,2.64,1,5.07,2.31,7.3,3.91,2.23,1.6,4.06,3.56,5.51,5.88,1.44,2.32,2.17,5.21,2.17,8.66,0,4.02-.8,7.52-2.4,10.5-1.6,2.98-3.7,5.46-6.31,7.44-2.61,1.98-5.54,3.45-8.8,4.43-3.26.97-6.59,1.46-9.98,1.46"/><path class="cls-2" d="m405.23,90.74c-5.21,0-9.75-.72-13.61-2.17-3.86-1.44-7.08-3.42-9.65-5.93-2.57-2.51-4.49-5.48-5.74-8.9-1.26-3.42-1.88-7.11-1.88-11.06v-22.02c0-10.2,8.27-18.46,18.46-18.46h3.95v38.04c0,3.2.77,5.7,2.31,7.49,1.54,1.79,3.72,2.68,6.54,2.68s5-.89,6.54-2.68c1.54-1.79,2.31-4.28,2.31-7.49v-19.65c0-10.16,8.23-18.39,18.39-18.39h3.93v40.49c0,3.95-.67,7.64-2.02,11.06-1.35,3.42-3.34,6.39-5.98,8.9-2.64,2.51-5.92,4.49-9.84,5.93-3.92,1.44-8.49,2.17-13.7,2.17"/><path class="cls-2" d="m206.43,66.64c-2.39,2.02-5.57,3.07-9.17,3.07-7.41,0-13.41-5.53-13.41-14.35s6-14.35,13.41-14.35c3.58,0,6.76,1.04,9.14,3.05l15.51-14.6c-6.1-5.62-15.75-9.18-25.96-9.18-20.07,0-36.11,13.79-36.11,35.08s16.04,35.08,36.11,35.08c10.22,0,19.88-3.56,25.98-9.19l-.07-.08-15.43-14.53Z"/></svg>