<?xml version="1.0" encoding="utf-8"?>
<!-- Generator: Adobe Illustrator 27.0.1, SVG Export Plug-In . SVG Version: 6.00 Build 0)  -->
<svg version="1.1" id="Layer_1" xmlns="http://www.w3.org/2000/svg" xmlns:xlink="http://www.w3.org/1999/xlink" x="0px" y="0px"
	 viewBox="0 0 658.5 50.3" style="enable-background:new 0 0 658.5 50.3;" xml:space="preserve">
<style type="text/css">
	.st0{fill:#FFFFFF;}
</style>
<g id="Group_12311" transform="translate(-359.82 -28.355)">
	<g id="Group_11605" transform="translate(359.82 28.355)">
		<g>
			<g id="Group_11604">
				<path id="Path_13767" class="st0" d="M120,10.1c1.6,0,3.1,0.3,4.6,0.8V0.5c-13.5-2.6-26.6,6.2-29.2,19.7c0,0.2-0.1,0.5-0.1,0.7
					L76.8,2.4l-16,15.9L45,2.4L13.1,34.3c-2-2.6-3.1-5.7-3.1-9c0-8.3,6.7-15,15-15c1.6,0,3.2,0.3,4.6,0.8V0.7C16.1-1.9,3,7,0.4,20.6
					s6.3,26.7,19.9,29.2c1.5,0.3,3.1,0.4,4.7,0.4c1.6,0,3.1-0.2,4.6-0.4V39.4c-1.5,0.5-3.1,0.8-4.6,0.8c-0.9,0-1.9-0.1-2.8-0.3
					L45,17.2l8.4,8.5l-15,15h15.2l7.3-7.4l7.3,7.4h14.8L68.3,25.8l8.5-8.6l24.7,24.7h0c5.8,6.4,14.6,9.4,23.1,7.7V39.2
					c-1.5,0.5-3.1,0.8-4.6,0.8c-8.3,0-15-6.7-15-15S111.7,10.1,120,10.1"/>
			</g>
		</g>
	</g>
	<path id="Path_84461" class="st0" d="M550.9,57.6c-0.7,2.9-2.3,5.4-5.6,5.4c-2.2-0.1-4.1-1.5-4.9-3.5c-0.7-1.7-1.1-3.6-1-5.5
		c0-3.8,1.3-9,6-9c3.3,0,4.6,2.4,5.4,5.2l2.6-0.5c-0.9-4-3.5-7-7.9-7c-6.4,0-9.2,5.4-9.2,11.1c0,5.4,2.6,11.5,8.9,11.5
		c4.6,0,7.1-3,8.1-7.2L550.9,57.6z M568.6,65.3c6.2,0,9-6.2,9-11.6c0-5.4-2.8-11-9-11c-6.3,0-9,6-9,11.5
		C559.6,59.7,562.3,65.3,568.6,65.3z M568.6,63.1c-4.6,0-6.2-5.1-6.2-8.9c0-3.9,1.3-9.2,6.2-9.2c2,0,3.8,1.2,4.7,2.9
		c0.9,1.9,1.4,3.9,1.3,6C574.7,57.7,573.3,63.1,568.6,63.1z M587.2,65v-8.9h4.9c1.9,0.2,3.8-0.5,5.3-1.8c1.2-1.2,1.9-2.9,1.9-4.6
		c0-1.9-0.8-3.8-2.2-5.1c-1.5-1.1-3.4-1.6-5.3-1.5h-7.4v22H587.2z M587.2,53.8v-8.4h4.8c1.1-0.1,2.1,0.2,3,0.8
		c1,0.9,1.6,2.1,1.5,3.5c0,1.1-0.4,2.2-1.2,3c-1,0.8-2.2,1.3-3.5,1.1H587.2z M608.3,65v-8.9h4.9c1.9,0.2,3.8-0.5,5.3-1.8
		c1.2-1.2,1.9-2.9,1.9-4.6c0-1.9-0.8-3.8-2.2-5.1c-1.5-1.1-3.4-1.6-5.3-1.5h-7.4v22H608.3z M608.3,53.8v-8.4h4.8
		c1.1-0.1,2.1,0.2,3,0.8c1,0.9,1.6,2.1,1.5,3.5c0,1.1-0.4,2.2-1.2,3c-1,0.8-2.2,1.3-3.5,1.1H608.3z M641.5,62.6h-11.5v-8h8.8v-2.2
		h-8.8v-7h11.1V43h-13.9v22h14.2V62.6z M664.1,65l-4.3-10.2c2.5-0.7,4.2-3,4.1-5.6c0-1.9-0.9-3.6-2.3-4.8c-1.5-1-3.2-1.5-5-1.3h-8.2
		v22h2.8v-9.5h6.1l4.1,9.5H664.1z M651.1,53.3v-7.8h5.5c1.1-0.1,2.1,0.1,3,0.7c1,0.7,1.6,1.8,1.5,3c0,1.1-0.4,2.1-1.1,2.9
		c-1.1,1.1-2.3,1.2-3.8,1.2L651.1,53.3z M705.3,43h-4l-6.5,17.6L688.2,43h-4.1v22h2.3V45.8h0.1l7.1,19.2h1.9l6.9-19.2h0.1V65h2.7V43
		z M721.6,65.3c6.2,0,9-6.2,9-11.6c0-5.4-2.8-11-9-11c-6.3,0-9,6-9,11.5C712.5,59.7,715.3,65.3,721.6,65.3z M721.6,63.1
		c-4.6,0-6.2-5.1-6.2-8.9c0-3.9,1.3-9.2,6.2-9.2c2,0,3.8,1.2,4.7,2.9c0.9,1.9,1.4,3.9,1.3,6C727.7,57.7,726.3,63.1,721.6,63.1z
		 M753.1,43h-2.3v13.9c0,1.5,0,3.1-1.1,4.4c-1,1.1-2.5,1.6-3.9,1.6c-1.5,0-3.4-0.4-4.3-1.7c-0.8-1.2-0.8-2.9-0.8-4.3V43H738v13.9
		c0,2.3,0.1,4.5,1.7,6.3c1.5,1.7,3.7,2.1,5.9,2.1c2.2,0.1,4.4-0.8,5.9-2.4c1.5-1.8,1.6-3.8,1.6-6L753.1,43z M777.7,43h-2.3v17.9
		L765,43h-3.5v22h2.3V45.9L775,65h2.7V43z M792.7,45.4h6.2V43h-15.2v2.4h6.2V65h2.8L792.7,45.4z M811,43h-3.2l-7.1,22h2.3l2-6.4h8.1
		l2.2,6.4h2.8L811,43z M812.5,56.5h-6.7l3.4-10.5L812.5,56.5z M827.1,65V43h-2.8v22H827.1z M851.7,43h-2.3v17.9L839,43h-3.5v22h2.3
		V45.9L849,65h2.7V43z M886.1,57.6c-0.7,2.9-2.3,5.4-5.6,5.4c-2.2-0.1-4.1-1.5-4.9-3.5c-0.7-1.7-1.1-3.6-1-5.5c0-3.8,1.3-9,6-9
		c3.3,0,4.6,2.4,5.4,5.2l2.6-0.5c-0.9-4-3.5-7-7.9-7c-6.4,0-9.2,5.4-9.2,11.1c0,5.4,2.6,11.5,8.9,11.5c4.6,0,7.1-3,8.1-7.2
		L886.1,57.6z M903.8,65.3c6.2,0,9-6.2,9-11.6c0-5.4-2.8-11-9-11c-6.3,0-9,6-9,11.5C894.8,59.7,897.5,65.3,903.8,65.3L903.8,65.3z
		 M903.8,63.1c-4.6,0-6.2-5.1-6.2-8.9c0-3.9,1.3-9.2,6.2-9.2c2,0,3.8,1.2,4.7,2.9c0.9,1.9,1.4,3.9,1.3,6
		C909.9,57.7,908.5,63.1,903.8,63.1L903.8,63.1z M933.2,62.6H923V43h-2.8v22h13L933.2,62.6z M952.4,62.6h-10.2V43h-2.8v22h13
		L952.4,62.6z M972.9,62.6h-11.5v-8h8.8v-2.2h-8.8v-7h11.1V43h-13.9v22h14.2L972.9,62.6z M996.3,53.9H988v2.3h5.5v1.2
		c0,3.3-2.1,5.6-5.5,5.6c-2.2,0-4.1-1.2-5.1-3.1c-0.9-1.8-1.3-3.8-1.2-5.8c0-4,1.4-9.1,6.3-9.1c2.7-0.1,5.1,1.9,5.5,4.6l2.6-0.6
		c-1-3.9-3.7-6.3-7.9-6.3c-6.5,0-9.5,5.8-9.5,11.5c-0.1,2.7,0.7,5.4,2.3,7.7c1.6,2.2,4.1,3.5,6.8,3.4c2.4,0.1,4.7-1,6.1-2.9l0.7,2.7
		h1.7L996.3,53.9z M1018.3,62.6h-11.5v-8h8.8v-2.2h-8.8v-7h11.1V43h-13.9v22h14.2L1018.3,62.6z"/>
</g>
</svg>
