<svg id="Layer_1" data-name="Layer 1" xmlns="http://www.w3.org/2000/svg" xmlns:xlink="http://www.w3.org/1999/xlink" viewBox="0 0 514 136"><defs><style>.cls-1{fill:none;}.cls-2{fill:#00263e;}.cls-3{clip-path:url(#clip-path);}.cls-4{fill:#ff6c0e;}.cls-5{fill:#fff;}</style><clipPath id="clip-path"><path class="cls-1" d="M106.1,6.57H5.58V78.35a51.08,51.08,0,1,0,102.16,0V6.57Z"/></clipPath></defs><title>Full-color_Logo</title><path class="cls-2" d="M158.1,23a22.08,22.08,0,0,1,15.77,6.06,1.22,1.22,0,0,1,.07,1.83L170,35a1,1,0,0,1-1.63,0,15.43,15.43,0,0,0-10-3.84c-8.35,0-14.54,7-14.54,15.18a14.75,14.75,0,0,0,14.6,15.05,15.62,15.62,0,0,0,10-3.71,1.2,1.2,0,0,1,1.63,0l4,4.17a1.25,1.25,0,0,1-.06,1.76,22.39,22.39,0,0,1-15.84,6.32,23.46,23.46,0,1,1,0-46.92Z"/><path class="cls-2" d="M205.86,23a23.46,23.46,0,1,1-23.39,23.53A23.41,23.41,0,0,1,205.86,23Zm0,38.45a15,15,0,1,0-14.92-14.92A15,15,0,0,0,205.86,61.45Z"/><path class="cls-2" d="M238.44,62.88l2.35-4a1.51,1.51,0,0,1,2.22-.45c.32.19,5.6,4,9.84,4,3.38,0,5.93-2.22,5.93-5,0-3.32-2.81-5.6-8.28-7.82-6.13-2.48-12.25-6.39-12.25-14.08,0-5.8,4.3-12.51,14.66-12.51a22.88,22.88,0,0,1,13,4.37,1.6,1.6,0,0,1,.39,2.15l-2.47,3.71a1.71,1.71,0,0,1-2.28.78c-.52-.32-5.48-3.58-9.06-3.58s-5.74,2.48-5.74,4.56c0,3.07,2.42,5.15,7.69,7.3,6.33,2.54,13.62,6.32,13.62,14.73,0,6.71-5.8,12.9-15,12.9-8.22,0-13-3.84-14.34-5.08C238.18,64.25,237.86,63.93,238.44,62.88Z"/><path class="cls-2" d="M279,24.89a1.29,1.29,0,0,1,1.24-1.24h6.19a1.24,1.24,0,0,1,1.24,1.24V51.54c0,5.54,3.78,9.91,9.45,9.91s9.51-4.37,9.51-9.84V24.89a1.24,1.24,0,0,1,1.24-1.24h6.19a1.29,1.29,0,0,1,1.24,1.24V52A18.15,18.15,0,0,1,279,52Z"/><path class="cls-2" d="M334.56,24a1.09,1.09,0,0,1,1.17-1h1a1.19,1.19,0,0,1,1.11.65l14.34,30.76h.19l14.34-30.76a1.13,1.13,0,0,1,1.11-.65h1a1.09,1.09,0,0,1,1.17,1l7.69,43.79a1.13,1.13,0,0,1-1.17,1.5h-5.93a1.41,1.41,0,0,1-1.24-1l-3.84-24.7h-.2L354,69.2a1.1,1.1,0,0,1-1.11.72H351.7a1.15,1.15,0,0,1-1.11-.72L339.05,43.59h-.19l-3.78,24.7a1.27,1.27,0,0,1-1.17,1H328a1.2,1.2,0,0,1-1.24-1.5Z"/><path class="cls-2" d="M390,24.17A1.22,1.22,0,0,1,391.18,23h1.63l27.11,28.81H420V24.89a1.24,1.24,0,0,1,1.24-1.24h6a1.29,1.29,0,0,1,1.24,1.24V68.75a1.23,1.23,0,0,1-1.24,1.17h-1.56L398.42,40h-.07V68a1.24,1.24,0,0,1-1.24,1.24h-5.93A1.28,1.28,0,0,1,390,68Z"/><path class="cls-2" d="M443.57,24.89a1.25,1.25,0,0,1,1.24-1.24h26.53a1.24,1.24,0,0,1,1.23,1.24v5.35a1.23,1.23,0,0,1-1.23,1.23H452.05V42.16h16.09a1.29,1.29,0,0,1,1.24,1.24v5.41a1.25,1.25,0,0,1-1.24,1.24H452.05v11.4h19.29a1.24,1.24,0,0,1,1.23,1.24V68a1.24,1.24,0,0,1-1.23,1.24H444.81A1.25,1.25,0,0,1,443.57,68Z"/><path class="cls-2" d="M482.48,62.88l2.34-4a1.51,1.51,0,0,1,2.22-.45c.32.19,5.6,4,9.84,4,3.39,0,5.93-2.22,5.93-5,0-3.32-2.8-5.6-8.28-7.82-6.12-2.48-12.25-6.39-12.25-14.08,0-5.8,4.3-12.51,14.66-12.51a23,23,0,0,1,13,4.37,1.62,1.62,0,0,1,.39,2.15l-2.48,3.71a1.71,1.71,0,0,1-2.28.78c-.52-.32-5.47-3.58-9.06-3.58s-5.73,2.48-5.73,4.56c0,3.07,2.41,5.15,7.69,7.3,6.32,2.54,13.62,6.32,13.62,14.73,0,6.71-5.8,12.9-15,12.9-8.21,0-13-3.84-14.34-5.08C482.22,64.25,481.89,63.93,482.48,62.88Z"/><path class="cls-2" d="M137,79.33a.92.92,0,0,1,.92-.92H150.4A10.4,10.4,0,0,1,161,88.72c0,4.45-2.95,8.18-7.16,9.87l6.63,12.29a.91.91,0,0,1-.82,1.4h-2.47a.84.84,0,0,1-.78-.43L149.92,99h-9.24v12.34a1,1,0,0,1-.92.92h-1.89a.92.92,0,0,1-.92-.92Zm13.21,16.5a6.95,6.95,0,1,0,0-13.89h-9.39V95.83Z"/><path class="cls-2" d="M170.53,79.33a1,1,0,0,1,.92-.92h1.94a1,1,0,0,1,.92.92v32a1,1,0,0,1-.92.92h-1.94a1,1,0,0,1-.92-.92Z"/><path class="cls-2" d="M181.18,79.67a.86.86,0,0,1,.82-1.26h1.94a.9.9,0,0,1,.82.53L196.81,106H197l12.05-27.1a1,1,0,0,1,.82-.53h1.94a.86.86,0,0,1,.82,1.26l-14.71,32.56a.92.92,0,0,1-.82.54h-.48a1,1,0,0,1-.83-.54Z"/><path class="cls-2" d="M219.5,79.33a.92.92,0,0,1,.92-.92h19.07a.92.92,0,0,1,.92.92v1.41a.92.92,0,0,1-.92.91H223.23V93.46h13.89a1,1,0,0,1,.92.92v1.4a.92.92,0,0,1-.92.92H223.23V109h16.26a.92.92,0,0,1,.92.92v1.4a.92.92,0,0,1-.92.92H220.42a.92.92,0,0,1-.92-.92Z"/><path class="cls-2" d="M249.75,79.33a.92.92,0,0,1,.92-.92H263.2a10.4,10.4,0,0,1,10.55,10.31c0,4.45-2.95,8.18-7.16,9.87l6.62,12.29a.91.91,0,0,1-.82,1.4h-2.47a.84.84,0,0,1-.77-.43L262.72,99h-9.25v12.34a.94.94,0,0,1-.92.92h-1.88a.91.91,0,0,1-.92-.92ZM263,95.83a6.95,6.95,0,1,0,0-13.89h-9.39V95.83Z"/><path class="cls-2" d="M310.67,77.93a17,17,0,0,1,11.71,4.5.93.93,0,0,1,.05,1.35l-1.31,1.31c-.39.48-.77.44-1.26,0a14.63,14.63,0,0,0-9.24-3.63,13.92,13.92,0,0,0,0,27.82c4.21,0,6.68-1.69,9.24-3.62a.91.91,0,0,1,1.16-.15l1.46,1.31a.92.92,0,0,1-.05,1.3,16.58,16.58,0,0,1-11.76,4.7,17.42,17.42,0,1,1,0-34.84Z"/><path class="cls-2" d="M346.38,77.93A17.42,17.42,0,1,1,329,95.4,17.39,17.39,0,0,1,346.38,77.93Zm0,31.45a14,14,0,1,0-14-14A14.06,14.06,0,0,0,346.38,109.38Z"/><path class="cls-2" d="M372.8,79.33a.92.92,0,0,1,.92-.92h1.89a1,1,0,0,1,.92.92V109h13.93a.92.92,0,0,1,.92.92v1.4a.91.91,0,0,1-.92.92H373.72a.92.92,0,0,1-.92-.92Z"/><path class="cls-2" d="M398.16,79.33a.92.92,0,0,1,.92-.92H401a1,1,0,0,1,.92.92V109h13.94a.92.92,0,0,1,.92.92v1.4a.92.92,0,0,1-.92.92H399.08a.92.92,0,0,1-.92-.92Z"/><path class="cls-2" d="M423.51,79.33a.92.92,0,0,1,.92-.92H443.5a.92.92,0,0,1,.92.92v1.41a.92.92,0,0,1-.92.91H427.24V93.46h13.89a1,1,0,0,1,.92.92v1.4a.92.92,0,0,1-.92.92H427.24V109H443.5a.92.92,0,0,1,.92.92v1.4a.92.92,0,0,1-.92.92H424.43a.92.92,0,0,1-.92-.92Z"/><path class="cls-2" d="M468.76,77.93a17,17,0,0,1,11.71,4.5.93.93,0,0,1,0,1.35c-.44.44-1,.92-1.36,1.36s-.72.43-1.26,0a14.65,14.65,0,0,0-9.19-3.77A13.64,13.64,0,0,0,455.26,95.2c0,7.45,5.81,14,13.45,14a18.17,18.17,0,0,0,8.71-2v-6.77h-5.56a.88.88,0,0,1-.92-.87V97.72a.89.89,0,0,1,.92-.92h8.37a.91.91,0,0,1,.87.92V108.8a1.2,1.2,0,0,1-.39.77,23.87,23.87,0,0,1-11.95,3.2,17.42,17.42,0,1,1,0-34.84Z"/><path class="cls-2" d="M490.78,79.33a.92.92,0,0,1,.92-.92h19.06a.92.92,0,0,1,.92.92v1.41a.92.92,0,0,1-.92.91H494.5V93.46h13.89a1,1,0,0,1,.92.92v1.4a.92.92,0,0,1-.92.92H494.5V109h16.26a.92.92,0,0,1,.92.92v1.4a.92.92,0,0,1-.92.92H491.7a.91.91,0,0,1-.92-.92Z"/><path class="cls-2" d="M107.74,6.57V78.35a51.08,51.08,0,1,1-102.16,0V6.57Z"/><g class="cls-3"><path class="cls-4" d="M103.63,52.75c-1.41-.4-2.62-1.19-3.22-1.06A8.79,8.79,0,0,0,97,53.14c-.61.4-.81-.26-2.21,1.33-.2.26-.2.26-.61.4-.61.26-2.42.66-2.82.93l-1.41.93a6.69,6.69,0,0,1-2.21-1.06,16.82,16.82,0,0,0-2.61-.4c-.81,0-.35,1.49-1,1.76a32.22,32.22,0,0,0-2.88-3.09,21,21,0,0,0-2-.66,8,8,0,0,0-4-1.19,16.84,16.84,0,0,0-3.62.53c-1.2.4.07.42-1.54.68a35.15,35.15,0,0,0-4.7-3.73c-.2-.13-.6-.13-.8-.26-.61-.4-.81-1.2-1.61-1.73-.61-.4-1.62-.26-2-.4a13,13,0,0,0-4.62-1.85c-.4-.13-3.82,1.06-4.63,1.32-1,.27-2,.4-3,.67-.6-.14-1.61-.67-2.21-.54a16,16,0,0,0-4.62,1.73c-.4.26-1.41.13-2,.53a3.06,3.06,0,0,0-.81.79,18.1,18.1,0,0,0-6.24,2.52c-1-.4-4-1.72-4.62-1.85a3.31,3.31,0,0,0-1.82.79,8.32,8.32,0,0,1-2.21,1.85c-.6.27-1.41.4-2,.67-2,1.19-4.82,2.25-6.63,3.58-1.21-.4-1.62-.8-3-.67a5.84,5.84,0,0,1-1,.27,18.55,18.55,0,0,0-3.62,1.06A15.35,15.35,0,0,0,6,59l-.45,0v19.3a51.08,51.08,0,1,0,102.16,0V53.9C106.3,53.42,104.8,53,103.63,52.75Zm-47,47.56C49.28,110,47.1,115.1,45.74,123.9c0,.18-.21.26-.46.25H45.2a1.18,1.18,0,0,1-.51-.17c-11-6.79-15.59-10.57-23-18a.53.53,0,0,1,0-.81.71.71,0,0,1,.9.08c6.32,6.51,10.15,9.79,19.18,15.86-11.11-11.75-14.12-18.76-15.07-31a.82.82,0,0,1,.64-.73c.37-.1.69,0,.71.34.87,12.89,4.14,20.38,16.34,32.65.06-.29.09-.43.16-.72a42.4,42.4,0,0,1-6.21-10.49,1.51,1.51,0,0,1-1.35-.86,35.9,35.9,0,0,1-2.73-9.59,1.15,1.15,0,0,1,.82-1.2,2.73,2.73,0,0,1,0-.4.23.23,0,0,1,.21-.25.22.22,0,0,1,.27.17l.05.4a1.07,1.07,0,0,1,1.11.87,36.1,36.1,0,0,0,2.63,9.59.88.88,0,0,1-.5,1.19A42.17,42.17,0,0,0,44,120.18C39.55,111,38.85,105.74,40.54,96a1.09,1.09,0,0,1-1-1.3A34.07,34.07,0,0,1,44,83a2.81,2.81,0,0,1,1.91-1.2c.11-.19.17-.28.29-.47a.6.6,0,0,1,.45-.24c.17,0,.24.11.15.25l-.28.46c.61.12.85.6.51,1.21a34,34,0,0,0-4.41,11.7A1.77,1.77,0,0,1,41.15,96c-1.72,9.92-1,15.23,3.67,24.58.24-1,.39-1.5.7-2.51a32.16,32.16,0,0,1-1.64-11.31,1.51,1.51,0,0,1-1.18-1.42,34.25,34.25,0,0,1,2.38-12.08,2,2,0,0,1,1.66-1.18l.2-.5a.41.41,0,0,1,.4-.23.19.19,0,0,1,.18.29l-.19.49a1,1,0,0,1,.7,1.4,34.18,34.18,0,0,0-2.3,12.08,1.28,1.28,0,0,1-1.24,1.2,31.83,31.83,0,0,0,1.36,10.27c2.3-6.76,4.24-10.38,9.71-17.42a.73.73,0,0,1,.94-.19A.56.56,0,0,1,56.65,100.31Z"/><path class="cls-2" d="M57.23,87.6c4.77,2.73,25.67,5.46,47.91,6.84a51.29,51.29,0,0,1-37,33.68,23.19,23.19,0,0,0-3.25-2c-12.6-6.69-80.33-21.68-42.91-41,20.85-10.78,60.63-12.16,85.73-12.44v2.32C78.9,76.5,41.66,80.35,57.23,87.6Z"/><path class="cls-1" d="M106.1,6.57H5.58V78.35a51.08,51.08,0,1,0,102.16,0V6.57Z"/><path class="cls-1" d="M106.1,6.57H5.58V78.35a51.08,51.08,0,1,0,102.16,0V6.57Z"/><path class="cls-4" d="M57.29,98.78a.78.78,0,0,0-1,.18c-5.64,7-7.64,10.67-10,17.42a31.26,31.26,0,0,1-1.4-10.26,1.32,1.32,0,0,0,1.29-1.2c0-.24,0-.44,0-.67L46,104a.73.73,0,0,1,.18-1l.1-.07q.07-1,.18-1.89l-.3-.44a.72.72,0,0,1,.18-1l.36-.25c.12-.63.25-1.26.41-1.91L47,97.24a.72.72,0,0,1,.19-1l.29-.21c.14-.46.29-.94.46-1.45h0a.72.72,0,0,1,.19-1l.21-.15c.07-.2.13-.39.21-.6a1,1,0,0,0-.73-1.39l.2-.5c.07-.14,0-.27-.19-.29a.43.43,0,0,0-.41.24c-.09.2-.13.3-.21.5a2,2,0,0,0-1.71,1.17A33.33,33.33,0,0,0,43,104.64a1.51,1.51,0,0,0,1.22,1.42A31.07,31.07,0,0,0,46,117.37c-.33,1-.48,1.52-.73,2.51-4.8-9.34-5.56-14.66-3.79-24.57A1.83,1.83,0,0,0,43,94a46.66,46.66,0,0,1,1.27-4.83l0-.08a.72.72,0,0,1,.18-1l.36-.25c.34-.85.73-1.71,1.19-2.62a.72.72,0,0,1,.28-.77l.18-.12c.34-.64.72-1.31,1.14-2A.73.73,0,0,0,47,81.1l.3-.47c.09-.14,0-.25-.16-.25a.62.62,0,0,0-.47.25c-.12.19-.18.28-.29.47a2.84,2.84,0,0,0-2,1.2.75.75,0,0,1-.07.12l.05.07a.73.73,0,0,1-.18,1l-.76.52c-.24.44-.46.87-.67,1.28a.69.69,0,0,1-.26.83l-.22.16c-.22.47-.43.94-.61,1.41l0,0a.72.72,0,0,1-.19,1l-.32.22c-.26.76-.5,1.55-.72,2.4l.14.21a.71.71,0,0,1-.18,1l-.31.22c-.09.39-.19.79-.28,1.22a1.11,1.11,0,0,0,1,1.31c-1.75,9.74-1,15,3.58,24.17a41.53,41.53,0,0,1-5.35-9.13.88.88,0,0,0,.52-1.19,34.62,34.62,0,0,1-2.71-9.59,1.11,1.11,0,0,0-1.15-.87l-.05-.4a.24.24,0,0,0-.28-.18.24.24,0,0,0-.22.26l.05.4a1.13,1.13,0,0,0-.84,1.2c0,.2.06.38.1.58h0a.72.72,0,0,1,.31,1l-.11.22c.1.52.2,1,.32,1.48l.09.05a.72.72,0,0,1,.31,1l-.1.18c.15.54.32,1.08.51,1.63l.21.11a.72.72,0,0,1,.32,1l-.08.15c.12.32.24.64.38,1l.57.29a.72.72,0,0,1,.32,1l-.17.32a1.68,1.68,0,0,0,1.21.57A41.71,41.71,0,0,0,45,120.91c-.06.3-.1.44-.16.73C32.23,109.37,28.85,101.88,28,89c0-.3-.35-.45-.73-.34s-.69.43-.66.72c1,12.23,4.08,19.24,15.55,31-9.32-6.07-13.28-9.35-19.8-15.86a.73.73,0,0,0-.92-.08.51.51,0,0,0,0,.8c7.64,7.48,12.39,11.26,23.73,18a1.41,1.41,0,0,0,.52.18h.08c.26,0,.46-.06.48-.24,1.4-8.81,3.66-13.89,11.26-23.59A.54.54,0,0,0,57.29,98.78Z"/></g><path class="cls-4" d="M96.14,34.91c0-.08-.32.39,0-.34-.1.56-2.53.53-4.07-.11-.6-.24-.85-.51-.86-1,0-.29-.06-.48.06-.66,0,0,.32-.51.36-.41.13.28.14.28.17.26.17-.69,0-1.45-.63-1.07a2.21,2.21,0,0,0-1.37.67c-.47.07-.33-.1-1-.22-2.23-.42-5.78-1.55-6.62-3.93,0,0-.2-.29-.75-.16-.12.14,0,.47.64,1.67-.29,0-.68-1.19-2-1.95-.13.06-.17.21.56,1.6,0,0,.07.06.11.13-.46-.23-1.6-1.5-2.26-1.24.31.37-.4.74,2.3,2.12-.38-.14-1.23-.47-3.15-1.28-.66,0-1.16.08.16.9l1.59.66c-.15.08-2.72-.89-3.41-.33,0,0,2.56.62,2.6.67-1-.11,0,0-2.86-.27-.17.05-.23.15-.23.19.79.47.22.24,2.6.8a19.28,19.28,0,0,0-2.46.14c-.07.48-.19.47,1.56.63-.12.17-.31.23-.06.55a1.07,1.07,0,0,0,.36.08l-.06,0a.32.32,0,0,0-.17.3c.27,0-.43.57,1.62.44-.16.07-.74.36-.14.63.06,0-.47.6.45.59,0,.09,0,.17.06.21a.53.53,0,0,0,.39,0c-.13.36.33.51,1.39.42a3.3,3.3,0,0,0,.15.35c.07.08.27,0,.41-.05s.16.31,1-.13c.07,0-.24.52.61.36a1.11,1.11,0,0,1,.26-.07h0a.07.07,0,0,0,0,.08s.1.11.47,0a.75.75,0,0,0,.56,0,.47.47,0,0,0,.21-.15.22.22,0,0,0,.13.09H85c.16.11.55,0,.43.38s-1.87.82-1.75,2c0,.31.34.29.52.18-.29.25,2.73,1.42,2.52-.57.19.31,0-.81,1-1.29,0,0,0,0,.13,0s-.37.71.48.54c-.08.36.43.6.49.56s0,0,0,.06.29.14.29.14.15.36.67.07c.08,0-.06.28.42.16a1.5,1.5,0,0,0,1.34,0c.1,0,.22,0,.24,0s.26.18.61-.19c.1.09.37,0,.42,0a.4.4,0,0,0,.21-.17c.25,0,.5.07.65-.64a.77.77,0,0,0,.85.43s.07-.08.06-.12L94.39,37a.49.49,0,0,0,.77.07c0-.25,0-.13-.27-.52.18,0,0,0,.63-.05.19-.16.37-.25-.32-.42a2.3,2.3,0,0,0,.59-.18c-.07.11.58-.55.07-.27-.21.12-.34,0,.29-.43a.33.33,0,0,0,.11-.22c0-.06-.09-.05-.12,0Z"/><path class="cls-5" d="M16.57,13.59a.26.26,0,0,1,.26-.25h5.49a.25.25,0,0,1,.25.25V14.7a.26.26,0,0,1-.25.26h-4v2.21h3.34a.26.26,0,0,1,.25.26v1.12a.25.25,0,0,1-.25.25H18.32v2.36h4a.25.25,0,0,1,.25.26v1.11a.25.25,0,0,1-.25.25H16.83a.26.26,0,0,1-.26-.25Z"/><path class="cls-5" d="M27.33,21.46l.48-.84a.31.31,0,0,1,.46-.09,4.48,4.48,0,0,0,2,.84,1.13,1.13,0,0,0,1.23-1c0-.69-.58-1.16-1.72-1.62s-2.53-1.33-2.53-2.92c0-1.2.89-2.59,3-2.59a4.68,4.68,0,0,1,2.7.91.32.32,0,0,1,.08.44l-.51.77c-.11.16-.31.27-.47.16a4.46,4.46,0,0,0-1.88-.74,1.07,1.07,0,0,0-1.19.94c0,.64.5,1.07,1.6,1.52,1.3.52,2.82,1.3,2.82,3.05a2.85,2.85,0,0,1-3.11,2.67,4.32,4.32,0,0,1-3-1.06C27.27,21.74,27.21,21.68,27.33,21.46Z"/><path class="cls-5" d="M39.84,15H37.77a.26.26,0,0,1-.25-.26V13.59a.25.25,0,0,1,.25-.25h5.9a.26.26,0,0,1,.26.25V14.7a.26.26,0,0,1-.26.26H41.6v7.57a.26.26,0,0,1-.25.25H40.09a.26.26,0,0,1-.25-.25Z"/><path class="cls-5" d="M49.05,20.69a1.12,1.12,0,1,1,0,2.23,1.12,1.12,0,0,1,0-2.23Z"/><path class="cls-5" d="M62.28,16.06l-1.19.26a.22.22,0,0,1-.27-.18l-.08-.66a.29.29,0,0,1,.07-.24l1.94-1.63h1a.25.25,0,0,1,.24.25v8.67a.25.25,0,0,1-.24.25H62.54a.26.26,0,0,1-.26-.25Z"/><path class="cls-5" d="M70.32,21.62c.64-.2,2.55-1.1,3-2.59a3.52,3.52,0,0,1-1.54.38A2.76,2.76,0,0,1,69,16.48a3.09,3.09,0,0,1,3-3.09c2.12,0,3.21,1.7,3.21,3.72A6.28,6.28,0,0,1,70.77,23a.28.28,0,0,1-.38-.19l-.31-.8C70,21.85,70.07,21.7,70.32,21.62Zm3.32-4.71c0-.92-.48-2-1.58-2a1.58,1.58,0,0,0,0,3.16A1.65,1.65,0,0,0,73.64,16.91Z"/><path class="cls-5" d="M79.93,22.38l3.51-7.32H79.88a.26.26,0,0,1-.26-.25v-1a.26.26,0,0,1,.26-.25h5.61a.26.26,0,0,1,.26.25V14l-4,8.46c-.1.21-.23.36-.46.36h-1c-.16,0-.34,0-.34-.25Z"/><path class="cls-5" d="M90,18.19c0-3,1.24-4.72,3.4-4.72s3.4,1.77,3.4,4.72-1.24,4.73-3.4,4.73S90,21.15,90,18.19Zm5,0c0-2-.59-3.13-1.63-3.13s-1.63,1.14-1.63,3.13.59,3.14,1.63,3.14S95,20.21,95,18.19Z"/><path class="cls-4" d="M56.66,133.76A54.85,54.85,0,0,1,1.87,79V2.24H111.45V79A54.85,54.85,0,0,1,56.66,133.76ZM3.15,3.51V79a53.51,53.51,0,1,0,107,0V3.51Z"/><path class="cls-4" d="M57.29,98.78a.78.78,0,0,0-1,.18c-5.64,7-7.64,10.67-10,17.42a31.26,31.26,0,0,1-1.4-10.26,1.32,1.32,0,0,0,1.29-1.2c0-.24,0-.44,0-.67L46,104a.73.73,0,0,1,.18-1l.1-.07q.07-1,.18-1.89l-.3-.44a.72.72,0,0,1,.18-1l.36-.25c.12-.63.25-1.26.41-1.91L47,97.24a.72.72,0,0,1,.19-1l.29-.21c.14-.46.29-.94.46-1.45h0a.72.72,0,0,1,.19-1l.21-.15c.07-.2.13-.39.21-.6a1,1,0,0,0-.73-1.39l.2-.5c.07-.14,0-.27-.19-.29a.43.43,0,0,0-.41.24c-.09.2-.13.3-.21.5a2,2,0,0,0-1.71,1.17A33.33,33.33,0,0,0,43,104.64a1.51,1.51,0,0,0,1.22,1.42A31.07,31.07,0,0,0,46,117.37c-.33,1-.48,1.52-.73,2.51-4.8-9.34-5.56-14.66-3.79-24.57A1.83,1.83,0,0,0,43,94a46.66,46.66,0,0,1,1.27-4.83l0-.08a.72.72,0,0,1,.18-1l.36-.25c.34-.85.73-1.71,1.19-2.62a.72.72,0,0,1,.28-.77l.18-.12c.34-.64.72-1.31,1.14-2A.73.73,0,0,0,47,81.1l.3-.47c.09-.14,0-.25-.16-.25a.62.62,0,0,0-.47.25c-.12.19-.18.28-.29.47a2.84,2.84,0,0,0-2,1.2.75.75,0,0,1-.07.12l.05.07a.73.73,0,0,1-.18,1l-.76.52c-.24.44-.46.87-.67,1.28a.69.69,0,0,1-.26.83l-.22.16c-.22.47-.43.94-.61,1.41l0,0a.72.72,0,0,1-.19,1l-.32.22c-.26.76-.5,1.55-.72,2.4l.14.21a.71.71,0,0,1-.18,1l-.31.22c-.09.39-.19.79-.28,1.22a1.11,1.11,0,0,0,1,1.31c-1.75,9.74-1,15,3.58,24.17a41.53,41.53,0,0,1-5.35-9.13.88.88,0,0,0,.52-1.19,34.62,34.62,0,0,1-2.71-9.59,1.11,1.11,0,0,0-1.15-.87l-.05-.4a.24.24,0,0,0-.28-.18.24.24,0,0,0-.22.26l.05.4a1.13,1.13,0,0,0-.84,1.2c0,.2.06.38.1.58h0a.72.72,0,0,1,.31,1l-.11.22c.1.52.2,1,.32,1.48l.09.05a.72.72,0,0,1,.31,1l-.1.18c.15.54.32,1.08.51,1.63l.21.11a.72.72,0,0,1,.32,1l-.08.15c.12.32.24.64.38,1l.57.29a.72.72,0,0,1,.32,1l-.17.32a1.68,1.68,0,0,0,1.21.57A41.71,41.71,0,0,0,45,120.91c-.06.3-.1.44-.16.73C32.23,109.37,28.85,101.88,28,89c0-.3-.35-.45-.73-.34s-.69.43-.66.72c1,12.23,4.08,19.24,15.55,31-9.32-6.07-13.28-9.35-19.8-15.86a.73.73,0,0,0-.92-.08.51.51,0,0,0,0,.8c7.64,7.48,12.39,11.26,23.73,18a1.41,1.41,0,0,0,.52.18h.08c.26,0,.46-.06.48-.24,1.4-8.81,3.66-13.89,11.26-23.59A.54.54,0,0,0,57.29,98.78Z"/></svg>