<?xml version="1.0" encoding="UTF-8" standalone="no"?>
<svg
   xmlns:dc="http://purl.org/dc/elements/1.1/"
   xmlns:cc="http://creativecommons.org/ns#"
   xmlns:rdf="http://www.w3.org/1999/02/22-rdf-syntax-ns#"
   xmlns:svg="http://www.w3.org/2000/svg"
   xmlns="http://www.w3.org/2000/svg"
   xmlns:sodipodi="http://sodipodi.sourceforge.net/DTD/sodipodi-0.dtd"
   xmlns:inkscape="http://www.inkscape.org/namespaces/inkscape"
   viewBox="0 0 512 199.87215"
   height="199.87215"
   width="512"
   xml:space="preserve"
   id="svg2"
   version="1.1"
   sodipodi:docname="de anza logo.svg"
   inkscape:version="0.92.1 r15371"><sodipodi:namedview
     pagecolor="#ffffff"
     bordercolor="#666666"
     borderopacity="1"
     objecttolerance="10"
     gridtolerance="10"
     guidetolerance="10"
     inkscape:pageopacity="0"
     inkscape:pageshadow="2"
     inkscape:window-width="1600"
     inkscape:window-height="838"
     id="namedview23"
     showgrid="false"
     fit-margin-top="0"
     fit-margin-left="0"
     fit-margin-right="0"
     fit-margin-bottom="0"
     inkscape:zoom="1.0059745"
     inkscape:cx="14.966977"
     inkscape:cy="181.97856"
     inkscape:window-x="-8"
     inkscape:window-y="-8"
     inkscape:window-maximized="1"
     inkscape:current-layer="svg2" /><metadata
     id="metadata8"><rdf:RDF><cc:Work
         rdf:about=""><dc:format>image/svg+xml</dc:format><dc:type
           rdf:resource="http://purl.org/dc/dcmitype/StillImage" /><dc:title></dc:title></cc:Work></rdf:RDF></metadata><defs
     id="defs6" /><g
     transform="matrix(1.2090528,0,0,-1.2090528,0,199.87215)"
     id="g10"><g
       transform="scale(0.1)"
       id="g12"><path
         id="path14"
         style="fill:#000000;fill-opacity:1;fill-rule:nonzero;stroke:none"
         d="m 145.43,266.93 60,60 h 930 v -60 h -990"
         inkscape:connector-curvature="0" /><path
         id="path16"
         style="fill:#000000;fill-opacity:1;fill-rule:nonzero;stroke:none"
         d="m 0,153.949 60,60 h 1075 v -60 H 0"
         inkscape:connector-curvature="0" /><path
         id="path18"
         style="fill:#000000;fill-opacity:1;fill-rule:nonzero;stroke:none"
         d="m 1423.93,1409.95 c 0,41.72 6.26,107.93 -39.34,121.53 v 2.72 h 239.05 c 203.86,0 330.82,-112.46 330.82,-292.95 0,-178.68 -135.01,-303.84 -335.29,-303.84 h -234.58 v 2.723 c 44.71,30.836 39.34,74.367 39.34,127.887 z m 91.2,-408.39 c 21.46,-4.533 62.92,-3.88 85.27,-3.88 133.22,0 267.13,68.28 267.13,225.18 0,158.73 -102.62,251.07 -251.93,251.07 -26.83,0 -73.65,1.34 -100.47,-5 v -467.37"
         inkscape:connector-curvature="0" /><path
         id="path20"
         style="fill:#000000;fill-opacity:1;fill-rule:nonzero;stroke:none"
         d="m 2547.77,1161.43 -46.49,-127.88 c -18.77,-50.792 -25.03,-77.093 17.88,-93.417 v -2.723 h -164.51 v 2.723 c 51.86,26.301 67.06,77.087 86.73,128.787 l 149.31,378.21 c 19.31,45.28 11.81,67.78 -3.44,84.35 v 2.72 h 131.3 l 185.97,-465.28 c 20.56,-51.7 36.66,-102.486 87.62,-128.787 v -2.723 h -183.29 v 2.723 c 43.81,19.953 36.66,29.93 12.52,93.417 l -48.28,127.88 z m 111.77,295.68 -88.52,-228.56 h 176.14 z"
         inkscape:connector-curvature="0" /><path
         id="path22"
         style="fill:#000000;fill-opacity:1;fill-rule:nonzero;stroke:none"
         d="m 3490.5,937.41 h 296.64 l 39.4,116.87 c 0,0 3,18.74 -12,8.74 -15,-10 -28.79,-57.99 -80,-75.004 -62.04,-20.606 -122.04,-15.606 -179.98,-16.7 l 236.98,423.704 v 3 H 3494.9 l -39.4,-116.88 c 0,0 -3,-18.73 12,-8.73 15,10 27.5,62.5 80,75 52.5,12.5 107.46,10.9 137.48,4.2 l -249.61,-406.262 -2.5,-7.996 57.63,0.058"
         inkscape:connector-curvature="0" /><path
         id="path24"
         style="fill:#000000;fill-opacity:1;fill-rule:nonzero;stroke:none"
         d="m 4038.55,937.488 c -14.24,-2.996 -23.55,-12.578 -93.57,-11.871 -84.63,0.86 -143.29,63.918 -143.29,146.813 0,85.34 65.84,135.5 131.6,160.41 0,0 51.71,17.07 144.21,12.07 30.88,-1.67 17.5,2.5 20,15 2.5,12.5 -0.26,31.25 -0.26,31.25 -4.74,48.75 -94.45,54.74 -125.44,53.92 -88.21,-2.32 -111.8,-55.17 -119.3,-65.17 -7.5,-10 -20,-17.5 -12.5,-2.5 7.5,15 45,112.5 62.5,117.5 17.5,5 37.5,7.5 68.44,11.09 90.5,0 209.21,-5.96 210.05,-126.81 v -149.81 c 0,-78.9 -15.82,-138.857 53.73,-147.845 l -86.87,-55.918 c -55.35,19.293 -53.11,83.973 -53.11,163.873 v 125.3 c -62.24,0.12 -106.85,-11.33 -132.94,-23.47 -56.8,-26.41 -75.48,-56.97 -75.48,-117.89 0,-61.92 46.93,-81.895 91.34,-81.895 20.11,0 42.34,0.875 77.83,21.485 0,0 34.51,29.39 47.01,46.89 12.5,17.5 -30.68,-69.547 -45,-112.5 -1.25,-3.75 2.5,-2.5 -12.5,-10"
         inkscape:connector-curvature="0" /><path
         id="path26"
         style="fill:#000000;fill-opacity:1;fill-rule:nonzero;stroke:none"
         d="m 1849.34,710.836 c -49.18,32.988 -106.46,56.332 -165.41,53.723 -161.43,-7.149 -244.47,-127.692 -244.22,-264.352 0.29,-155.297 129.41,-274.508 267.1,-274.508 67.06,0 136.62,27.946 192.94,61.875 h 2.68 l -35.59,-96.828 c -42.03,-20.734 -138.52,-23.914 -185.01,-23.273 -176.83,2.437 -341.54,124.406 -341.54,326.097 0,195.094 148.03,326.715 331.32,326.715 54.54,0 132.48,-7.867 185.23,-21.062 l -7.5,-88.387"
         inkscape:connector-curvature="0" /><path
         id="path28"
         style="fill:#000000;fill-opacity:1;fill-rule:nonzero;stroke:none"
         d="m 1899.55,417.617 c -11.41,156.949 88.67,262.879 216.56,268.16 56.84,2.344 106.98,-13.425 152.81,-55.609 48.72,-45.215 81.27,-113.137 86.44,-184.285 10.96,-150.672 -87.7,-263.891 -212.93,-269.063 -121.68,-5.023 -232.08,92.215 -242.88,240.797 z m 367.71,2.59 c -8.76,101.379 -65.87,228.016 -160.9,224.094 -82.59,-3.41 -127.6,-91.313 -118.48,-204.149 9.62,-119.043 68.38,-230.902 158.97,-227.16 81.71,3.371 133.15,59.785 120.41,207.215"
         inkscape:connector-curvature="0" /><path
         id="path30"
         style="fill:#000000;fill-opacity:1;fill-rule:nonzero;stroke:none"
         d="m 2395.48,826.457 c 20.56,0 66.99,-3.422 95.34,10.047 h 2.69 V 310.918 c 0,-43.355 -6.26,-105.727 33.08,-129.289 v -2.828 h -147.53 v 2.828 c 38.45,23.562 33.08,85.934 33.08,129.289 V 721.84 c 0,43.351 5.37,78.226 -33.08,101.789 v 2.828 h 16.42"
         inkscape:connector-curvature="0" /><path
         id="path32"
         style="fill:#000000;fill-opacity:1;fill-rule:nonzero;stroke:none"
         d="m 3575,706.16 c 5,5 8.11,7.164 8.11,7.164 l 69.62,0.824 c 0,0 19.77,0.762 21.02,-4.238 1.25,-5 -2.82,-6.367 -8.75,-16.25 -7.5,-12.5 -31.25,-43.75 -37.5,-43.75 -6.25,0 -58.75,17.5 -77.5,15 0,0 -28.75,1.25 -18.75,-5 10,-6.25 16.7,-11.164 16.7,-11.164 54.55,-33.836 67.64,-83.723 69.05,-131.933 4.25,-145.653 -163.25,-175.653 -272.15,-151.286 -11.4,2.551 -28.6,-15.617 -27.85,-36.785 1.4,-39.664 61.65,-30.398 72.4,-29.219 208.1,22.887 270.4,-34.449 270.4,-128.074 C 3659.8,64.582 3564.59,0 3434.84,0 c -122.25,0 -213.4,63.1367 -239.13,139.293 -6.96,20.617 40.54,36.867 94.85,74.105 7.83,5.368 7.85,12.465 23.65,3.954 -20.79,-4.727 -24.1,-44.219 -24.1,-68.805 0,-79.4415 79.42,-103.629 133.48,-103.629 54.89,0 152.66,23.7422 152.21,119.91 -0.39,83.223 -154.55,70.082 -190.92,65.453 l -70.67,-12.929 c -36.59,-0.946 -78.67,51.664 -79.92,85.683 -0.54,14.375 79.48,60.668 96.95,70.125 -59.88,13.238 -87.29,69.711 -87.29,140.641 0,109.707 93.15,160.773 178.82,160.773 H 3510 c 43.75,2.168 60,26.586 65,31.586 z M 3434.63,395.535 c 49.9,0 91.5,50.188 91.5,117.391 0,74.152 -49.92,123.605 -108.97,123.605 -45.74,0 -91.08,-38.508 -91.08,-105.707 0,-75.312 54.49,-135.289 108.55,-135.289"
         inkscape:connector-curvature="0" /><path
         id="path34"
         style="fill:#000000;fill-opacity:1;fill-rule:nonzero;stroke:none"
         d="m 304.223,379.91 v 855.56 c 0,230.67 187,417.66 417.664,417.66 230.668,0 417.663,-186.99 417.663,-417.66 V 379.91 Z m 748.187,80 v 738.7 c 0,112.92 -91.547,204.46 -204.465,204.46 -112.918,0 -204.461,-91.54 -204.461,-204.46 v -738.7 z m -473.32,0.207 v 736.493 c 0,148.79 120.621,269.41 269.41,269.41 47.738,0 81.008,-3.39 119.895,-25.18 -46.434,31.37 -102.411,49.69 -162.665,49.69 -160.675,0 -290.933,-130.26 -290.933,-290.93 V 423.457 Z m -124.879,-0.246 v 785.299 c 0,169.51 137.418,306.93 306.926,306.93 54.39,0 93.261,-4.42 136.59,-28.69 -51.739,34.96 -114.11,55.37 -181.25,55.37 -179.039,0 -324.18,-145.15 -324.18,-324.18 V 423.52 Z m 189.273,0.039 v 738.7 c 0,112.92 91.543,204.46 204.461,204.46 112.918,0 204.465,-91.54 204.465,-204.46 0,112.92 -91.547,204.46 -204.465,204.46 -112.918,0 -204.461,-91.54 -204.461,-204.46 v -738.7"
         inkscape:connector-curvature="0" /><path
         id="path36"
         style="fill:#000000;fill-opacity:1;fill-rule:nonzero;stroke:none"
         d="m 3381.92,1218.28 c 0,46.94 5.01,88.86 -18.45,128.81 -26.82,46.94 -90.89,63.04 -167.37,61.41 l -21.1,-1.09 c -15,-2.5 -35.37,-43.29 -47.87,-60.79 -8.42,-11.79 -16.74,-27.32 -29.18,-45.02 l -2.5,89.4 -0.02,2.5 c 4.57,23.91 -102.7,9.52 -121.14,9.52 h -49.44 v -3 c 36.87,-24.97 95.15,-7.61 91.85,-105.36 l -10,-323.949 c 0.8,-32.051 40.65,-33.359 40.65,-33.359 h 72.79 54.65 v 2.996 c -36.87,24.968 -77.29,8.312 -76.84,106.862 l -2.5,185.52 c 0,58.93 32.05,109.68 91.32,112.35 76.18,3.44 113.89,-25.17 113.89,-99.88 l -10,-273.95 c 0.81,-32.051 40.66,-33.355 40.66,-33.355 h 72.79 54.65 l -0.63,1.121 c -36.86,24.968 -76.66,10.183 -76.21,108.734 v 170.53"
         inkscape:connector-curvature="0" /><path
         id="path38"
         style="fill:#000000;fill-opacity:1;fill-rule:nonzero;stroke:none"
         d="m 2623.86,830.207 c 20.57,0 66.99,-3.422 95.35,10.047 h 2.68 V 314.668 c 0,-43.355 -6.26,-105.727 33.08,-129.289 v -2.828 h -147.52 v 2.828 c 38.44,23.562 33.08,85.934 33.08,129.289 V 725.59 c 0,43.351 5.36,78.226 -33.08,101.789 v 2.828 h 16.41"
         inkscape:connector-curvature="0" /><path
         id="path40"
         style="fill:#000000;fill-opacity:1;fill-rule:nonzero;stroke:none"
         d="m 2013.64,1136.06 c 0,0 18.4,20.3 40.47,30.75 0,0 13.58,9.67 107.91,5.53 112.2,-4.91 128.89,-9.66 155.12,1.85 19.62,8.61 22.97,32.05 22.82,43.08 -6.56,115.36 -84.91,196.58 -188.83,196.58 -122.49,0 -209.19,-102.94 -209.19,-239.52 0,-136.58 96.18,-241.721 235.92,-241.721 38.64,0 35.79,3.801 71.13,21.489 0,0 73.06,74.972 80.41,82.352 7.36,7.37 0.45,19.42 -5.6,13.7 -37.64,-35.55 -64.69,-40.62 -113.96,-42.85 -144.08,-6.52 -195.44,94.28 -196.34,174.81 -0.71,63.34 4.1,75.74 4.1,75.74 13.65,72.06 63.33,119.7 121.05,119.7 62.02,0 113.75,-51.47 114.8,-148.21 0.07,-6.34 -18.47,-4.73 -30.73,-4.92 l -145.02,2.46 c -26.61,-1.05 -37.7,-78.22 -72.05,-75.63 l 7.99,-15.19"
         inkscape:connector-curvature="0" /><path
         id="path42"
         style="fill:#000000;fill-opacity:1;fill-rule:nonzero;stroke:none"
         d="m 2853.79,388.277 c 0,0 19.5,21.508 42.89,32.59 0,0 14.39,10.25 114.39,5.867 118.94,-5.214 136.63,-10.242 164.43,1.957 20.8,9.125 24.34,33.981 24.2,45.668 -6.97,122.278 -90.01,208.379 -200.18,208.379 -129.84,0 -221.74,-109.113 -221.74,-253.894 0,-144.785 101.95,-256.235 250.08,-256.235 40.95,0 37.94,4.032 75.41,22.782 0,0 77.43,79.468 85.23,87.289 7.8,7.824 0.48,20.586 -5.94,14.531 -39.9,-37.691 -68.58,-43.066 -120.8,-45.43 -152.73,-6.906 -207.17,99.942 -208.12,185.301 -0.75,67.145 4.34,80.289 4.34,80.289 14.47,76.387 67.14,126.883 128.31,126.883 65.75,0 120.58,-54.555 121.69,-157.102 0.07,-6.722 -19.57,-5.011 -32.57,-5.214 l -153.72,2.605 c -28.21,-1.109 -39.96,-82.914 -76.38,-80.164 l 8.48,-16.102"
         inkscape:connector-curvature="0" /><path
         id="path44"
         style="fill:#000000;fill-opacity:1;fill-rule:nonzero;stroke:none"
         d="m 3731.29,388.277 c 0,0 19.5,21.508 42.89,32.59 0,0 14.39,10.25 114.39,5.867 118.94,-5.214 136.63,-10.242 164.43,1.957 20.8,9.125 24.34,33.981 24.2,45.668 -6.97,122.278 -90.01,208.379 -200.18,208.379 -129.84,0 -221.74,-109.113 -221.74,-253.894 0,-144.785 101.95,-256.235 250.08,-256.235 40.95,0 37.94,4.032 75.41,22.782 0,0 77.43,79.468 85.23,87.289 7.8,7.824 0.48,20.586 -5.94,14.531 -39.9,-37.691 -68.58,-43.066 -120.8,-45.43 -152.73,-6.906 -207.17,99.942 -208.12,185.301 -0.75,67.145 4.34,80.289 4.34,80.289 14.47,76.387 67.14,126.883 128.31,126.883 65.75,0 120.59,-54.555 121.69,-157.102 0.07,-6.722 -19.57,-5.011 -32.57,-5.214 l -153.72,2.605 c -28.21,-1.109 -39.96,-82.914 -76.38,-80.164 l 8.48,-16.102"
         inkscape:connector-curvature="0" /></g></g></svg>