<svg xmlns="http://www.w3.org/2000/svg" fill="currentColor" viewBox="0 0 117 32"><path d="M0.309 7.266h4.593c3.754 0 6.78 2.827 6.78 6.493s-3.026 6.493-6.78 6.493h-4.593v-12.986zM3.578 17.513h1.016c2.12 0 3.798-1.767 3.798-3.754s-1.678-3.754-3.798-3.754h-1.016v7.509z"></path><path d="M17.557 13.096h0.022l2.915-7.729 3.71 0.707-6.736 14.509h-0.044l-6.471-14.509 3.732-0.707z"></path><path d="M33.237 10.843c-0.707-0.486-1.524-0.928-2.407-0.928-2.23 0-3.821 1.568-3.821 3.798 0 2.253 1.48 3.887 3.821 3.887 0.883 0 1.789-0.464 2.495-0.972l-0.42 3.445c-0.53 0.287-1.723 0.464-2.319 0.464-4.019 0-6.868-2.716-6.868-6.758 0-3.887 2.827-6.824 6.846-6.824 0.729 0 1.502 0.11 2.164 0.42l0.508 3.467z"></path><path d="M2.231 24.381c2.407 0 3.489 1.568 3.489 3.688 0 2.385-1.082 3.776-3.71 3.776h-1.833v-7.464h2.054zM1.060 31.161h0.817c2.076-0.022 2.981-0.95 2.981-3.114 0-1.899-0.861-2.981-2.562-2.981h-1.237v6.095z"></path><path d="M7.752 31.845h-0.861v-7.464h0.861z"></path><path d="M14.377 31.845h-0.905l-0.751-2.385h-2.694l-0.707 2.385h-0.905l2.341-7.464h1.237l2.385 7.464zM11.351 24.889v0l-1.104 3.909h2.275l-1.17-3.909z"></path><path d="M15.039 31.845v-7.464h2.275c2.12 0 2.672 1.082 2.672 1.921 0 0.795-0.508 1.413-1.369 1.612 0.994 0.265 1.568 0.905 1.568 1.855 0 0.883-0.42 2.076-2.738 2.076h-2.407zM16.696 27.583c1.060 0 2.429 0.022 2.429-1.281s-1.281-1.259-2.363-1.259h-0.861v2.54h0.795zM15.901 31.161h1.038c2.010 0 2.363-0.552 2.363-1.369 0-0.883-0.464-1.546-2.275-1.546h-1.126v2.915z"></path><path d="M22.217 31.161h3.533v0.685h-4.395v-7.464h0.861z"></path><path d="M32.574 28.113c0 2.451-1.281 3.887-3.003 3.887s-3.003-1.435-3.003-3.887 1.281-3.887 3.003-3.887c1.723 0 3.003 1.435 3.003 3.887v0zM27.451 28.113c0 2.253 0.972 3.246 2.142 3.246 1.148 0 2.142-0.972 2.142-3.246 0-2.253-0.972-3.246-2.142-3.246s-2.142 0.972-2.142 3.246v0z"></path><path d="M39.928 31.845h-0.795l-2.363-7.464h0.883l1.877 6.073h0.022l1.965-6.073h0.861z"></path><path d="M48.144 31.845h-0.883l-0.751-2.385h-2.694l-0.707 2.385h-0.928l2.341-7.464h1.237l2.385 7.464zM45.118 24.889v0l-1.104 3.909h2.275l-1.17-3.909z"></path><path d="M49.667 31.161h3.533v0.685h-4.395v-7.464h0.861z"></path><path d="M55.078 31.161h3.533v0.685h-4.417v-7.464h0.883z"></path><path d="M64.11 25.043h-3.622v2.54h2.584v0.685h-2.584v2.893h3.865v0.685h-4.748v-7.464h4.505z"></path><path d="M68.24 28.709v3.136h-0.883v-3.136l-2.473-4.328h0.928l2.010 3.578h0.022l1.877-3.578h0.883z"></path><path d="M78.951 26.634c-0.221-0.861-0.64-1.767-1.789-1.767s-2.142 0.972-2.142 3.246c0 2.253 0.972 3.246 2.142 3.246 1.082 0 1.59-0.883 1.789-1.767l0.817 0.199c-0.243 1.237-1.104 2.231-2.606 2.231-1.723 0-3.003-1.435-3.003-3.887s1.281-3.887 3.003-3.887c1.48 0 2.319 0.972 2.562 2.253l-0.773 0.133z"></path><path d="M86.791 28.113c0 2.451-1.281 3.887-3.003 3.887s-3.003-1.435-3.003-3.887 1.281-3.887 3.003-3.887c1.723 0 3.003 1.435 3.003 3.887v0zM81.667 28.113c0 2.253 0.972 3.246 2.142 3.246 1.148 0 2.142-0.972 2.142-3.246 0-2.253-0.972-3.246-2.142-3.246s-2.142 0.972-2.142 3.246v0z"></path><path d="M88.801 31.161h3.556v0.685h-4.417v-7.464h0.861z"></path><path d="M94.211 31.161h3.533v0.685h-4.395v-7.464h0.861z"></path><path d="M103.244 25.043h-3.622v2.54h2.584v0.685h-2.584v2.893h3.865v0.685h-4.748v-7.464h4.505z"></path><path d="M109.405 26.567c-0.243-0.861-0.663-1.7-1.877-1.7-1.148 0-2.142 0.972-2.142 3.246 0 2.253 0.972 3.246 2.142 3.246 1.546 0 1.943-1.281 1.855-2.407h-1.678v-0.663h2.562v3.578h-0.751v-0.729c-0.442 0.552-1.17 0.883-1.988 0.883-1.723 0-3.003-1.435-3.003-3.887s1.281-3.887 3.003-3.887c1.524 0 2.451 0.95 2.738 2.164l-0.861 0.155z"></path><path d="M115.986 25.043h-3.622v2.54h2.584v0.685h-2.584v2.893h3.865v0.685h-4.726v-7.464h4.483z"></path><path d="M84.98 13.758l-0.132-0.066c-13.251-6.404-23.343-9.739-34.783-11.506-12.809-1.988-28.246-2.076-49.999-0.287l-0.066-0.618c21.819-1.789 37.3-1.7 50.153 0.287 11.484 1.767 21.576 5.101 34.827 11.484 1.281-0.618 11.506-5.344 31.845-8.988l0.11 0.596c-17.292 3.092-28.356 7.244-31.801 9.010l-0.155 0.088z"></path></svg>
