<svg xmlns="http://www.w3.org/2000/svg" width="189.484" height="86.693" viewBox="0 0 189.484 86.693">
  <g id="Layer_1" transform="translate(-172.261 -375.8)">
    <g id="Group_7850" data-name="Group 7850" transform="translate(172.261 375.8)">
      <path id="Path_8287" data-name="Path 8287" d="M176.844,385.1c0-4.872-.111-5.536-2.879-5.868l-.775-.111c-.332-.221-.221-1,.111-1.218,1.993.111,3.543.111,5.536.111h8.747c2.989,0,5.757,0,6.311-.111a46.279,46.279,0,0,1,.775,6.2.992.992,0,0,1-1.218.111c-.664-2.214-1.107-3.764-3.543-4.429a22.216,22.216,0,0,0-4.539-.332h-3.322c-1.439,0-1.439.111-1.439,1.882v9.3c0,1.329.111,1.329,1.55,1.329h2.657a14.643,14.643,0,0,0,3.986-.332c.554-.221.886-.443,1.107-1.661l.332-1.882a.869.869,0,0,1,1.218,0c0,1.107-.221,2.879-.221,4.65,0,1.661.221,3.432.221,4.429a.869.869,0,0,1-1.218,0l-.443-1.772c-.221-.886-.554-1.55-1.439-1.772a13.771,13.771,0,0,0-3.543-.221h-2.657c-1.439,0-1.55,0-1.55,1.218v6.532c0,2.436.111,4.1.886,4.872.554.554,1.55,1.107,5.647,1.107,3.543,0,4.982-.221,5.979-.664.886-.443,2.1-2.1,3.322-4.54a.918.918,0,0,1,1.218.332,33.6,33.6,0,0,1-2.1,6.422c-4.207-.111-8.3-.111-12.511-.111h-4.207c-1.993,0-3.543,0-6.311.111-.332-.111-.332-.886-.111-1.218l1.55-.111c2.657-.221,2.879-.886,2.879-5.868Z" transform="translate(-172.261 -375.575)" fill="#fff"/>
      <path id="Path_8288" data-name="Path 8288" d="M202.93,403.923c0,3.322.111,3.764,1.772,4.1l1.107.111c.332.221.221,1-.111,1.218-1.55-.111-2.879-.111-4.539-.111s-3.1,0-4.429.111c-.332-.111-.443-.886-.111-1.218l1.107-.111c1.772-.221,1.772-.664,1.772-4.1V382.886c0-2.768,0-2.989-1.439-3.875l-.443-.332c-.221-.111-.221-.775,0-.886A27.325,27.325,0,0,0,202.6,375.8c.221,0,.332.111.443.332,0,1.439-.111,3.764-.111,5.757v22.033Z" transform="translate(-169.671 -375.8)" fill="#fff"/>
      <path id="Path_8289" data-name="Path 8289" d="M220.068,381.386a20.118,20.118,0,0,1,12.511-3.986,37.552,37.552,0,0,1,8.193,1.107,6.629,6.629,0,0,0,1.329.221c0,1.107.332,3.986.664,6.865a.992.992,0,0,1-1.218.111c-.664-3.211-2.768-6.754-9.522-6.754-7.086,0-13.176,4.539-13.176,14.172,0,9.743,6.2,15.169,13.84,15.169a9.973,9.973,0,0,0,9.743-6.643,1.011,1.011,0,0,1,1.218.221,18.512,18.512,0,0,1-2.214,6.422c-.554.111-1.107.332-1.661.443a28.067,28.067,0,0,1-7.307,1.107,21.064,21.064,0,0,1-11.626-3.1A14.885,14.885,0,0,1,214.2,393.9,15.62,15.62,0,0,1,220.068,381.386Z" transform="translate(-167.765 -375.629)" fill="#fff"/>
      <path id="Path_8290" data-name="Path 8290" d="M252.511,398.111c.664-.221.775-.664.775-1.329v-2.1c0-1.772-.554-4.1-3.432-4.1-1.329,0-2.879.664-2.989,2.1,0,.775-.111,1.329-.443,1.55a5.068,5.068,0,0,1-2.657.886.587.587,0,0,1-.664-.664c0-2.436,5.2-5.757,8.636-5.757,3.322,0,4.982,1.993,4.872,5.425l-.332,8.082c-.111,2.1.332,4.1,2.1,4.1a2.232,2.232,0,0,0,1.218-.332c.221-.111.443-.332.554-.332.221,0,.332.332.332.554a4.968,4.968,0,0,1-3.875,1.993,3.714,3.714,0,0,1-2.989-1.439c-.221-.332-.443-.664-.775-.664a8.228,8.228,0,0,0-1.772.886,6.6,6.6,0,0,1-3.322,1.107,4.351,4.351,0,0,1-4.65-4.318c0-1.772.886-2.879,3.875-3.986Zm-2.879,8.193a5.212,5.212,0,0,0,2.879-1.218c.554-.554.554-1.218.554-2.214l.111-2.768c0-.554-.221-.554-.443-.554a10.562,10.562,0,0,0-1.882.443c-2.768.886-4.1,1.661-4.1,3.432A2.662,2.662,0,0,0,249.632,406.3Z" transform="translate(-164.667 -374.417)" fill="#fff"/>
      <path id="Path_8291" data-name="Path 8291" d="M287.667,395.861c0-3.211-1.439-4.761-4.318-4.761a4.913,4.913,0,0,0-3.875,1.661c-.554.664-.664,1.107-.664,2.768v7.086c0,3.322.111,3.764,1.772,4.1l1,.111c.332.221.221,1-.111,1.218-1.439-.111-2.768-.111-4.318-.111-1.661,0-2.879,0-4.207.111-.332-.111-.443-.886-.111-1.218l.886-.111c1.772-.332,1.772-.664,1.772-4.1v-6.754c0-3.1-1.439-4.761-4.318-4.761a5.1,5.1,0,0,0-3.875,1.661,3.659,3.659,0,0,0-.664,2.657v7.2c0,3.322.111,3.764,1.772,4.1l.886.111c.332.221.221,1-.111,1.218-1.218-.111-2.657-.111-4.207-.111-1.661,0-3.1,0-4.539.111-.332-.111-.443-.886-.111-1.218l1.107-.111c1.772-.221,1.772-.664,1.772-4.1v-8.193c0-1.772,0-1.993-1.218-2.879l-.443-.332a.674.674,0,0,1,0-.886,18.29,18.29,0,0,0,4.65-2.325.609.609,0,0,1,.554.332,20.1,20.1,0,0,0-.111,2.214.523.523,0,0,0,.554.554,11.522,11.522,0,0,1,6.2-2.325,5.485,5.485,0,0,1,4.982,2.768c.443.111.775-.111,1.218-.332a11.327,11.327,0,0,1,6.311-2.325c3.764,0,5.536,2.547,5.536,5.757v7.972c0,3.322.111,3.764,1.772,4.1l1.107.111c.332.221.221,1-.111,1.218-1.55-.111-2.879-.111-4.539-.111s-2.879,0-4.207.111c-.332-.111-.443-.886-.111-1.218l.886-.111c1.772-.332,1.772-.664,1.772-4.1v-6.754Z" transform="translate(-162.843 -374.492)" fill="#fff"/>
      <path id="Path_8292" data-name="Path 8292" d="M295.987,395.322c0-1.772,0-1.993-1.218-2.879l-.443-.332a.674.674,0,0,1,0-.886,21.034,21.034,0,0,0,4.761-2.325c.221,0,.443.111.443.332-.111,1.661-.221,3.875-.221,5.757V403.4c0,3.322.111,3.764,1.772,4.1l1,.111c.332.221.221,1-.111,1.218-1.439-.111-2.768-.111-4.318-.111-1.661,0-3.1,0-4.318.111-.332-.111-.443-.886-.111-1.218l1-.111c1.772-.221,1.772-.664,1.772-4.1v-8.083Zm3.875-13.286a2.319,2.319,0,0,1-2.436,2.436,2.269,2.269,0,0,1-2.325-2.325,2.441,2.441,0,0,1,2.547-2.547A2.27,2.27,0,0,1,299.863,382.036Z" transform="translate(-159.316 -375.393)" fill="#fff"/>
      <path id="Path_8293" data-name="Path 8293" d="M306.766,394.422c0-1.772,0-1.993-1.218-2.879l-.443-.332a.674.674,0,0,1,0-.886,18.289,18.289,0,0,0,4.65-2.325.609.609,0,0,1,.554.332,20.09,20.09,0,0,0-.111,2.214.523.523,0,0,0,.554.554,12.61,12.61,0,0,1,6.532-2.325c3.875,0,5.425,2.657,5.425,5.757V402.5c0,3.322.111,3.764,1.771,4.1l1,.111c.332.221.221,1-.111,1.218-1.439-.111-2.768-.111-4.318-.111-1.661,0-3.1,0-4.318.111-.332-.111-.443-.886-.111-1.218l.886-.111c1.771-.332,1.771-.664,1.771-4.1v-6.975c0-2.657-1.218-4.65-4.318-4.65a5.168,5.168,0,0,0-3.986,1.661,4.127,4.127,0,0,0-.664,2.768v7.086c0,3.322.111,3.764,1.772,4.1l.886.111c.332.221.221,1-.111,1.218-1.218-.111-2.657-.111-4.207-.111-1.661,0-3.1,0-4.318.111-.332-.111-.443-.886-.111-1.218l1-.111c1.771-.221,1.771-.664,1.771-4.1v-7.972Z" transform="translate(-158.137 -374.492)" fill="#fff"/>
      <path id="Path_8294" data-name="Path 8294" d="M345.276,398.343c0,5.868-3.986,9.965-9.854,9.965a9.215,9.215,0,0,1-9.522-9.633,9.789,9.789,0,0,1,9.854-10.075A9.436,9.436,0,0,1,345.276,398.343Zm-9.965-8.193c-3.1,0-5.315,2.879-5.315,8.083,0,4.207,1.882,8.747,5.979,8.747s5.314-4.318,5.314-7.861C341.29,395.132,339.74,390.15,335.311,390.15Z" transform="translate(-155.792 -374.428)" fill="#fff"/>
      <path id="Path_8295" data-name="Path 8295" d="M179.068,418.386a20.118,20.118,0,0,1,12.511-3.986,37.552,37.552,0,0,1,8.193,1.107,6.629,6.629,0,0,0,1.329.221c0,1.107.332,3.986.664,6.865a.992.992,0,0,1-1.218.111c-.664-3.211-2.768-6.754-9.522-6.754-7.086,0-13.176,4.539-13.176,14.172,0,9.743,6.2,15.169,13.84,15.169a9.973,9.973,0,0,0,9.743-6.643,1.011,1.011,0,0,1,1.218.221,18.511,18.511,0,0,1-2.214,6.422c-.554.111-1.107.332-1.661.443a28.067,28.067,0,0,1-7.307,1.107,21.064,21.064,0,0,1-11.626-3.1A14.885,14.885,0,0,1,173.2,430.9,15.62,15.62,0,0,1,179.068,418.386Z" transform="translate(-172.16 -371.662)" fill="#fff"/>
      <path id="Path_8296" data-name="Path 8296" d="M221.476,435.343c0,5.868-3.986,9.965-9.854,9.965a9.215,9.215,0,0,1-9.522-9.633,9.789,9.789,0,0,1,9.854-10.075A9.5,9.5,0,0,1,221.476,435.343ZM211.4,427.15c-3.1,0-5.315,2.879-5.315,8.083,0,4.207,1.882,8.747,5.979,8.747s5.315-4.318,5.315-7.861C217.49,432.132,215.829,427.15,211.4,427.15Z" transform="translate(-169.062 -370.462)" fill="#fff"/>
      <path id="Path_8297" data-name="Path 8297" d="M228.43,440.923c0,3.322.111,3.764,1.772,4.1l1.107.111c.332.221.221,1-.111,1.218-1.55-.111-2.879-.111-4.539-.111s-3.1,0-4.429.111c-.332-.111-.443-.886-.111-1.218l1.107-.111c1.772-.221,1.772-.664,1.772-4.1V419.886c0-2.768,0-2.989-1.439-3.875l-.443-.332c-.221-.111-.221-.775,0-.886A30.87,30.87,0,0,0,228.1,412.8c.221,0,.332.111.443.332,0,1.439-.111,3.764-.111,5.757Z" transform="translate(-166.938 -371.834)" fill="#fff"/>
      <path id="Path_8298" data-name="Path 8298" d="M238.83,440.923c0,3.322.111,3.764,1.772,4.1l1.107.111c.332.221.221,1-.111,1.218-1.55-.111-2.879-.111-4.539-.111s-3.1,0-4.429.111c-.332-.111-.443-.886-.111-1.218l1.107-.111c1.772-.221,1.772-.664,1.772-4.1V419.886c0-2.768,0-2.989-1.439-3.875l-.443-.332c-.221-.111-.221-.775,0-.886A30.87,30.87,0,0,0,238.5,412.8c.221,0,.332.111.443.332,0,1.439-.111,3.764-.111,5.757Z" transform="translate(-165.823 -371.834)" fill="#fff"/>
      <path id="Path_8299" data-name="Path 8299" d="M247.618,432.8c-1.218,0-1.218.111-1.218,1.218,0,4.65,2.768,8.747,7.75,8.747a4.949,4.949,0,0,0,4.318-2.325.684.684,0,0,1,.886.554,8.035,8.035,0,0,1-7.307,4.318,8.382,8.382,0,0,1-6.754-3.1,9.575,9.575,0,0,1-1.993-6.09c0-5.757,3.764-10.518,9.3-10.518,3.986,0,6.643,2.768,6.643,5.536a2.582,2.582,0,0,1-.221,1.218c-.111.332-.775.332-2.768.332h-8.636Zm2.879-1.439c3.432,0,4.429-.221,4.872-.443a1.106,1.106,0,0,0,.332-.886c0-1.329-.886-2.879-3.543-2.879-2.768,0-5.093,2.547-5.2,4.1,0,.111,0,.221.332.221H250.5Z" transform="translate(-164.646 -370.462)" fill="#fff"/>
      <path id="Path_8300" data-name="Path 8300" d="M278.987,427.361c.554.221.443,1.772-.332,1.882h-3.322a16.348,16.348,0,0,1,.111,2.325c0,3.211-1.882,7.418-7.861,7.418-.886,0-1.439-.111-1.993-.111-.554.332-1.993,1.218-1.993,2.547,0,1.107,1.107,1.993,3.211,1.993,1.55,0,3.543-.111,5.536-.111,2.657,0,6.532.443,6.532,5.093,0,5.093-5.536,8.747-11.626,8.747-5.757,0-7.75-3.1-7.75-5.425a2.817,2.817,0,0,1,.554-1.772c.775-.886,2.1-1.993,3.211-3.1.443-.443.775-.886.332-1.107-1.772-.443-3.432-1.993-3.432-3.654,0-.221.221-.443.664-.775a20.614,20.614,0,0,0,2.436-2.1,2.18,2.18,0,0,0,.443-.886,6.488,6.488,0,0,1-3.543-5.647c0-3.986,3.432-6.975,7.529-6.975a11.566,11.566,0,0,1,4.429.886,5.362,5.362,0,0,0,2.879.775h3.986Zm-9.633,18.822c-1.439,0-3.322.111-3.986.554a4.66,4.66,0,0,0-2.214,3.875c0,2.547,1.993,4.65,6.2,4.65,4.1,0,6.865-2.325,6.865-4.982,0-2.879-1.993-4.1-5.315-4.1Zm2.879-13.286c0-3.211-1.329-5.868-4.1-5.868-2.214,0-3.875,1.993-3.875,5.2,0,3.322,1.993,5.425,4.207,5.425C270.9,437.768,272.233,435.775,272.233,432.9Z" transform="translate(-162.909 -370.451)" fill="#fff"/>
      <path id="Path_8301" data-name="Path 8301" d="M283.018,432.8c-1.218,0-1.218.111-1.218,1.218,0,4.65,2.768,8.747,7.75,8.747a4.949,4.949,0,0,0,4.318-2.325.684.684,0,0,1,.886.554,8.035,8.035,0,0,1-7.307,4.318,8.382,8.382,0,0,1-6.754-3.1,9.575,9.575,0,0,1-1.993-6.09c0-5.757,3.764-10.518,9.3-10.518,3.986,0,6.643,2.768,6.643,5.536a2.582,2.582,0,0,1-.221,1.218c-.111.332-.775.332-2.768.332h-8.636Zm2.879-1.439c3.432,0,4.429-.221,4.872-.443a1.106,1.106,0,0,0,.332-.886c0-1.329-.886-2.879-3.543-2.879-2.768,0-5.093,2.547-5.2,4.1,0,.111,0,.221.332.221H285.9Z" transform="translate(-160.851 -370.462)" fill="#fff"/>
    </g>
    <path id="Path_8302" data-name="Path 8302" d="M328.075,431.874c.221.554.554,1.107.775,1.661a15.678,15.678,0,0,0-2.214-.443h-.221l-.111-.111a1.593,1.593,0,0,1-.221-.332h0a9.531,9.531,0,0,0-3.543,0c-.332.664-.554,1.329-.886,1.882h.111a19.6,19.6,0,0,1,5.093,0,1.2,1.2,0,0,1-.111-.554v-.111h.111a9.984,9.984,0,0,1,2.436.664c.554.775,1.107,1.55,1.661,2.214l.332.443c-.332-.111-.554-.332-.886-.443a16.8,16.8,0,0,0-11.847-.221l-.554.221a14.453,14.453,0,0,0,2.657-4.982,10.053,10.053,0,0,1,7.418.111Z" transform="translate(15.622 5.929)" fill="#fff"/>
    <path id="Path_8303" data-name="Path 8303" d="M331.329,437.733h.221a.108.108,0,0,1-.111.111,15.262,15.262,0,0,1-4.872,1.329,15.489,15.489,0,0,1-8.415-1.107c-.221-.111-.554-.221-.554-.664,0-.886,1-1,1.661-1.218a17.124,17.124,0,0,1,12.4.664l.111.111h-2.657a16.48,16.48,0,0,0-10.075,0c-.332.111-.221.221-.111.332a15.568,15.568,0,0,0,8.747.664l.775-.111.664-.221,2.214.111Z" transform="translate(15.579 6.381)" fill="#fff"/>
    <path id="Path_8304" data-name="Path 8304" d="M324.882,426.286V425.4H323v.886Z" transform="translate(16.158 5.317)" fill="#fff"/>
    <path id="Path_8305" data-name="Path 8305" d="M330.043,425.287c-.332-3.986-6.2-3.986-6.643.221h1.107c.221-2.879,4.318-2.879,4.429-.221v9.854l1.107,1.439V425.287Z" transform="translate(16.201 4.987)" fill="#fff"/>
    <path id="Path_8306" data-name="Path 8306" d="M324.407,426.4v1a1.887,1.887,0,0,0-1.107,0v-1Z" transform="translate(16.19 5.424)" fill="#fff"/>
    <path id="Path_8307" data-name="Path 8307" d="M325.7,440.757v-1h2.547c.332,0,.332-.111.332-.221v-1.107l1-.332v2.325c0,.221-.221.443-.443.332Z" transform="translate(16.448 6.678)" fill="#fff"/>
    <path id="Path_8308" data-name="Path 8308" d="M323.686,436.4h.775a.666.666,0,0,1,.111.443.79.79,0,0,1-.886.775.858.858,0,0,1-.886-.775c0-.221,0-.332.111-.443Z" transform="translate(16.137 6.496)" fill="#fff"/>
    <path id="Path_8309" data-name="Path 8309" d="M325.472,428.633c-.332,0-1.993-.111-2.1-.111s-.221.554-.221.554a16.434,16.434,0,0,1,3.654.332l.221.664a18.241,18.241,0,0,0-3.986-.443c0,.221-.111.332-.111.554a14.534,14.534,0,0,1,3.1.111v-.221h.111l.886.221.554,1.439a7.628,7.628,0,0,0-.886-.332,9.57,9.57,0,0,0-6.09.221V431.4c.443-1.439.554-3.432,2.436-3.986a2.879,2.879,0,0,1,2.657.443,4.334,4.334,0,0,1,.886,1.107,2.752,2.752,0,0,0-.886-.111c-.111,0-.111,0-.111-.111,0,.111,0,0-.111-.111Z" transform="translate(15.901 5.516)" fill="#fff"/>
    <path id="Path_8310" data-name="Path 8310" d="M326.522,445.644a12.622,12.622,0,1,1,12.622-12.622,12.616,12.616,0,0,1-12.622,12.622Zm0-24.358a11.847,11.847,0,1,0,11.847,11.847,11.86,11.86,0,0,0-11.847-11.847Z" transform="translate(15.183 4.781)" fill="#fff"/>
    <path id="Path_8311" data-name="Path 8311" d="M327.229,453.959a19.929,19.929,0,1,1,19.929-19.929,19.988,19.988,0,0,1-19.929,19.929Zm0-39.084a19.154,19.154,0,1,0,19.154,19.154,19.232,19.232,0,0,0-19.154-19.154Z" transform="translate(14.475 4.105)" fill="#fff"/>
    <path id="Path_8312" data-name="Path 8312" d="M312.922,430.1c.111-.332,0-.554-.221-.554l-2.214-.664c-.332-.111-.443,0-.554.332l-.332-.111.886-2.879L311.7,426l.111.332a1.523,1.523,0,0,0-1.218,1.218c-.111.332-.111.443.221.554l.775.221.111-.332c.111-.332,0-.554-.554-.664l.111-.332,1.772.554-.111.332c-.554-.111-.775,0-.886.443l-.111.221,1.107.332c.221.111.332,0,.443-.443.221-.554.111-1.107-.554-1.882l.221-.221,1.107.886-.886,2.989-.443-.111Z" transform="translate(14.722 5.381)" fill="#fff"/>
    <path id="Path_8313" data-name="Path 8313" d="M314.368,425.943c.221-.332.221-.443,0-.664l-1.882-1.329c-.221-.221-.443-.111-.664.111l-.221-.221,1.107-1.439.221.221c-.221.332-.221.554,0,.775l1.882,1.329c.221.111.332.221.554-.111a1.627,1.627,0,0,0,.111-1.882l.332-.221.664,1.218-1.772,2.436-.332-.221Z" transform="translate(14.936 4.995)" fill="#fff"/>
    <path id="Path_8314" data-name="Path 8314" d="M320.1,416.811l.221-.111.886,1-.221.221a1.482,1.482,0,0,0-1.661-.443c-.664.221-.775,1-.332,1.882.332.886,1,1.329,1.661,1a1.52,1.52,0,0,0,.886-1.218h.332a1.813,1.813,0,0,1-1.107,1.661,1.882,1.882,0,0,1-2.547-1.107,1.861,1.861,0,0,1,.886-2.547,1.48,1.48,0,0,1,1-.111h0v-.221Z" transform="translate(15.625 4.384)" fill="#fff"/>
    <path id="Path_8315" data-name="Path 8315" d="M324.372,416.564l.664,1.439-1.107.111.443-1.55ZM322.6,420l1.439-.111v-.332c-.332,0-.443-.111-.443-.221a.857.857,0,0,1,.111-.332l.221-.554,1.439-.111.332.664a.387.387,0,0,0,.111.221c0,.111-.111.221-.443.221v.332l1.772-.111v-.332c-.332,0-.443-.111-.554-.443l-1.439-2.989h-.664l-1.107,2.989c-.221.443-.332.554-.554.664L322.6,420Z" transform="translate(16.115 4.298)" fill="#fff"/>
    <path id="Path_8316" data-name="Path 8316" d="M328.65,416.986c.111-.332,0-.443-.332-.554l.111-.332,1.439.554-.111,2.768h0l1.661-2.214,1.439.443-.111.332c-.332-.111-.554,0-.554.221l-.775,2.214c-.111.332,0,.443.332.554l-.111.332-1.661-.554.111-.332c.443.111.554.111.664-.332l.775-2.436h0l-2.214,2.879-.332-.111.111-3.543h0l-.886,2.547c-.111.332,0,.443.332.554l-.111.332-1.329-.443.111-.332c.332.111.554,0,.554-.221l.886-2.325Z" transform="translate(16.598 4.32)" fill="#fff"/>
    <path id="Path_8317" data-name="Path 8317" d="M332.021,421.368c.332.221.443.221.664,0l1.439-1.882c.221-.221.111-.443-.111-.664l.221-.221,1.439,1-.221.221c-.332-.221-.443-.221-.664,0L333.35,421.7c-.221.221-.111.443.111.664l-.221.221-1.439-1,.221-.221Z" transform="translate(17.101 4.588)" fill="#fff"/>
    <path id="Path_8318" data-name="Path 8318" d="M334.132,422.914c.221.221.443.332.664.111l1.882-1.439c.221-.221.221-.332,0-.664l.221-.221.886,1.107-1.218,2.768h0l1.439-1.107c.221-.221.221-.332,0-.664l.221-.221.886,1.107-.221.221c-.221-.221-.443-.332-.664-.111l-2.436,1.882-.332-.443,1.439-3.432h0l-1.993,1.55c-.221.221-.221.332,0,.664l-.221.221-.886-1.107.332-.221Z" transform="translate(17.316 4.813)" fill="#fff"/>
    <path id="Path_8319" data-name="Path 8319" d="M337.241,428.335c-.221-.664.332-1.329,1.218-1.55,1-.332,1.661,0,1.882.664s-.221,1.218-1.218,1.55c-.886.221-1.661,0-1.882-.664Zm1-2.325a1.957,1.957,0,0,0-1.329,2.436,1.841,1.841,0,0,0,2.436,1.329,1.957,1.957,0,0,0,1.329-2.436,1.841,1.841,0,0,0-2.436-1.329Z" transform="translate(17.64 5.371)" fill="#fff"/>
    <path id="Path_8320" data-name="Path 8320" d="M315.706,439.482l.111.221-.886,1-.221-.221a1.592,1.592,0,0,0,.221-1.661c-.332-.554-1.107-.664-1.993-.111a1.449,1.449,0,0,0-.775,1.882c.221.443.664.664,1.439.664v.332a1.8,1.8,0,0,1-1.772-.886,1.9,1.9,0,0,1,.775-2.768,1.846,1.846,0,0,1,2.657.554,2.211,2.211,0,0,1,.221,1h.221Z" transform="translate(14.927 6.625)" fill="#fff"/>
    <path id="Path_8321" data-name="Path 8321" d="M315.8,444.614c-.554-.443-.443-1.218.111-1.993.664-.775,1.329-1,1.882-.554s.554,1.218-.111,1.993c-.554.775-1.329,1-1.882.554Zm-.554-2.436a1.87,1.87,0,0,0,.332,2.768,1.85,1.85,0,0,0,2.768-.332,1.971,1.971,0,1,0-3.1-2.436Z" transform="translate(15.277 7.029)" fill="#fff"/>
    <path id="Path_8322" data-name="Path 8322" d="M319.021,446.722c.332.111.554,0,.554-.221l.775-2.214c.111-.332,0-.443-.332-.554l.111-.332,1.772.554-.111.332c-.443-.111-.554-.111-.664.221l-.775,2.214c-.111.221-.111.332.221.443a1.6,1.6,0,0,0,1.882-.443l.221.221-1,1.107-2.879-.886.221-.443Z" transform="translate(15.708 7.246)" fill="#fff"/>
    <path id="Path_8323" data-name="Path 8323" d="M324.011,448.043c.332,0,.443-.111.443-.443v-2.325c0-.332-.111-.443-.554-.443V444.5h1.882v.332c-.443,0-.554.111-.554.443V447.6c0,.221,0,.332.443.332a1.689,1.689,0,0,0,1.661-1.107l.332.111-.554,1.329h-2.989l-.111-.221Z" transform="translate(16.255 7.364)" fill="#fff"/>
    <path id="Path_8324" data-name="Path 8324" d="M329.329,447.729c.332-.111.443-.332.332-.554l-.886-2.214c-.111-.332-.332-.332-.664-.221l-.111-.332,2.879-1.107.886.886-.221.221a1.54,1.54,0,0,0-1.772-.221c-.332.111-.443.221-.332.443l.332.775.332-.111c.332-.111.332-.332.221-.886l.332-.111.664,1.661-.332.111c-.221-.554-.443-.664-.886-.443l-.221.111.443,1.107c.111.221.221.332.664.111a1.881,1.881,0,0,0,1.218-1.661h.332l-.111,1.439-2.989,1.107-.111-.111Z" transform="translate(16.694 7.235)" fill="#fff"/>
    <path id="Path_8325" data-name="Path 8325" d="M336.678,441.7a.415.415,0,0,0,0,.664l.775.886-.332.332-.332-.221a1.687,1.687,0,0,1-.664,1.218,2.044,2.044,0,0,1-2.768-2.989,2.226,2.226,0,0,1,.886-.443l-.111-.221.221-.221,1.107.775-.221.332a1.429,1.429,0,0,0-1.661.111c-.554.443-.443,1.218.221,1.993.775.886,1.439.775,1.882.443a.73.73,0,0,0,.111-1.218.415.415,0,0,0-.664,0l-.221-.221,1.218-1.107.554-.111Z" transform="translate(17.206 6.957)" fill="#fff"/>
    <path id="Path_8326" data-name="Path 8326" d="M338.5,441.229c.111-.332.111-.443-.111-.664l-2.1-1.107a.4.4,0,0,0-.554.221l-.332-.111,1.439-2.768h1.218v.332a1.959,1.959,0,0,0-1.55,1c-.111.332-.111.443.111.554l.775.332.111-.332c.221-.332.111-.554-.332-.775l.111-.221,1.661.886-.111.221c-.554-.221-.664-.221-.886.221l-.111.221,1.107.554c.221.111.332.111.554-.332.332-.554.332-1.107-.221-1.993l.221-.221.886,1.107-1.439,2.879Z" transform="translate(17.487 6.539)" fill="#fff"/>
    <path id="Path_8327" data-name="Path 8327" d="M339.487,434.272a.886.886,0,1,0-.886-.886c-.111.554.332.886.886.886Z" transform="translate(17.829 6.078)" fill="#fff"/>
    <path id="Path_8328" data-name="Path 8328" d="M310.986,434.272a.886.886,0,1,0-.886-.886.873.873,0,0,0,.886.886Z" transform="translate(14.775 6.078)" fill="#fff"/>
  </g>
</svg>
