<svg xmlns="http://www.w3.org/2000/svg" viewBox="0 0 1882 476.2"><defs><style>.cls-1{fill:#0984ac;}</style></defs><title>Asset 1</title><g id="Layer_2" data-name="Layer 2"><g id="Layer_1-2" data-name="Layer 1"><polygon class="cls-1" points="645.32 0 645.32 3.9 645.32 35.17 1231.56 35.17 1231.56 0 645.32 0"/><path class="cls-1" d="M1231.58,190.18c-27.06-38.1-68.27-70-118.6-92.46S1003.17,62.36,939.47,62.36,816.4,75.26,766.11,97.65,674.62,151.92,647.53,190l-4.46,6.27,68.7-.86,1.15-1.35c49.57-58,124.7-96.91,227.86-97,103.4,0,178.84,39.62,228.31,97.81l1.17,1.38,65.7.11Z"/><path class="cls-1" d="M22.92,312.94c0,9.68,0,17.26.5,21.5.31,2.93.91,5.15,3.95,5.56a45,45,0,0,0,5,.4c1.31,0,1.72.3,1.72.8,0,.72-.71,1-2.22,1-6.36,0-12.73-.29-15.35-.29s-9,.29-12.83.29c-1.41,0-2.12-.19-2.12-1,0-.5.4-.8,1.52-.8a17.27,17.27,0,0,0,3.63-.4c2-.41,2.53-2.63,2.93-5.56.5-4.24.5-11.82.5-21.5V295.16c0-15.37,0-18.18-.2-21.42-.2-3.43-1-5.05-4.34-5.75a20,20,0,0,0-3.94-.31c-1,0-1.71-.19-1.71-.8,0-.8.8-1,2.32-1,2.62,0,5.55.1,8.18.1s4.95.21,6.36.21c3.84,0,24.33,0,26.66-.1a19.4,19.4,0,0,0,4.14-.42,6.51,6.51,0,0,1,1.62-.6A.82.82,0,0,1,50,266c0,.71-.51,1.92-.81,4.55-.1,1-.31,7-.51,8.18-.1.81-.3,1.4-1,1.4s-.91-.49-1-1.61a9.79,9.79,0,0,0-.61-3.83c-.7-1.42-2.82-2.94-6.66-3l-15.55-.29c-.6,0-.91.29-.91,1.4V298c0,.6.1.9.7.9l12.93-.1c1.72,0,3.13,0,4.55-.1,1.92-.1,3.33-.5,4.34-1.82.5-.6.71-1,1.31-1,.4,0,.61.29.61.9s-.51,3.13-.81,6.26c-.2,2-.4,6.66-.4,7.38,0,.9,0,1.91-1,1.91-.6,0-.81-.7-.81-1.41a10.91,10.91,0,0,0-.61-3.13c-.5-1.41-2-3.23-5.15-3.64-2.52-.3-13.22-.3-14.95-.3-.5,0-.7.2-.7.91Z"/><path class="cls-1" d="M93.93,304c0-17.27,11.41-39.58,41.7-39.58,25.15,0,40.81,14.63,40.81,37.76s-16.16,41.41-41.81,41.41C105.64,343.63,93.93,321.92,93.93,304ZM162.3,306c0-22.62-13-36.66-29.59-36.66-11.62,0-24.85,6.47-24.85,31.61,0,21,11.62,37.68,31,37.68C145.94,338.59,162.3,335.15,162.3,306Z"/><path class="cls-1" d="M244.29,312.94c0,12.91,0,19.88,2.12,21.71,1.72,1.51,4.34,2.22,12.22,2.22,5.35,0,9.29-.1,11.81-2.84a12.57,12.57,0,0,0,2.63-6c.1-.91.3-1.51,1.11-1.51s.81.49.81,1.71a79.35,79.35,0,0,1-1.52,11.61c-.6,2.23-1.1,2.73-6.36,2.73-7.27,0-12.52-.2-17.07-.31s-8.18-.29-12.32-.29c-1.1,0-3.32.1-5.75.1s-4.95.19-7,.19c-1.31,0-2-.29-2-1,0-.5.4-.8,1.62-.8a17.19,17.19,0,0,0,3.63-.4c2-.41,2.52-2.63,2.93-5.56.51-4.24.51-12.22.51-21.5V295.16c0-15.37,0-18.18-.21-21.42-.2-3.43-1-5.05-4.34-5.75a14.42,14.42,0,0,0-3.33-.31c-1.11,0-1.72-.19-1.72-.9s.71-.91,2.23-.91c4.74,0,11.1.31,13.83.31,2.42,0,9.79-.31,13.73-.31,1.42,0,2.12.21,2.12.91s-.6.9-1.81.9a26,26,0,0,0-3.94.31c-2.73.5-3.54,2.22-3.74,5.75-.2,3.24-.2,6.05-.2,21.42Z"/><path class="cls-1" d="M319.14,341c-1.62-.7-1.92-1.21-1.92-3.43,0-5.56.4-11.62.5-13.23s.41-2.62,1.21-2.62,1,.9,1,1.72a21.2,21.2,0,0,0,.92,5.14c2.21,7.48,8.18,10.2,14.43,10.2,9.09,0,13.54-6.16,13.54-11.51,0-4.95-1.52-9.69-9.9-16.16l-4.64-3.64c-11.11-8.68-15-15.75-15-23.93,0-11.11,9.29-19.08,23.33-19.08a48.37,48.37,0,0,1,13.43,1.72c.91.19,1.42.5,1.42,1.2,0,1.31-.41,4.24-.41,12.13,0,2.22-.3,3-1.11,3s-1-.62-1-1.82a12.19,12.19,0,0,0-2.63-6.67c-1.51-1.92-4.44-4.94-11-4.94-7.48,0-12,4.34-12,10.4,0,4.64,2.33,8.18,10.71,14.53l2.83,2.12c12.12,9.4,16.56,16.16,16.56,25.76a20.35,20.35,0,0,1-9.49,17.57c-5.05,3.24-10.71,4.14-16.06,4.14C328,343.63,323.48,342.92,319.14,341Z"/><path class="cls-1" d="M404.38,304c0-17.27,11.42-39.58,41.71-39.58,25.15,0,40.8,14.63,40.8,37.76s-16.15,41.41-41.81,41.41C416.1,343.63,404.38,321.92,404.38,304ZM472.75,306c0-22.62-13-36.66-29.59-36.66-11.6,0-24.84,6.47-24.84,31.61,0,21,11.62,37.68,31,37.68C456.4,338.59,472.75,335.15,472.75,306Z"/><path class="cls-1" d="M544.18,266.28c.29-1.72.89-2.63,1.7-2.63s1.42.51,2.73,3.13l27.57,57,27.47-57.65c.7-1.62,1.31-2.43,2.22-2.43s1.52,1,1.82,3.13l9.19,62.41c.91,6.36,1.92,9.29,4.94,10.2a20.22,20.22,0,0,0,6.27,1c.91,0,1.62.1,1.62.69,0,.83-1.22,1.12-2.63,1.12-2.52,0-16.46-.29-20.5-.59-2.33-.21-2.93-.53-2.93-1.12s.4-.81,1.11-1.11.91-1.52.51-4.35l-6.06-44.43h-.41l-22,45.85c-2.33,4.74-2.83,5.65-3.74,5.65s-1.91-2-3.53-5.05c-2.43-4.64-10.4-20.09-11.62-22.93-.9-2.11-7-14.83-10.5-22.41H547l-5.25,40.19a38.42,38.42,0,0,0-.31,4.75c0,1.93,1.32,2.83,3,3.24a19.72,19.72,0,0,0,4.25.5c.8,0,1.51.21,1.51.69,0,.93-.91,1.12-2.43,1.12-4.24,0-8.78-.29-10.6-.29s-6.76.29-10,.29c-1,0-1.82-.19-1.82-1.12,0-.48.61-.69,1.62-.69a12.71,12.71,0,0,0,3-.31c2.83-.6,3.64-4.54,4.14-8Z"/><path class="cls-1" d="M756.93,312.94c0,12.91,0,19.88,2.11,21.71,1.72,1.51,4.35,2.22,12.23,2.22,5.34,0,9.28-.1,11.81-2.84a12.37,12.37,0,0,0,2.62-6c.11-.91.31-1.51,1.12-1.51s.82.49.82,1.71a80.76,80.76,0,0,1-1.52,11.61c-.6,2.23-1.12,2.73-6.38,2.73-7.26,0-12.52-.2-17-.31s-8.19-.29-12.32-.29c-1.12,0-3.33.1-5.76.1s-5,.19-7,.19c-1.31,0-2-.29-2-1,0-.5.41-.8,1.61-.8a17.21,17.21,0,0,0,3.64-.4c2-.41,2.52-2.63,2.93-5.56.51-4.24.51-12.22.51-21.5V295.16c0-15.37,0-18.18-.21-21.42-.19-3.43-1-5.05-4.34-5.75a14.48,14.48,0,0,0-3.33-.31c-1.11,0-1.72-.19-1.72-.9s.71-.91,2.22-.91c4.75,0,11.11.31,13.84.31,2.42,0,9.8-.31,13.74-.31,1.41,0,2.12.21,2.12.91s-.62.9-1.82.9a25.86,25.86,0,0,0-3.94.31c-2.72.5-3.55,2.22-3.74,5.75-.2,3.24-.2,6.05-.2,21.42Z"/><path class="cls-1" d="M843.39,315.86c-.51,0-.71.2-.91.81L837,331.11a19.47,19.47,0,0,0-1.5,6.15c0,1.82.9,3.14,4,3.14h1.52c1.21,0,1.51.21,1.51.8,0,.82-.6,1-1.72,1-3.22,0-7.57-.29-10.7-.29-1.11,0-6.66.29-11.9.29-1.34,0-2-.19-2-1,0-.59.42-.8,1.22-.8a28.36,28.36,0,0,0,3.14-.21c4.65-.6,6.56-4,8.58-9.08l25.35-63.43c1.21-2.92,1.82-4,2.83-4s1.51.91,2.52,3.23c2.41,5.55,18.59,46.76,25,62.11,3.85,9.07,6.78,10.5,8.89,11a22.4,22.4,0,0,0,4.24.4c.81,0,1.32.1,1.32.8s-.91,1-4.65,1-11,0-19.09-.19c-1.82-.1-3-.1-3-.82s.4-.8,1.42-.9A1.66,1.66,0,0,0,875,338l-8.08-21.41a1,1,0,0,0-1-.7Zm20.6-5c.5,0,.61-.31.5-.61l-9.08-24.95c-.1-.41-.2-.92-.51-.92s-.51.51-.61.92L845,310.11c-.09.4,0,.71.4.71Z"/><path class="cls-1" d="M952.08,299.6h.52c3.43-3.73,18.17-18.79,21.1-22.22s5-5.86,5-7.57c0-1.12-.4-1.82-1.4-2s-1.31-.4-1.31-1,.51-.91,1.61-.91c2.12,0,7.68.31,10.4.31,3.13,0,8.7-.31,11.82-.31,1,0,1.71.21,1.71.91s-.49.9-1.51.9a19.65,19.65,0,0,0-5.86,1.12c-3.13,1.21-6.56,3.33-10.9,7.57-3.13,3-18.38,18.18-21.82,21.82,3.64,4.74,23.43,26.05,27.37,29.79,4.44,4.25,9,8.79,14.44,10.91a17.77,17.77,0,0,0,6.26,1.51c.71,0,1.32.21,1.32.8s-.5,1-2.43,1h-8.77c-3,0-4.85,0-7-.19-5.45-.52-8.18-2.73-12.52-6.57s-24.34-27.27-26.47-30.19l-1.1-1.52h-.52v9.2c0,9.28,0,17.26.31,21.6.21,2.83,1.11,5,3.64,5.46a45.36,45.36,0,0,0,5,.4c.81,0,1.31.3,1.31.8,0,.72-.81,1-1.92,1-5.65,0-12-.29-14.53-.29-2.33,0-8.69.29-12.73.29-1.31,0-2-.29-2-1,0-.5.4-.8,1.61-.8a17.37,17.37,0,0,0,3.64-.4c2-.41,2.52-2.63,2.93-5.56.5-4.24.5-12.22.5-21.5V295.16c0-15.37,0-18.18-.2-21.42-.2-3.43-1-5.05-4.34-5.75a20.18,20.18,0,0,0-3.94-.31c-1.11,0-1.71-.19-1.71-.9s.7-.91,2.22-.91c5.35,0,11.71.31,14.13.31s8.79-.31,12.22-.31c1.41,0,2.12.21,2.12.91s-.61.9-1.42.9A14.42,14.42,0,0,0,956,268c-2.72.5-3.53,2.22-3.74,5.75-.21,3.24-.21,6.05-.21,21.42Z"/><path class="cls-1" d="M1047.07,295.16c0-15.37,0-18.18-.21-21.42-.2-3.43-1-5.05-4.35-5.75a19.86,19.86,0,0,0-3.93-.31c-1.11,0-1.72-.19-1.72-.9s.71-.91,2.22-.91c2.73,0,5.66.1,8.18.1s5,.21,6.37.21c3.22,0,23.33,0,25.24-.1a41.62,41.62,0,0,0,4.34-.62,9.58,9.58,0,0,1,1.62-.4c.52,0,.61.4.61.91a62.08,62.08,0,0,0-.8,6.56c-.11,1-.32,5.46-.51,6.66-.11.51-.31,1.12-1,1.12s-.92-.52-.92-1.41a10.64,10.64,0,0,0-.6-3.63c-.71-1.82-1.72-3-6.76-3.65-1.71-.2-12.33-.39-14.35-.39-.5,0-.71.29-.71,1v25.54c0,.7.11,1.11.71,1.11,2.23,0,13.84,0,16.16-.2s3.94-.5,4.85-1.52c.7-.81,1.11-1.3,1.62-1.3s.7.19.7.81-.5,2.21-.81,7.36c-.2,2-.4,6.07-.4,6.78s0,1.9-.9,1.9a.8.8,0,0,1-.92-.9,27.18,27.18,0,0,0-.4-3.64c-.51-2-1.93-3.53-5.66-3.94-1.92-.2-11.91-.3-14.34-.3-.5,0-.61.4-.61,1v8c0,3.42-.09,12.71,0,15.64.21,7,1.82,8.48,12.12,8.48,2.64,0,6.87,0,9.49-1.21s3.85-3.33,4.55-7.47c.19-1.11.41-1.52,1.11-1.52s.81.81.81,1.82a80.12,80.12,0,0,1-1.31,11.22c-.71,2.62-1.62,2.62-5.46,2.62-7.57,0-13.12-.2-17.46-.31s-7.48-.29-10.51-.29c-1.11,0-3.33.1-5.75.1s-4.95.19-7,.19c-1.31,0-2-.29-2-1,0-.5.41-.8,1.61-.8a17.46,17.46,0,0,0,3.64-.4c2-.41,2.52-2.63,2.92-5.56.52-4.24.52-12.22.52-21.5Z"/><path class="cls-1" d="M1210.94,332.62c-9.89-8.69-12.51-20-12.51-29.79,0-6.86,2.11-18.78,11.8-27.67,7.28-6.67,16.88-10.7,31.91-10.7a101.12,101.12,0,0,1,14.66,1c3.83.51,7,1.42,10.09,1.73,1.11.09,1.52.59,1.52,1.2,0,.82-.31,2-.51,5.56-.2,3.33-.09,8.88-.3,10.9-.1,1.52-.31,2.33-1.22,2.33s-1-.81-1-2.23a14.3,14.3,0,0,0-3.94-9.28c-3.33-3.54-11.2-6.27-20.49-6.27-8.79,0-14.55,2.22-19,6.27-7.37,6.77-9.29,16.35-9.29,26.15,0,24,18.28,36,31.82,36,9,0,14.43-1,18.47-5.67a16.92,16.92,0,0,0,3.43-6.66c.3-1.62.51-2,1.32-2s.9.7.9,1.51a94.6,94.6,0,0,1-2.22,13.43,3.55,3.55,0,0,1-2.62,2.93c-4,1.61-11.72,2.32-18.18,2.32C1231.74,343.63,1220.13,340.61,1210.94,332.62Z"/><path class="cls-1" d="M1311.14,304c0-17.27,11.4-39.58,41.71-39.58,25.14,0,40.79,14.63,40.79,37.76s-16.15,41.41-41.8,41.41C1322.85,343.63,1311.14,321.92,1311.14,304ZM1379.5,306c0-22.62-13-36.66-29.59-36.66-11.6,0-24.84,6.47-24.84,31.61,0,21,11.62,37.68,31,37.68C1363.15,338.59,1379.5,335.15,1379.5,306Z"/><path class="cls-1" d="M1459.3,312.94c0,12.91,0,19.88,2.12,21.71,1.73,1.51,4.34,2.22,12.22,2.22,5.35,0,9.3-.1,11.82-2.84a12.65,12.65,0,0,0,2.62-6c.1-.91.31-1.51,1.12-1.51s.8.49.8,1.71a81.7,81.7,0,0,1-1.5,11.61c-.62,2.23-1.13,2.73-6.37,2.73-7.28,0-12.52-.2-17.08-.31s-8.17-.29-12.31-.29c-1.12,0-3.33.1-5.77.1s-4.93.19-7,.19c-1.32,0-2-.29-2-1,0-.5.41-.8,1.63-.8a17.06,17.06,0,0,0,3.61-.4c2-.41,2.55-2.63,2.94-5.56.51-4.24.51-12.22.51-21.5V295.16c0-15.37,0-18.18-.2-21.42-.21-3.43-1-5.05-4.34-5.75a14.57,14.57,0,0,0-3.34-.31c-1.1,0-1.71-.19-1.71-.9s.7-.91,2.22-.91c4.74,0,11.1.31,13.83.31,2.43,0,9.79-.31,13.74-.31,1.41,0,2.12.21,2.12.91s-.61.9-1.83.9a25.93,25.93,0,0,0-3.93.31c-2.73.5-3.53,2.22-3.75,5.75-.19,3.24-.19,6.05-.19,21.42Z"/><path class="cls-1" d="M1550.13,312.94c0,12.91,0,19.88,2.12,21.71,1.72,1.51,4.34,2.22,12.22,2.22,5.36,0,9.29-.1,11.81-2.84a12.68,12.68,0,0,0,2.64-6c.09-.91.29-1.51,1.1-1.51s.81.49.81,1.71a79.35,79.35,0,0,1-1.52,11.61c-.6,2.23-1.09,2.73-6.35,2.73-7.27,0-12.54-.2-17.07-.31s-8.17-.29-12.32-.29c-1.12,0-3.34.1-5.76.1s-5,.19-7,.19c-1.31,0-2-.29-2-1,0-.5.41-.8,1.62-.8a17.37,17.37,0,0,0,3.64-.4c2-.41,2.52-2.63,2.92-5.56.51-4.24.51-12.22.51-21.5V295.16c0-15.37,0-18.18-.22-21.42-.19-3.43-1-5.05-4.34-5.75a14.32,14.32,0,0,0-3.32-.31c-1.12,0-1.72-.19-1.72-.9s.71-.91,2.23-.91c4.74,0,11.11.31,13.83.31,2.42,0,9.8-.31,13.73-.31,1.42,0,2.12.21,2.12.91s-.6.9-1.81.9a25.77,25.77,0,0,0-3.94.31c-2.73.5-3.54,2.22-3.73,5.75-.21,3.24-.21,6.05-.21,21.42Z"/><path class="cls-1" d="M1628.34,295.16c0-15.37,0-18.18-.2-21.42-.21-3.43-1-5.05-4.34-5.75a20.22,20.22,0,0,0-4-.31c-1.1,0-1.71-.19-1.71-.9s.7-.91,2.22-.91c2.74,0,5.65.1,8.17.1s5,.21,6.37.21c3.23,0,23.33,0,25.26-.1a42.18,42.18,0,0,0,4.33-.62,9.71,9.71,0,0,1,1.61-.4c.51,0,.61.4.61.91a65.52,65.52,0,0,0-.8,6.56c-.11,1-.31,5.46-.51,6.66-.1.51-.31,1.12-1,1.12s-.91-.52-.91-1.41a10.68,10.68,0,0,0-.61-3.63c-.7-1.82-1.71-3-6.76-3.65-1.72-.2-12.32-.39-14.34-.39-.51,0-.71.29-.71,1v25.54c0,.7.1,1.11.71,1.11,2.22,0,13.83,0,16.15-.2s3.94-.5,4.86-1.52c.7-.81,1.11-1.3,1.61-1.3s.7.19.7.81-.49,2.21-.81,7.36c-.19,2-.39,6.07-.39,6.78s0,1.9-.92,1.9a.79.79,0,0,1-.9-.9,25.78,25.78,0,0,0-.41-3.64c-.5-2-1.92-3.53-5.64-3.94-1.92-.2-11.93-.3-14.35-.3-.51,0-.61.4-.61,1v8c0,3.42-.1,12.71,0,15.64.2,7,1.82,8.48,12.11,8.48,2.63,0,6.88,0,9.5-1.21s3.84-3.33,4.55-7.47c.21-1.11.4-1.52,1.11-1.52s.8.81.8,1.82a80.14,80.14,0,0,1-1.3,11.22c-.71,2.62-1.62,2.62-5.46,2.62-7.57,0-13.13-.2-17.47-.31s-7.47-.29-10.5-.29c-1.11,0-3.34.1-5.76.1s-5,.19-7,.19c-1.31,0-2-.29-2-1,0-.5.41-.8,1.61-.8a17.29,17.29,0,0,0,3.64-.4c2-.41,2.53-2.63,2.92-5.56.52-4.24.52-12.22.52-21.5Z"/><path class="cls-1" d="M1785.38,335.45c0,2.73-.09,2.93-1.31,3.63-6.56,3.44-16.46,4.55-24.33,4.55-24.75,0-46.65-11.72-46.65-39.59,0-16.16,8.37-27.46,17.57-33,9.68-5.85,18.68-6.56,27.16-6.56a118.89,118.89,0,0,1,17.87,1.62,71.33,71.33,0,0,0,8,1.11c1.21.09,1.42.49,1.42,1.2a135.62,135.62,0,0,0-.71,16.56c0,1.62-.31,2.13-1.12,2.13s-.9-.51-1-1.32a14.32,14.32,0,0,0-3.42-8.38c-3-3.23-11.13-7.88-22.53-7.88-5.56,0-12.94.41-20,6.27-5.64,4.74-9.28,12.32-9.28,24.74,0,21.71,13.84,38,35.14,38,2.63,0,6.16,0,8.58-1.11,1.52-.71,1.93-2,1.93-3.74v-9.49c0-5.05,0-8.88-.1-11.91-.11-3.44-1-5.05-4.35-5.76a20.87,20.87,0,0,0-3.93-.31c-.91,0-1.53-.2-1.53-.81,0-.8.71-1,2.13-1,5.25,0,11.6.31,14.64.31s8.48-.31,11.82-.31c1.32,0,2,.21,2,1,0,.61-.62.81-1.33.81a16.21,16.21,0,0,0-2.72.31c-2.73.51-3.74,2.22-3.84,5.76-.11,3-.11,7.06-.11,12.11Z"/><path class="cls-1" d="M1841.2,295.16c0-15.37,0-18.18-.2-21.42-.19-3.43-1-5.05-4.34-5.75a20.11,20.11,0,0,0-3.94-.31c-1.11,0-1.72-.19-1.72-.9s.71-.91,2.23-.91c2.72,0,5.65.1,8.17.1s4.95.21,6.37.21c3.22,0,23.32,0,25.24-.1a42.34,42.34,0,0,0,4.35-.62,9.13,9.13,0,0,1,1.62-.4c.5,0,.6.4.6.91a62.08,62.08,0,0,0-.8,6.56c-.11,1-.32,5.46-.51,6.66-.11.51-.31,1.12-1,1.12s-.92-.52-.92-1.41a11.1,11.1,0,0,0-.59-3.63c-.72-1.82-1.72-3-6.78-3.65-1.72-.2-12.32-.39-14.34-.39-.49,0-.7.29-.7,1v25.54c0,.7.1,1.11.7,1.11,2.22,0,13.85,0,16.16-.2s4-.5,4.85-1.52c.7-.81,1.11-1.3,1.62-1.3s.7.19.7.81-.5,2.21-.81,7.36c-.2,2-.4,6.07-.4,6.78s0,1.9-.91,1.9a.8.8,0,0,1-.91-.9,25.78,25.78,0,0,0-.41-3.64c-.49-2-1.9-3.53-5.65-3.94-1.92-.2-11.92-.3-14.33-.3-.51,0-.61.4-.61,1v8c0,3.42-.1,12.71,0,15.64.21,7,1.81,8.48,12.12,8.48,2.61,0,6.86,0,9.49-1.21s3.83-3.33,4.54-7.47c.2-1.11.41-1.52,1.11-1.52s.81.81.81,1.82a80.12,80.12,0,0,1-1.31,11.22c-.71,2.62-1.62,2.62-5.46,2.62-7.58,0-13.13-.2-17.46-.31s-7.48-.29-10.51-.29c-1.11,0-3.33.1-5.75.1s-5,.19-7,.19c-1.31,0-2-.29-2-1,0-.5.39-.8,1.6-.8a17.29,17.29,0,0,0,3.64-.4c2-.41,2.52-2.63,2.93-5.56.5-4.24.5-12.22.5-21.5Z"/><rect class="cls-1" x="2.3" y="381.87" width="1878.12" height="3.19"/><path d="M551.14,460.4V438.24c0-5.56-.27-9-.79-10.45a3.53,3.53,0,0,0-2.4-2.21,16.8,16.8,0,0,0-4.36-.47v-1.8c1.26,0,3.13.05,5.62.15s4.36.16,5.62.16,3.3-.05,6-.16,4.67-.15,6-.15v1.8c-1.16,0-2.07,0-2.75.08a6.12,6.12,0,0,0-2.28.71,3.37,3.37,0,0,0-1.73,1.89q-.79,2.11-.79,10.45V461.5q0,7.54,2,9.63t9.52,2.08h.7q7.47,0,10.46-2a9.83,9.83,0,0,0,4.32-5.74c.21-.89.47-2.25.78-4.09h2l-.71,13.91c-1.88-.1-3.25-.2-4.09-.31q-6.75.08-40.63.31v-1.8c1.15,0,2.07,0,2.75-.08a6.23,6.23,0,0,0,2.28-.71,3.38,3.38,0,0,0,1.73-1.88C550.87,469.44,551.14,466,551.14,460.4Z"/><path d="M629.42,476.2a29.06,29.06,0,0,1-20.16-7.55,24.68,24.68,0,0,1-8.37-19.17,25.07,25.07,0,0,1,8.6-19.3,29.15,29.15,0,0,1,20.24-7.82,28.58,28.58,0,0,1,19.89,7.58,24.63,24.63,0,0,1,8.33,19q0,11.94-8.22,19.61T629.42,476.2Zm0-51.72A16.2,16.2,0,0,0,615,432.66a30.7,30.7,0,0,0-3.19,8,36.59,36.59,0,0,0-1.06,8.85,38.35,38.35,0,0,0,1,9.07,27.55,27.55,0,0,0,3.19,7.79,15.57,15.57,0,0,0,6,5.66,18.58,18.58,0,0,0,9,2.08,16.78,16.78,0,0,0,8.72-2.2,15.16,15.16,0,0,0,5.7-5.9,29.24,29.24,0,0,0,2.91-7.86,41.89,41.89,0,0,0,.9-8.88,41.1,41.1,0,0,0-.59-7.11,29.13,29.13,0,0,0-2-6.68,20.91,20.91,0,0,0-3.54-5.66,15.47,15.47,0,0,0-5.34-3.85A17.39,17.39,0,0,0,629.42,424.48Z"/><path d="M672.41,474.78V459.46h1.81q2.91,14.63,14.85,14.62a12.38,12.38,0,0,0,8-2.6,8.73,8.73,0,0,0,3.22-7.23,10.23,10.23,0,0,0-1-4.52,9.57,9.57,0,0,0-3-3.45,26.39,26.39,0,0,0-3.65-2.32c-1.13-.58-2.58-1.23-4.36-2a57.88,57.88,0,0,1-5.43-2.4,30.79,30.79,0,0,1-4.56-2.94,11.9,11.9,0,0,1-3.57-4.37,13.1,13.1,0,0,1-1.22-5.77A12.92,12.92,0,0,1,678,426.17a16.48,16.48,0,0,1,11.12-3.81,20.24,20.24,0,0,1,11.87,4l1.81-3.06h.86l.39,13.59h-1.8q-3.46-12.42-13.13-12.42a9.69,9.69,0,0,0-6.52,2.28,7.56,7.56,0,0,0-2.67,6.05,7.67,7.67,0,0,0,.7,3.31,8.48,8.48,0,0,0,4.09,4.36,24.6,24.6,0,0,0,2.63,1.41l3,1.3q3.93,1.65,6.29,2.87A40.69,40.69,0,0,1,702,449.4a13.72,13.72,0,0,1,4.33,5A14.68,14.68,0,0,1,707.7,461a13,13,0,0,1-5.62,11.24,22.1,22.1,0,0,1-13.17,4,22.63,22.63,0,0,1-13.75-4.72l-1.89,3.3Z"/><path d="M774.11,449.79l16.67,19.1a17.69,17.69,0,0,0,3.45,3.26,11.65,11.65,0,0,0,4.25,1.38v1.8q-1.18,0-3.54-.15c-1.57-.11-2.75-.16-3.54-.16s-1.67.05-3,.16-2.28.15-2.91.15l-3.7-4.55-13-16.19-1-1.26a11.58,11.58,0,0,0-.91-1l-.67-.54a1.72,1.72,0,0,0-.94-.44l-1.14-.11a14,14,0,0,0-1.77-.08v9.27c0,5.56.24,9,.71,10.46a3.85,3.85,0,0,0,1,1.57,3.48,3.48,0,0,0,1.85.82c.79.13,1.39.21,1.81.24s1.1,0,2,0v1.8c-1.15,0-3,0-5.42-.11l-5.66-.2c-1.31,0-3.28.05-5.89.16s-4.59.15-5.9.15v-1.8c1.15,0,2.07,0,2.75-.08a6.23,6.23,0,0,0,2.28-.71,3.08,3.08,0,0,0,1.65-1.88c.47-1.42.71-4.9.71-10.46V438.24q0-8.34-.71-10.45a3.76,3.76,0,0,0-1-1.58,3.42,3.42,0,0,0-1.81-.82c-.76-.13-1.36-.21-1.81-.24s-1.14,0-2.08,0v-1.8q2.2,0,6.76.15t6.76.16c1.1,0,2.76-.05,5-.16s3.89-.15,5-.15a39,39,0,0,1,6.68.5,21.18,21.18,0,0,1,5.62,1.85,9.59,9.59,0,0,1,4.21,4,13.42,13.42,0,0,1,1.49,6.6,11.89,11.89,0,0,1-4,9.51A17.49,17.49,0,0,1,774.11,449.79Zm-11.79-21.3V449c2.47,0,4.34,0,5.62-.11a28.23,28.23,0,0,0,4.48-.71,8.15,8.15,0,0,0,3.82-1.77A9.7,9.7,0,0,0,778.4,443a15.24,15.24,0,0,0,.9-5.58,12.31,12.31,0,0,0-2.91-8.57,10.38,10.38,0,0,0-8.09-3.22c-3.3,0-5,0-5.11.08C762.61,425.93,762.32,426.87,762.32,428.49Z"/><path d="M817,460.4V438.24q0-8.34-.79-10.45a3.53,3.53,0,0,0-2.4-2.21,16.8,16.8,0,0,0-4.36-.47v-1.8c1.26,0,3.15.05,5.66.15s4.4.16,5.66.16l6-.2c2.62-.08,4.59-.11,5.9-.11v1.8c-1.15,0-2.07,0-2.75.08a6.23,6.23,0,0,0-2.28.71,3.37,3.37,0,0,0-1.73,1.89c-.52,1.41-.79,4.89-.79,10.45V460.4c0,5.56.27,9,.79,10.46a3.54,3.54,0,0,0,2.4,2.2,16.8,16.8,0,0,0,4.36.47v1.8c-1.21,0-3.08,0-5.62-.11l-5.7-.2c-1.31.05-3.29.11-5.93.16s-4.63.1-5.94.15v-1.8c1.15,0,2.07,0,2.75-.08a6.23,6.23,0,0,0,2.28-.71,3.38,3.38,0,0,0,1.73-1.88C816.69,469.44,817,466,817,460.4Z"/><path d="M874.56,476.2a29.06,29.06,0,0,1-20.16-7.55A24.68,24.68,0,0,1,846,449.48a25.07,25.07,0,0,1,8.6-19.3,29.15,29.15,0,0,1,20.24-7.82,28.56,28.56,0,0,1,19.89,7.58,24.63,24.63,0,0,1,8.33,19q0,11.94-8.21,19.61T874.56,476.2Zm0-51.72a16.2,16.2,0,0,0-14.46,8.18,30.7,30.7,0,0,0-3.19,8,37.1,37.1,0,0,0-1.06,8.85,38.35,38.35,0,0,0,1,9.07,27.55,27.55,0,0,0,3.19,7.79,15.57,15.57,0,0,0,6,5.66,18.58,18.58,0,0,0,9,2.08,16.85,16.85,0,0,0,8.73-2.2,15.2,15.2,0,0,0,5.69-5.9,29.24,29.24,0,0,0,2.91-7.86,44.08,44.08,0,0,0,.32-16,29.66,29.66,0,0,0-2-6.68,20.91,20.91,0,0,0-3.54-5.66,15.47,15.47,0,0,0-5.34-3.85A17.39,17.39,0,0,0,874.56,424.48Z"/><path d="M917.55,474.78V459.46h1.81q2.91,14.63,14.85,14.62a12.38,12.38,0,0,0,8-2.6,8.73,8.73,0,0,0,3.22-7.23,10.1,10.1,0,0,0-1-4.52,9.47,9.47,0,0,0-3-3.45,25.81,25.81,0,0,0-3.65-2.32c-1.13-.58-2.58-1.23-4.36-2a57.88,57.88,0,0,1-5.43-2.4,30.73,30.73,0,0,1-4.55-2.94,11.83,11.83,0,0,1-3.58-4.37,13.24,13.24,0,0,1-1.22-5.77,12.92,12.92,0,0,1,4.44-10.34,16.48,16.48,0,0,1,11.12-3.81,20.24,20.24,0,0,1,11.87,4l1.81-3.06h.86l.4,13.59h-1.81q-3.46-12.42-13.13-12.42a9.69,9.69,0,0,0-6.52,2.28,7.56,7.56,0,0,0-2.67,6.05,7.67,7.67,0,0,0,.7,3.31,10.61,10.61,0,0,0,1.5,2.39,10.49,10.49,0,0,0,2.59,2,24.48,24.48,0,0,0,2.64,1.41l3,1.3q3.93,1.65,6.29,2.87a40.73,40.73,0,0,1,5.27,3.34,13.78,13.78,0,0,1,4.32,5,14.68,14.68,0,0,1,1.41,6.56,13,13,0,0,1-5.62,11.24,22.09,22.09,0,0,1-13.16,4,22.63,22.63,0,0,1-13.76-4.72l-1.88,3.3Z"/><path d="M1036.94,427.23l1.26-3.69h1.18L1040,439h-1.8a17.76,17.76,0,0,0-5.47-10.76,15.76,15.76,0,0,0-11.12-4.09,16.23,16.23,0,0,0-8.76,2.32,15.32,15.32,0,0,0-5.7,6.17,33.82,33.82,0,0,0-2.91,8.13,42.08,42.08,0,0,0-.94,9.08,38.85,38.85,0,0,0,1,8.88,29.34,29.34,0,0,0,3,7.78,15,15,0,0,0,5.74,5.74,17.25,17.25,0,0,0,8.72,2.12,17.59,17.59,0,0,0,7-1.29,12.5,12.5,0,0,0,5-3.86,26.71,26.71,0,0,0,3.22-5.38,39.49,39.49,0,0,0,2.2-6.76h1.41v17.21h-1l-1.89-4a27.13,27.13,0,0,1-17.36,5.9q-12,0-19.42-7.19t-7.38-19.14q0-12,7.78-19.73t19.72-7.78a27.63,27.63,0,0,1,8.22,1.1A34.43,34.43,0,0,1,1036.94,427.23Z"/><path d="M1082.68,476.2a29.06,29.06,0,0,1-20.16-7.55,24.68,24.68,0,0,1-8.37-19.17,25,25,0,0,1,8.61-19.3,29.12,29.12,0,0,1,20.24-7.82,28.54,28.54,0,0,1,19.88,7.58,24.63,24.63,0,0,1,8.33,19q0,11.94-8.21,19.61T1082.68,476.2Zm0-51.72a16.23,16.23,0,0,0-14.46,8.18,30.33,30.33,0,0,0-3.18,8,36.59,36.59,0,0,0-1.06,8.85,37.83,37.83,0,0,0,1,9.07,27.52,27.52,0,0,0,3.18,7.79,15.57,15.57,0,0,0,6,5.66,18.58,18.58,0,0,0,9,2.08,16.82,16.82,0,0,0,8.73-2.2,15.3,15.3,0,0,0,5.7-5.9,29.55,29.55,0,0,0,2.9-7.86,41.24,41.24,0,0,0,.91-8.88,42.11,42.11,0,0,0-.59-7.11,28.67,28.67,0,0,0-2-6.68,21.13,21.13,0,0,0-3.53-5.66,15.61,15.61,0,0,0-5.35-3.85A17.39,17.39,0,0,0,1082.68,424.48Z"/><path d="M1131.72,460.4V438.24q0-8.34-.78-10.45a3.53,3.53,0,0,0-2.4-2.21,16.85,16.85,0,0,0-4.36-.47v-1.8c1.25,0,3.13.05,5.62.15s4.36.16,5.62.16,3.3-.05,6-.16,4.66-.15,6-.15v1.8c-1.15,0-2.07,0-2.75.08a6.13,6.13,0,0,0-2.27.71,3.39,3.39,0,0,0-1.74,1.89q-.78,2.11-.78,10.45V461.5q0,7.54,2,9.63t9.51,2.08h.71q7.47,0,10.45-2a9.55,9.55,0,0,0,3-2.79,9.22,9.22,0,0,0,1.37-2.95c.21-.89.48-2.25.79-4.09h2l-.71,13.91c-1.89-.1-3.25-.2-4.09-.31q-6.75.08-40.63.31v-1.8c1.15,0,2.07,0,2.75-.08a6.23,6.23,0,0,0,2.28-.71,3.42,3.42,0,0,0,1.73-1.88C1131.46,469.44,1131.72,466,1131.72,460.4Z"/><path d="M1187.68,460.4V438.24q0-8.34-.78-10.45a3.53,3.53,0,0,0-2.4-2.21,16.85,16.85,0,0,0-4.36-.47v-1.8c1.26,0,3.13.05,5.62.15s4.36.16,5.62.16,3.3-.05,6-.16,4.67-.15,6-.15v1.8c-1.15,0-2.06,0-2.75.08a6.13,6.13,0,0,0-2.27.71,3.37,3.37,0,0,0-1.73,1.89q-.79,2.11-.79,10.45V461.5q0,7.54,2,9.63c1.36,1.39,4.52,2.08,9.5,2.08h.71q7.47,0,10.45-2a9.8,9.8,0,0,0,4.33-5.74c.21-.89.47-2.25.78-4.09h2l-.71,13.91c-1.89-.1-3.25-.2-4.08-.31q-6.77.08-40.64.31v-1.8c1.15,0,2.07,0,2.75-.08a6.23,6.23,0,0,0,2.28-.71,3.42,3.42,0,0,0,1.73-1.88C1187.42,469.44,1187.68,466,1187.68,460.4Z"/><path d="M1243.64,460.25v-21.7c0-5.55-.26-9-.78-10.45a3.52,3.52,0,0,0-2.4-2.2,16.37,16.37,0,0,0-4.36-.47v-2.12h39.06v11.86h-1.8a19.5,19.5,0,0,0-1.54-5.38,6.19,6.19,0,0,0-2.94-3,12.64,12.64,0,0,0-3.89-1.18,48.7,48.7,0,0,0-5.54-.23h-5.66c-1.21,0-1.87.1-2,.31a23.38,23.38,0,0,0-.08,2.91v18.63q7.4.32,9.9-2.17t2.91-7.5h1.81c-.1,4.82-.21,8.38-.31,10.69.1,2.09.21,5.34.31,9.74h-1.81q-.78-5.73-3.53-7.19t-9.28-1.45v12.89q0,6,1.42,7.94,2.28,3,10.06,2.83a42,42,0,0,0,5.66-.44,15.06,15.06,0,0,0,4.2-1.37,6.94,6.94,0,0,0,3.19-3.19,16.69,16.69,0,0,0,1.49-5.54h1.81l-.71,12.66H1236.1v-1.81c1.15,0,2.07,0,2.75-.08a6.39,6.39,0,0,0,2.28-.7,3.37,3.37,0,0,0,1.73-1.89Q1243.64,468.57,1243.64,460.25Z"/><path d="M1340.08,423.78l-.86,15.56h-1.65a16.33,16.33,0,0,0-4.56-11,14.6,14.6,0,0,0-10.84-4.2,17.91,17.91,0,0,0-7.78,1.61,14.81,14.81,0,0,0-5.39,4.13,21.23,21.23,0,0,0-3.3,6.13,33.45,33.45,0,0,0-1.73,7.11,61.63,61.63,0,0,0-.43,7.58,37.6,37.6,0,0,0,.94,8.65,26,26,0,0,0,3,7.39,14.32,14.32,0,0,0,5.62,5.34,17.33,17.33,0,0,0,8.41,2c4.09,0,7.29-1,9.63-2.95s3.49-4.91,3.49-8.84q0-3.78-1.45-5.07t-5.31-1.61V453.8h20.6v1.81c-2-.05-3.31.39-3.93,1.34a8.58,8.58,0,0,0-1,4.63v8.33c-.73,0-1.39,0-2,0l-1.45.08a7.63,7.63,0,0,0-1.34.24l-1.06.27a8.68,8.68,0,0,0-1.18.47c-.58.26-1,.43-1.1.51s-.62.34-1.38.79-1.3.75-1.61.9a27,27,0,0,1-12.34,3q-11.64,0-19-7t-7.39-18.59q0-12.18,7.67-20.2t19.84-8q9.75,0,16.35,4.95l1.65-3.53Z"/><path d="M1365,460.25v-21.7c0-5.55-.26-9-.79-10.45a3.52,3.52,0,0,0-2.39-2.2,16.47,16.47,0,0,0-4.36-.47v-2.12h39.06v11.86h-1.81a19.88,19.88,0,0,0-1.53-5.38,6.21,6.21,0,0,0-3-3,12.56,12.56,0,0,0-3.89-1.18,48.47,48.47,0,0,0-5.54-.23h-5.66c-1.21,0-1.86.1-2,.31a24.88,24.88,0,0,0-.07,2.91v18.63q7.38.32,9.9-2.17t2.91-7.5h1.8c-.1,4.82-.21,8.38-.31,10.69.1,2.09.21,5.34.31,9.74h-1.8q-.79-5.73-3.54-7.19t-9.27-1.45v12.89q0,6,1.41,7.94,2.28,3,10.06,2.83a42,42,0,0,0,5.66-.44,15,15,0,0,0,4.2-1.37,6.94,6.94,0,0,0,3.19-3.19,16.45,16.45,0,0,0,1.49-5.54h1.81l-.71,12.66h-42.75v-1.81c1.15,0,2.06,0,2.74-.08a6.44,6.44,0,0,0,2.29-.7,3.39,3.39,0,0,0,1.72-1.89Q1365,468.57,1365,460.25Z"/><path d="M470,456.79l-.68,1.91c-.11.2-.37.85-.81,1.95s-.76,2-1,2.6-.52,1.44-.88,2.41a16.76,16.76,0,0,0-.76,2.6,9.71,9.71,0,0,0-.23,2,2.74,2.74,0,0,0,.34,1.38,3.11,3.11,0,0,0,.73.92,3,3,0,0,0,1.18.49q.81.2,1.26.27c.31.05.79.11,1.46.15s1.07.08,1.22.08v1.76c-1-.05-2.38-.1-4.24-.15s-3.25-.1-4.17-.15-2.19.05-4,.15-3.11.15-4,.15v-1.76a10,10,0,0,0,4.66-1.49,8.89,8.89,0,0,0,2.68-3.94q1.07-2.44,3.17-7.3t3.17-7.3l11.7-30.05h2.6l15.45,38.84c.15.31.5,1.14,1.07,2.49s1.08,2.55,1.56,3.59a11.85,11.85,0,0,0,1.34,2.33c1.12,1.53,3.31,2.48,6.58,2.83v1.76c-1.18,0-3-.05-5.39-.15s-4.25-.15-5.47-.15-3.07.05-5.54.15-4.32.15-5.55.15v-1.76h.69a6.87,6.87,0,0,0,.77,0,5.85,5.85,0,0,1,.76-.08c.36,0,.62-.05.8-.08s.42-.08.73-.15a2.47,2.47,0,0,0,.69-.27l.57-.38a1.49,1.49,0,0,0,.5-.5,3.85,3.85,0,0,0,.27-.61,2.76,2.76,0,0,0,.11-.8,18.05,18.05,0,0,0-1.53-6l-3-7.87Zm1-2.45H487.9l-8.41-21.56Z"/></g></g></svg>