<svg xmlns="http://www.w3.org/2000/svg" xmlns:xlink="http://www.w3.org/1999/xlink" width="723.971" height="185.066" viewBox="0 0 723.971 185.066"><defs><clipPath id="a"><rect width="723.971" height="185.066" fill="none"/></clipPath></defs><g clip-path="url(#a)"><path d="M443.157,269.443c-25.55,0-39.755-18.283-39.755-40.983,0-20.39,13.49-33.949,37-33.949a54.054,54.054,0,0,1,12.06,1.305v12.555a73.931,73.931,0,0,0-11.548-1.306c-13.7,0-22.177,8.339-22.177,22.8,0,15.37,9.2,27.02,26.06,27.02a37.908,37.908,0,0,0,8.789-.8v12.555a52.108,52.108,0,0,1-10.424.8" transform="translate(-176.475 -85.092)"/><path d="M560.316,269.444c-19.827,0-33.725-17.176-33.725-38.672,0-21.395,13.081-36.26,33.725-36.26,20.44,0,33.419,15.468,33.419,36.26,0,21.193-13.285,38.672-33.419,38.672m0-62.378c-11.957,0-18.395,9.944-18.395,23.706,0,14.566,7.663,26.115,18.395,26.115,10.935,0,18.089-11.952,18.089-26.115s-6.847-23.706-18.089-23.706" transform="translate(-230.366 -85.092)"/><path d="M736.466,269.061H693.339c.306-5.826.51-10.344.51-18.481V217.835a90.3,90.3,0,0,0-2.043-20.292h17.885c-.206,5.124-.511,12.255-.511,20.292v40.179h6.847a165.312,165.312,0,0,0,21.258-1.507Z" transform="translate(-302.642 -86.418)"/><path d="M857.714,269.061H814.587c.307-5.826.51-10.344.51-18.481V217.835a90.3,90.3,0,0,0-2.043-20.292h17.885c-.205,5.124-.511,12.255-.511,20.292v40.179h6.847a165.32,165.32,0,0,0,21.258-1.507Z" transform="translate(-355.684 -86.418)"/><path d="M977.569,269.061H936.178c.308-5.826.511-10.344.511-18.481V217.835a90.3,90.3,0,0,0-2.043-20.292h41.8l.716,11.552c-5.212-.3-12.265-.5-19.725-.5H952.02v17.378h5.416c6.336,0,12.469,0,19.009-.5l-.511,12.053c-5.723-.4-10.015-.5-18.5-.5H952.02v20.994h5.416a143.014,143.014,0,0,0,21.053-1.507Z" transform="translate(-408.876 -86.418)"/><path d="M1095.473,269.443c-25.039,0-41.8-16.877-41.8-39.577,0-21.593,14.818-35.355,38.733-35.355a85.262,85.262,0,0,1,15.125,1.706v12.255a110.3,110.3,0,0,0-14-1.406c-15.33,0-24.527,8.339-24.527,22.7,0,17.88,12.773,27.121,25.854,27.121a19.254,19.254,0,0,0,4.294-.5V243.326h-12.469V231.777c4.292.3,8.583.5,12.876.5a106.352,106.352,0,0,0,12.06-.5v17.779c0,6.126.307,12.053.512,18.179a74.883,74.883,0,0,1-16.658,1.708" transform="translate(-460.946 -85.092)"/><path d="M1248.548,269.061h-41.39c.308-5.826.512-10.344.512-18.481V217.835a90.241,90.241,0,0,0-2.044-20.292h41.8l.716,11.552c-5.213-.3-12.265-.5-19.725-.5H1223v17.378h5.417c6.335,0,12.468,0,19.009-.5l-.512,12.053c-5.723-.4-10.015-.5-18.5-.5H1223v20.994h5.417a143,143,0,0,0,21.052-1.507Z" transform="translate(-527.42 -86.418)"/><path d="M455.829,74.55c.307-5.826.51-10.345.51-18.482V41.805H428.951V56.068c0,5.524.307,13.261.51,18.482H413.109c.307-5.826.511-10.345.511-18.482V23.324a90.2,90.2,0,0,0-2.045-20.292h17.885c-.2,5.124-.51,12.255-.51,20.292v7.434h27.388V23.324A90.271,90.271,0,0,0,454.3,3.032h17.885c-.205,5.124-.511,12.255-.511,20.292V56.068c0,5.524.306,13.261.511,18.482Z" transform="translate(-180.051 -1.326)" fill="#860038"/><path d="M585.792,73.224c-2.351-6.429-5.519-16.171-6.846-20.09H556.563c-1.532,5.022-4.19,14.966-5.314,20.09H534.386c3.169-7.835,6.439-15.367,9.607-24.107l4.9-13.459c3.476-9.443,7.768-21.1,8.892-32.042L577.412,0c1.328,7.333,5.723,21.193,9.913,33.048l4.8,13.459a218.215,218.215,0,0,0,11.549,26.718ZM568.419,13.56h-.205c-2.452,10.344-6.438,22.3-8.89,30.034H576.39c-1.942-6.529-5.927-19.488-7.971-30.034" transform="translate(-233.776)" fill="#860038"/><path d="M708.508,73.771c-7.768-8.336-13.285-19.585-19.52-30.636l-3.883.3V55.289c0,5.524.307,13.26.511,18.481H669.264c.307-5.826.512-10.344.512-18.481V22.544a90.2,90.2,0,0,0-2.045-20.291h6.234c3.577,0,7.052-.2,10.629-.5,3.474-.2,6.949-.5,10.323-.5,16.043,0,25.446,7.431,25.446,20.894,0,12.154-11.242,17.476-16.453,19.084C712.9,57,717.2,62.824,727.824,73.771ZM693.587,12.3a70.235,70.235,0,0,0-8.482.6V33.393c1.124.1,2.147.2,3.372.2,9.5,0,16.557-4.824,16.557-11.451,0-6.429-4.8-9.846-11.447-9.846" transform="translate(-292.11 -0.547)" fill="#860038"/><path d="M828.727,13.3H808.8V52.076c0,11.25.308,16.874.511,21.7H792.958c.409-6.628.511-10.446.511-21.7V13.3h-4.906a124.578,124.578,0,0,0-15.739,1.005l.717-12.056h40.367a99.673,99.673,0,0,0,15.535-1Z" transform="translate(-338.084 -0.547)" fill="#860038"/><path d="M947.933,24.932V56.772c0,5.927.307,11.854.716,17.779L932.091,76.26C921.873,57.778,910.938,39.6,900.82,21.114l-.205.2c.306,17.778.306,35.557,1.533,53.235h-15.33c.716-7.233,1.022-14.463,1.022-21.7V28.145A228.427,228.427,0,0,0,886,3.033h17.375c6.335,9.644,12.366,19.487,18.292,29.331,4.906,8.238,9.811,16.473,13.9,25.112l.2-.2-1.125-32.342c-.2-7.333-.51-14.566-1.021-21.9h15.33a174.648,174.648,0,0,0-1.022,21.9" transform="translate(-387.595 -1.327)" fill="#860038"/><path d="M1063.795,74.55H1022.4c.308-5.826.511-10.345.511-18.482V23.324a90.259,90.259,0,0,0-2.043-20.292h41.8l.716,11.552c-5.213-.3-12.265-.5-19.725-.5h-5.417V31.461h5.417c6.335,0,12.469,0,19.009-.5l-.512,12.053c-5.723-.4-10.014-.5-18.5-.5h-5.417V63.5h5.417A143.017,143.017,0,0,0,1064.716,62Z" transform="translate(-446.597 -1.326)" fill="#860038"/><path d="M1160.436,74.55h-43.128c.307-5.826.51-10.345.51-18.482V23.324a90.317,90.317,0,0,0-2.043-20.292h17.884c-.205,5.124-.511,12.255-.511,20.292V63.5H1140A165.322,165.322,0,0,0,1161.254,62Z" transform="translate(-488.114 -1.326)" fill="#860038"/><path d="M1250.8,74.55h-43.128c.306-5.826.51-10.345.51-18.482V23.324a90.243,90.243,0,0,0-2.043-20.292h17.885c-.205,5.124-.512,12.255-.512,20.292V63.5h6.847A165.365,165.365,0,0,0,1251.614,62Z" transform="translate(-527.643 -1.326)" fill="#860038"/><path d="M148.784,218.612s-2.308,19.4,3.076,17.387,4.615-6.8,4.615-6.8,2.678,10.566,9.485,2.016c4.614-5.8,11.024,9.575,10.511-1.008-.708-14.611-23.586-6.047-27.688-11.591" transform="translate(-64.873 -95.635)" fill="#fff"/><path d="M220.643,231.6s-8.077,14.789,9.486,8.315c4.1-1.512-9.486-8.315-9.486-8.315" transform="translate(-95.713 -101.318)" fill="#fff"/><path d="M36.254,119.028,0,119.039c.106,42.9,35.523,77.6,79.108,77.495a79.566,79.566,0,0,0,37.511-9.423,71.716,71.716,0,0,1-9.937.727c-38.8.091-70.334-30.673-70.428-68.809" transform="translate(0 -52.071)" fill="#fdb913"/><path d="M114.822,27.329,114.921.9C82.61.974,56.473,26.743,56.551,58.459a56.343,56.343,0,0,0,7.1,27.294,50.417,50.417,0,0,1-.548-7.235c-.069-28.23,23-51.121,51.722-51.189" transform="translate(-24.739 -0.392)" fill="#860038"/><path d="M178.555,85.545l20.243.026c-.06-23.947-19.832-43.317-44.165-43.259A44.387,44.387,0,0,0,133.7,47.572a40.055,40.055,0,0,1,5.545-.405c21.66-.051,39.263,17.088,39.314,38.378" transform="translate(-58.487 -18.51)" fill="#fdb913"/><path d="M160.06,159.546l-.034,48.391c59.288-.141,107.382-47.413,107.239-105.595A103.383,103.383,0,0,0,254.251,52.28a93.128,93.128,0,0,1,1,13.266c.128,51.788-42.49,93.876-95.187,94" transform="translate(-70.006 -22.871)" fill="#860038"/><path d="M210.458,81.15c-5.817-2.477-12.488.4-16.9,4.367-5.745,5.176-8.474,10.995-10.784,16.9-1.349,3.442-2.3,7.06-4.292,10.222a9,9,0,0,1-3.6,3.47,4.177,4.177,0,0,1-4.311.27c.084-7.268-2.948-15.483-4.689-20.208a67.813,67.813,0,0,1-3.042-7.207c-.182-2.248-.3-4.685-.723-7.093-.318-1.836-1.2-3.743-1.766-3.889-2.023.7-3.963,1.479-6.248,2.437-2.483-1.06-6.236-3.68-8.9-4.651-1.882-.686-3.227-1.222-5.555-.42-1.32.694-1.815,3.416-3.336,3.728-3.254.67-5.989-.078-9.418,1.747-2.847,1.223-3.089,2.462-4.663,2.387-1.674-1.156-10.136-5.72-12.126-4.82-.422,2.195-1.481,4.252-1.6,6.979a16.614,16.614,0,0,0,1.248,6.4c.883,1.3,1.477,1.718,1.591,2.505.094,1.3-2.7,4.694-2.889,7.623-.341,3.377,1.1,6.212.2,9.083-1.5,4.784-4.567,9.187-5.779,14.123-2.174,6.34-1.423,10.036.919,14.62a104.138,104.138,0,0,0,9.631,14.434,15.9,15.9,0,0,1-2.184,6.493c-1.277,2.077-2.648,2.919-3.273,4.33a7.731,7.731,0,0,0,2.471,8.6,4.287,4.287,0,0,0,4.823-.312l1.3-2.052,2.809,2.458a3.984,3.984,0,0,0,4.23-.05l2.413-3.122c.679.678,1.2,1.779,2.342,3.1a5.061,5.061,0,0,0,5.952-.015l2.386-3.619c.737,1.037,1.155,1.888,2.516,3.607,2.7,1.2,4.793,1.377,7.289-.2,1.2-1.2,2.981-3.177,2.118-5.585,1.459-2.525,3.563-4.383,4.047-6.557.5-1.379-.22-2.417-.066-3.363.15-.735,1.389-2.728,2.094-2.974l.668,10.168c-3.039,4.13-5.519,4.509-1.694,8.624,1.577,1.343,13.771,1.235,16.571-.228.56-.663,1.308-.377,1.768-2.517-1.031-2.166-1.561-2.139-5.189-5.318-.385-5.4,2.187-13.281,2.862-18.268.918,4.128,4.176,10.527,7.546,12.071a32.311,32.311,0,0,0,6.573,1.915c.933.8,4.77,3.66,2.106,11.3.17,1.094,3.62.648,6.182.642s6.171.193,7.427-.846c.167-3.29-3.279-3.066-4.962-7.131-1.987-3.781-4.873-7.36-5.747-11.5-.189-6.232-.835-16.443-4.81-22.229-2.06-3-4.611-5.389-6.362-8.556,6.618-5.725,8.853-13.227,11.486-20.535,2.1-5.85,4.137-11.3,10.349-15.514a10.3,10.3,0,0,1,5.194-1.4c3.281.011,6.254,1.562,8.891.239,2.32-2.993-1.908-4.227-3.091-4.666m-51.814,1.32c.113,2.092-2.1,3.116.06,5.052a14.086,14.086,0,0,1-2.379,2.579c-1.8-.357-3.463-1.7-5.106-3.01Zm-40.238,19.236,11.618-.155c.79-1.691,1.131-4.868,1.657-6.6l-.308,17.46-3.431,1.22,1.475-7.62c-5.719-.949-8.1-1.193-11.011-4.3m17.5,19.324c-1.137,3.017-3.837,4.239-6.932,4.721l-3.177-.062c3.2-1.131,7.32-2.176,10.109-4.659m-7.786-6.976c2.382,1.054,5.265,2.671,7.756,2.727,1.658.034,7.481-2.675,7.481-2.675l-7.295,5.641Zm18.055,11.587c-2.652.231-4.594.1-6.458-.84-1.631-.82-2.616-2.5-3.557-3.784a21.5,21.5,0,0,0,10.015,4.624m-4.684-19.927,1.69,7.9-3.44-1.2L139.392,94.7c.536,1.728.934,5.073,1.732,6.761l11.619.1c-2.9,3.124-5.274,3.777-11.253,4.149m3.6-14.675a18.534,18.534,0,0,1,6.883,2.08,6.672,6.672,0,0,1,3.272,5.765c-2.49-3.789-6.979-5.722-10.155-7.845m-7.982-9.2c4.434-.023,10.046,1.709,11.989,3.433-8.106-3.268-16.915-2.383-24.834-.46,2.666-.926,8.023-2.943,12.845-2.973M126.413,91c-3.167,2.135-7.646,4.091-10.119,7.889a6.683,6.683,0,0,1,3.245-5.776A18.462,18.462,0,0,1,126.413,91M112.5,82.579l7.446,4.586c-1.633,1.318-3.291,2.668-5.085,3.034a13.88,13.88,0,0,1-2.392-2.567c2.151-1.946-.073-2.96.031-5.052m8.724,88c-.951-1.509-3.048-6.34-.838-8.319,1.581-.55,2.4.284,2.808,1.774.694,2.438-1.5,4.568-1.969,6.545m11.9-.491c-.688-.727-.674-3.895-2.418-3.268l-.212.982c-1.272-.569-.8-1.618-.823-2.352-.123-3.495,4.076-3.517,4.082-.868-.155,1.4.372,4.415-.628,5.506m12.087.145-2.925-2.918a1.27,1.27,0,0,1-2.1.52,5.553,5.553,0,0,1,1.6-4.839,3.228,3.228,0,0,1,4.114,2.532Zm8.675-33.389c-.325,4.919.286,9.608.119,14.019a74.5,74.5,0,0,1-1.526-13.235c-.04-5.5,1.311-10.849,4.582-13.77a36.8,36.8,0,0,0-3.174,12.986m-6.189-9.289a19.753,19.753,0,0,0-3.156,4.681c-7.666,1.057-12.022.547-17.438.041,8.16,5.6,8.488,15.031,10.479,18.08l.049-.2c0-1.014,4.568-2.91,8.8-3-3.508,5.286.416,8.826-.9,12.858-2.236-1.678-3.659-7.164-8.279-8.4.015-.052.034-.116.055-.19-2.467-7.379-7.47-14.783-13.244-19.014.263-1.555.786-3.272-.01-4.154a22.725,22.725,0,0,0-6.087-4.788,18.454,18.454,0,0,1-5.822-5.437c5.5,2.943,11.43,7.083,15.083,12.166,5.683.894,13.107,1.2,16.649-.3,1.039-.438,1.177-.986,1.449-2.079,4.158-4.684,11.863-8.338,16.078-12.762-1.574,5.456-9.865,8.892-13.706,12.5m13.677,44.3c-1.478-.982-.41-3.151.343-4.188a3.19,3.19,0,0,1-.343,4.188m1.5-67.014c-.008-.268-1.032-6.033-1.19-7.282-.4-1.943-1.04-2.49-1.124-3.812a1.411,1.411,0,0,1,.627-1.537c1.589-1.193,2.008,8.619,1.687,12.631m4.65,65.456-1.131,1.546-1.513-4.357c1.158.574,2.82,1.512,2.644,2.811m15.853-34.564a32.82,32.82,0,0,1,3.386,15.742c-1.241-10.121-7.265-19.505-15.211-26.446l.079-3.721c4.532,4.486,9.057,9.1,11.746,14.425" transform="translate(-44.44 -32.787)"/><path d="M135.744,237.7a4.993,4.993,0,0,0-1.448,3.673c-1.537-.62-2.285-3.145-2.516-5.1,1.152-2.807,4.7-1.325,3.964,1.43" transform="translate(-57.649 -102.698)" fill="#fff"/><path d="M135.744,237.7a4.993,4.993,0,0,0-1.448,3.673c-1.537-.62-2.285-3.145-2.516-5.1C132.932,233.458,136.477,234.94,135.744,237.7Z" transform="translate(-57.649 -102.698)" fill="none" stroke="#000" stroke-width="0.466"/></g></svg>