<?xml version="1.0" encoding="UTF-8"?>
<svg id="Layer_1" xmlns="http://www.w3.org/2000/svg" width="245" height="65" version="1.1" viewBox="0 0 245 65">
  <!-- Generator: Adobe Illustrator 29.0.0, SVG Export Plug-In . SVG Version: 2.1.0 Build 186)  -->
  <defs>
    <style>
      .st0 {
        fill: #c5c9cd;
      }

      .st1 {
        fill: #c4c8cd;
      }

      .st2 {
        fill: #fff;
      }

      .st3 {
        fill: #004789;
      }
    </style>
  </defs>
  <path class="st2" d="M161.3,64.8H0V.2h245v64.6h-83.7M25.4,26.3c1.4,0,2.7-.2,4-.5.3,1.7.7,3.3.5,4.9-.1.9-.2,1.9-.4,2.8-.4,1.9-1.2,3.7-2.5,5.3-.8,1-1.5,2-2.3,3.1-.3.4-.6.8-.9,1.2,0-.5,0-1,0-1.4,0-.8,0-1.5,0-2.3,0-.7-.2-1.5-.3-2.2-.3-1.3-.8-2.5-1.4-3.7-.6-1.1-1.3-2.1-2.1-2.9-.6-.6-1.3-1.2-1.9-1.7-1.5-1.2-3.3-2-5.2-2.5-.9-.2-1.7-.3-2.6-.5-.3,0-.5,0-.6.4-.1.8-.4,1.6-.4,2.4,0,1.4,0,2.7.2,4.1.4,1.9,1,3.6,2.1,5.2.9,1.4,2.1,2.7,3.4,3.7,1.1.8,2.3,1.5,3.6,2,1.4.6,2.9.9,4.4,1-2.3,4-3.7,8.3-4.7,12.9h2c0-.3.1-.7.2-1,.5-2,1.1-3.9,1.8-5.8.9-2.4,2-4.6,3.4-6.7.9-1.4,1.9-2.7,2.8-4,.3-.5.6-1,1.1-1.3,1.8-1.1,3.7-1.2,5.6-.1-.9.6-1.8,1.3-2.5,2.1-.8.9-1.4,1.9-1.8,3.1-.5,1.2-.6,2.5-.6,3.8,0,.9.1,1.8.4,2.6.5,1.8,1.5,3.4,2.9,4.6,1,1,2.2,1.7,3.6,2.1,1.3.4,2.6.6,4,.5,1.3-.1,2.5-.4,3.7-1,1.3-.6,2.5-1.6,3.4-2.7,1.3-1.6,2.1-3.5,2.2-5.5,0-1,0-2.1-.2-3.1-.5-2.2-1.6-4.1-3.4-5.5-1.6-1.3-3.4-2.1-5.5-2.3-1.2-.1-2.3,0-3.4.2-.5.2-.9,0-1.4-.3-1.2-.9-2.6-1.3-4.1-1.3-.3,0-.5,0-.9,0,1.7-2.2,3.3-4.4,4.9-6.6,3.1,3.6,6.9,5.5,11.6,5.5,4.7,0,8.5-2,11.6-5.6-2.7-3.3-6.1-5.3-10.4-5.6-4.2-.4-8,.9-11.3,3.8,0-.1,0-.2,0-.2,1.5-2.1,3-4.1,4.6-6.2.1-.2.2-.3.5-.3.4,0,.8-.1,1.2-.2,1.7-.4,3.4-1,4.9-2,1.3-.9,2.5-1.9,3.5-3.1,1-1.2,1.8-2.6,2.3-4,.5-1.4.9-2.9.9-4.4,0-.9,0-1.8,0-2.6,0-.7-.2-1.4-.4-2.2-.7.1-1.4.2-2.1.3-1.5.2-2.9.7-4.2,1.4-.9.5-1.8,1.1-2.6,1.7-1,.7-1.8,1.6-2.5,2.5-.8,1-1.4,2-1.9,3.2-.3.8-.6,1.6-.8,2.4-.2.7-.3,1.4-.3,2.1,0,1,0,2.1,0,3.1,0,.4.2.9-.3,1.2-.1,0-.2.2-.2.3-1.2,1.6-2.3,3.2-3.5,4.7-1.3,1.8-2.7,3.6-4,5.4-.5.7-1,1.4-1.6,2.1,0-.5.2-1,.2-1.4,0-1,0-2,0-3,0-1-.3-1.9-.5-2.9,0-.3,0-.4.2-.6.8-.8,1.7-1.6,2.5-2.5.9-1.1,1.6-2.4,2.2-3.7.6-1.5.9-3,1-4.7,0-.6,0-1.1,0-1.7,0-.8-.2-1.7-.3-2.5-.4-1.6-1-3.1-1.8-4.4-.7-1.1-1.6-2.2-2.6-3.1-4.7,3.4-6.8,8-6.5,13.7-4.4-3.7-9.4-4.7-14.9-2.9,0,.2,0,.3,0,.5,0,.1,0,.3,0,.4.2,1.7.8,3.2,1.6,4.7.9,1.5,1.9,2.9,3.3,4.1,1.1,1,2.4,1.8,3.7,2.4,1.8.8,3.7,1.2,5.8,1.2M168.3,11.9c-1.3,3.6-2.6,7.3-3.9,10.9,0,0,0-.2,0-.2-.8-2.6-1.6-5.2-2.3-7.8-.6-2.1-1.3-4.2-1.9-6.3-.2-.8-.4-1.6-.6-2.4-.1-.6-.2-1.3-.3-1.9h-6.1c0,0,0,.1,0,.1.8,1.5,1.2,3.2,1.8,4.8.5,1.6,1.1,3.2,1.7,4.8,1,2.9,2,5.8,3,8.8.5,1.4.9,2.9,1.4,4.3h5.1c.2-.5.3-1.1.5-1.6.5-1.4,1-2.7,1.6-4.1.7-1.7,1.4-3.4,2.1-5.2.6-1.4,1.1-2.9,1.7-4.3.6-1.5,1.2-3,1.9-4.4.4-.9,1-1.8,1.4-2.8,0-.1,0-.3,0-.4,0,0-.2,0-.3,0,0,0-.2,0-.3,0-1.4,0-2.7,0-4.1,0-.2,0-.4,0-.7,0,.4,1.1.3,2.2,0,3.3-.4,1.5-1,2.9-1.5,4.4M126.6,16.7c0,2.8.1,5.6-.2,8.5,0,.5-.1,1-.2,1.5h5.2c-.2-1.2-.4-2.3-.5-3.5,0-.8,0-1.6,0-2.4,0-1.5,0-2.9,0-4.4,0-.7,0-1.4-.2-2.1-.3-1.4-.9-2.6-2.3-3.1-1-.4-2.1-.5-3.2-.4-1.2.1-2.3.7-3.2,1.4-.6.5-1.1.9-1.7,1.4v-2.5h-4.8c.5,1.5.7,3,.7,4.4,0,2.5,0,4.9,0,7.4,0,.5,0,1,0,1.5,0,.8-.2,1.6-.3,2.3h5.2c0,0,0,0,0-.1-.4-1.3-.5-2.6-.6-4,0-1.9,0-3.9,0-5.8,0-.8.4-1.4.9-1.9.9-.8,1.9-1.2,3.2-1,.6.1,1.1.3,1.4.8.4.6.5,1.2.6,2M137.1,51.5c-.2-.3-.4-.6-.3-1.1.1-.6.6-.9,1-1.3,0,0,.2,0,.3,0,.9.2,1.8.2,2.8,0,1.4-.3,2.7-.9,3.6-2.1.9-1.3,1.1-2.7.8-4.2-.1-.6-.4-1.1-.7-1.6.8,0,1.7,0,2.5.1.3-.5.6-1,.9-1.6,0,0,0-.2,0-.3,0,0-.2-.1-.3-.1-.6,0-1.2.1-1.8.1-1.1,0-2.1,0-3.2,0-.2,0-.4,0-.6,0-.7-.2-1.5-.4-2.2-.4-.8,0-1.6.1-2.3.3-1.7.5-3,1.5-3.5,3.2-.3.9-.3,1.8-.1,2.7.2,1,.6,1.9,1.4,2.5.4.3.7.5,1.1.8-.1.1-.3.2-.4.4-.5.4-1,.8-1.5,1.3-.4.4-.7.9-.6,1.4.1.9.6,1.6,1.5,2,.2,0,.4.2.5.3-.6.4-1.3.8-1.9,1.3-1.2.8-1.8,1.9-1.7,3.4.1,1.3.8,2.2,1.8,2.9,1.3.9,2.8,1.1,4.4,1.2.6,0,1.2,0,1.8,0,1.4,0,2.8-.5,4-1.2,1-.6,1.8-1.4,2.3-2.4.4-.9.5-1.8.5-2.8,0-1.4-.7-2.5-2-3.2-.8-.4-1.7-.6-2.6-.6-1.1,0-2.2,0-3.3,0-.8,0-1.6-.3-2.3-.9M179.7,26.8c1.1-.4,1.9-1.4,2.9-2.1,0,0,0,0,.1,0v2.1c.9,0,1.7-.1,2.5-.2.6,0,1.2,0,1.7-.1,0,0,0-.2,0-.2-.5-1.4-.7-2.9-.7-4.5,0-.8,0-1.7,0-2.5,0-1.8,0-3.6-.2-5.4-.1-1.5-1-2.5-2.4-3-1.3-.5-2.7-.6-4.2-.5-1.4,0-2.8.4-4.1.9-.1,0-.2.2-.2.3,0,.3,0,.5,0,.8,0,.6-.2,1.2-.2,1.9,0,.1,0,.3.2.4.1,0,.3.1.5,0,.5-.6,1.1-.9,1.9-1.2.8-.3,1.6-.3,2.5-.2.7.1,1.4.4,1.8,1.1.3.6.4,1.3.4,2,0,.4-.3.7-.7.8-.6.1-1.2.2-1.8.3-1.2.1-2.4.4-3.6.9-1.2.5-2.1,1.3-2.5,2.6-.3.8-.3,1.7-.1,2.5.3,2.2,2,3.6,4.1,3.6.8,0,1.5-.1,2.2-.4M142.3,10.4c-.9,0-1.8,0-2.6.1-1.7.3-3.1,1.1-4.3,2.5-1.4,1.6-1.9,3.6-1.9,5.7,0,.7,0,1.5.2,2.2.3,1.7,1.1,3.2,2.4,4.4,1.4,1.3,3.1,1.8,5,1.9.7,0,1.3,0,2,0,1.1,0,2.1-.3,3.1-.6.1,0,.3-.2.3-.3.3-.7.6-1.5.8-2.3,0-.2.3-.3,0-.5-.2-.2-.4-.2-.6,0-.4.2-.8.5-1.2.6-1,.4-2,.4-3.1.2-.9-.1-1.7-.4-2.4-1-1.4-1.2-1.9-2.7-2-4.5,0-.3.1-.4.4-.4,1.1,0,2.2,0,3.3,0,1.8,0,3.6,0,5.4,0,.3,0,.5-.2.6-.5.1-.9,0-1.9,0-2.8-.5-2.7-2.7-4.5-5.4-4.7M205.6,17.9c0,1,0,2,.2,2.9.2,1.4.7,2.7,1.6,3.7,1.4,1.7,3.4,2.5,5.6,2.7,1.8.1,3.6-.2,5.3-.7,0,0,.2,0,.2-.2.3-.8.6-1.7.9-2.5,0-.1,0-.3,0-.4-.2-.1-.3-.3-.6,0-.4.3-.8.5-1.3.7-1,.4-2.1.4-3.1.2-1.5-.2-2.7-1-3.5-2.3-.5-.9-.7-1.9-.9-3,0-.5,0-.6.4-.6,2,0,4,0,6,0,.9,0,1.8,0,2.7,0s.6-.3.6-.6c0-1,0-1.9-.2-2.9-.2-1.4-.9-2.5-2.1-3.3-.9-.7-1.9-1.1-3.1-1.1-.8,0-1.7-.1-2.5,0-1.3.2-2.5.7-3.6,1.6-.8.7-1.4,1.6-1.9,2.5-.5,1-.7,2.1-.9,3.3M227.3,32c.2-.7.3-1.4.5-2,.8-2.1,1.6-4.3,2.4-6.4.6-1.6,1.2-3.2,1.9-4.8.6-1.4,1.1-2.9,1.7-4.3.5-1.1,1.1-2.1,1.8-3.1,0-.1,0-.4,0-.5,0,0-.2,0-.3,0-.6,0-1.2.1-1.8.1-.7,0-1.5,0-2.2,0,0,.1,0,.3,0,.4,0,1.2-.2,2.3-.6,3.4-.5,1.5-1,3-1.6,4.4-.2.5-.4,1.1-.6,1.7,0-.1,0-.2-.1-.3-.7-2.2-1.4-4.3-2.1-6.5-.3-1-.4-2.1-.6-3.1,0-.3-.2-.3-.4-.3-1,0-2,.1-2.9.1-.7,0-1.5,0-2.3,0,.2.3.4.6.5.8.8,1.8,1.6,3.7,2.3,5.5,1.1,2.8,2.2,5.7,3.3,8.6.1.4.2.7,0,1-.2.3-.3.6-.4,1-.8,1.9-1.6,3.8-2.8,5.5-.2.3-.3.5-.1.8,1.5,0,3,0,4.4-.1,0-.7,0-1.3,0-2.1M69.2,51.1c.6.6,1.1,1.2,1.7,1.7,1.8,1.6,4,2.3,6.4,2.5,1.1,0,2.3,0,3.4,0,1.3,0,2.6-.3,3.8-.6.3,0,.5-.2.6-.5.2-.8.5-1.5.7-2.3,0-.1,0-.3,0-.4,0,0-.3-.1-.4,0-.3.1-.5.3-.8.5-1.4.8-2.9,1.2-4.4,1.3-1.4.1-2.8,0-4.1-.6-1.5-.6-2.7-1.5-3.6-2.8-1.3-1.8-1.8-3.8-2-5.9,0-1.3,0-2.6.4-3.9.5-1.8,1.3-3.3,2.7-4.5,1.4-1.2,3.1-1.7,4.9-1.7.6,0,1.3,0,1.9,0,.8.1,1.6.3,2.4.8.7.4,1.3.9,1.8,1.5.3.4.7.3.8-.2.3-.9.5-1.8.8-2.8,0-.2,0-.3-.2-.3-1.5-.5-3.1-.8-4.7-.9-1.3,0-2.7,0-4,.2-1.7.3-3.3.8-4.8,1.6-1.3.8-2.5,1.7-3.4,2.9-1.5,1.9-2.1,4.2-2.2,6.6,0,.5,0,1.1,0,1.6,0,.6.1,1.2.3,1.9.3,1.6,1,3,2,4.4M68.8,26.6h5.5c-.6-2.1-.6-4.3-.6-6.4,0-3,0-6.1,0-9.1s0-3.9.2-5.9c0-.3,0-.7,0-1h-5.9c.5,1.8.6,3.7.6,5.5,0,3.9,0,7.7,0,11.6,0,.7,0,1.4,0,2.1,0,.8-.1,1.7-.2,2.5,0,.3,0,.5,0,.8h.5M102,51.8c.2-.4.5-.9.7-1.3.6-1.6.8-3.2.6-4.8-.1-.9-.3-1.7-.6-2.6-1.1-2.8-3.6-4.2-6.3-4.3-.6,0-1.2,0-1.8,0-.8.1-1.6.3-2.3.6-2.2.9-3.6,2.5-4.3,4.7-.4,1.3-.6,2.6-.5,4,0,.9.2,1.7.5,2.5.3,1.1.9,2,1.7,2.8.6.6,1.4,1.1,2.2,1.4,1,.4,2.1.6,3.2.6.6,0,1.3-.1,1.9-.2,1.1-.2,2-.6,2.9-1.3.9-.6,1.5-1.3,2.1-2.2M104.8,10.9h-3.6c0,.6,0,1.2,0,1.8-.2,1.4-.7,2.7-1.2,4-.7,1.6-1.3,3.3-1.9,4.9,0,.3-.2.5-.3.8,0,0,0,0,0-.1-.6-1.9-1.1-3.9-1.7-5.8-.5-1.8-1.1-3.5-1.2-5.4,0-.2-.1-.3-.3-.3-.8,0-1.6.1-2.3.1-1,0-2,0-2.9,0h-.4c1.2,1.3,1.9,2.8,2.4,4.3.7,1.9,1.3,3.8,1.9,5.7.6,1.8,1.3,3.6,1.6,5.5,0,.4.2.7.7.5,0,0,.1,0,.2,0h3.2s0,0,0,0c.2-.8.4-1.5.6-2.2.3-.9.7-1.8,1.1-2.6.6-1.4,1.2-2.8,1.8-4.2.5-1.1.9-2.2,1.4-3.2.5-.9,1-1.8,1.5-2.7.2-.3.6-.6.2-1-.2,0-.4,0-.7.1M203.5,26.6c-.5-1.5-.6-3-.6-4.6,0-3.7,0-7.5,0-11.2,0-2,0-3.9,0-5.9,0,0,0-.1,0-.2,0-.7.1-1.4.2-2.1-1.7,0-3.4.2-5.1.2,0,0,0,0,0,.1.4,1.3.6,2.7.6,4,0,5.3,0,10.6,0,16,0,.5,0,1.1,0,1.6,0,.3-.1.6-.1.9,0,.4,0,.8-.1,1.3,1.8,0,3.5,0,5.2,0M190,26.5c0,0,.1,0,.2,0,1.7,0,3.4,0,5.1,0-.6-1.7-.7-3.5-.7-5.3,0-5.1,0-10.1,0-15.2,0-.8.1-1.6.1-2.4,0-.4,0-.8,0-1.2-1.7,0-3.4.2-5.1.2.5,1.6.7,3.4.7,5.1,0,4.8,0,9.6,0,14.4,0,1,0,2.1-.2,3.1,0,.4-.1.8-.2,1.2M130.4,54.4c.2-.5.3-1,.5-1.6.1-.3.1-.5-.2-.6-2,1.4-4.8,1.5-6.8.3-2.3-1.3-3-4.4-2.7-6.2.8,0,1.6-.1,2.5-.2,2.2,0,4.4,0,6.6,0,.3,0,.5,0,.8,0s.5-.1.5-.4c0-1,0-2-.2-2.9-.5-1.5-1.3-2.6-2.8-3.2-1.4-.6-2.8-.7-4.2-.4-1.9.4-3.4,1.4-4.5,3-.9,1.3-1.3,2.7-1.4,4.2,0,1.4,0,2.9.4,4.2.8,2.2,2.2,3.8,4.4,4.5,1.1.4,2.2.5,3.4.4,1.2,0,2.4-.3,3.5-.7.1,0,.2-.2.3-.3M148.2,45c0,.4-.2.9-.2,1.3,0,1,0,2.1.2,3.1.3,1.7,1,3.2,2.3,4.3.7.6,1.4,1,2.3,1.3,1.2.4,2.3.5,3.6.4,1.2,0,2.3-.3,3.5-.7.2,0,.3-.2.4-.4.2-.5.3-1.1.5-1.6.1-.3.2-.5-.1-.6-.5.3-1,.5-1.5.7-1.2.4-2.4.5-3.6.2-1.7-.3-2.9-1.2-3.7-2.7-.7-1.3-.9-2.7-.9-4.1.8,0,1.7-.1,2.5-.2,1.2,0,2.4,0,3.6,0,1.3,0,2.5,0,3.8,0,.3,0,.5-.1.5-.4,0-.7,0-1.4,0-2.1-.3-2-1.3-3.4-3.1-4.1-1.3-.5-2.6-.6-3.9-.3-1.2.2-2.2.7-3.2,1.5-.9.8-1.6,1.6-2.1,2.7-.2.5-.4,1.1-.6,1.7M80.2,26.6h2.3c-.1-.4-.2-.7-.3-1-.3-1.4-.3-2.9-.4-4.3,0-1.2,0-2.3,0-3.5,0-1.1.5-2.1,1.4-2.9,1-.8,2.2-.7,3,.3.2.3.4.3.6.1.1,0,.2-.2.2-.4.2-1.2.4-2.3.6-3.5.2-.9.2-.9-.7-1.1,0,0,0,0,0,0-1.5-.1-2.7.4-3.6,1.5-.7.7-1.2,1.5-1.9,2.4v-3.4h-4.5c0,.3.1.5.2.7.4,1.6.5,3.2.5,4.8,0,2.3,0,4.6,0,7,0,.8-.1,1.6-.2,2.3,0,.3,0,.6,0,1h2.9M112,15.2c0-1.4.2-2.9.3-4.4-1.7,0-3.4.1-5.1.2,0,0,0,.2,0,.3.4,1.3.5,2.6.5,3.9,0,2.1,0,4.2,0,6.4,0,.8,0,1.6,0,2.4,0,.9-.2,1.8-.2,2.7h5.2c-.6-1.6-.6-3.3-.7-4.9,0-2.1,0-4.3,0-6.4M108.7,32.8c0-.7,0-1.3.1-2-1.2,0-2.5.1-3.7.2.5,1.5.7,3,.7,4.5,0,5.2,0,10.5,0,15.7,0,.5,0,1,0,1.6,0,.3,0,.6-.1.9,0,.4-.1.8-.2,1.2h3.7c0,0,0-.2,0-.2-.4-1.4-.6-2.8-.6-4.2,0-5.9-.2-11.7.1-17.7M114.5,54.9h1.7c-.5-1.8-.6-3.7-.6-5.5,0-5.2,0-10.3,0-15.5,0-.6,0-1.1,0-1.7,0-.5,0-.9.1-1.4-1.2,0-2.4.2-3.7.2.5,1.5.6,3,.7,4.5,0,5,0,10,0,15.1,0,.7,0,1.4,0,2.1,0,.3,0,.6-.1.9,0,.4-.1.9-.2,1.3h2M111.4,8.2c.4-.1.8-.4.9-.8.2-.9.2-1.7,0-2.6,0-.4-.3-.7-.7-.8-.3,0-.5-.1-.8-.1-.6,0-1.2,0-1.8,0-.8.1-1.4.4-1.4,1.4,0,.5,0,1.1,0,1.6,0,1,.7,1.5,1.5,1.5.8,0,1.5,0,2.4-.2h0Z"/>
  <path class="st3" d="M25.4,26.3c-2,0-3.9-.4-5.7-1.2-1.4-.6-2.6-1.4-3.7-2.4-1.4-1.2-2.4-2.5-3.3-4.1-.8-1.5-1.4-3-1.6-4.7,0-.1,0-.3,0-.4,0-.1,0-.3,0-.5,5.5-1.7,10.5-.8,14.9,2.9-.3-5.7,1.8-10.3,6.5-13.7,1,.9,1.9,1.9,2.6,3.1.9,1.4,1.5,2.9,1.8,4.4.2.8.3,1.7.3,2.5,0,.5,0,1.1,0,1.7,0,1.6-.4,3.2-1,4.7-.5,1.4-1.2,2.6-2.2,3.7-.8.9-1.7,1.6-2.5,2.5-.2.2-.3.3-.2.6.2.9.4,1.9.5,2.9,0,1,0,2,0,3,0,.4-.1.9-.2,1.4.6-.8,1.1-1.4,1.6-2.1,1.3-1.8,2.7-3.6,4-5.4,1.2-1.6,2.3-3.2,3.5-4.7,0-.1.1-.2.2-.3.4-.3.3-.8.3-1.2,0-1,0-2.1,0-3.1,0-.7.1-1.4.3-2.1.2-.8.4-1.6.8-2.4.5-1.2,1.1-2.2,1.9-3.2.7-.9,1.5-1.9,2.5-2.5.9-.6,1.7-1.2,2.6-1.7,1.3-.7,2.7-1.2,4.2-1.4.7,0,1.3-.2,2.1-.3.1.8.3,1.5.4,2.2,0,.9,0,1.7,0,2.6,0,1.5-.4,3-.9,4.4-.6,1.5-1.4,2.8-2.3,4-1,1.3-2.2,2.3-3.5,3.1-1.5,1-3.1,1.6-4.9,2-.4,0-.8.2-1.2.2-.3,0-.4.1-.5.3-1.5,2-3,4.1-4.6,6.2,0,0,0,0,0,.2,3.3-2.9,7-4.1,11.3-3.8,4.2.4,7.7,2.3,10.4,5.6-3.1,3.6-6.8,5.6-11.6,5.6-4.7,0-8.6-1.9-11.6-5.5-1.6,2.2-3.2,4.4-4.9,6.6.3,0,.6,0,.9,0,1.5,0,2.9.4,4.1,1.3.5.3.9.4,1.4.3,1.1-.3,2.2-.3,3.4-.2,2.1.2,3.9,1,5.5,2.3,1.7,1.4,2.9,3.3,3.4,5.5.2,1,.3,2.1.2,3.1-.2,2.1-.9,3.9-2.2,5.5-.9,1.1-2.1,2.1-3.4,2.7-1.2.6-2.4.9-3.7,1-1.4.1-2.7,0-4-.5-1.3-.4-2.5-1.1-3.6-2.1-1.4-1.3-2.4-2.8-2.9-4.6-.2-.9-.4-1.7-.4-2.6,0-1.3.2-2.6.6-3.8.4-1.1,1-2.1,1.8-3.1.7-.9,1.6-1.5,2.5-2.1-1.9-1-3.8-1-5.6.1-.5.3-.8.8-1.1,1.3-1,1.3-1.9,2.7-2.8,4-1.4,2.1-2.6,4.3-3.4,6.7-.7,1.9-1.3,3.9-1.8,5.8,0,.3-.1.7-.2,1h-2c.9-4.5,2.3-8.9,4.7-12.9-1.5-.1-3-.4-4.4-1-1.3-.5-2.5-1.2-3.6-2-1.4-1-2.5-2.3-3.4-3.7-1-1.6-1.7-3.3-2.1-5.2-.3-1.4-.2-2.7-.2-4.1,0-.8.3-1.6.4-2.4,0-.4.3-.5.6-.4.9.2,1.8.3,2.6.5,1.9.5,3.6,1.3,5.2,2.5.7.5,1.3,1.1,1.9,1.7.9.9,1.5,1.9,2.1,2.9.7,1.2,1.1,2.4,1.4,3.7.2.7.3,1.5.3,2.2,0,.8,0,1.5,0,2.3s0,.9,0,1.4c.3-.4.6-.8.9-1.2.8-1,1.5-2.1,2.3-3.1,1.3-1.6,2.1-3.3,2.5-5.3.2-.9.3-1.8.4-2.8.2-1.7-.1-3.3-.5-4.9-1.3.3-2.7.5-4.1.5M14.6,15.2s0,0,0,0c0,0,0,0,0,.1,3.4,3.4,7.4,5.7,12,7.1-3.3-3.6-7.5-5.7-12.1-7.2M44.4,17c3.7-3.1,6.4-6.9,8.2-11.4-.1,0-.2,0-.2.1-1.4,1.3-2.8,2.6-4,4.1-1.7,2.1-2.9,4.6-4,7,0,0,0,.1,0,.2,0,0,0,0,0,0,0,0,0,0,0,0M20.7,40.8h0s0,0,0-.1c-1.3-3.1-3-6-5.4-8.4-1-1-2-1.9-3-2.8,0,0,0,0,0,0,0,0,0,0,0,.1,0,0,0,.1,0,.2,1.8,4.4,4.7,8,8.3,11.1M50.2,30c1.2-.1,2.3-.3,3.5-.4.7,0,1.4-.2,2.1-.4-4.1-1.3-10.9-1.4-14.3-.3,2.9.7,5.7,1.3,8.7,1M31.3,18.8c.6-2.1,1-4.1,1.1-6.3,0-2.1,0-4.3-.3-6.4-1.8,4.6-2,9.3-1.2,14.2.2-.5.3-1,.5-1.6M37.9,27.5s0,0,0-.1c0,0,0,0,0,.1Z"/>
  <path class="st3" d="M168.3,11.9c.5-1.5,1-2.9,1.5-4.4.3-1.1.3-2.2,0-3.3.2,0,.5,0,.7,0,1.4,0,2.7,0,4.1,0,0,0,.2,0,.3,0,.1,0,.3,0,.3,0,0,.1,0,.3,0,.4-.5.9-1,1.8-1.4,2.8-.7,1.5-1.3,3-1.9,4.4-.6,1.4-1.1,2.8-1.7,4.3-.7,1.7-1.4,3.4-2.1,5.2-.5,1.4-1.1,2.7-1.6,4.1-.2.5-.3,1.1-.5,1.6h-5.1c-.5-1.4-.9-2.9-1.4-4.3-1-2.9-2-5.9-3-8.8-.6-1.6-1.1-3.2-1.7-4.8-.6-1.6-1-3.3-1.8-4.8,0,0,0,0,0-.1h6.1c.1.6.2,1.3.3,1.9.2.8.4,1.6.6,2.4.6,2.1,1.3,4.2,1.9,6.3.8,2.6,1.6,5.2,2.3,7.8,0,0,0,.2,0,.2,1.3-3.7,2.6-7.3,3.9-11h0Z"/>
  <path class="st3" d="M126.6,16.6c0-.7-.2-1.4-.6-2-.4-.5-.9-.7-1.4-.8-1.2-.2-2.3.2-3.2,1-.6.5-.9,1.2-.9,1.9,0,1.9-.1,3.9,0,5.8,0,1.3.2,2.7.6,4,0,0,0,0,0,.1h-5.2c0-.8.2-1.6.3-2.3,0-.5,0-1,0-1.5,0-2.5,0-4.9,0-7.4,0-1.5-.2-2.9-.7-4.4h4.8v2.5c.6-.5,1.1-.9,1.7-1.4.9-.8,2-1.3,3.2-1.4,1.1-.1,2.2,0,3.2.4,1.4.6,2.1,1.7,2.3,3.1.1.7.1,1.4.2,2.1,0,1.5,0,2.9,0,4.4,0,.8,0,1.6,0,2.4.1,1.2.3,2.3.5,3.5h-5.2c0-.5.2-1,.2-1.5.3-2.8.1-5.6.2-8.5h0Z"/>
  <path class="st3" d="M137.1,51.5c.7.6,1.4.9,2.3.9,1.1,0,2.2,0,3.3,0,.9,0,1.8.2,2.6.6,1.3.7,1.9,1.7,2,3.2,0,1,0,1.9-.5,2.8-.5,1.1-1.3,1.9-2.3,2.4-1.2.7-2.6,1.1-4,1.2-.6,0-1.2,0-1.8,0-1.5,0-3.1-.3-4.4-1.2-1-.7-1.7-1.6-1.8-2.9-.1-1.5.5-2.6,1.7-3.4.6-.4,1.2-.8,1.9-1.3-.2,0-.4-.2-.5-.3-.9-.4-1.4-1.1-1.5-2,0-.6.2-1.1.6-1.4.5-.4,1-.8,1.5-1.3.2-.1.3-.2.4-.4-.4-.3-.8-.5-1.1-.8-.8-.6-1.3-1.5-1.4-2.5-.1-.9-.2-1.8.1-2.7.6-1.7,1.8-2.7,3.5-3.2.8-.2,1.6-.3,2.3-.3.8,0,1.5.1,2.2.4.2,0,.4,0,.6,0,1.1,0,2.1,0,3.2,0,.6,0,1.2,0,1.8-.1,0,0,.2,0,.3.1,0,0,0,.2,0,.3-.3.5-.6,1-.9,1.6-.8,0-1.7,0-2.5-.1.2.5.5,1,.7,1.6.4,1.5.1,2.9-.8,4.2-.9,1.2-2.1,1.8-3.6,2.1-.9.2-1.8.2-2.8,0,0,0-.2,0-.3,0-.4.4-.9.7-1,1.3-.1.4,0,.7.3,1.1M140.8,54.8c-.6,0-1.3,0-1.9,0-.6,0-1.2.1-1.8.3-1.4.5-2.4,1.6-2.2,3.2.1.9.6,1.5,1.2,2,.9.7,2,.8,3.1.9,1,0,2-.1,3-.5,1.3-.5,2.5-1.8,2.3-3.5,0-.9-.5-1.6-1.3-2.1-.8-.4-1.6-.5-2.5-.4M141.3,47.3c.2-.2.5-.4.7-.7.8-1.1.8-2.2.5-3.4-.2-.7-.5-1.4-1-1.9-.6-.6-1.4-.8-2.3-.7-1.2.1-1.9.7-2.3,1.7-.3.9-.3,1.8-.1,2.7.1.8.5,1.4,1.1,2,.9.8,2.4,1,3.5.3h0Z"/>
  <path class="st3" d="M179.7,26.8c-.7.3-1.5.5-2.2.4-2.1,0-3.8-1.4-4.1-3.6-.1-.9-.1-1.7.1-2.5.4-1.3,1.3-2.1,2.5-2.6,1.1-.5,2.3-.7,3.6-.9.6,0,1.2-.2,1.8-.3.4,0,.7-.4.7-.8,0-.7,0-1.4-.4-2-.4-.7-1-1-1.8-1.1-.8-.2-1.7,0-2.5.2-.7.2-1.4.6-1.9,1.2-.2.2-.3.2-.5,0-.1,0-.2-.2-.2-.4,0-.6.1-1.2.2-1.9,0-.3,0-.5,0-.8,0-.1.1-.2.2-.3,1.3-.5,2.7-.8,4.1-.9,1.4,0,2.8,0,4.2.5,1.4.5,2.2,1.5,2.4,3,.1,1.8.1,3.6.2,5.4,0,.8,0,1.7,0,2.5,0,1.5.3,3,.7,4.5,0,0,0,.2,0,.2-.6,0-1.2,0-1.7.1-.8,0-1.6.1-2.5.2v-2.1s0,0-.1,0c-1,.7-1.8,1.6-2.9,2.1M182.2,20v-.8c-.3,0-.6,0-.8,0-.9,0-1.8.2-2.6.7-1,.6-1.5,1.7-1.1,2.9.3.9,1,1.6,2.3,1.4.7,0,1.7-.9,2-1.6.3-.9.2-1.7.2-2.7Z"/>
  <path class="st3" d="M142.3,10.4c2.6.2,4.9,2,5.3,4.7.2.9.2,1.9,0,2.8,0,.3-.3.5-.6.5-1.8,0-3.6,0-5.4,0-1.1,0-2.2,0-3.3,0-.3,0-.4,0-.4.4,0,1.7.6,3.3,2,4.5.7.6,1.5.9,2.4,1,1,.1,2.1.2,3.1-.2.4-.2.8-.4,1.2-.6.2-.1.4-.2.6,0,.2.2,0,.3,0,.5-.3.8-.6,1.5-.8,2.3,0,.1-.2.3-.3.3-1,.3-2,.6-3.1.6-.7,0-1.3,0-2,0-1.9,0-3.6-.6-5-1.9-1.3-1.2-2.1-2.7-2.4-4.4-.1-.7-.2-1.5-.2-2.2,0-2.1.6-4.1,1.9-5.7,1.1-1.3,2.5-2.2,4.3-2.5.9-.1,1.8,0,2.7-.1M142.7,12.8c-1.3-1-3.5-.7-4.2,1.3-.2.7-.3,1.5-.5,2.2,1,0,2,0,3,0,.5,0,1,0,1.5,0,.8,0,1.2-.6,1.2-1.3,0-.8-.3-1.5-.9-2.1h0Z"/>
  <path class="st3" d="M205.6,17.8c.2-1.2.4-2.2.9-3.3.5-1,1.1-1.8,1.9-2.5,1-.9,2.2-1.4,3.6-1.6.8-.1,1.7,0,2.5,0,1.1,0,2.2.5,3.1,1.1,1.2.8,1.9,2,2.1,3.3.2.9.1,1.9.2,2.9,0,.3-.3.6-.6.6-.9,0-1.8,0-2.7,0-2,0-4,0-6,0-.4,0-.5,0-.4.6.1,1,.3,2.1.9,3,.8,1.3,2,2.1,3.5,2.3,1.1.2,2.1.2,3.1-.2.4-.2.9-.4,1.3-.7.3-.2.4,0,.6,0,0,0,0,.3,0,.4-.3.9-.6,1.7-.9,2.5,0,0-.1.1-.2.2-1.7.5-3.5.8-5.3.7-2.2-.2-4.1-1-5.6-2.7-.9-1.1-1.5-2.3-1.6-3.7-.1-1-.1-2-.2-3M214.9,16.1c.3-.1.6-.3.7-.7.3-.9,0-1.9-.7-2.5-.9-.8-1.9-.8-3-.3-.9.4-1.3,1.2-1.5,2.1-.1.5-.2,1.1-.3,1.6,1.2,0,2.3,0,3.4,0,.5,0,.9-.1,1.4-.2Z"/>
  <path class="st3" d="M227.3,32c0,.7,0,1.4,0,2-1.5,0-3,0-4.4.1-.2-.3,0-.5.1-.8,1.2-1.7,2-3.6,2.8-5.5.1-.3.2-.7.4-1,.2-.4.1-.7,0-1-1.1-2.9-2.2-5.7-3.3-8.6-.7-1.8-1.5-3.7-2.3-5.5-.1-.3-.3-.5-.5-.8.8,0,1.6,0,2.3,0,1,0,2,0,2.9-.1.2,0,.3,0,.4.3.2,1,.3,2.1.6,3.1.7,2.2,1.4,4.3,2.1,6.5,0,0,0,.2.1.3.2-.6.4-1.1.6-1.7.5-1.5,1.1-3,1.6-4.4.4-1.1.6-2.3.6-3.4,0-.2,0-.3,0-.4.7,0,1.4,0,2.2,0,.6,0,1.2-.1,1.8-.1.1,0,.3,0,.3,0,0,.2,0,.4,0,.5-.7,1-1.3,2-1.8,3.1-.6,1.4-1.2,2.8-1.7,4.3-.6,1.6-1.3,3.2-1.9,4.8-.8,2.1-1.6,4.3-2.4,6.4-.2.6-.3,1.3-.5,2.1h0Z"/>
  <path class="st3" d="M69.2,51.1c-1-1.3-1.7-2.8-2-4.3-.1-.6-.2-1.2-.3-1.9,0-.5,0-1.1,0-1.6,0-2.4.7-4.6,2.2-6.6.9-1.2,2.1-2.2,3.4-2.9,1.5-.9,3.1-1.3,4.8-1.6,1.3-.2,2.7-.3,4-.2,1.6,0,3.2.3,4.7.9.2,0,.3.1.2.3-.3.9-.5,1.8-.8,2.8-.1.5-.5.6-.8.2-.5-.6-1.1-1.1-1.8-1.5-.7-.4-1.6-.7-2.4-.8-.6,0-1.2-.1-1.9,0-1.8,0-3.5.6-4.9,1.7-1.5,1.2-2.3,2.7-2.7,4.5-.3,1.3-.5,2.6-.4,3.9.1,2.1.7,4.2,2,5.9.9,1.3,2.1,2.2,3.6,2.8,1.3.5,2.7.7,4.1.6,1.6-.1,3.1-.5,4.4-1.3.3-.2.5-.3.8-.5.1,0,.3,0,.4,0,0,0,.1.3,0,.4-.2.8-.5,1.5-.7,2.3,0,.4-.3.5-.6.5-1.3.3-2.5.6-3.8.6-1.1,0-2.3.1-3.4,0-2.4-.2-4.5-.9-6.4-2.5-.6-.5-1.2-1.2-1.8-1.8h0Z"/>
  <path class="st3" d="M68.8,26.6h-.5c0-.3,0-.5,0-.8,0-.8.2-1.7.2-2.5,0-.7,0-1.4,0-2.1,0-3.9,0-7.7,0-11.6,0-1.8,0-3.7-.6-5.5h5.9c0,.3,0,.7,0,1-.3,2-.2,3.9-.2,5.9,0,3,0,6.1,0,9.1,0,2.1,0,4.3.6,6.4h-5.5,0Z"/>
  <path class="st3" d="M102,51.9c-.6.9-1.2,1.6-2.1,2.2-.9.6-1.8,1.1-2.9,1.3-.6.1-1.2.2-1.9.2-1.1,0-2.2-.2-3.2-.6-.8-.3-1.6-.8-2.2-1.4-.8-.8-1.4-1.7-1.7-2.8-.3-.8-.4-1.7-.5-2.5-.1-1.4,0-2.7.5-4,.7-2.2,2.1-3.9,4.3-4.7.7-.3,1.5-.5,2.3-.6.6-.1,1.2-.1,1.8,0,2.7,0,5.2,1.6,6.3,4.3.3.8.5,1.7.6,2.6.2,1.7,0,3.3-.6,4.8-.2.5-.4.9-.7,1.3M99.4,43.4c-.1-.3-.2-.5-.4-.7-.9-1.5-2.1-2.4-4-2.2-1.3,0-2.3.7-3,1.6-.9,1.2-1.2,2.6-1.3,4,0,1.1,0,2.2.2,3.2.3,1.5.9,2.8,2.1,3.8,1.5,1.3,3.9,1.2,5.3-.2.8-.8,1.3-1.7,1.5-2.7.2-.8.3-1.7.4-2.6,0-.6,0-1.2-.1-1.8-.2-.8-.4-1.6-.7-2.5h0Z"/>
  <path class="st3" d="M104.8,10.9c.2,0,.4,0,.6,0,.3.5,0,.7-.2,1-.5.9-1.1,1.8-1.5,2.7-.5,1.1-1,2.2-1.4,3.2-.6,1.4-1.2,2.8-1.8,4.2-.4.9-.8,1.7-1.1,2.6-.3.7-.4,1.5-.6,2.2,0,0,0,0,0,0h-3.2c0,0-.1,0-.2,0-.5.2-.6,0-.7-.5-.3-1.9-1-3.7-1.6-5.5-.6-1.9-1.2-3.8-1.9-5.7-.5-1.5-1.3-3-2.4-4.3h.4c1,0,2,0,2.9,0,.8,0,1.6,0,2.3-.1.2,0,.3,0,.3.3.1,1.9.7,3.6,1.2,5.4.6,1.9,1.1,3.9,1.7,5.8,0,0,0,0,0,.1.1-.3.2-.5.3-.8.6-1.6,1.2-3.3,1.9-4.9.5-1.3,1-2.6,1.2-4,0-.6,0-1.2,0-1.8h3.7,0Z"/>
  <path class="st3" d="M203.5,26.6c-1.7,0-3.5,0-5.2,0,0-.4,0-.9.1-1.3,0-.3.1-.6.1-.9,0-.5,0-1.1,0-1.6,0-5.3,0-10.6,0-16,0-1.4-.2-2.7-.6-4,0,0,0,0,0-.1,1.7,0,3.3-.2,5.1-.2,0,.7-.1,1.4-.2,2.1,0,0,0,.1,0,.2,0,2,0,3.9,0,5.9,0,3.7,0,7.5,0,11.2,0,1.5.1,3.1.6,4.6h0Z"/>
  <path class="st3" d="M190,26.5c0-.4.2-.8.2-1.2,0-1,.1-2.1.2-3.1,0-4.8,0-9.6,0-14.4,0-1.7-.1-3.4-.7-5.1,1.7,0,3.4-.2,5.1-.2,0,.4,0,.8,0,1.2,0,.8-.1,1.6-.1,2.4,0,5.1,0,10.1,0,15.2,0,1.8,0,3.6.7,5.3-1.7,0-3.4,0-5.1,0,0,0-.1,0-.2-.1h0Z"/>
  <path class="st3" d="M130.4,54.4c-.1.1-.2.3-.3.3-1.1.4-2.3.6-3.5.7-1.2,0-2.3,0-3.4-.4-2.2-.7-3.6-2.3-4.4-4.5-.5-1.4-.5-2.8-.4-4.2.1-1.5.6-3,1.4-4.2,1.1-1.6,2.6-2.6,4.5-3,1.4-.3,2.8-.2,4.2.4,1.5.6,2.3,1.7,2.8,3.2.3,1,.2,1.9.2,2.9,0,.3-.2.4-.5.4s-.5,0-.8,0c-2.2,0-4.4,0-6.6,0-.8,0-1.6.1-2.5.2-.2,1.8.5,4.9,2.7,6.2,2,1.1,4.8,1.1,6.8-.3.4.1.3.3.2.6-.2.5-.3,1-.5,1.6M128.4,43.3c0-1-.4-1.7-1.2-2.2-1-.7-2-.7-3.1-.5-.7.2-1.4.5-1.8,1.1-.7.8-1,1.7-1.2,2.8.1,0,.3,0,.4,0,1.2,0,2.4,0,3.5,0,.6,0,1.3,0,1.9,0,.7,0,1.2-.3,1.5-1.1h0Z"/>
  <path class="st3" d="M148.2,44.9c.2-.6.4-1.1.6-1.7.5-1.1,1.2-2,2.1-2.7.9-.8,2-1.3,3.2-1.5,1.3-.2,2.6-.2,3.9.3,1.9.7,2.9,2.2,3.1,4.1,0,.7,0,1.4,0,2.1,0,.3-.2.4-.5.4-1.3,0-2.5,0-3.8,0-1.2,0-2.4,0-3.6,0-.8,0-1.7.1-2.5.2,0,1.4.2,2.8.9,4.1.8,1.5,2,2.4,3.7,2.7,1.2.3,2.4.2,3.6-.2.5-.2,1-.5,1.5-.7.3.1.3.3.1.6-.2.5-.3,1-.5,1.6,0,.2-.2.3-.4.4-1.1.4-2.3.6-3.5.7-1.2,0-2.4,0-3.6-.4-.8-.3-1.6-.7-2.3-1.3-1.3-1.2-2.1-2.6-2.3-4.3-.2-1-.1-2-.2-3.1,0-.4.1-.9.2-1.4M150.9,44.2c0,.1,0,.2,0,.3.2,0,.3,0,.4,0,.9,0,1.8,0,2.8,0,.9,0,1.9,0,2.8,0,.9,0,1.4-.6,1.3-1.5,0-.8-.5-1.3-1.1-1.8-1-.7-2-.7-3.1-.5-.7.2-1.4.5-1.8,1.1-.6.7-1,1.5-1.1,2.5h0Z"/>
  <path class="st3" d="M80.2,26.6h-2.9c0-.3,0-.7,0-1,0-.8.2-1.5.2-2.3,0-2.3.1-4.6,0-7,0-1.6-.2-3.2-.5-4.8,0-.2-.1-.4-.2-.7h4.5v3.4c.7-.8,1.2-1.6,1.9-2.4,1-1.1,2.2-1.6,3.6-1.5,0,0,0,0,0,0,.9.2.9.2.7,1.1-.2,1.2-.4,2.3-.6,3.5,0,.1-.1.3-.2.4-.2.1-.4.1-.6-.1-.8-1-2.1-1.1-3-.3-.9.7-1.3,1.7-1.4,2.9,0,1.2,0,2.3,0,3.5,0,1.4,0,2.9.4,4.3,0,.3.2.7.3,1h-2.3,0Z"/>
  <path class="st3" d="M112,15.3c0,2.2,0,4.3,0,6.4,0,1.7,0,3.3.7,4.9h-5.2c0-.9.2-1.8.2-2.7,0-.8,0-1.6,0-2.4,0-2.1,0-4.2,0-6.4,0-1.3-.2-2.6-.5-3.9,0,0,0-.2,0-.3,1.7,0,3.4-.1,5.1-.2,0,1.5-.2,2.9-.3,4.4h0Z"/>
  <path class="st3" d="M108.7,32.8c-.3,5.9,0,11.8-.1,17.6,0,1.4.1,2.9.6,4.2,0,0,0,.1,0,.2h-3.7c0-.4,0-.8.2-1.2,0-.3.1-.6.1-.9,0-.5,0-1,0-1.6,0-5.2,0-10.5,0-15.7,0-1.5-.2-3.1-.7-4.5,1.2,0,2.4-.1,3.7-.2,0,.7,0,1.3-.1,2h0Z"/>
  <path class="st3" d="M114.5,54.9h-2c0-.4.1-.9.2-1.3,0-.3.1-.6.1-.9,0-.7,0-1.4,0-2.1,0-5,0-10,0-15.1,0-1.5-.2-3-.7-4.5,1.2,0,2.4-.2,3.7-.2,0,.5,0,.9-.1,1.4,0,.6,0,1.1,0,1.7,0,5.2,0,10.3,0,15.5,0,1.9,0,3.7.6,5.5h-1.7Z"/>
  <path class="st3" d="M111.3,8.2c-.8,0-1.6.1-2.3.2-.8,0-1.5-.5-1.5-1.5,0-.5,0-1.1,0-1.6,0-1,.7-1.2,1.4-1.4.6,0,1.2,0,1.8,0,.3,0,.5,0,.8.1.5,0,.6.4.7.8.2.9.2,1.8,0,2.6-.1.4-.5.7-.9.8h0Z"/>
  <path class="st1" d="M12.3,29.5c1,.9,2,1.8,3,2.8,2.4,2.4,4.1,5.3,5.4,8.4,0,0,0,0,0,0-3.6-3.1-6.5-6.6-8.3-11,0,0,0-.1,0-.2,0,0,0,0,0,0h0Z"/>
  <path class="st1" d="M44.4,17c0,0,0-.2,0-.2,1.2-2.5,2.3-4.9,4-7,1.2-1.5,2.5-2.8,4-4.1,0,0,0,0,.2-.1-1.8,4.5-4.5,8.3-8.2,11.4,0,0,0,0,0,0h0Z"/>
  <path class="st1" d="M14.7,15.2c4.6,1.4,8.7,3.6,12,7.2-4.6-1.4-8.7-3.6-12-7.1,0,0,0,0,0,0Z"/>
  <path class="st1" d="M50.1,30c-3,.2-5.8-.3-8.7-1,3.4-1.1,10.2-1,14.3.3-.8.1-1.4.3-2.1.4-1.2.2-2.3.3-3.5.4h0Z"/>
  <path class="st0" d="M31.3,18.9c-.2.5-.3,1-.5,1.5-.8-4.9-.6-9.6,1.2-14.2.2,2.1.4,4.3.3,6.4,0,2.1-.5,4.2-1.1,6.3h0Z"/>
  <path class="st2" d="M37.9,27.5s0,0,0,0c0,0,0,0,0,0Z"/>
  <path class="st1" d="M20.7,40.7s0,0,0,0c0,0,0,0,0,0,0,0,0,0,0,0h0Z"/>
  <path class="st1" d="M12.3,29.5s0,0,0,0c0,0,0,0,0,0,0,0,0,0,0,0Z"/>
  <path class="st1" d="M44.4,17s0,0,0,0c0,0,0,0,0,0,0,0,0,0,0,0Z"/>
  <path class="st1" d="M14.6,15.3s0,0,0,0c0,0,0,0,0,0,0,0,0,0,0,0Z"/>
  <path class="st2" d="M140.9,54.8c.9,0,1.7,0,2.4.4.9.4,1.2,1.2,1.3,2.1.2,1.7-1,3-2.3,3.5-1,.4-2,.6-3,.5-1.1,0-2.2-.2-3.1-.9-.7-.5-1.1-1.1-1.2-2-.2-1.6.7-2.8,2.2-3.2.6-.2,1.2-.3,1.8-.3.6,0,1.3,0,1.9,0h0Z"/>
  <path class="st2" d="M141.3,47.3c-1.1.7-2.5.5-3.4-.3-.6-.5-.9-1.2-1.1-2-.2-.9-.2-1.8.1-2.7.4-1,1.1-1.6,2.3-1.7.9,0,1.6.2,2.3.7.5.5.9,1.1,1,1.9.3,1.2.2,2.4-.5,3.4-.2.3-.5.5-.8.7h0Z"/>
  <path class="st2" d="M182.2,20.1c0,.9,0,1.8-.2,2.7-.2.7-1.2,1.5-2,1.6-1.3.2-2-.6-2.3-1.4-.3-1.1,0-2.3,1.1-2.9.8-.4,1.7-.6,2.6-.7.3,0,.5,0,.8,0v.8Z"/>
  <path class="st2" d="M142.7,12.8c.6.5.9,1.2.9,2,0,.8-.5,1.3-1.2,1.3-.5,0-1,0-1.5,0-1,0-1.9,0-3,0,.2-.7.3-1.4.5-2.2.7-2,2.9-2.3,4.2-1.3h0Z"/>
  <path class="st2" d="M214.9,16.1c-.5,0-.9.2-1.4.2-1.1,0-2.2,0-3.4,0,0-.5.1-1.1.3-1.6.2-.9.6-1.7,1.5-2.1,1-.5,2.1-.4,3,.3.7.6,1,1.5.7,2.5,0,.4-.3.6-.7.7Z"/>
  <path class="st2" d="M99.4,43.4c.2.8.5,1.6.7,2.4.1.6.2,1.2.1,1.8,0,.9-.2,1.7-.4,2.6-.2,1.1-.7,2-1.5,2.7-1.4,1.4-3.8,1.5-5.3.2-1.2-1-1.7-2.4-2.1-3.8-.3-1.1-.3-2.1-.2-3.2,0-1.5.4-2.9,1.3-4,.7-1,1.7-1.5,3-1.6,1.8-.1,3.1.8,4,2.2.1.2.3.5.4.8h0Z"/>
  <path class="st2" d="M128.4,43.4c-.2.7-.8,1-1.5,1-.6,0-1.3,0-1.9,0-1.2,0-2.4,0-3.5,0-.1,0-.2,0-.4,0,.2-1.1.5-2,1.2-2.8.5-.6,1.1-.9,1.8-1.1,1.1-.2,2.2-.2,3.1.5.8.5,1.2,1.2,1.2,2.2h0Z"/>
  <path class="st2" d="M150.9,44.2c.2-.9.5-1.8,1.1-2.5.5-.6,1.1-.9,1.8-1.1,1.1-.2,2.2-.2,3.1.5.6.4,1,1,1.1,1.8.1.8-.4,1.4-1.3,1.5-.9,0-1.9,0-2.8,0-.9,0-1.8,0-2.8,0-.1,0-.2,0-.4,0,0-.1,0-.2,0-.4h0Z"/>
</svg>