<?xml version="1.0" encoding="UTF-8"?>
<svg id="Layer_1" data-name="Layer 1" xmlns="http://www.w3.org/2000/svg" viewBox="0 0 1000 1201.8">
  <defs>
    <style>
      .cls-1 {
        fill: #fff;
      }

      .cls-2 {
        fill: #116736;
      }
    </style>
  </defs>
  <rect class="cls-1" x="13" y="10.04" width="974" height="962.22"/>
  <g>
    <g>
      <rect class="cls-2" x="33.11" y="28.12" width="933.78" height="921.38"/>
      <polygon class="cls-1" points="582.09 61.31 582.09 84.69 582 84.69 582 85.48 490.26 85.48 490.26 61.1 582 61.1 582 61.31 582.09 61.31"/>
      <path class="cls-1" d="m951.25,664.69h0c-14.76-6.62-37.89-11.72-62.35-15.6-.32-.05-.65-.1-.97-.15-5.71-.9-11.49-1.73-17.25-2.49-1.18-.16-2.37-.31-3.55-.46-43.71-5.63-85.15-7.64-85.15-7.64-14.01-.24-26.75-.29-38.19-.23-49.63.28-74.98,2.83-74.98,2.83-66.17,2.66-177.44,21.71-177.44,21.71-10.44,1.92-22.86,4.34-36.37,7.07-2.08.42-4.19.85-6.31,1.28-1.06.22-2.13.43-3.21.65-73.01,14.89-170.78,36.72-170.78,36.72-136.24,33.59-226.49,61.33-226.49,61.33l.17,44.65-.15.05h0l.16.26-.28,105.74,55.03-17.25-34.92-56.44-19.83-32.05h0v-.31h0l63.86-21.22h0l-6.24,108.89h0c2.55-.79,7.51-2.33,13.84-4.28,1.22-.38,2.49-.77,3.81-1.18.35-.11.7-.21,1.05-.32.78-.24,1.57-.48,2.37-.73.95-.29,1.91-.59,2.9-.89.83-.26,1.67-.52,2.53-.78,1.01-.31,2.02-.62,3.06-.94,2.78-.85,5.63-1.73,8.52-2.62.41-.13.83-.25,1.24-.38.91-.28,1.83-.56,2.74-.84,24.18-7.44,49.34-15.17,49.34-15.17h0l-82.68-81.88,34.53-11.15,58.49-18.88h0l-6.42,110.79,11.48-3.41,85.88-25.52h0l-72.68-68.17-15.41-14.45c21.08-6.75,98.38-27.04,98.38-27.04h0l-6.51,108.53h0c17.25-4.5,82.15-23.66,82.15-23.66h0l-7.92-9.43-64.01-76.19h0l54.34-12.85,34.57-8.18-12.4,104.77h0c8.43-2.38,21.33-5.69,34.51-8.98,1.58-.39,3.15-.79,4.73-1.18,22.75-5.64,44.85-10.89,44.85-10.89h0l-69.64-84.22h0c21.58-5.01,66.53-15.77,89.2-20.95,7.27-1.66,12.27-2.75,13.45-2.88v.04s-.01.05-.02.09c-.93,3.93-28.41,106.55-28.41,106.55,3.34-.56,7.86-1.34,13.07-2.26,1.32-.23,2.69-.48,4.09-.72,1.4-.25,2.85-.51,4.32-.77.63-.11,1.25-.22,1.89-.34,10.32-1.85,21.93-3.95,32.4-5.86,17.28-3.15,31.43-5.75,31.43-5.75h0l-57.17-91.2c13.1-2.56,25.18-4.67,35.89-6.41,1.29-.21,2.56-.41,3.81-.61,1.17-.19,2.32-.37,3.45-.54,25.42-3.96,41.33-5.53,41.33-5.53h0l-7.64,37.13-13.45,65.38c13.63-1.74,25.97-3.09,36.38-4.13.62-.06,1.23-.12,1.84-.18,1.35-.13,2.66-.26,3.94-.38,17.43-1.65,28.1-2.29,28.11-2.29,0,0-41.84-86.6-45.61-95.33-.03-.06-.05-.12-.07-.17-.15-.35-.22-.54-.2-.54,15.58-1.96,34.54-3.54,50.49-4.64.14,0,.29-.02.43-.03,18.02-1.24,32.1-1.87,32.94-1.75,0,0,0,.02-.01.05v.03s-.03.11-.05.19c-.12.43-.39,1.37-.79,2.74-3.85,13.25-19.71,66.81-26.26,88.94-.05.17-.1.34-.15.5-.38,1.29-.73,2.47-1.04,3.52-.03.12-.07.23-.1.34-.18.62-.35,1.2-.51,1.72-.12.41-.23.79-.34,1.13-.14.46-.26.87-.36,1.2-.23.79-.36,1.22-.36,1.22,32.24-1.87,85.52-4.48,85.52-4.48h0l-50-97.35h0s38.85-1.64,79.83.16c.75.03,1.49.07,2.24.1,5.89.28,11.8.63,17.64,1.06.12,0-.53,1.63-1.75,4.45v.02c-.38.87-.81,1.86-1.29,2.94-.14.31-.27.62-.42.94-.71,1.59-1.51,3.38-2.38,5.32-.73,1.61-1.5,3.33-2.32,5.13-.19.43-.39.86-.59,1.29-.93,2.05-1.92,4.21-2.94,6.44-.49,1.07-.98,2.15-1.49,3.25-.45.98-.91,1.98-1.37,2.99-3.47,7.55-7.21,15.65-10.82,23.44-.47,1.01-.93,2.01-1.39,3.01-9.02,19.45-16.84,36.19-16.84,36.19,42.96-.8,86.65,3.3,86.65,3.31h0s-8.42-19.99-17.5-41.96c-.17-.42-.35-.85-.53-1.27-1.29-3.11-2.58-6.26-3.86-9.38-.67-1.63-1.33-3.25-1.99-4.87-.95-2.31-1.88-4.6-2.79-6.84-.62-1.53-1.23-3.03-1.82-4.5-.44-1.08-.87-2.15-1.29-3.19-.3-.74-.59-1.48-.88-2.2-1.16-2.89-2.25-5.63-3.24-8.15-.49-1.26-.97-2.47-1.41-3.61-.22-.57-.44-1.13-.64-1.67-.27-.71-.53-1.38-.77-2.03-.24-.63-.46-1.22-.67-1.79-1.32-3.56-2.12-5.96-2.2-6.73h0v-.21s.03-.07.06-.07c49.24,3.1,95.32,11.41,95.32,11.41h0l-7.98,13.17-44.77,73.89h0l27.48,1.69,57.6,3.54-29.04-91.63c41.95,7.84,64.49,15.17,64.36,15.17h0v-31.67l-.04-.04Z"/>
      <path class="cls-1" d="m951.3,424.54h-259.75V99.51h-98.1v-.07l-419.44.07v160.36h0l3.12,2.48,3.81,3.03h0l7.79-8.65,29.42,18.08,28.57-3.14h0l1.03.58,5.91,3.35,14.18-19.26s8.31-12.12,29.89-5.12c.52.17,1.05.35,1.58.54,2.04.73,4.18,1.61,6.45,2.7,1.83.88,3.74,1.89,5.72,3.03.98.56,1.98,1.16,3,1.79,1.04.64,2.09,1.33,3.17,2.04,2.24,1.49,4.57,3.16,6.98,4.99.44.33.88.67,1.32,1.01,4.2,3.26,8.65,7.03,13.39,11.43h0s22.39-27.21,35.22-12.53c.86.98,1.67,2.14,2.43,3.52.39.71.77,1.47,1.14,2.29,0,0,7.63,46.86,8.49,51.57l14.49-11.87h0l.33-39.83h61.42l.35,40.39h-40.68l-3.09,25s18-2.66,32.71-5.98c1.21-.27,2.41-.55,3.56-.84.02,0,.04-.01.06-.02,4.03-.98,7.63-2.01,10.31-3.02.04-.01.07-.03.1-.04.35-.13.68-.27,1-.4.02-.01.04-.02.07-.03.32-.14.62-.27.9-.41.06-.03.11-.06.17-.09.23-.12.47-.23.67-.35.12-.07.22-.13.33-.2.12-.08.26-.15.37-.23.13-.09.23-.18.34-.26.07-.05.15-.11.21-.16.12-.11.22-.22.31-.33.02-.03.06-.06.08-.09.09-.12.14-.24.18-.35,0-.02.03-.04.03-.06h0l-8.87,24.96h0s23.21-19.35,30.14-20.13h0s-20.34,59.01-18.62,67.66h0s17.04-4.05,24.75-8.9c.8-.5,1.49-1.01,2.06-1.53h0s-.86,40.88-6.94,44.81c0,0,.12-.06.29-.16.18-.09.43-.23.75-.4.3-.16.67-.35,1.08-.56.78-.41,1.73-.89,2.78-1.43.87-.44,1.8-.91,2.75-1.37,0,0,.02,0,.03-.01.25-.12.5-.25.75-.37,3.78-1.84,7.67-3.56,8.9-3.56,0,0,2.6,22.01,5.92,24.81.11.09.21.16.32.21,0,0,26.6-31.41,34.58-32.22,0,0-17.47,38.37-5.01,52.43.64.73,1.37,1.39,2.18,1.98s1.71,1.1,2.7,1.53c0,0,8.18,4.18,17.18,4.33h.2c1.44.01,2.89-.07,4.33-.3.08-.01.15-.03.23-.04.43-.07.85-.15,1.28-.25.03,0,.05-.01.08-.02.97-.23,1.94-.52,2.88-.89.07-.03.13-.06.2-.09,3.8-1.56,7.28-4.41,9.83-9.26h0c-3.54,7.65-15.31,34.28-14.58,48.99,0,0-2.88,15.96,19.28,14.37,1.23-.09,20.48-4.11,21.28-4.02.37.04.6.18.75.39,2.7,3.64-27.45,31.77-27.46,31.78h0s12.39,5.47,22.46,8.58c.71.22,1.4.43,2.08.62,4.76,1.35,8.7,2,10.07,1.01h0s-3.47,21.22-11.25,29.89h0s1.64.97,4.03,2.23c.54.28,1.1.58,1.7.89.57.29,1.16.59,1.77.88.61.3,1.24.59,1.87.89,4.83,2.23,10.14,4.14,12.27,2.98h0s-2.26,2.67-5.06,6.36c-.21.27-.42.55-.63.84-.45.6-.91,1.23-1.37,1.87-.12.16-.23.32-.35.48-6.15,8.57-12.65,19.68-4.21,18.8,47.07-4.92,65.9-5.64,77.3-5.21.89.03,1.73.07,2.54.12.27.01.53.03.79.05,5.43.34,9.33.92,14.95,1.26,0,0-.45-.52-1.22-1.46-.41-.51-.92-1.13-1.51-1.88-.19-.24-.39-.5-.59-.76-.3-.39-.61-.8-.94-1.23-.66-.87-1.37-1.83-2.13-2.88-1.89-2.62-4.04-5.77-6.22-9.32-.56-.91-1.12-1.84-1.68-2.8-1.12-1.91-2.23-3.92-3.3-6-.54-1.04-1.06-2.1-1.58-3.17s-1.01-2.16-1.5-3.27c-.41-.95-.81-1.9-1.2-2.87-.29-.72-.57-1.45-.84-2.18-.9-2.42-1.68-4.88-2.33-7.36-.39-1.49-.73-2.99-1.01-4.49-.04-.21-.08-.42-.11-.62-1.21-6.96-1.13-13.95,1.07-20.46.37-1.1.8-2.19,1.3-3.26s1.05-2.13,1.68-3.16c1.57-2.59,3.56-5.07,6.04-7.39,0,0,18.08-16.42,36.83,11.26h0s.33-9.66-1.48-19.43c-.29-1.57-.63-3.14-1.04-4.67-1.16-4.35-2.84-8.4-5.27-11.28,0,0,21.5,4.93,29.28,8.07,0,0,7.07-11.2,6.2-19.85,0,0,15.57,6.28,16.44,10.21h0s-.86-22.01,2.6-28.3h0s1.18,2.79,3.23,6.3c0,0,.01.02.02.03.14.24.28.47.42.71,3.56,5.91,9.41,13.4,16.22,13.4,0,0,8.96-5.42,14.87-11.14,3.03-2.93,5.24-5.95,5.05-8.35v-.16h0l17.34,11s12.98-5.47,15.58-9.44h0s2.6,12.59.87,15.74h0s25.02-26.32,38.31-31.47c.04-.02.09-.04.13-.05.46-.18.91-.32,1.34-.44.01,0,.03,0,.04-.01,1.32-.37,2.5-.47,3.47-.25,0,0-4.03,21.92.34,31.25.02.04.04.09.06.13.14.3.3.58.46.85h0s2.28,1.54,4.98-1.22c.39-.39.78-.88,1.18-1.46.04-.06.08-.11.12-.17.08-.12.16-.27.24-.4.14-.22.27-.43.41-.68,0,0,3.47,16.52,2.6,18.87h0s2.31.44,5.34.45c.5,0,1.03,0,1.57-.03,3.22-.15,6.89-.88,9.41-3.06,1.26-1.09,2.24-2.54,2.73-4.45h0s21.19,28.14,21.7,42.41h0v-134.92h0l-.04-.06ZM268.33,249.6h-62.32l.12-40.49h62.19v40.49h.01Zm0-62.58h-62.32v-41.08l.02.02h62.3v41.06Zm33.94-41.14l61.92-.08v40.97l-62.01-.14.09-40.75Zm61.99,103.72l-61.94.05-.05-40.43,62.06.1-.07,40.28Zm98.78.03l-61.57-.18h0l.12-40.16h61.46v40.34h0Zm.02-62.88h-61.59v-40.96h61.59v40.96Zm34.95-40.75h62.18v40.75h-62.18v-40.75h0Zm62.14,63.08l-.06,40.55h-61.87l-.14-40.55h62.07Zm-62.14,62.82h0l35.47.08,26.61.06v40.53l-62.08.11v-40.77h0Zm62.32,107.7h-62.32v-41.67h62.32v41.67Zm34.74-233.73h61.39l.09,40.93h-61.48v-40.93h0Zm61.6,63.88v39.94l-61.42-.11-.1-40.16,61.52.33h0Zm-62.18,103.53h.12v.11h-.12v-.11Zm62.06,66.88l-61.73.17-.21-42.6h61.94v42.43Zm-61.28-67.19l-.1-41.04,61.3.11.2,40.8-61.41.13h0Z"/>
      <path class="cls-1" d="m222.45,700.99c3.05-.68,6.11-1.36,9.15-2.04,4.41-.98,8.8-1.96,13.17-2.93.55-.12,1.11-.25,1.66-.37,2.39-.53,4.77-1.06,7.14-1.58,61.88-13.72,116.43-25.56,127.15-27.09h.02l-158.81,20.46-173.26,22.32v30.32h0s84.17-19.1,168-37.8c1.93-.43,3.86-.86,5.79-1.29h0Z"/>
    </g>
    <g>
      <g>
        <path class="cls-1" d="m35.27,1010.02c6.9.15,13.95.31,21.15.31s14.41-.15,21.76-.31v3.98c-10.11-.15-13.95,1.84-13.95,11.19v71.41c0,11.49,3.68,15.48,24.06,15.48,17.78,0,23.91-3.98,28.81-19.16l3.37.61-5.67,23.45c-17.78-.46-35.55-.31-53.48-.31-8.58,0-17.32.15-26.05.31v-3.98c11.19.61,13.95-3.98,13.95-10.88v-77.23c0-9.19-4.14-10.88-13.95-10.88v-3.98h0Z"/>
        <path class="cls-1" d="m182.08,1059.82v42.6c0,5.52,1.84,8.58,5.52,8.58,1.99,0,4.29-.92,5.67-2.6l1.38,2.6c-4.14,3.83-9.04,8.28-15.17,8.28s-9.19-5.82-9.5-11.34c-6.9,6.28-13.79,11.34-23.6,11.34s-16.55-7.05-16.55-15.02c0-12.41,7.82-14.56,40-25.75v-10.11c0-7.82-4.29-13.18-14.86-13.18-7.36,0-11.65,4.75-11.65,10.88,0,4.29-5.36,6.28-8.58,6.28-2.3,0-2.76-1.99-2.76-3.22,0-8.43,7.97-12.26,18.24-17.62,5.36-2.76,7.51-4.6,13.18-4.6,7.66,0,18.7,4.9,18.7,12.87h-.02Zm-29.12,52.26c7.2,0,11.95-4.6,16.86-8.89v-20.23c-.77.31-4.44,1.53-8.89,2.91-10.57,3.37-18.85,7.66-18.85,15.17,0,5.98,4.9,11.03,10.88,11.03h0Z"/>
        <path class="cls-1" d="m226.52,1048.33v10.11c8.74-6.28,16.24-11.49,26.51-11.49,12.26,0,17.62,8.58,17.62,21.45v39.84c0,2.91,1.38,4.75,6.13,4.75h4.29v3.98c-5.82,0-11.65-.31-17.62-.31-5.06,0-10.11.15-15.17.31v-3.98h3.98c3.53,0,6.13-.46,6.13-5.06v-39.69c0-7.82-4.44-13.03-13.95-13.03-4.9,0-12.11,3.52-17.93,7.36v45.21c0,4.14,1.99,5.21,5.98,5.21h4.44v3.98c-5.67,0-11.49-.31-17.16-.31-5.21,0-10.42.15-15.63.31v-3.98h3.98c4.14,0,6.13-.92,6.13-4.9v-41.07c0-5.36-2.15-7.2-8.89-9.81v-2.91l9.65-3.22c3.22-1.07,6.9-2.6,10.57-4.14.61,0,.92.61.92,1.38h.02Z"/>
        <path class="cls-1" d="m347.27,1071.32c0,.77,0,1.69-.15,2.45l-1.38.92h-43.06c-.31,1.99-.31,4.14,0,8.73.92,14.41,9.96,26.66,22.53,26.66,8.58,0,15.17-4.75,20.69-10.27l2.15,2.15c-8.58,11.65-17.78,17.32-28.35,17.32-22.68,0-29.27-20.84-29.27-33.56,0-29.88,20.23-38.77,30.96-38.77,13.79,0,25.9,9.04,25.9,24.37h-.02Zm-17.47-1.53c3.07,0,4.29-1.07,4.29-3.98,0-7.36-4.44-13.95-13.49-13.95s-15.63,6.74-17.47,17.93h26.67Z"/>
        <path class="cls-1" d="m355.85,1049.25c5.36.15,10.73.31,16.09.31,7.05,0,10.27-.31,15.48-.31v3.98c-7.2.31-8.43,1.99-8.43,4.14,0,4.29,12.57,31.87,15.48,41.22h.31c.15-.46,2.76-7.05,7.66-18.54,5.06-11.8,7.51-18.54,7.51-20.53,0-3.98-1.99-6.28-7.51-6.28h-1.07v-3.98c4.29.15,9.96.31,13.03.31,4.29,0,8.58-.15,12.87-.31v3.98c-7.66-.31-10.11,5.36-12.41,10.57l-34.33,80.45c-2.3,5.36-5.36,7.66-9.81,7.66s-7.51-3.22-7.51-7.36c0-3.68,3.22-7.66,7.51-7.66,2.45,0,3.98.31,6.13,2.3,4.9-10.42,6.44-13.94,10.73-24.67-12.26-31.42-19.31-49.5-21.46-54.25-1.99-4.44-4.6-7.51-10.27-7.05v-3.98h0Z"/>
        <path class="cls-1" d="m575.6,1015.84l1.53,21.91h-3.83c-2.45-16.09-13.64-25.13-32.79-25.13-16.86,0-43.21,11.19-43.21,48.58,0,31.11,22.22,53.18,45.67,53.18,14.56,0,27.43-9.5,30.8-26.51l3.53.92-3.53,22.37c-6.59,3.98-23.75,8.12-34.02,8.12-35.55,0-58.39-23.14-58.39-57.62,0-31.11,27.58-53.94,58.08-53.94,12.41,0,24.37,3.98,36.17,8.12h-.01Z"/>
        <path class="cls-1" d="m661.87,1082.81c0,19.16-15.02,36.47-35.25,36.47-21.45,0-37.08-15.02-37.08-35.86s14.86-36.47,35.09-36.47c22.22,0,37.24,15.02,37.24,35.86Zm-35.4,32.49c14.71,0,21.3-16.55,21.3-30.96,0-12.87-6.74-33.41-23.14-33.41-13.64,0-20.99,15.63-20.99,30.96,0,13.79,7.36,33.41,22.83,33.41Z"/>
        <path class="cls-1" d="m695.74,1001.74v106.04c0,3.98,1.69,5.21,6.13,5.21h4.14v3.98c-5.67,0-11.49-.31-17.16-.31-5.21,0-10.42.15-15.63.31v-3.98h3.52c3.68,0,6.74-.15,6.74-4.9v-84.59c0-9.19-.77-11.03-8.12-12.87v-2.45c8.58-2.91,13.33-5.21,15.78-6.59,2.15-1.07,2.76-1.69,3.37-1.69.77,0,1.23.77,1.23,1.84h0Z"/>
        <path class="cls-1" d="m738.34,1001.74v106.04c0,3.98,1.69,5.21,6.13,5.21h4.14v3.98c-5.67,0-11.49-.31-17.16-.31-5.21,0-10.42.15-15.63.31v-3.98h3.52c3.68,0,6.74-.15,6.74-4.9v-84.59c0-9.19-.77-11.03-8.12-12.87v-2.45c8.58-2.91,13.33-5.21,15.78-6.59,2.15-1.07,2.76-1.69,3.37-1.69.77,0,1.23.77,1.23,1.84h0Z"/>
        <path class="cls-1" d="m815.58,1071.32c0,.77,0,1.69-.15,2.45l-1.38.92h-43.06c-.31,1.99-.31,4.14,0,8.73.92,14.41,9.96,26.66,22.53,26.66,8.58,0,15.17-4.75,20.69-10.27l2.15,2.15c-8.58,11.65-17.78,17.32-28.35,17.32-22.68,0-29.27-20.84-29.27-33.56,0-29.88,20.23-38.77,30.96-38.77,13.79,0,25.9,9.04,25.9,24.37h-.02Zm-17.47-1.53c3.07,0,4.29-1.07,4.29-3.98,0-7.36-4.44-13.95-13.49-13.95s-15.63,6.74-17.47,17.93h26.67Z"/>
        <path class="cls-1" d="m884.53,1051.7c1.07,0,5.67,0,9.81-.77v7.36l-15.17-.61c2.6,3.22,3.98,7.51,3.98,11.65,0,12.41-10.88,23.6-27.89,23.6-2.61,0-5.98-.31-8.89-.92-2.91,2.15-4.6,4.14-4.6,7.82,0,4.9,3.83,7.05,10.73,7.05l21.61.15c12.11.15,20.54,3.68,20.54,15.32,0,5.98-7.66,29.58-40.61,29.58-17.16,0-28.96-7.51-28.96-17.16,0-8.73,6.44-15.02,17.93-17.62v-.31c-7.36-2.15-13.49-6.74-13.49-13.49,0-1.07,0-3.22.61-4.75,5.36-3.06,10.88-5.98,12.72-7.66-8.58-4.44-14.41-10.27-14.41-20.38,0-14.25,10.88-23.6,28.66-23.6,10.73,0,18.08,4.75,27.43,4.75h0Zm-28.04,95.32c11.49,0,26.82-5.06,26.82-17.62,0-9.96-10.27-12.41-22.53-12.41-13.03,0-24.52,1.69-24.52,14.4,0,9.19,7.66,15.63,20.23,15.63h0Zm-.46-58.08c9.2,0,14.87-7.05,14.87-17.93,0-9.04-4.75-20.08-15.94-20.08-8.74,0-13.33,8.73-13.33,17.47,0,10.27,4.6,20.53,14.4,20.53h0Z"/>
        <path class="cls-1" d="m960.23,1071.32c0,.77,0,1.69-.15,2.45l-1.38.92h-43.06c-.31,1.99-.31,4.14,0,8.73.92,14.41,9.96,26.66,22.53,26.66,8.58,0,15.17-4.75,20.69-10.27l2.15,2.15c-8.58,11.65-17.78,17.32-28.35,17.32-22.68,0-29.27-20.84-29.27-33.56,0-29.88,20.23-38.77,30.96-38.77,13.79,0,25.9,9.04,25.9,24.37h-.02Zm-17.47-1.53c3.07,0,4.29-1.07,4.29-3.98,0-7.36-4.44-13.95-13.49-13.95s-15.63,6.74-17.47,17.93h26.67Z"/>
      </g>
      <rect class="cls-2" x="32.34" y="1144.13" width="308.67" height="7.92"/>
      <rect class="cls-2" x="407.29" y="1144.13" width="403.52" height="7.92"/>
      <rect class="cls-2" x="901.39" y="1144.13" width="59.3" height="7.92"/>
    </g>
  </g>
</svg>