<svg id="main-logo-svg" xmlns="http://www.w3.org/2000/svg" viewBox="0 0 720 265.5">
    <path fill="#231f20" d="M36.87,114c.59-3.37,1.78-5.16,3.37-5.16s2.77,1,5.35,6.15L99.7,226.81l53.92-113.18c1.39-3.17,2.58-4.76,4.36-4.76s3,2,3.57,6.15l18,122.5c1.78,12.49,3.76,18.24,9.71,20a39.73,39.73,0,0,0,12.29,2c1.78,0,3.17.2,3.17,1.39,0,1.59-2.38,2.18-5.15,2.18-5,0-32.32-.59-40.25-1.19-4.55-.4-5.74-1-5.74-2.18,0-1,.79-1.59,2.18-2.18,1.19-.4,1.78-3,1-8.53L144.9,161.8h-.79l-43.22,90c-4.56,9.31-5.55,11.1-7.33,11.1s-3.77-4-6.94-9.91c-4.76-9.12-20.42-39.45-22.8-45-1.78-4.16-13.68-29.14-20.61-44h-.79L32.11,242.87a77.6,77.6,0,0,0-.59,9.32c0,3.77,2.57,5.55,5.94,6.34a38.46,38.46,0,0,0,8.32,1c1.59,0,3,.4,3,1.39,0,1.78-1.78,2.18-4.76,2.18-8.32,0-17.25-.59-20.81-.59-3.76,0-13.28.59-19.62.59-2,0-3.57-.4-3.57-2.18,0-1,1.19-1.39,3.17-1.39a25.63,25.63,0,0,0,5.94-.59c5.55-1.19,7.14-8.92,8.13-15.66Z" />
    <path fill="#231f20" d="M244.2,201.44c-.8,0-1-.6-.8-1.39l18.24-48.76c.2-.79.59-1.78,1.2-1.78s.79,1,1,1.78l17.84,49c.2.59,0,1.19-1,1.19Zm40.24,9.91a1.91,1.91,0,0,1,2,1.39l15.85,42a3.23,3.23,0,0,1-1.78,4.56c-2,.19-2.77.58-2.77,1.78,0,1.38,2.37,1.38,5.95,1.58,15.85.4,30.32.4,37.46.4,7.33,0,9.11-.4,9.11-2,0-1.39-1-1.59-2.57-1.59a43.12,43.12,0,0,1-8.33-.79c-4.16-1-9.91-3.77-17.44-21.61-12.68-30.13-44.4-111-49.16-121.9-2-4.56-3.17-6.35-4.95-6.35-2,0-3.17,2.18-5.56,7.94L212.49,241.28c-4,9.91-7.74,16.65-16.85,17.85a59.83,59.83,0,0,1-6.15.39c-1.59,0-2.38.39-2.38,1.59,0,1.58,1.19,2,3.77,2,10.31,0,21.21-.6,23.39-.6,6.14,0,14.66.6,21,.6,2.18,0,3.37-.4,3.37-2,0-1.2-.6-1.59-3-1.59h-3c-6.14,0-7.93-2.57-7.93-6.15,0-2.37,1-7.13,3-12.09l10.7-28.34c.39-1.19.79-1.59,1.79-1.59Z" />
    <path fill="#231f20" d="M382.55,126.12c0-1.59.39-2.38,1.78-2.78,2-.59,5.55-.79,10.5-.79,11.7,0,30.34,8.12,30.34,36.28,0,16.25-5.76,25.37-11.7,29.73-3.57,2.57-6.15,3.37-14.08,3.37-4.95,0-10.9-.59-15.06-2-1.39-.59-1.78-1.38-1.78-3.56Zm-23.39,79.49c0,18.23,0,33.89-1,42.21-.79,5.75-1.78,10.11-5.74,10.91a32.8,32.8,0,0,1-7.14.79c-2.37,0-3.17.6-3.17,1.59,0,1.38,1.39,2,4,2,7.93,0,20.42-.6,24.19-.6,3,0,17.64.6,29.13.6,2.58,0,4-.6,4-2,0-1-.79-1.59-2.38-1.59a92.88,92.88,0,0,1-9.71-.79c-5.95-.8-7.14-5.16-7.73-10.91-1-8.32-1-24-1-42.42v-2.77c0-1.19.59-1.58,1.58-1.58l17.25.39a4.14,4.14,0,0,1,3.57,1.39c2.57,3,11.69,16.46,19.62,27.36,11.1,15.26,18.63,24.58,27.16,29.14,5.15,2.77,10.11,3.76,21.21,3.76h18.83c2.37,0,3.77-.4,3.77-2,0-1-.8-1.59-2.39-1.59a30.8,30.8,0,0,1-5.55-.59c-3-.6-11.1-2-22.2-13.48-11.69-12.29-25.37-29.93-43-52.14,20-16.25,26.16-29.73,26.16-44.39,0-13.29-7.92-23.39-13.47-27.16-10.71-7.34-24-8.53-36.48-8.53-6.14,0-21.21.6-28,.6-4.16,0-16.65-.6-27.15-.6-3,0-4.36.4-4.36,1.79s1.19,1.78,3.37,1.78a41.24,41.24,0,0,1,7.72.59c6.55,1.4,8.14,4.56,8.54,11.3.39,6.35.39,11.9.39,42Z" />
    <path fill="#231f20" d="M504.83,170.72c0-30.13,0-35.69-.4-42-.4-6.74-2.38-10.1-6.74-11.09a27.93,27.93,0,0,0-7.14-.79c-2,0-3.16-.4-3.16-2,0-1.19,1.58-1.59,4.75-1.59,7.53,0,20,.6,25.77.6,5,0,16.65-.6,24.18-.6,2.57,0,4.16.4,4.16,1.59,0,1.59-1.19,2-3.17,2a33.2,33.2,0,0,0-6,.59c-5.35,1-6.93,4.36-7.33,11.29-.39,6.34-.39,11.9-.39,42v34.89c0,19.23,0,34.88.79,43.41.59,5.35,2,8.91,7.93,9.71,2.77.4,10.14.79,13.12.79,2.18,0,3.17.59,3.17,1.59,0,1.38-1.59,2-3.77,2-13.08,0-28.58-.6-33.93-.6-4.57,0-17.05.6-25,.6-2.57,0-4-.6-4-2,0-1,.79-1.59,3.17-1.59a32.09,32.09,0,0,0,7.13-.79c4-.8,5.16-4.16,5.75-9.92,1-8.32,1-24,1-43.2Z" />
    <path fill="#231f20" d="M587.58,236.13c.4,15.46,3,20.61,6.94,22a31.23,31.23,0,0,0,10.31,1.39c2.18,0,3.37.39,3.37,1.59,0,1.58-1.78,2-4.56,2-12.88,0-20.81-.6-24.57-.6-1.79,0-14.15.6-24.46.6-2.57,0-4.36-.2-4.36-2,0-1.2,1.19-1.59,3.17-1.59,2.58,0,9.19-.19,12-1,5.16-1.58,6-7.34,6.15-24.57l1.78-117.36c0-4,.6-6.74,2.58-6.74,2.18,0,4,2.58,7.34,6.15,2.37,2.58,32.51,34.89,61.44,63.63,13.48,13.48,40.24,42,43.62,45.19h1l-2-89c-.2-12.09-2-15.86-6.74-17.84-3-1.18-7.72-1.18-10.51-1.18-2.37,0-3.17-.61-3.17-1.79,0-1.59,2.19-1.79,5.16-1.79,10.31,0,19.82.6,24,.6,2.19,0,9.72-.6,19.43-.6,2.57,0,4.56.2,4.56,1.79,0,1.18-1.19,1.79-3.57,1.79a22.15,22.15,0,0,0-5.95.58c-5.55,1.59-7.14,5.76-7.33,16.86L701,259.33c0,4.36-.8,6.14-2.58,6.14-2.18,0-4.56-2.18-6.74-4.36-12.49-11.9-37.86-37.86-58.47-58.28-21.61-21.41-43.61-46.19-47.18-50h-.59Z" />
    <path fill="#231f20" d="M38.55,42.24c-6.13-5.37-7.75-12.39-7.75-18.46A23.51,23.51,0,0,1,38.12,6.64C42.62,2.51,48.57,0,57.89,0A62.42,62.42,0,0,1,67,.63c2.38.31,4.38.87,6.26,1.06.69.06.94.38.94.76S74,3.69,73.85,5.88s-.06,5.51-.19,6.77c-.06.94-.19,1.43-.75,1.43s-.63-.49-.63-1.37A8.94,8.94,0,0,0,69.85,7c-2.07-2.19-7-3.88-12.71-3.88-5.44,0-9,1.38-11.76,3.88-4.58,4.19-5.76,10.14-5.76,16.21,0,14.89,11.33,22.27,19.71,22.27,5.57,0,9-.62,11.46-3.5a10.38,10.38,0,0,0,2.12-4.13c.19-1,.31-1.25.82-1.25s.55.44.55.94a58.7,58.7,0,0,1-1.37,8.32,2.19,2.19,0,0,1-1.63,1.81c-2.5,1-7.26,1.45-11.26,1.45-8.58,0-15.77-1.88-21.47-6.83" />
    <path fill="#231f20" d="M139.35,45.94c-12,0-19.2-10.33-19.2-23.35C120.15,7,128.34,3,135.54,3c10.26,0,18.34,8.69,18.34,22.72,0,18.08-10.15,20.21-14.53,20.21m-2.62,3.13c15.9,0,25.9-11.33,25.9-25.66S152.93,0,137.35,0c-18.77,0-25.84,13.83-25.84,24.53,0,11.08,7.26,24.54,25.22,24.54" />
    <path fill="#231f20" d="M214.2,30c0,8,0,12.33,1.32,13.46,1.06.94,2.68,1.37,7.56,1.37,3.32,0,5.77-.06,7.33-1.75A7.91,7.91,0,0,0,232,39.36c.06-.56.19-.94.68-.94s.51.32.51,1.07a51,51,0,0,1-.94,7.2c-.38,1.38-.69,1.69-3.95,1.69-9,0-13.14-.38-18.2-.38-1.45,0-5.39.19-7.9.19-.81,0-1.24-.19-1.24-.62s.24-.51,1-.51a9.87,9.87,0,0,0,2.25-.25c1.25-.25,1.57-1.62,1.82-3.44.31-2.63.31-7.57.31-13.33V19c0-9.51,0-11.26-.13-13.27s-.62-3.13-2.69-3.56A9,9,0,0,0,201.5,2c-.69,0-1.07-.13-1.07-.56s.44-.57,1.38-.57c2.94,0,6.88.19,8.57.19,1.5,0,6.07-.19,8.51-.19.88,0,1.32.13,1.32.57s-.38.56-1.13.56a16,16,0,0,0-2.44.19c-1.69.31-2.19,1.38-2.31,3.56-.13,2-.13,3.76-.13,13.27Z" />
    <path fill="#231f20" d="M282.72,30c0,8,0,12.33,1.32,13.46,1.06.94,2.69,1.37,7.57,1.37,3.32,0,5.76-.06,7.32-1.75a7.91,7.91,0,0,0,1.63-3.76c.06-.56.18-.94.69-.94s.49.32.49,1.07a48.23,48.23,0,0,1-.94,7.2c-.37,1.38-.68,1.69-3.93,1.69-9,0-13.14-.38-18.22-.38-1.43,0-5.38.19-7.88.19-.81,0-1.25-.19-1.25-.62s.25-.51,1-.51a10,10,0,0,0,2.26-.25c1.25-.25,1.56-1.62,1.81-3.44.31-2.63.31-7.57.31-13.33V19c0-9.51,0-11.26-.12-13.27s-.63-3.13-2.69-3.56A9.11,9.11,0,0,0,270,2c-.69,0-1.06-.13-1.06-.56s.43-.57,1.37-.57c2.94,0,6.89.19,8.58.19,1.5,0,6.06-.19,8.51-.19.87,0,1.31.13,1.31.57s-.37.56-1.12.56a16,16,0,0,0-2.45.19c-1.68.31-2.19,1.38-2.32,3.56-.12,2-.12,3.76-.12,13.27Z" />
    <path fill="#231f20" d="M343.42,19c0-9.51,0-11.26-.13-13.27s-.61-3.13-2.68-3.56A12.53,12.53,0,0,0,338.16,2c-.68,0-1.06-.13-1.06-.56s.44-.57,1.38-.57c3.32,0,7.26.19,9,.19,2,0,14.46,0,15.65-.06s2.18-.26,2.69-.38a5.85,5.85,0,0,1,1-.25c.31,0,.37.25.37.56s-.31,1.19-.5,4.07c-.06.63-.19,3.38-.32,4.13-.06.31-.18.69-.61.69s-.57-.31-.57-.88a6.77,6.77,0,0,0-.37-2.25c-.45-1.12-1.07-1.88-4.19-2.25-1.07-.13-7.64-.25-8.9-.25-.3,0-.43.19-.43.62V20.65c0,.45.06.7.43.7,1.39,0,8.58,0,10-.13s2.44-.31,3-.94.69-.82,1-.82.43.13.43.51-.31,1.38-.5,4.57c-.13,1.24-.25,3.75-.25,4.19s0,1.18-.56,1.18-.57-.24-.57-.56a15.73,15.73,0,0,0-.25-2.25c-.31-1.25-1.18-2.19-3.5-2.44-1.19-.12-7.39-.18-8.89-.18-.31,0-.37.24-.37.62V30c0,2.13-.06,7.89,0,9.7.13,4.32,1.12,5.26,7.51,5.26,1.62,0,4.25,0,5.88-.75s2.38-2.06,2.82-4.63c.12-.69.25-.94.69-.94s.49.5.49,1.13a47.93,47.93,0,0,1-.81,6.94c-.44,1.63-1,1.63-3.38,1.63-9.45,0-13.64-.38-17.33-.38-1.44,0-5.38.19-7.89.19-.81,0-1.25-.19-1.25-.63s.25-.5,1-.5a9.8,9.8,0,0,0,2.25-.25c1.26-.25,1.57-1.62,1.82-3.44.31-2.63.31-7.57.31-13.33Z" />
    <path fill="#231f20" d="M451.61,44c0,1.69-.06,1.81-.81,2.25-4.07,2.13-10.2,2.82-15.09,2.82-15.33,0-28.9-7.26-28.9-24.54,0-10,5.19-17,10.89-20.46C423.71.44,429.27,0,434.53,0a73.94,73.94,0,0,1,11.08,1,40.27,40.27,0,0,0,4.94.68c.75.06.87.32.87.76A86,86,0,0,0,451,12.71c0,1-.19,1.31-.69,1.31s-.57-.31-.63-.81A8.81,8.81,0,0,0,447.54,8c-1.87-2-6.88-4.87-14-4.87-3.44,0-8,.25-12.39,3.87-3.5,2.94-5.76,7.64-5.76,15.34,0,13.45,8.58,23.52,21.78,23.52a14.06,14.06,0,0,0,5.32-.68,2.22,2.22,0,0,0,1.19-2.32V37c0-3.13,0-5.5-.06-7.38-.07-2.13-.63-3.13-2.7-3.57a12.42,12.42,0,0,0-2.44-.19c-.56,0-.93-.13-.93-.5s.43-.63,1.31-.63c3.25,0,7.19.19,9.07.19s5.26-.19,7.33-.19c.81,0,1.24.13,1.24.63s-.36.5-.81.5a9.32,9.32,0,0,0-1.68.19c-1.7.31-2.32,1.38-2.39,3.57-.06,1.88-.06,4.37-.06,7.5Z" />
    <path fill="#231f20" d="M499.74,19c0-9.51,0-11.26-.13-13.27s-.63-3.13-2.7-3.56A12.24,12.24,0,0,0,494.48,2c-.69,0-1.07-.13-1.07-.56s.44-.57,1.38-.57c3.32,0,7.26.19,9,.19,2,0,14.46,0,15.65-.06s2.19-.26,2.69-.38a5.85,5.85,0,0,1,1-.25c.32,0,.37.25.37.56S523.2,2.13,523,5c-.06.63-.19,3.38-.31,4.13-.06.31-.19.69-.63.69s-.55-.31-.55-.88a6.83,6.83,0,0,0-.38-2.25c-.44-1.12-1.07-1.88-4.2-2.25-1.06-.13-7.63-.25-8.88-.25-.31,0-.44.19-.44.62V20.65c0,.45.06.7.44.7,1.37,0,8.57,0,10-.13s2.44-.31,3-.94.69-.82,1-.82.44.13.44.51-.31,1.38-.5,4.57c-.13,1.24-.25,3.75-.25,4.19s0,1.18-.56,1.18-.56-.24-.56-.56a15.73,15.73,0,0,0-.25-2.25c-.32-1.25-1.19-2.19-3.51-2.44-1.19-.12-7.38-.18-8.88-.18-.32,0-.38.24-.38.62V30c0,2.13-.06,7.89,0,9.7.13,4.32,1.13,5.26,7.51,5.26,1.62,0,4.26,0,5.88-.75s2.38-2.06,2.82-4.63c.12-.69.24-.94.69-.94s.49.5.49,1.13a47.93,47.93,0,0,1-.81,6.94c-.43,1.63-1,1.63-3.38,1.63-9.45,0-13.64-.38-17.33-.38-1.44,0-5.38.19-7.89.19-.81,0-1.25-.19-1.25-.63s.25-.5,1-.5a10,10,0,0,0,2.25-.25c1.25-.25,1.56-1.62,1.81-3.44.32-2.63.32-7.57.32-13.33Z" />
    <path fill="#231f20" d="M623.5,45.94c-12,0-19.2-10.33-19.2-23.35C604.3,7,612.49,3,619.69,3,630,3,638,11.7,638,25.73c0,18.08-10.14,20.21-14.52,20.21m-2.62,3.13c15.9,0,25.9-11.33,25.9-25.66S637.08,0,621.5,0c-18.77,0-25.85,13.83-25.85,24.53,0,11.08,7.27,24.54,25.23,24.54" />
    <path fill="#231f20" d="M689.64,30c0,6,0,10.7.31,13.33.18,1.82.57,3.19,2.44,3.44a25.39,25.39,0,0,0,3.13.25c.81,0,1.06.19,1.06.51s-.44.62-1.37.62c-4,0-7.89-.19-9.52-.19s-5.56.19-7.94.19c-.88,0-1.32-.12-1.32-.62,0-.32.25-.51.94-.51a9.87,9.87,0,0,0,2.25-.25c1.25-.25,1.57-1.62,1.81-3.44.32-2.63.32-7.32.32-13.33V19c0-9.51,0-11.26-.13-13.27S681,2.63,678.94,2.2A12.6,12.6,0,0,0,676.49,2c-.62,0-1.06-.13-1.06-.5s.5-.63,1.44-.63c3.26,0,7.19.19,9,.19,2.38,0,15.09,0,16.52-.06A12.37,12.37,0,0,0,705,.75c.37-.12.68-.37,1-.37a.51.51,0,0,1,.44.56c0,.44-.31,1.19-.5,2.82-.07.63-.19,4.32-.32,5.07-.06.5-.19.88-.62.88s-.57-.32-.63-1A6,6,0,0,0,704,6.33c-.43-.88-1.75-1.82-4.12-1.88l-9.64-.19c-.38,0-.56.19-.56.88V20.78c0,.38.06.57.43.57l8-.07c1.07,0,1.95,0,2.82-.06a3.26,3.26,0,0,0,2.69-1.13c.32-.37.44-.62.81-.62s.38.18.38.56-.31,1.94-.5,3.88c-.12,1.25-.25,4.13-.25,4.57s0,1.19-.63,1.19c-.37,0-.49-.44-.49-.88a7,7,0,0,0-.39-1.94,3.65,3.65,0,0,0-3.19-2.25c-1.56-.19-8.19-.19-9.26-.19-.31,0-.43.13-.43.56Z" />
    <rect fill="#cf9112" x="29.48" y="75.53" width="686.47" height="4.29" />
</svg>