<?xml version="1.0" encoding="utf-8"?>
<!-- Generator: Adobe Illustrator 23.1.1, SVG Export Plug-In . SVG Version: 6.00 Build 0)  -->
<svg version="1.1" id="Layer_1" xmlns="http://www.w3.org/2000/svg" xmlns:xlink="http://www.w3.org/1999/xlink" x="0px" y="0px"
	 viewBox="0 0 136 80" style="enable-background:new 0 0 136 80;" xml:space="preserve">
<style type="text/css">
	.st0{fill:url(#SVGID_1_);}
	.st1{fill:#231F20;}
	.st2{fill:url(#SVGID_2_);}
	.st3{fill:url(#SVGID_3_);}
	.st4{fill:url(#SVGID_4_);}
	.st5{fill:url(#SVGID_5_);}
	.st6{fill:url(#SVGID_6_);}
</style>
<g>
	
		<linearGradient id="SVGID_1_" gradientUnits="userSpaceOnUse" x1="95.5803" y1="57.9692" x2="121.0501" y2="47.1698" gradientTransform="matrix(1 0 0 -1 0 82)">
		<stop  offset="0" style="stop-color:#348C41"/>
		<stop  offset="5.000000e-02" style="stop-color:#439741"/>
		<stop  offset="0.15" style="stop-color:#5CAA42"/>
		<stop  offset="0.26" style="stop-color:#6FB742"/>
		<stop  offset="0.37" style="stop-color:#79BF42"/>
		<stop  offset="0.5" style="stop-color:#7DC242"/>
		<stop  offset="0.59" style="stop-color:#8FC83D"/>
		<stop  offset="0.72" style="stop-color:#A2CD39"/>
		<stop  offset="0.85" style="stop-color:#ACD136"/>
		<stop  offset="1" style="stop-color:#B0D235"/>
	</linearGradient>
	<path class="st0" d="M120.7,28.4c-14.1-7.9-32.1-3.5-32.1-3.5c20-2.3,31.7,9.2,35.3,17.6L120.7,28.4z"/>
	<path class="st1" d="M35.4,40.2h1.5l-3.2,12.9h-1.5L35.4,40.2z"/>
	<path class="st1" d="M39.7,40.2h5.6c1.6,0,2.7,0.5,3.4,1.3c0.5,0.8,0.6,1.7,0.4,2.5v0c-0.5,2.1-2.3,3.4-4.5,3.8l2.7,5.3h-1.8
		l-2.5-5h-3.7l-1.3,5h-1.5L39.7,40.2z M43.5,46.8c1.9,0,3.6-1,4-2.7v0c0.4-1.6-0.6-2.5-2.7-2.5h-4l-1.3,5.2H43.5z"/>
	<path class="st1" d="M54.8,40.1h1.4l2.6,13h-1.6l-0.7-3.4h-7l-2.4,3.4h-1.5L54.8,40.1z M56.4,48.4l-1.3-6.6l-4.6,6.6H56.4z"/>
	<polygon class="st1" points="19.5,36.6 17.7,36.6 13.6,53.1 15.2,53.1 18.6,39.4 22.6,48.5 22.6,48.5 31,39.4 27.6,53.1 29.3,53.1 
		33.5,36.6 31.7,36.6 23.3,45.7 	"/>
	<path class="st1" d="M66.6,51.8c-3.7,0-5.8-3.1-4.8-7v0c1-3.9,4.5-6.9,8.2-6.9c1.8-0.1,3.6,0.8,4.7,2.3l1.5-1.3
		c-1.3-1.5-2.8-2.6-5.8-2.6c-4.9,0-9.3,3.9-10.5,8.5v0c-1.2,4.7,1.4,8.5,6.2,8.5c3,0,5.1-1.1,7.3-2.9l-0.9-1.1
		C70.6,50.9,68.9,51.8,66.6,51.8z"/>
	<path class="st1" d="M74.4,46.7L74.4,46.7c0.9-3.6,4.3-6.7,8.3-6.7s5.8,3.1,4.9,6.6c0,0,0,0,0,0c-0.9,3.6-4.3,6.7-8.3,6.7
		S73.5,50.2,74.4,46.7z M86.1,46.7L86.1,46.7c0.7-3-0.8-5.4-3.8-5.4c-3,0-5.7,2.4-6.4,5.3v0c-0.7,2.9,0.8,5.3,3.8,5.3
		S85.3,49.6,86.1,46.7z"/>
	<path class="st1" d="M52.9,67.1c-3,0-4.7-2.5-3.9-5.6v0c0.8-3.1,3.6-5.6,6.7-5.6c1.5-0.1,2.9,0.6,3.8,1.8l1.2-1
		c-1-1.2-2.2-2.1-4.6-2.1c-3.9,0-7.5,3.1-8.5,6.9v0c-1,3.8,1.1,6.9,5,6.9c2.4,0,4.1-0.9,5.9-2.3l-0.7-0.9
		C56.2,66.5,54.8,67.1,52.9,67.1z"/>
	<path class="st1" d="M59.2,63L59.2,63c0.7-2.9,3.5-5.4,6.7-5.4c3.2,0,4.7,2.5,4,5.4c0,0,0,0,0,0c-0.7,2.9-3.5,5.4-6.7,5.4
		C60,68.4,58.5,65.9,59.2,63z M68.7,63L68.7,63c0.6-2.4-0.7-4.3-3-4.3c-2.4,0-4.6,1.9-5.2,4.3v0c-0.6,2.4,0.7,4.3,3,4.3
		C65.9,67.3,68.1,65.4,68.7,63z"/>
	<path class="st1" d="M86.7,51.2l1.2-1.1c0.9,1.2,2.4,1.9,4,1.8c1.7,0,3.1-0.9,3.4-2.2v0c0.3-1.2-0.2-1.9-2.8-2.5
		c-2.8-0.6-3.9-1.6-3.4-3.7v0c0.5-2,2.7-3.5,5.1-3.5c1.9,0,3.1,0.5,4.1,1.6l-1.1,1.1c-0.9-0.9-2.1-1.4-3.4-1.4c-1.7,0-3,0.9-3.3,2.1
		v0c-0.3,1.2,0.2,1.9,2.9,2.5c2.7,0.6,3.8,1.7,3.3,3.7v0c-0.6,2.2-2.8,3.7-5.3,3.7C89.4,53.3,87.9,52.6,86.7,51.2z"/>
	<path class="st1" d="M103.8,41.5h-4.3l0.3-1.4H110l-0.3,1.4h-4.4l-2.9,11.6h-1.5L103.8,41.5z"/>
	<path class="st1" d="M113.9,40.1h1.4l2.6,13h-1.6l-0.7-3.4h-7l-2.4,3.4h-1.5L113.9,40.1z M115.4,48.4l-1.3-6.6l-4.6,6.6H115.4z"/>
	
		<linearGradient id="SVGID_2_" gradientUnits="userSpaceOnUse" x1="73.6714" y1="59.404" x2="137.0667" y2="73.5217" gradientTransform="matrix(1 0 0 -1 0 82)">
		<stop  offset="0" style="stop-color:#003B6E"/>
		<stop  offset="0.33" style="stop-color:#008EC4"/>
		<stop  offset="0.5" style="stop-color:#00B4EB"/>
		<stop  offset="0.71" style="stop-color:#3FC0EB"/>
		<stop  offset="0.9" style="stop-color:#77CBEC"/>
		<stop  offset="1" style="stop-color:#8CCFEC"/>
		<stop  offset="1" style="stop-color:#C8E2EE"/>
	</linearGradient>
	<path class="st2" d="M56.5,37.6c0,0,32.7-34.2,79.4-18.4L131.6,0C115.5,0.9,80.6,6.6,56.5,37.6z"/>
	
		<linearGradient id="SVGID_3_" gradientUnits="userSpaceOnUse" x1="35.656" y1="17.2874" x2="4.3716" y2="7.8744" gradientTransform="matrix(1 0 0 -1 0 82)">
		<stop  offset="0" style="stop-color:#003B6E"/>
		<stop  offset="0.33" style="stop-color:#008EC4"/>
		<stop  offset="0.5" style="stop-color:#00B4EB"/>
		<stop  offset="0.71" style="stop-color:#3FC0EB"/>
		<stop  offset="0.9" style="stop-color:#77CBEC"/>
		<stop  offset="1" style="stop-color:#8CCFEC"/>
		<stop  offset="1" style="stop-color:#C8E2EE"/>
	</linearGradient>
	<path class="st3" d="M9.1,70.6l-2.2,9.3C17.7,77,32.1,70.2,46,55C46,55,30.3,70,9.1,70.6z"/>
	
		<linearGradient id="SVGID_4_" gradientUnits="userSpaceOnUse" x1="29.6059" y1="19.8848" x2="-0.5693" y2="13.2407" gradientTransform="matrix(1 0 0 -1 0 82)">
		<stop  offset="0" style="stop-color:#006282"/>
		<stop  offset="0.28" style="stop-color:#0082A4"/>
		<stop  offset="0.5" style="stop-color:#0096B9"/>
		<stop  offset="0.71" style="stop-color:#3FB0D0"/>
		<stop  offset="0.9" style="stop-color:#77C6E4"/>
		<stop  offset="1" style="stop-color:#8CCFEC"/>
		<stop  offset="1" style="stop-color:#93D6DE"/>
	</linearGradient>
	<path class="st4" d="M4.7,64.2l-1,4.4C21.8,70.9,35.5,61,35.5,61C20.7,67.4,10.9,66.7,4.7,64.2z"/>
	
		<linearGradient id="SVGID_5_" gradientUnits="userSpaceOnUse" x1="20.9819" y1="21.4745" x2="-5.597975e-02" y2="28.1184" gradientTransform="matrix(1 0 0 -1 0 82)">
		<stop  offset="0" style="stop-color:#348C41"/>
		<stop  offset="5.000000e-02" style="stop-color:#439741"/>
		<stop  offset="0.15" style="stop-color:#5CAA42"/>
		<stop  offset="0.26" style="stop-color:#6FB742"/>
		<stop  offset="0.37" style="stop-color:#79BF42"/>
		<stop  offset="0.5" style="stop-color:#7DC242"/>
		<stop  offset="0.59" style="stop-color:#8FC83D"/>
		<stop  offset="0.72" style="stop-color:#A2CD39"/>
		<stop  offset="0.85" style="stop-color:#ACD136"/>
		<stop  offset="1" style="stop-color:#B0D235"/>
	</linearGradient>
	<path class="st5" d="M2.7,47.9L0,59c9.6,8.4,25.3,4.5,25.3,4.5C11.3,66,3.3,55.4,2.7,47.9z"/>
	
		<linearGradient id="SVGID_6_" gradientUnits="userSpaceOnUse" x1="87.9134" y1="56.2299" x2="129.7104" y2="55.4003" gradientTransform="matrix(1 0 0 -1 0 82)">
		<stop  offset="0" style="stop-color:#006282"/>
		<stop  offset="0.28" style="stop-color:#0082A4"/>
		<stop  offset="0.5" style="stop-color:#0096B9"/>
		<stop  offset="0.71" style="stop-color:#3FB0D0"/>
		<stop  offset="0.9" style="stop-color:#77C6E4"/>
		<stop  offset="1" style="stop-color:#8CCFEC"/>
		<stop  offset="1" style="stop-color:#93D6DE"/>
	</linearGradient>
	<path class="st6" d="M127.9,19.8C98,12,69.7,28.9,69.7,28.9c50.4-18.3,61.5,6.2,61.5,6.2L127.9,19.8z"/>
	<path class="st1" d="M72.4,57.7h1.2l-2.3,9.5h6L77,68.3h-7.2L72.4,57.7z"/>
	<path class="st1" d="M80.4,57.7h1.2l-2.3,9.5h6L85,68.3h-7.1L80.4,57.7z"/>
	<path class="st1" d="M88.8,57.7h7.6l-0.3,1.1h-6.5l-0.9,3.6h5.8l-0.3,1.1h-5.8l-0.9,3.7h6.5L94,68.2h-7.7L88.8,57.7z"/>
	<path class="st1" d="M96.4,63L96.4,63c0.7-2.9,3.4-5.5,6.6-5.5c1.8,0,2.8,0.5,3.6,1.4l-1,0.9c-0.6-0.7-1.4-1.2-2.9-1.2
		c-2.3,0-4.5,2-5.1,4.3v0c-0.6,2.5,0.6,4.4,3.1,4.4c1.2,0,2.3-0.4,3.3-1.1l0.6-2.6h-3.2l0.3-1.1h4.4l-1,4.2c-1.3,1-3,1.6-4.6,1.6
		C97.1,68.5,95.6,66,96.4,63z"/>
	<path class="st1" d="M109.4,57.7h7.6l-0.3,1.1h-6.5l-0.9,3.6h5.8l-0.3,1.1h-5.8l-0.9,3.7h6.5l-0.3,1.1h-7.7L109.4,57.7z"/>
</g>
</svg>
