<svg id="Group_11236" data-name="Group 11236" xmlns="http://www.w3.org/2000/svg" xmlns:xlink="http://www.w3.org/1999/xlink" width="192.55" height="80" viewBox="0 0 192.55 80">
  <defs>
    <clipPath id="clip-path">
      <rect id="Rectangle_1716" data-name="Rectangle 1716" width="192.55" height="80" fill="none"/>
    </clipPath>
  </defs>
  <g id="Group_11235" data-name="Group 11235" clip-path="url(#clip-path)">
    <path id="Path_3798" data-name="Path 3798" d="M73.686,29.9H70.061l3.715-10.4c-2.735,4.407-3.743,5.972-6.692,10.4H65.174c.033-2.633.1-4.906.416-10.4L62.14,29.9H59.107l4.6-13.358h4.771c-.039,2.67-.177,5.858-.383,8.626,1.716-2.9,3.455-5.593,5.517-8.626h4.655Z" transform="translate(44.715 12.517)" fill="#fff"/>
    <path id="Path_3799" data-name="Path 3799" d="M79.326,28.076a7.423,7.423,0,0,1-5.073,2.155A4.464,4.464,0,0,1,70.463,28.5a5.447,5.447,0,0,1-.766-4.1,10.66,10.66,0,0,1,3.75-6.241A7.418,7.418,0,0,1,78.2,16.415c3.13,0,4.881,2.329,4.332,5.821a10.081,10.081,0,0,1-3.209,5.84m-1.9-8.913c-1.774,0-3.522,2.252-3.971,5.115-.325,2.06.256,3.206,1.612,3.206a3.406,3.406,0,0,0,2.579-1.832,9.276,9.276,0,0,0,1.3-3.531c.3-1.927-.241-2.958-1.519-2.958" transform="translate(52.654 12.418)" fill="#fff"/>
    <path id="Path_3800" data-name="Path 3800" d="M85.653,28.835A10.473,10.473,0,0,1,80.371,29.9h-3.7l4.581-13.358h3.74c2.443,0,3.508.267,4.409,1.087a4.844,4.844,0,0,1,1.237,4.525,9.078,9.078,0,0,1-4.983,6.678m.813-9.294a2.279,2.279,0,0,0-1.851-.725h-.553l-3.025,8.8h.534A4.292,4.292,0,0,0,84.9,26.222a7.256,7.256,0,0,0,2.013-3.933,3.4,3.4,0,0,0-.446-2.747" transform="translate(58.001 12.516)" fill="#fff"/>
    <path id="Path_3801" data-name="Path 3801" d="M95.366,18.816H91.684l-1.045,3h3.55l-.759,2.271H89.88l-1.224,3.55h4.332L92.209,29.9H84.272l4.583-13.358h7.27Z" transform="translate(63.752 12.517)" fill="#fff"/>
    <path id="Path_3802" data-name="Path 3802" d="M99.985,19.278a1.885,1.885,0,0,0-1.273-.515,1.607,1.607,0,0,0-1.744,1.259c-.1.61.093.992,1.36,3.13a5.711,5.711,0,0,1,.476.973,3.973,3.973,0,0,1,.191,2.06c-.376,2.385-2.659,4.045-5.542,4.045a5.16,5.16,0,0,1-3.708-1.3l1.734-2.043c.819.745,1.173.915,1.841.915a1.956,1.956,0,0,0,1.978-1.66c.1-.629-.021-.954-.829-2.366-.3-.515-.522-.936-.692-1.3a3.532,3.532,0,0,1-.451-2.347c.332-2.118,2.589-3.722,5.2-3.722a5.466,5.466,0,0,1,3.114.956Z" transform="translate(67.893 12.418)" fill="#fff"/>
    <path id="Path_3803" data-name="Path 3803" d="M107.512,18.816h-3.453L100.252,29.9H96.646l3.806-11.089H97l.776-2.269h10.5Z" transform="translate(73.113 12.517)" fill="#fff"/>
    <path id="Path_3804" data-name="Path 3804" d="M111.926,28.076a7.426,7.426,0,0,1-5.073,2.155,4.464,4.464,0,0,1-3.791-1.735,5.439,5.439,0,0,1-.768-4.1,10.675,10.675,0,0,1,3.748-6.241,7.434,7.434,0,0,1,4.76-1.737c3.128,0,4.881,2.329,4.332,5.821a10.072,10.072,0,0,1-3.209,5.84m-1.9-8.913c-1.776,0-3.524,2.252-3.973,5.115-.323,2.06.258,3.206,1.612,3.206a3.4,3.4,0,0,0,2.58-1.832,9.305,9.305,0,0,0,1.3-3.531c.3-1.927-.241-2.958-1.519-2.958" transform="translate(77.315 12.418)" fill="#fff"/>
    <path id="Path_3805" data-name="Path 3805" d="M59.779,32.1a4.385,4.385,0,0,1-1.356,2.271,2.42,2.42,0,0,1-1.516.539l.281-.829c.6-.162.833-.53,1.405-2.2L60.6,26.029h1.251Z" transform="translate(43.05 19.691)" fill="#fff"/>
    <path id="Path_3806" data-name="Path 3806" d="M65.866,29.92a4.889,4.889,0,0,1-1.286,2.322,3.208,3.208,0,0,1-2.3.91c-1.34,0-2.06-.7-1.878-1.851a10.074,10.074,0,0,1,.467-1.641l1.24-3.631h1.261L62.09,29.76a7.991,7.991,0,0,0-.376,1.31.85.85,0,0,0,.9,1.093,1.734,1.734,0,0,0,1.521-.891,6.223,6.223,0,0,0,.643-1.432l1.3-3.812h1.129Z" transform="translate(45.67 19.691)" fill="#fff"/>
    <path id="Path_3807" data-name="Path 3807" d="M69.975,33.032h-.91a48.79,48.79,0,0,1-1.851-5.152l-1.73,5.152H64.393l2.412-7h.91c1.179,3.07,1.526,4.1,1.843,5.152L71.3,26.029h1.08Z" transform="translate(48.714 19.691)" fill="#fff"/>
    <path id="Path_3808" data-name="Path 3808" d="M70.466,33.032H69.206l2.4-7h1.259Z" transform="translate(52.355 19.691)" fill="#fff"/>
    <path id="Path_3809" data-name="Path 3809" d="M76.943,32.033a3.827,3.827,0,0,1-2.717,1.17,2.221,2.221,0,0,1-1.957-.91,3,3,0,0,1-.383-2.141,5.588,5.588,0,0,1,1.98-3.3,4.017,4.017,0,0,1,2.491-.891c1.591,0,2.492,1.2,2.215,2.961a5.62,5.62,0,0,1-1.628,3.111m-.922-5.082c-1.3,0-2.5,1.321-2.774,3.07-.22,1.391.256,2.192,1.275,2.192a2.284,2.284,0,0,0,1.792-1.021,5.453,5.453,0,0,0,.919-2.282c.2-1.251-.241-1.96-1.212-1.96" transform="translate(54.347 19.64)" fill="#fff"/>
    <path id="Path_3810" data-name="Path 3810" d="M80.469,29.892l.643,2.96-1.345.292-.48-2.991h-.78l-.985,2.881H76.262l2.4-7h1.56c1,0,1.312.072,1.637.35A1.477,1.477,0,0,1,82.3,27.81a2.762,2.762,0,0,1-1.836,2.081M80.8,27.03A1.191,1.191,0,0,0,80,26.86h-.371l-.854,2.512h.3a1.853,1.853,0,0,0,1.272-.321,1.679,1.679,0,0,0,.7-1.129.857.857,0,0,0-.251-.891" transform="translate(57.693 19.691)" fill="#fff"/>
    <path id="Path_3811" data-name="Path 3811" d="M88.3,27.232a2.474,2.474,0,0,0-1.177-.279,3.023,3.023,0,0,0-2.087.81,3.572,3.572,0,0,0-1.086,2.069c-.228,1.44.485,2.382,1.8,2.382a3.5,3.5,0,0,0,1.214-.221l.137.862a4.961,4.961,0,0,1-1.786.35,2.9,2.9,0,0,1-2.1-.79,2.806,2.806,0,0,1-.639-2.482,4.794,4.794,0,0,1,4.627-3.97,2.657,2.657,0,0,1,1.725.539Z" transform="translate(62.425 19.64)" fill="#fff"/>
    <path id="Path_3812" data-name="Path 3812" d="M91.471,32.033a3.826,3.826,0,0,1-2.716,1.17,2.217,2.217,0,0,1-1.957-.91,3,3,0,0,1-.385-2.141,5.6,5.6,0,0,1,1.98-3.3,4.018,4.018,0,0,1,2.492-.891c1.59,0,2.491,1.2,2.215,2.961a5.633,5.633,0,0,1-1.63,3.111m-.922-5.082c-1.3,0-2.5,1.321-2.774,3.07-.218,1.391.256,2.192,1.275,2.192a2.287,2.287,0,0,0,1.792-1.021,5.478,5.478,0,0,0,.92-2.282c.2-1.251-.242-1.96-1.214-1.96" transform="translate(65.337 19.64)" fill="#fff"/>
    <path id="Path_3813" data-name="Path 3813" d="M94.542,33.032H90.79l2.4-7h1.259l-2.1,6.142h2.471Z" transform="translate(68.683 19.691)" fill="#fff"/>
    <path id="Path_3814" data-name="Path 3814" d="M97.765,33.032H94.013l2.4-7h1.261l-2.1,6.142h2.471Z" transform="translate(71.121 19.691)" fill="#fff"/>
    <path id="Path_3815" data-name="Path 3815" d="M102.715,26.89H100.6l-.69,2.039h2.05l-.3.861H99.617l-.824,2.382h2.48l-.3.859H97.237l2.4-7h3.372Z" transform="translate(73.56 19.691)" fill="#fff"/>
    <path id="Path_3816" data-name="Path 3816" d="M106.79,27.25a2.529,2.529,0,0,0-1.233-.3,3.292,3.292,0,0,0-3.193,2.881c-.223,1.41.457,2.431,1.648,2.431a1.69,1.69,0,0,0,.682-.13l.783-2.252h1.21l-1,2.942a5.431,5.431,0,0,1-1.98.379,2.773,2.773,0,0,1-2.173-.891,2.89,2.89,0,0,1-.543-2.391,4.667,4.667,0,0,1,1.851-2.991,4.909,4.909,0,0,1,2.793-.97,2.7,2.7,0,0,1,1.762.571Z" transform="translate(76.359 19.64)" fill="#fff"/>
    <path id="Path_3817" data-name="Path 3817" d="M110.518,26.89h-2.111l-.69,2.039h2.052l-.3.861h-2.052l-.824,2.382h2.48l-.3.859h-3.741l2.4-7h3.372Z" transform="translate(79.463 19.691)" fill="#fff"/>
    <path id="Path_3818" data-name="Path 3818" d="M188.169,24.693l-.258-.23c-.107-.093-.214-.186-.321-.281C171.041,9.85,136.846,0,98.264,0,44,0,0,19.49,0,43.531,0,58.8,17.741,72.231,44.587,80l-.1-.1C27.558,72.3,16.645,61.6,16.645,50.094c0-6.336,3.172-12.345,8.846-17.734l3.437-8.654a1.578,1.578,0,0,1,1.337-.908h9.122C56.853,13.745,82.842,8,111.868,8c31.027,0,59.034,6.652,76.418,16.8Z" fill="#fff"/>
    <path id="Path_3819" data-name="Path 3819" d="M90.224,21.284a.7.7,0,0,0-.126-.133c-.191-.313-5.533-7.256-5.638-7.333a.644.644,0,0,0-.141-.22l-.023-.025a.893.893,0,0,0-.142-.4,1.029,1.029,0,0,0-.878-.415H66.11a2.039,2.039,0,0,0-1.783,1.21l-.374.949c-.406-.52-.724-.927-.887-1.129a.956.956,0,0,0-.142-.615,1.035,1.035,0,0,0-.88-.415h-8.08a2.044,2.044,0,0,0-1.783,1.21l-.376.954c-.334-.432-.613-.792-.806-1.04a.949.949,0,0,0-.139-.708,1.024,1.024,0,0,0-.878-.416H21.651a2.04,2.04,0,0,0-1.785,1.21L11.434,35.2a1.018,1.018,0,0,0,.061.97.942.942,0,0,0,.527.364c.994,1.326,5.452,7.073,5.452,7.073a.742.742,0,0,0,.755.458H26.4l.729-1.672,1.17,1.672h1.937l-1,2.524a1.031,1.031,0,0,0,.061.971.919.919,0,0,0,.462.339c.929,1.247,5.484,7.116,5.484,7.116a.737.737,0,0,0,.754.46H54.1a1.815,1.815,0,0,0,1.558-1.059l5.027-12.687c.9,1.166,1.612,2.076,1.662,2.118l0,0a.582.582,0,0,0,.135.22.8.8,0,0,0,.666.293H80.312A1.812,1.812,0,0,0,81.87,43.3l3.464-8.718-3.618-4.367h5.354l3.237-8.148a.754.754,0,0,0-.083-.785M22.832,36.019l5.735-14.433a1.107,1.107,0,0,0-.044-1.036.825.825,0,0,0-.708-.351,1.906,1.906,0,0,0-1.593,1.21L20.417,36.019H12.41a.486.486,0,0,1-.5-.731L20.35,14.056a1.576,1.576,0,0,1,1.335-.908H50.019a.547.547,0,0,1,.48.207.558.558,0,0,1,.016.523L42.078,35.111a1.573,1.573,0,0,1-1.335.908H33.411l5.733-14.433a1.2,1.2,0,0,0-.014-1.1.639.639,0,0,0-.548-.283,1.8,1.8,0,0,0-1.4,1.21L31.375,36.019ZM49.65,46.5a1.573,1.573,0,0,1-1.335.908h-18.1a.484.484,0,0,1-.5-.729l3.306-8.326a1.58,1.58,0,0,1,1.337-.906h7.511l-1.33,3.322h1.514L52.666,14.056A1.574,1.574,0,0,1,54,13.148h8.076a.556.556,0,0,1,.483.207.549.549,0,0,1,.012.523ZM83.805,13.878l-3.179,8H72.269l1-2.5a1.116,1.116,0,0,0-.044-1.043.8.8,0,0,0-.694-.344,1.9,1.9,0,0,0-1.576,1.21l-3.8,9.557a1.111,1.111,0,0,0,.042,1.043.808.808,0,0,0,.692.344,1.893,1.893,0,0,0,1.579-1.21l.876-2.206H78.7l-3.332,8.389a1.583,1.583,0,0,1-1.337.908H56.871a.488.488,0,0,1-.5-.731l8.438-21.233a1.574,1.574,0,0,1,1.337-.908H83.308a.486.486,0,0,1,.5.731" transform="translate(8.58 9.65)" fill="#fff"/>
  </g>
</svg>
