<?xml version="1.0" encoding="UTF-8"?>
<svg id="Layer_1" xmlns="http://www.w3.org/2000/svg" version="1.1" viewBox="0 0 174 129.4">
  <!-- Generator: Adobe Illustrator 30.2.1, SVG Export Plug-In . SVG Version: 2.1.1 Build 1)  -->
  <defs>
    <style>
      .st0, .st1 {
        fill: #fff;
      }

      .st2, .st3, .st4 {
        fill: #0f757f;
      }

      .st5 {
        fill: #0c747e;
        font-family: BebasNeue-Regular, 'Bebas Neue';
        font-size: 22px;
        letter-spacing: 0em;
      }

      .st1 {
        font-family: AvenirLTStd-Heavy, 'Avenir LT Std';
        font-size: 17px;
        letter-spacing: 0em;
      }

      .st1, .st3, .st4 {
        font-weight: 800;
      }

      .st3, .st4 {
        font-family: AvenirLTStd-Black, 'Avenir LT Std';
        font-size: 12px;
      }

      .st4 {
        letter-spacing: 0em;
      }

      .st6 {
        fill: #00727d;
      }
    </style>
  </defs>
  <g id="mvc_logo">
    <path class="st0" d="M62.3,30.6c5.6,0,10.4-3.7,10.4-10.3s-4.5-9.6-10.1-9.6-10.3,3.7-10.3,10.3,4.5,9.6,10,9.6ZM62.3,11.8c4.5,0,6.2,4.4,6.2,9.2s-1.8,8.5-5.8,8.5-6.2-4.4-6.2-9.2,1.8-8.5,5.8-8.5Z"/>
    <path class="st0" d="M83.3,29.4h-.7c-1.4-.3-1.4-.6-1.4-3.5v-4h.9c1.8,0,1.9,1.1,2.9,3l1.1,2.1c.6,1.3,1.8,3.1,4.7,3.1h2.5v-.7c-.5,0-1.3-.1-1.8-.8-2.1-2.6-4.2-6.8-4.6-7.7,1.6-.7,3.7-2.4,3.7-4.9,0-4.5-4.1-4.8-6.8-4.8h-8.3v.7h.7c1.4.3,1.4.6,1.4,3.5v10.5c0,2.9,0,3.2-1.4,3.4h-.7v.8h7.8v-.7ZM81.3,12.4c.5-.1,1-.2,1.5-.2,2.3,0,4.1,1.5,4.1,4.1s0,4.4-4.1,4.4h-1.4v-8.4Z"/>
    <path class="st0" d="M109,24.9l-1-.2c-.6,2.2-.9,4.4-5.2,4.4s-2-.2-2.9-.4v-7.7h2.1c2.4,0,2.8,0,3,1.3v.9h.9v-5.7h-.8v1c-.3,1.2-.7,1.2-3.3,1.2h-2v-7.4h2.1c3,0,4,0,4.7,3.7h1c0-1.6,0-3.3-.3-4.8h-13.3v.7h.7c1.4.4,1.4.3,1.4,3.5v10.5c0,3.3,0,3.2-1.4,3.4h-.7v.8h14c.6-1.8.8-3.3.9-5.3Z"/>
    <path class="st0" d="M116.7,29.4h-.8c-1.5-.3-1.8-.5-1.8-5v-7.7l12.8,13.7c.4,0,1.2-.1,1.5-.2v-13.1c0-3.8,0-4.9,1.3-5h.9v-.9h-6.4v.7h.8c1.5.3,1.8.5,1.8,5.2v7.7l-12.9-13.8c-.2,0-1.1.1-1.4.2v13.1c0,3.8,0,4.9-1.3,5h-.9v.9h6.4v-.7Z"/>
    <path class="st0" d="M143.1,10.7c-5.5,0-10.3,3.7-10.3,10.3s4.5,9.6,10,9.6,10.4-3.7,10.4-10.3-4.5-9.6-10.1-9.6ZM143.2,29.5c-4.4,0-6.2-4.4-6.2-9.2s1.8-8.5,5.8-8.5,6.2,4.4,6.2,9.2-1.8,8.5-5.8,8.5Z"/>
    <path class="st0" d="M67.4,55.5l-1.6-.3c-.5,0-.7-.2-.7-.7s.3-1.2.6-2l1.1-3.1c.5-.3,2-.4,2.7-.4s2.2.1,2.9.3l1.6,4.3c.1.4.2.7.2,1,0,.4-.4.6-1,.7l-1.2.2v.7h8.1v-.7h-.7c-1-.4-1.4-1.1-1.8-2.4l-6.1-16.2c-.6,0-1,.1-1.7.3l-6.2,15.5c-.8,2-1.2,2.3-1.9,2.5l-.7.2v.7h6.3v-.7ZM69.5,41.4h0l2.4,6.6c-.8,0-1.8-.1-2.4-.1s-1.6,0-2.4.2l2.3-6.6Z"/>
    <path class="st0" d="M81.8,55.4h-.7v.8h13.4c.6-1.8.8-3.4,1-5.2l-1-.2c-.8,2.4-.9,4.3-4.9,4.3s-1.8-.2-2.6-.4v-13.3c0-2.8,0-3.1,1.4-3.3h.7v-.8h-7.8v.7h.7c1.4.3,1.4.6,1.4,3.4v10.6c0,3.3,0,3.2-1.4,3.4Z"/>
    <path class="st0" d="M105,55.1c-.9,0-1.8-.2-2.6-.4v-13.3c0-2.8,0-3.1,1.4-3.3h.7v-.8h-7.8v.7h.7c1.4.3,1.4.6,1.4,3.4v10.6c0,3.3,0,3.2-1.4,3.4h-.7v.8h13.4c.6-1.8.8-3.4,1-5.2l-1-.2c-.8,2.4-.9,4.3-4.9,4.3Z"/>
    <path class="st0" d="M112.6,55.4h-.7v.8h14c.6-1.8.8-3.3,1-5.3l-1-.2c-.6,2.2-.9,4.4-5.2,4.4s-2-.2-2.9-.4v-7.7h2.1c2.4,0,2.8,0,3,1.3v.9h.9v-5.7h-.7v1c-.3,1.2-.7,1.2-3.3,1.2h-2v-7.4h2.1c3,0,4,0,4.7,3.7h1c0-1.6,0-3.3-.3-4.8h-13.3v.7h.7c1.4.4,1.4.3,1.4,3.5v10.5c0,3.3,0,3.2-1.4,3.4Z"/>
    <path class="st0" d="M132.6,55.3h-1.1v.9h8.7v-.7h-1.1c-1.4-.3-1.4-.9-1.4-1.8v-1.8c0-3.2.1-4,1.8-7.2l2.7-4.7c.9-1.4,1.4-1.8,1.9-1.9h.9v-.9h-6.6v.7l1.4.2c.6,0,.9.2.9.6s-.3,1-.6,1.8l-3.1,6.6-3.3-6.4c-.5-1-.8-1.8-.8-2,0-.4.4-.5.9-.5l1.4-.2v-.7h-8.3v.7h.6c.6.3.9.4,1.1.8l4.1,7.4c1.1,2,1.4,2.7,1.4,5.8v1.8c0,.8,0,1.4-1.4,1.6Z"/>
    <path class="st0" d="M71.8,63.3c-5.5,0-10.3,3.7-10.3,10.3s4.5,9.6,10,9.6,10.4-3.7,10.4-10.3-4.5-9.6-10.1-9.6ZM71.8,82.1c-4.4,0-6.2-4.4-6.2-9.2s1.8-8.5,5.8-8.5,6.2,4.4,6.2,9.2-1.8,8.5-5.8,8.5Z"/>
    <path class="st0" d="M93,81.6c-.9,0-1.8-.2-2.6-.4v-13.3c0-2.8,0-3.1,1.4-3.3h.7v-.8h-7.8v.7h.7c1.4.3,1.4.6,1.4,3.4v10.6c0,3.3,0,3.2-1.4,3.4h-.7v.8h13.4c.6-1.8.8-3.4,1-5.2l-1-.2c-.8,2.4-.9,4.4-4.9,4.4Z"/>
    <path class="st0" d="M108.5,81.6c-.9,0-1.8-.2-2.6-.4v-13.3c0-2.8,0-3.1,1.4-3.3h.7v-.8h-7.8v.7h.7c1.4.3,1.4.6,1.4,3.4v10.6c0,3.3,0,3.2-1.4,3.4h-.7v.8h13.4c.6-1.8.8-3.4,1-5.2l-1-.2c-.8,2.4-.9,4.4-4.9,4.4Z"/>
    <path class="st0" d="M124.1,81.6c-1,0-2-.2-2.9-.4v-7.7h2.1c2.4,0,2.8,0,3,1.3v.9h.9v-5.7h-.8v1c-.3,1.2-.7,1.2-3.3,1.2h-2v-7.4h2.1c3,0,4,0,4.7,3.7h1c0-1.6,0-3.3-.3-4.8h-13.3v.7h.7c1.4.4,1.4.3,1.4,3.5v10.5c0,3.3,0,3.2-1.4,3.4h-.7v.8h14c.6-1.8.8-3.3,1-5.3l-1-.2c-.6,2.2-.9,4.4-5.2,4.4Z"/>
    <path class="st0" d="M143.2,76.5l1.4.2c1.5.3,1.5.4,1.5,2.4v2.8c-.7.1-1.5.2-2.2.2-4.4,0-7.4-3.3-7.4-9.1s1.8-8.6,6.4-8.6,5.4,3.3,5.8,5.1h1.1c0-2.1-.3-3.7-.6-5-1.3-.6-2.9-1.1-5.9-1.1-5.5,0-11,2.7-11,9.9s5.2,10,11.2,10,6.2-1.1,7.3-1.4v-.7c-.8,0-.9,0-.9-2.1s0-2.1,1-2.3h.6v-.8h-8.2v.7Z"/>
    <path class="st0" d="M167.2,77.2c-.6,2.2-.9,4.4-5.2,4.4s-2-.2-2.9-.4v-7.7h2.1c2.4,0,2.8,0,3,1.3v.9h.9v-5.7h-.7v1c-.3,1.2-.7,1.2-3.3,1.2h-2v-7.4h2.1c3,0,4,0,4.7,3.7h1c0-1.6,0-3.3-.3-4.8h-13.3v.7h.7c1.4.4,1.4.3,1.4,3.5v10.5c0,3.3,0,3.2-1.4,3.4h-.7v.8h14c.6-1.8.8-3.3,1-5.3l-1-.2Z"/>
    <path class="st0" d="M48.8,88.4c-8.7,0-12.7-7.6-12.7-15.8s1.7-9.1,4.6-11.5l5.7,14.1c.7-.2,1.7-.6,2-.9.5-1.4,3-7.5,5.9-14.7,3.2,1.8,3.6,5.2,3.9,6.6l1.3-.3c0-2.4-.3-5.2-.8-7.1-.6-.4-1.9-.9-3.6-1.3l3.8-9.1c1.4-2.8,3.3-8.3,4.6-9.6.5-.5,1.1-.8,1.7-.9l1.5-.3v-1.3h-12.4v1.3l2.6.3c1.1.2,2.2.5,2.2,1.6s-3.4,10-6.4,17.6c-1.1-.2-2.4-.2-3.8-.2s-2.7.1-4.1.4l-6.1-15.7c-.3-.7-.6-2-.7-2.3-.4-1.2,1.7-1.3,2.6-1.4v-1.4h-5.7c3.9-7.6,7.2-14,7.9-15.8h.1l1,22.2c0,2.6,1.3,5.1,2.3,5.5h.8s0,0,0,0h6.7v-1.3l-1.7-.3c-1-.2-1.9-.5-2.2-1.1-.5-.9-.9-6.5-1.1-11.3l-.5-10c-.4-7.6-.8-14.1-.8-14.5l-1.5.5c-.9,2.4-10,19.8-14.1,27.3l-.2.2h0c-.8,1.5-1.4,2.5-1.7,3-1.8-3.2-14.9-28-16.6-31l-1.6.5c0,1.6-.4,7.8-.6,11.7l-.9,14.5c-.3,5.2-.7,8.9-1.3,9.5-.3.3-.9.5-1.8.7l-1.4.3v1.3h11.9v-1.3l-2.3-.3c-2.7-.3-2.7-1.3-2.7-4.7s.8-18.1,1-21.4h.1c.5,1.2,1,2.2,1.6,3.3,4,7.6,11.3,21.7,12.6,24.3l1.6-.7c.3-.6.5-1.3.8-1.8.9-1.7,1.7-3.4,2.6-5.1,0,.5,0,1.1.3,1.7l6.7,16.6c-4.8,2.3-8.8,6.8-8.8,14.7,0,12.2,8.6,16.5,17.8,16.5s8.5-1.2,9.9-1.8c1.2-2.9,1.7-5.1,2-8.2l-1.3-.3c-1.5,3.8-2.7,8.7-10.7,8.7ZM48.9,58.4c1.2,0,2.3.1,3.2.4-1.6,3.9-2.9,7.2-3.3,8.4l-3.2-8.4c1.1-.2,2.2-.4,3.4-.4Z"/>
  </g>
  <path class="st0" d="M95.6,90h-17.4c-.9,0-1.6.7-1.6,1.6v17.4c0,.9.7,1.6,1.6,1.6h17.4c.9,0,1.6-.7,1.6-1.6v-17.4c0-.9-.7-1.6-1.6-1.6ZM86.4,104.4c0,2.5-1.2,3.8-3.6,3.8s-3.6-1.4-3.6-3.8v-1.3h2.3v1.4c0,1.1.5,1.5,1.3,1.5s1.3-.4,1.3-1.7v-1.3c0-1.4-.5-2-1.6-2h-.8v-2.2h.9c.9,0,1.5-.4,1.5-1.6v-1.1c0-1.1-.5-1.5-1.2-1.5s-1.2.4-1.2,1.4v1h-2.3v-.8c0-2.5,1.2-3.8,3.5-3.8s3.5,1.3,3.5,3.8v.5c0,1.7-.5,2.7-1.7,3.1h0c1.3.5,1.8,1.7,1.8,3.2v1.4ZM94.7,104.4c0,2.5-1.2,3.9-3.6,3.9s-3.6-1.4-3.6-3.9v-1.2h2.3v1.4c0,1.1.5,1.5,1.3,1.5s1.3-.4,1.3-1.5v-3.5c0-1.1-.5-1.5-1.3-1.5s-1.3.4-1.3,1.5h0c0,.1-2.3.1-2.3.1l.4-8.6h6.4v2.2h-4.2l-.2,3.7h0c.4-.7,1.1-1.1,2.1-1.1,1.8,0,2.7,1.3,2.7,3.5v3.5Z"/>
  <text class="st5" transform="translate(83.2 155)"><tspan x="0" y="0">35</tspan></text>
  <g>
    <rect class="st0" x="277.5" y="96.8" width="27.2" height="29" rx="2.9" ry="2.9"/>
    <rect class="st0" x="187.4" y="103.6" width="161.5" height="16.6" rx="2.8" ry="2.8"/>
    <g id="mvc_logo1" data-name="mvc_logo">
      <path class="st0" d="M243.5,30.6c5.6,0,10.4-3.7,10.4-10.3s-4.5-9.6-10.1-9.6-10.3,3.7-10.3,10.3,4.5,9.6,10,9.6ZM243.5,11.8c4.5,0,6.2,4.4,6.2,9.2s-1.8,8.5-5.8,8.5-6.2-4.4-6.2-9.2,1.8-8.5,5.8-8.5Z"/>
      <path class="st0" d="M264.5,29.4h-.7c-1.4-.3-1.4-.6-1.4-3.5v-4h.9c1.8,0,1.9,1.1,2.9,3l1.1,2.1c.6,1.3,1.8,3.1,4.7,3.1h2.5v-.7c-.5,0-1.3-.1-1.8-.8-2.1-2.6-4.2-6.8-4.6-7.7,1.6-.7,3.7-2.4,3.7-4.9,0-4.5-4.1-4.8-6.8-4.8h-8.3v.7h.7c1.4.3,1.4.6,1.4,3.5v10.5c0,2.9,0,3.2-1.4,3.4h-.7v.8h7.8v-.7ZM262.5,12.4c.5-.1,1-.2,1.5-.2,2.3,0,4.1,1.5,4.1,4.1s0,4.4-4.1,4.4h-1.4v-8.4Z"/>
      <path class="st0" d="M290.2,24.9l-1-.2c-.6,2.2-.9,4.4-5.2,4.4s-2-.2-2.9-.4v-7.7h2.1c2.4,0,2.8,0,3,1.3v.9h.9v-5.7h-.8v1c-.3,1.2-.7,1.2-3.3,1.2h-2v-7.4h2.1c3,0,4,0,4.7,3.7h1c0-1.6,0-3.3-.3-4.8h-13.3v.7h.7c1.4.4,1.4.3,1.4,3.5v10.5c0,3.3,0,3.2-1.4,3.4h-.7v.8h14c.6-1.8.8-3.3.9-5.3Z"/>
      <path class="st0" d="M297.9,29.4h-.8c-1.5-.3-1.8-.5-1.8-5v-7.7l12.8,13.7c.4,0,1.2-.1,1.5-.2v-13.1c0-3.8,0-4.9,1.3-5h.9v-.9h-6.4v.7h.8c1.5.3,1.8.5,1.8,5.2v7.7l-12.9-13.8c-.2,0-1.1.1-1.4.2v13.1c0,3.8,0,4.9-1.3,5h-.9v.9h6.4v-.7Z"/>
      <path class="st0" d="M324.3,10.7c-5.5,0-10.3,3.7-10.3,10.3s4.5,9.6,10,9.6,10.4-3.7,10.4-10.3-4.5-9.6-10.1-9.6ZM324.4,29.5c-4.4,0-6.2-4.4-6.2-9.2s1.8-8.5,5.8-8.5,6.2,4.4,6.2,9.2-1.8,8.5-5.8,8.5Z"/>
      <path class="st0" d="M248.6,55.5l-1.6-.3c-.5,0-.7-.2-.7-.7s.3-1.2.6-2l1.1-3.1c.5-.3,2-.4,2.7-.4s2.2.1,2.9.3l1.6,4.3c.1.4.2.7.2,1,0,.4-.4.6-1,.7l-1.2.2v.7h8.1v-.7h-.7c-1-.4-1.4-1.1-1.8-2.4l-6.1-16.2c-.6,0-1,.1-1.7.3l-6.2,15.5c-.8,2-1.2,2.3-1.9,2.5l-.7.2v.7h6.3v-.7ZM250.7,41.4h0l2.4,6.6c-.8,0-1.8-.1-2.4-.1s-1.6,0-2.4.2l2.3-6.6Z"/>
      <path class="st0" d="M263,55.4h-.7v.8h13.4c.6-1.8.8-3.4,1-5.2l-1-.2c-.8,2.4-.9,4.3-4.9,4.3s-1.8-.2-2.6-.4v-13.3c0-2.8,0-3.1,1.4-3.3h.7v-.8h-7.8v.7h.7c1.4.3,1.4.6,1.4,3.4v10.6c0,3.3,0,3.2-1.4,3.4Z"/>
      <path class="st0" d="M286.2,55.1c-.9,0-1.8-.2-2.6-.4v-13.3c0-2.8,0-3.1,1.4-3.3h.7v-.8h-7.8v.7h.7c1.4.3,1.4.6,1.4,3.4v10.6c0,3.3,0,3.2-1.4,3.4h-.7v.8h13.4c.6-1.8.8-3.4,1-5.2l-1-.2c-.8,2.4-.9,4.3-4.9,4.3Z"/>
      <path class="st0" d="M293.8,55.4h-.7v.8h14c.6-1.8.8-3.3,1-5.3l-1-.2c-.6,2.2-.9,4.4-5.2,4.4s-2-.2-2.9-.4v-7.7h2.1c2.4,0,2.8,0,3,1.3v.9h.9v-5.7h-.7v1c-.3,1.2-.7,1.2-3.3,1.2h-2v-7.4h2.1c3,0,4,0,4.7,3.7h1c0-1.6,0-3.3-.3-4.8h-13.3v.7h.7c1.4.4,1.4.3,1.4,3.5v10.5c0,3.3,0,3.2-1.4,3.4Z"/>
      <path class="st0" d="M313.8,55.3h-1.1v.9h8.7v-.7h-1.1c-1.4-.3-1.4-.9-1.4-1.8v-1.8c0-3.2.1-4,1.8-7.2l2.7-4.7c.9-1.4,1.4-1.8,1.9-1.9h.9v-.9h-6.6v.7l1.4.2c.6,0,.9.2.9.6s-.3,1-.6,1.8l-3.1,6.6-3.3-6.4c-.5-1-.8-1.8-.8-2,0-.4.4-.5.9-.5l1.4-.2v-.7h-8.3v.7h.6c.6.3.9.4,1.1.8l4.1,7.4c1.1,2,1.4,2.7,1.4,5.8v1.8c0,.8,0,1.4-1.4,1.6Z"/>
      <path class="st0" d="M253,63.3c-5.5,0-10.3,3.7-10.3,10.3s4.5,9.6,10,9.6,10.4-3.7,10.4-10.3-4.5-9.6-10.1-9.6ZM253,82.1c-4.4,0-6.2-4.4-6.2-9.2s1.8-8.5,5.8-8.5,6.2,4.4,6.2,9.2-1.8,8.5-5.8,8.5Z"/>
      <path class="st0" d="M274.2,81.6c-.9,0-1.8-.2-2.6-.4v-13.3c0-2.8,0-3.1,1.4-3.3h.7v-.8h-7.8v.7h.7c1.4.3,1.4.6,1.4,3.4v10.6c0,3.3,0,3.2-1.4,3.4h-.7v.8h13.4c.6-1.8.8-3.4,1-5.2l-1-.2c-.8,2.4-.9,4.4-4.9,4.4Z"/>
      <path class="st0" d="M289.7,81.6c-.9,0-1.8-.2-2.6-.4v-13.3c0-2.8,0-3.1,1.4-3.3h.7v-.8h-7.8v.7h.7c1.4.3,1.4.6,1.4,3.4v10.6c0,3.3,0,3.2-1.4,3.4h-.7v.8h13.4c.6-1.8.8-3.4,1-5.2l-1-.2c-.8,2.4-.9,4.4-4.9,4.4Z"/>
      <path class="st0" d="M305.3,81.6c-1,0-2-.2-2.9-.4v-7.7h2.1c2.4,0,2.8,0,3,1.3v.9h.9v-5.7h-.8v1c-.3,1.2-.7,1.2-3.3,1.2h-2v-7.4h2.1c3,0,4,0,4.7,3.7h1c0-1.6,0-3.3-.3-4.8h-13.3v.7h.7c1.4.4,1.4.3,1.4,3.5v10.5c0,3.3,0,3.2-1.4,3.4h-.7v.8h14c.6-1.8.8-3.3,1-5.3l-1-.2c-.6,2.2-.9,4.4-5.2,4.4Z"/>
      <path class="st0" d="M324.4,76.5l1.4.2c1.5.3,1.5.4,1.5,2.4v2.8c-.7.1-1.5.2-2.2.2-4.4,0-7.4-3.3-7.4-9.1s1.8-8.6,6.4-8.6,5.4,3.3,5.8,5.1h1.1c0-2.1-.3-3.7-.6-5-1.3-.6-2.9-1.1-5.9-1.1-5.5,0-11,2.7-11,9.9s5.2,10,11.2,10,6.2-1.1,7.3-1.4v-.7c-.8,0-.9,0-.9-2.1s0-2.1,1-2.3h.6v-.8h-8.2v.7Z"/>
      <path class="st0" d="M348.4,77.2c-.6,2.2-.9,4.4-5.2,4.4s-2-.2-2.9-.4v-7.7h2.1c2.4,0,2.8,0,3,1.3v.9h.9v-5.7h-.7v1c-.3,1.2-.7,1.2-3.3,1.2h-2v-7.4h2.1c3,0,4,0,4.7,3.7h1c0-1.6,0-3.3-.3-4.8h-13.3v.7h.7c1.4.4,1.4.3,1.4,3.5v10.5c0,3.3,0,3.2-1.4,3.4h-.7v.8h14c.6-1.8.8-3.3,1-5.3l-1-.2Z"/>
      <path class="st0" d="M230,88.4c-8.7,0-12.7-7.6-12.7-15.8s1.7-9.1,4.6-11.5l5.7,14.1c.7-.2,1.7-.6,2-.9.5-1.4,3-7.5,5.9-14.7,3.2,1.8,3.6,5.2,3.9,6.6l1.3-.3c0-2.4-.3-5.2-.8-7.1-.6-.4-1.9-.9-3.6-1.3l3.8-9.1c1.4-2.8,3.3-8.3,4.6-9.6.5-.5,1.1-.8,1.7-.9l1.5-.3v-1.3h-12.4v1.3l2.6.3c1.1.2,2.2.5,2.2,1.6s-3.4,10-6.4,17.6c-1.1-.2-2.4-.2-3.8-.2s-2.7.1-4.1.4l-6.1-15.7c-.3-.7-.6-2-.7-2.3-.4-1.2,1.7-1.3,2.6-1.4v-1.4h-5.7c3.9-7.6,7.2-14,7.9-15.8h.1l1,22.2c0,2.6,1.3,5.1,2.3,5.5h.8s0,0,0,0h6.7v-1.3l-1.7-.3c-1-.2-1.9-.5-2.2-1.1-.5-.9-.9-6.5-1.1-11.3l-.5-10c-.4-7.6-.8-14.1-.8-14.5l-1.5.5c-.9,2.4-10,19.8-14.1,27.3l-.2.2h0c-.8,1.5-1.4,2.5-1.7,3-1.8-3.2-14.9-28-16.6-31l-1.6.5c0,1.6-.4,7.8-.6,11.7l-.9,14.5c-.3,5.2-.7,8.9-1.3,9.5-.3.3-.9.5-1.8.7l-1.4.3v1.3h11.9v-1.3l-2.3-.3c-2.7-.3-2.7-1.3-2.7-4.7s.8-18.1,1-21.4h.1c.5,1.2,1,2.2,1.6,3.3,4,7.6,11.3,21.7,12.6,24.3l1.6-.7c.3-.6.5-1.3.8-1.8.9-1.7,1.7-3.4,2.6-5.1,0,.5,0,1.1.3,1.7l6.7,16.6c-4.8,2.3-8.8,6.8-8.8,14.7,0,12.2,8.6,16.5,17.8,16.5s8.5-1.2,9.9-1.8c1.2-2.9,1.7-5.1,2-8.2l-1.3-.3c-1.5,3.8-2.7,8.7-10.7,8.7ZM230.1,58.4c1.2,0,2.3.1,3.2.4-1.6,3.9-2.9,7.2-3.3,8.4l-3.2-8.4c1.1-.2,2.2-.4,3.4-.4Z"/>
    </g>
    <g>
      <g>
        <g>
          <path class="st2" d="M283.6,117.2c0,1.6.7,2.2,1.8,2.2s1.8-.5,1.8-2.6v-1.8c0-2.1-.7-2.9-2.3-2.9h-1.2v-3.2h1.3c1.3,0,2.1-.6,2.1-2.4v-1.6c0-1.6-.7-2.3-1.8-2.3s-1.7.6-1.7,2.1v1.5h-3.5v9h3.4v2Z"/>
          <path class="st2" d="M287.7,99.8c2,.7,3.1,2.5,3.1,5.3v.8c0,2.4-.8,3.9-2.5,4.6h0c1.9.8,2.6,2.4,2.6,4.7h0c0,.1,3.4.1,3.4.1v2c0,1.6.7,2.2,1.8,2.2s1.8-.6,1.8-2.2v-5.1c0-1.6-.7-2.2-1.8-2.2s-1.8.6-1.8,2.2v.2h-3.4l.6-12.6h-3.8Z"/>
          <path class="st2" d="M294.4,108.4h0c.6-1.1,1.6-1.6,3.1-1.6,2.6,0,3.9,1.8,3.9,5.2v-8.9h-6.8l-.3,5.4Z"/>
          <path class="st2" d="M290.9,117h0c0,3.7-1.8,5.7-5.3,5.7h10.6c-3.5,0-5.3-2.1-5.3-5.7Z"/>
        </g>
        <path class="st2" d="M301.4,101.1c0,0,0,0,0,0v-1h-4.1c0,0,0,0,0,0s0,0,0,0h4.2c0,0,0,0,0,0v1.1c0,0,0,0,0,0Z"/>
        <path class="st2" d="M282.3,121.7s0,0,0,0c0,0-1.3-.5-1.7-2.3,0,0,0-.1,0-.1,0,0,.1,0,.1,0,.4,1.6,1.6,2.1,1.6,2.1,0,0,0,0,0,.1,0,0,0,0,0,0Z"/>
      </g>
      <text class="st3" transform="translate(305.9 116.1)"><tspan x="0" y="0">YEARS</tspan></text>
      <text class="st4" transform="translate(190.5 116.1)"><tspan x="0" y="0">CELEBRATING</tspan></text>
    </g>
  </g>
  <text class="st1" transform="translate(102.4 105.9)"><tspan x="0" y="0">YEARS</tspan></text>
  <text class="st1" transform="translate(111.2 162.5)"><tspan x="0" y="0">YEARS</tspan></text>
  <rect class="st6" x="120.2" y="128.4" width="1" height="1"/>
</svg>