<?xml version="1.0" encoding="UTF-8"?>
<svg id="Layer_1" data-name="Layer 1" xmlns="http://www.w3.org/2000/svg" xmlns:xlink="http://www.w3.org/1999/xlink" viewBox="0 0 250 150">
  <defs>
    <style>
      .cls-1 {
        fill: url(#linear-gradient-2);
      }

      .cls-2 {
        fill: url(#linear-gradient);
      }

      .cls-3 {
        stroke: #999;
      }

      .cls-3, .cls-4 {
        fill: #999;
      }
    </style>
    <linearGradient id="linear-gradient" x1="211.87" y1="37.72" x2="199.96" y2="17.09" gradientUnits="userSpaceOnUse">
      <stop offset=".41" stop-color="#ff6309"/>
      <stop offset="1" stop-color="#ffc211"/>
    </linearGradient>
    <linearGradient id="linear-gradient-2" x1="204.31" y1="22.62" x2="199.62" y2="14.5" xlink:href="#linear-gradient"/>
  </defs>
  <path class="cls-4" d="M229,66.33c-4.19-4.46-14.61,2.48-17.71,3.81-4.78,2.04-8.94,2.42-12.6,2.08-6.77-.64-12.56-8.21-16.32-14.15-2.61-4.36-2.99-6.15-6.35-7.93-3.52-1.9-7.78-.17-9.28.54-1.26.59-20.25,10.05-34.3,15.37-12.54,4.75-30.81,11.3-60.21,15.47-20.35,2.89-30.41,1.45-27.84,1.39,25.94-.53,65.11-10.7,86.4-18.92,7.61-2.94,35.54-15.58,38.22-16.78,3.53-1.58,7.63-1.87,10.19-.9,3,1.13,4.27,2.77,6.8,7.56,1.95,3.51,9.05,17.6,18.51,16.5,5.53-.63,11.16-6.5,16.34-7.55,3.95-.79,6.35-.31,9.13,1.92,2.15,1.68,3.9,3.79,8.02,4.26,2,.23,2.99.52.06,1.79-.33.14-1.48.74-2.82.47-3.09-.65-4.87-3.53-6.24-4.93Z"/>
  <path class="cls-4" d="M205.28,122.89c1.44.85,2.54.83,3.91,0v-57.49h-3.91"/>
  <path class="cls-4" d="M203.16,126.81c0,3.91,2.24,5.54,4.2,5.54s3.93-2.35,3.93-5.54-1.36-5.3-3.78-5.3c-2.66,0-4.36,1.4-4.36,5.3Z"/>
  <path class="cls-3" d="M206.28,65.93c0-.74-1.54-25.73-15.17-26.32-.26-.01-.31-1.33,0-1.33.42,0,16.17.21,16.17.21,0,0,15.68-.21,16.1-.21.31,0,.26,1.32,0,1.33-13.63.59-15.17,25.58-15.17,26.32h-1.93Z"/>
  <path class="cls-2" d="M204.69,34.29c-1.72-1.61-1.16-5.84.8-7.62.72-.66,1.13-.78,1.36-.85.39-.12-.49,3.87,1.6,4.97,1.36.71,1.23,2.36.67,3.58-.3.67-1.24,1.8-.32,1.36,1.13-.54,3.65-.19,3.75-.16,2.25.66,3.61-.17,4.39-.98.95-.98,2.19-6.41-.89-9.6-.62-.64.28.01-.37,3.83-.35,2.06-.76,3.55-1.79,3.82-.46.12-.94.14-.72-1.12,1.13-6.38.29-15.32-5.61-18.28q-.77-.39-.26.9c.32.79,1.73,5.93-.67,7.44-2.42,1.52-6.78,3.33-5.9,9.21.26,1.73.88,2.71.88,2.71.08.12.16.44-.88-.41-1.04-.85-1.56-3.22-1.25-5.08.18-1.07-.81.39-.97.7-.98,1.87-1.19,6.14.89,6.93,1.59.6,3.56.52,5.14.03,1.22-.38,1.33-.27.14-1.38Z"/>
  <path class="cls-1" d="M200.65,24.09c.02.17.07,1.06.64,0,1.4-2.59,1.73-2.28,2.37-3.43,1.21-2.2.33-5.88.03-6.72-.6-1.65-.71-2.25-.71.23,0,2.07-1.34,2.68-2.12,4.56-.46,1.12-.55,2.94-.2,5.37Z"/>
  <g>
    <path class="cls-4" d="M21.88,104.6h-.11l-4.64,27.06h-5.12l8.13-42.71,13.67,32.28,13.67-32.28,8.13,42.71h-5.12l-4.64-27.06h-.11l-11.93,27.93-11.93-27.93Z"/>
    <path class="cls-4" d="M69.7,131.66h-4.96v-36.3h-9.45v-4.67h23.86v4.67h-9.45v36.3Z"/>
    <path class="cls-4" d="M84.55,127.96c0,2.23-1.76,4.04-3.93,4.04s-3.93-1.81-3.93-4.04,1.76-4.04,3.93-4.04,3.93,1.88,3.93,4.04Z"/>
    <path class="cls-4" d="M116.55,98.46c-1.48-2.55-3.38-3.86-6.39-3.86-3.17,0-6.65,2.23-6.65,5.81,0,3.21,3.06,4.89,5.54,5.87l2.85,1.14c5.65,2.28,9.87,5.49,9.87,12.34,0,7.45-5.59,12.77-12.72,12.77-6.44,0-11.45-4.89-12.3-11.47l5.01-1.09c-.05,4.51,3.43,7.77,7.71,7.77s7.34-3.7,7.34-7.99-3.43-6.3-6.86-7.77l-2.74-1.2c-4.54-2.01-8.66-4.67-8.66-10.38,0-6.63,5.7-10.6,11.72-10.6,4.43,0,8.07,2.23,10.24,6.19l-3.96,2.45Z"/>
    <path class="cls-4" d="M132.86,121.39l-4.54,10.27h-5.33l19-42.71,19,42.71h-5.33l-4.54-10.27h-18.26ZM141.99,100.14l-7.07,16.57h14.14l-7.07-16.57Z"/>
    <path class="cls-4" d="M191.18,98.51c-2.85-2.61-6.76-4.02-10.5-4.02-8.92,0-15.73,7.66-15.73,16.74s6.76,16.63,15.62,16.63c3.91,0,7.65-1.52,10.61-4.24v6.03c-3.06,1.85-6.97,2.88-10.45,2.88-11.35,0-20.74-9.29-20.74-21.14s9.45-21.57,21.16-21.57c3.48,0,7.02.87,10.03,2.77v5.92Z"/>
  </g>
</svg>