<?xml version="1.0" encoding="utf-8"?>
<!-- Generator: Adobe Illustrator 25.4.1, SVG Export Plug-In . SVG Version: 6.00 Build 0)  -->
<svg version="1.1" id="Layer_1" xmlns="http://www.w3.org/2000/svg" xmlns:xlink="http://www.w3.org/1999/xlink" x="0px" y="0px"
	 viewBox="0 0 156.2 141.4" style="enable-background:new 0 0 156.2 141.4;" xml:space="preserve">
<style type="text/css">
	.st0{fill:#AE841F;}
	.st1{fill:#702E3E;}
	.st2{clip-path:url(#SVGID_00000005964838522749699160000006769611940008759438_);}
	.st3{fill:#718472;stroke:#718472;stroke-width:0.36;}
	.st4{fill:#866479;}
</style>
<g id="Layer_2_00000002374554539023527480000009168522421529127854_">
	<g id="Layer_1-2">
		<path class="st0" d="M6.2,59.3C6.6,53.7,8.6,11.7,9,4h0.1c2.1,2.4,38.3,40,40.7,42.4c0-2.1,0.5-37.3,0.5-39.8L57.2,7
			c-0.3,4.5-1.7,35-2,53.9h-0.2c-2-2-39.8-40.8-41.1-42.7h-0.1c0,2.6-0.6,39.2-0.5,41.6L6.2,59.3z"/>
		<path class="st0" d="M114,8.2c-2.6,3.9-25.4,47.2-28.1,52.4h-0.2C84.2,58.3,62.3,11.6,60,8.2l6.4-3.6C67.7,8,85.1,44.5,86.6,46.8
			C87.8,45,107,7,107.9,4.6L114,8.2z"/>
		<path class="st0" d="M150.1,59c-3.4,0.6-6.8,0.8-10.2,0.8c-25.5,0-31.8-15.2-31.8-22.1c0-12.2,11.3-27.9,37.7-32.6l1.1,6.3
			c-17.1,1.9-31.2,12.2-31.2,25c0,9.1,7.2,17.7,25,17.7c2.9,0,5.8-0.3,8.7-1L150.1,59z"/>
		<path class="st1" d="M110.6,81.8c-3.4,0.2-6.1,3.1-5.9,6.6s3.1,6.1,6.6,5.9c3.3-0.2,5.9-2.9,5.9-6.2
			C117.1,84.5,114.1,81.7,110.6,81.8C110.6,81.7,110.6,81.7,110.6,81.8z"/>
		<path class="st1" d="M93.5,81.8c-3.5,0.2-6.1,3.1-6,6.6c0.2,3.5,3.1,6.1,6.6,6c3.3-0.2,6-2.9,6-6.3C100,84.6,97,81.8,93.5,81.8z"
			/>
		<path class="st1" d="M136.1,68.4c-3.1,0.2-5.5,2.9-5.4,6s2.9,5.5,6,5.4c3-0.2,5.4-2.7,5.4-5.7C142,70.8,139.3,68.3,136.1,68.4
			C136.1,68.4,136.1,68.4,136.1,68.4z"/>
		<path class="st1" d="M102,67.8c-3.5,0.2-6.1,3.1-6,6.6c0.2,3.5,3.1,6.1,6.6,6c3.3-0.2,6-2.9,6-6.3C108.5,70.5,105.5,67.7,102,67.8
			z"/>
		<path class="st1" d="M119,67.8c-3.5,0.2-6.1,3.1-5.9,6.6c0.2,3.5,3.1,6.1,6.6,5.9c3.3-0.2,6-2.9,5.9-6.3
			C125.5,70.5,122.6,67.7,119,67.8z"/>
		<path class="st1" d="M136.1,123.9c-3.5,0.2-6.1,3.1-5.9,6.6c0.2,3.5,3.1,6.1,6.6,5.9c3.3-0.2,6-2.9,5.9-6.3
			C142.5,126.6,139.6,123.8,136.1,123.9C136.1,123.9,136.1,123.9,136.1,123.9z"/>
		<path class="st1" d="M144.6,109.9c-3.5,0.2-6.1,3.1-5.9,6.6c0.2,3.5,3.1,6.1,6.6,5.9c3.3-0.2,6-2.9,5.9-6.3
			C151.1,112.6,148.1,109.8,144.6,109.9z"/>
		<path class="st1" d="M127.5,109.9c-3.5,0.2-6.1,3.1-6,6.6c0.2,3.5,3.1,6.1,6.6,6c3.3-0.2,6-2.9,6-6.3
			C134,112.6,131.1,109.8,127.5,109.9z"/>
		<path class="st1" d="M136.1,95.9c-3.5,0.2-6.1,3.1-6,6.6s3.1,6.1,6.6,6c3.3-0.2,6-2.9,6-6.3C142.5,98.6,139.6,95.8,136.1,95.9z"/>
		<path class="st1" d="M144.6,81.8c-3.4,0.2-6.1,3.1-5.9,6.6c0.2,3.4,3.1,6.1,6.6,5.9c3.3-0.2,5.9-2.9,5.9-6.2
			C151.1,84.6,148.1,81.8,144.6,81.8z"/>
		<path class="st1" d="M127.6,81.8c-3.4,0.2-6.1,3.1-5.9,6.6c0.2,3.4,3.1,6.1,6.6,5.9c3.3-0.2,5.9-2.9,5.9-6.2
			C134,84.6,131.1,81.8,127.6,81.8z"/>
		<path class="st1" d="M119,95.9c-3.5,0.2-6.1,3.1-5.9,6.6c0.2,3.5,3.1,6.1,6.6,5.9c3.3-0.2,6-2.9,5.9-6.3
			C125.5,98.6,122.6,95.8,119,95.9z"/>
		<g>
			<defs>
				<rect id="SVGID_1_" x="7.4" y="65.6" width="114.2" height="63.2"/>
			</defs>
			<clipPath id="SVGID_00000136390272784285984040000005071564490956321939_">
				<use xlink:href="#SVGID_1_"  style="overflow:visible;"/>
			</clipPath>
			<g style="clip-path:url(#SVGID_00000136390272784285984040000005071564490956321939_);">
				<path class="st3" d="M35.6,111.8c4.8,5.2,9,10.9,12.8,16.9h-63.2c3.2-1.3,6.8-2.8,10.3-4.3C9.3,118.5,25.1,111.9,35.6,111.8"/>
				<path class="st3" d="M40.5,111.1c21.4,0.8,32.4,8.6,43.2,17.4v0.1H53.1l-2.2-3.3C47.7,120.3,44.3,115.6,40.5,111.1L40.5,111.1z"
					/>
				<path class="st4" d="M32.5,107.6c-10.7,1.3-24.7,7.2-37.3,12.5c-7.6,3.2-16.1,6.9-21.9,8.7H-61c10.5-16.9,20.4-31,29.4-40.9
					c6.2,4,15,8.4,38,8.4C16.8,96.2,25.5,101.2,32.5,107.6z"/>
				<path class="st0" d="M37,107.3c-7.8-8-18.1-15-30.7-15c-20.7,0-29.5-3.6-35.4-7.1C-17.7,73.4-7.6,67.5,1.2,67.4
					c12.5,0,18.6,6.1,25,12.5C33.6,87.4,42,95.8,61,95.8c25.3,0,40,14.3,50.8,24.8c2.9,2.8,5.9,6.1,8.5,8.2H90.1
					C76.8,117.8,64.5,107.5,37,107.3"/>
			</g>
		</g>
	</g>
</g>
</svg>
