<svg version="1.1" id="Layer_1" xmlns="http://www.w3.org/2000/svg" xmlns:xlink="http://www.w3.org/1999/xlink" x="0px" y="0px"
	 viewBox="0 0 792 142.42" style="enable-background:new 0 0 792 142.42;" xml:space="preserve">
<style type="text/css">
	.st0{fill:#FFFFFF;}
</style>
<g>
	<g>
		<path class="st0" d="M134.45,133.98c9.19-1.03,15.05-5.77,15.05-12.78V22.68c0-9.89-1.05-11.95-17.14-15.05V2.48h48.48
			c37.62,0,51.83,15.25,51.83,33.18c0,19.37-17.55,32.56-27.59,37.72v2.68l30.09,43.49c8.99,12.78,13.17,13.19,18.6,13.6l2.3,0.21
			l-0.84,6.59h-30.3l-0.84-0.62c0,0-4.39-10.31-12.96-22.67l-25.92-37.72h-15.26L167.86,81v40.19c0,5.98-1.05,10.51-1.05,10.51
			l18.81,1.85l-0.84,5.77l-50.37,1.24v-6.58H134.45z M185.44,70.91c12.54,0,26.96-9.89,26.96-29.89c0-15.66-8.99-30.5-34.69-30.5
			h-7.73l-2.09,2.06v58.33L185.44,70.91L185.44,70.91z"/>
	</g>
	<g>
		<path class="st0" d="M61.85,114.83v0.04c0.01-0.03,0.02-0.06,0.05-0.08C61.89,114.8,61.87,114.82,61.85,114.83z"/>
		<path class="st0" d="M48.71,114.9l-1.18-30.17c0.29-0.24,0.59-0.47,0.88-0.71c-0.5,0.4,0.75,1.49,1.11,1.51
			c0.98,0.03,0.58-1.27,0.58-2.03c0-0.51,0.55-0.36,0.83-0.17c0.24,0.17,0.41,0.42,0.58,0.67c0.59,0.89,0.88,1.74,1.9,1.91
			c0.55,0.09,1.17,0,1.73,0c0.45,0,1.55-1.09,1.91-1.34c0.64,0.71,0.93,1.21,1.84,1.34c0.53,0.08,1.08,0.02,1.61,0
			c0.01-0.14,0.02-0.28,0.02-0.42c0.17,0,0.34,0,0.52,0c0-0.24,0-0.49,0-0.73c1.52,0.67,3,1.44,4.43,2.3
			c-0.5-0.92-0.78-1.7-1.67-2.19c-0.52-0.29-1.09-0.5-1.63-0.74l-1.47-0.36l-3.47-0.54l-4.69-1.43c-0.99-0.3-2.6-1.66-3.34-2.41
			c-1.07-1.1-1.75-2.59-1.86-4.15c0.17-0.12,0.32-0.25,0.42-0.42c0.08-0.14,0.33-1.35,0.64-0.58c0.08,0.19,0.02,0.41-0.01,0.62
			c-0.09,0.65,0.14,1.27,0.53,1.77c0.1,0.13,0.27,0.22,0.42,0.15c0.06-0.03,0.11-0.09,0.15-0.15c0.23-0.34,0.33-0.75,0.31-1.16
			c-0.01-0.17,0.02-0.42,0.18-0.41c0.06,0,0.12,0.05,0.16,0.1c0.34,0.37,0.52,0.87,0.75,1.32s0.58,0.9,1.07,0.99
			c0.48,0.09,0.94-0.18,1.36-0.43c0.33-0.2,0.88-0.41,1.13-0.7c0.4-0.47,0.24-0.16-0.01-0.68c-0.09-0.2,0.22-0.47,0.4-0.46
			c0.3,0,0.34,0.42,0.44,0.64c0.57,1.3,1.35,2.27,1.85,0.28c0.75,0.71,1.97,0.84,2.85,0.29c0.74-0.46,3.63,1.49,4.93,0.79
			c-1.17-1.79-4.14-2.62-6.01-3.5c-0.01,0-0.02-0.01-0.03-0.01l-4.86-1.49c-0.01,0-0.02-0.01-0.03-0.01
			c-1.83-0.89-3.66-1.8-5.5-2.69c-0.6-0.29-1.11-0.73-1.59-1.13l-0.13-3.36c0.05-0.03,0.08-0.08,0.1-0.15
			c0.02-0.07,0.06-0.13,0.13-0.17l0.65-0.33c0.03-0.02,0.07-0.02,0.1-0.02h0.49c0.07,0,0.14,0.03,0.19,0.09l0.4,0.52
			c0.08,0.1,0.22,0.12,0.33,0.05l0.49-0.38c0.15-0.12,0.37,0,0.37,0.19v0.18c0,0.13,0.11,0.24,0.23,0.24h0.6
			c0.13,0,0.23-0.11,0.23-0.24v-0.83c0-0.09-0.04-0.17-0.12-0.21l-2.16-1.3c-0.04-0.03-0.08-0.07-0.1-0.12l-1-2.48
			c-0.01-0.04-0.04-0.07-0.07-0.09l-0.86-0.74c-0.08-0.06-0.17-0.07-0.25-0.03l-0.05-1.28h0.11c0.04,0,0.08,0.01,0.11,0.02
			l2.21,0.91c0.11,0.05,0.24,0.02,0.32-0.07l0.35-0.36l0.4-0.41c0.06-0.06,0.13-0.09,0.21-0.09h0.2c0.1,0,0.19,0.05,0.25,0.14
			l0.6,0.93c0.13,0.2,0.41,0.18,0.52-0.03c0.11-0.22,0.42-0.23,0.53-0.01l0.35,0.67c0.04,0.07,0.1,0.13,0.18,0.15l0.15,0.05
			c0.19,0.06,0.38-0.09,0.38-0.29v-1.29c0-0.17,0.13-0.31,0.3-0.31h1.49c0.06,0,0.12,0.02,0.18,0.06l2.94,2.2
			c0.12,0.09,0.28,0.08,0.38-0.03l2.17-2.14c0.06-0.06,0.09-0.14,0.09-0.22v-0.74c0-0.18-0.15-0.32-0.32-0.31l-5.57,0.47
			c-0.04,0-0.08,0-0.12-0.02l-4.48-1.57c-0.03-0.01-0.07-0.03-0.09-0.05l-4.06-3.44l-0.1-2.5l0.1,0.09
			c0.06,0.06,0.14,0.09,0.23,0.09h2.13c0.06,0,0.11,0.01,0.16,0.04l1.54,0.85c0.22,0.12,0.5-0.04,0.5-0.31v-0.07
			c0-0.32,0.39-0.47,0.59-0.23l0.92,1.07c0.11,0.13,0.29,0.15,0.43,0.07l0.23-0.14c0.11-0.07,0.25-0.07,0.36,0.01l0.28,0.19
			c0.08,0.06,0.18,0.07,0.28,0.04L55.02,51c0.06-0.02,0.11-0.02,0.17,0l1.42,0.34c0.12,0.03,0.24-0.01,0.32-0.1l0.87-0.93
			c0.1-0.11,0.12-0.27,0.05-0.4l-0.27-0.52c-0.12-0.23,0.04-0.51,0.3-0.51h1.08c0.25,0,0.41-0.27,0.31-0.5l-0.4-0.88
			c-0.06-0.14-0.21-0.22-0.36-0.19l-5.96,0.94c-0.09,0.01-0.17-0.01-0.24-0.06l-4.78-3.41c-0.06-0.04-0.1-0.09-0.12-0.16l-1.05-2.78
			c-0.09-0.23,0.08-0.47,0.31-0.47h0.44c0.19,0,0.34-0.16,0.34-0.35c0-0.33,0.4-0.47,0.6-0.22l0.53,0.69
			c0.07,0.09,0.18,0.14,0.29,0.13l2.8-0.25c0.04,0,0.08,0,0.11,0.01l0.7,0.18c0.16,0.04,0.33-0.04,0.39-0.2l0.23-0.54
			c0.03-0.08,0.09-0.14,0.17-0.18l1.26-0.61l0.87-1.09c0.06-0.07,0.09-0.17,0.07-0.26l-0.05-0.44c-0.03-0.24-0.27-0.37-0.48-0.27
			l-2.72,1.36c-0.05,0.02-0.1,0.04-0.15,0.04h-3.31c-0.05,0-0.11-0.01-0.15-0.04l-2.93-1.52l0,0l-0.08-2.13
			c0.05,0.03,0.11,0.06,0.14,0.11l0.98,0.86c0.11,0.16,0.34,0.85,0.51,0.76l0.2-0.1c0.25-0.12,0.49-1.2,0.32-1.48l0.28-0.15
			c0.08-0.05,0.95,0.58,1.08,0.72c-0.02,0.06,0.19,0.04,0.18-0.04c0.03-0.47-0.09-0.53,0.63-0.54c0.49-0.01,0.99-0.19,1.39,0.09
			c0.19,0.13,0.45,0.07,0.55-0.14c0.18-0.37,0.4-0.72,0.63-1.06c0.21-0.31-0.08-0.72-0.43-0.59c-0.89,0.33-1.8,0.6-2.74,0.67
			c-1.61,0.13-2.64-0.59-3.8-1.23l-0.04-1.1l0.76,0.5c0.04,0.02,0.08,0.03,0.12,0.02l1.06-0.31c0.02,0,0.03-0.01,0.05-0.02
			l1.33-0.98c0.12-0.09,0.06-0.27-0.09-0.27h-2.39c-0.02,0-0.04,0-0.06-0.01l-0.85-0.37l-0.07-1.71l2.99,0.77
			c0.07,0.02,0.15,0,0.21-0.06l1.05-1c0.11-0.11,0.09-0.3-0.04-0.37l-0.4-0.23c-0.05-0.03-0.11-0.04-0.17-0.02l-2.92,0.81
			c-0.08,0.02-0.16,0-0.22-0.06l-0.36-0.38c-0.05-0.05-0.1-0.06-0.15-0.06l-0.01-0.19h1.31c0.12,0,0.24-0.05,0.33-0.13l1.61-1.5
			c0.23-0.22,0.22-0.59-0.03-0.79l-0.66-0.51c-0.21-0.16-0.5-0.13-0.67,0.06l-1.28,1.44c-0.05,0.06-0.12,0.11-0.2,0.14l-0.45,0.17
			l-0.01-0.01l-0.08-1.98v0.02l1.23-2.66c0.07-0.16,0.06-0.34-0.02-0.49c-0.18-0.32-0.62-0.38-0.89-0.12l-0.43,0.41l-0.01-0.22
			l-0.01,0.23l-0.66,0.63c-0.19,0.19-0.22,0.48-0.07,0.7l0.66,0.94l-0.07,2.41L44.28,27c-0.05-0.02-0.1-0.06-0.13-0.11l-0.61-0.95
			c-0.02-0.03-0.04-0.05-0.06-0.07l-0.5-0.39c-0.06-0.05-0.14-0.07-0.22-0.05l-1.07,0.21c-0.26,0.05-0.3,0.42-0.05,0.53l0.66,0.29
			c0.02,0.01,0.04,0.02,0.06,0.03l1.16,0.9l1.22,0.95c0.04,0.05,0.09,0.08,0.14,0.11l0.01,0.01l-0.04,1.26h-2.62h-1.91
			c-0.5,0-0.69,0.68-0.27,0.95c0.1,0.06,0.17,0.16,0.21,0.27l0.11,0.32c0.1,0.3,0.43,0.43,0.7,0.29L42.13,31
			c0.07-0.04,0.15-0.06,0.23-0.06h1.79c0.02,0,0.04,0,0.07,0l0.52,0.07c0.03,0,0.05,0,0.08,0l-0.02,0.75l-1.74,1.67
			c-0.08,0.07-0.18,0.11-0.28,0.11H41h-2.38c-0.04,0-0.09,0-0.13,0.01l-1.33,0.23c-0.59,0.1-1.21,0.02-1.8,0.17
			c-0.46,0.12-0.62,0.51-0.1,0.69c0.86,0.3,1.82-0.05,2.7,0.05l1.3,0.15c0.28,0.03,0.45,0.33,0.33,0.6
			c-0.14,0.33,0.15,0.68,0.49,0.58l0.91-0.28l0.88-0.25c0.03-0.01,0.07-0.02,0.1-0.04l2.7-1.61c-0.05,0.37-0.05,0.75,0.06,1.06
			l-0.02,0.73c-0.06,0.01-0.11,0.04-0.15,0.11c0,0,0,0.01-0.01,0.01l-0.9,1.4c-0.03,0.05-0.07,0.08-0.13,0.1l-1.51,0.48
			c-0.06,0.02-0.1,0.06-0.13,0.11l-0.6,1.04c-0.03,0.06-0.08,0.1-0.15,0.11l-2.56,0.65l-2.6,0.52c-0.04,0.01-0.08,0.01-0.12-0.01
			l-2.23-0.71c-0.21-0.07-0.39,0.18-0.26,0.37l0.79,1.2c0.04,0.07,0.12,0.11,0.19,0.11h1.33c0.13,0,0.24,0.11,0.24,0.24v0.45
			c0,0.13,0.11,0.24,0.24,0.24h1.63c0.08,0,0.15-0.04,0.19-0.1l0.48-0.67c0.07-0.1,0.19-0.13,0.3-0.07l1.44,0.76
			c0.09,0.05,0.2,0.03,0.28-0.05l0.69-0.73c0.04-0.05,0.11-0.07,0.17-0.07h0.36c0.13,0,0.24-0.11,0.24-0.24v-0.59
			c0-0.13,0.11-0.24,0.24-0.24h0.53c0.57,0,1.12-0.27,1.48-0.73l0.45-0.57l-0.09,3.24l-1.72,1.27l-1.15,0.44
			c-0.14,0.09-0.21,0.27-0.16,0.43l0.28,0.94c0.07,0.25,0.36,0.34,0.56,0.19l0.47-0.36l0.62-0.9l1.06-0.48l-0.06,2.19l-2.3,2.69
			c-0.05,0.05-0.11,0.09-0.17,0.1l-4.88,0.86c-0.1,0.02-0.19-0.02-0.26-0.09l-0.56-0.57c-0.07-0.07-0.17-0.1-0.27-0.08l-1.11,0.24
			c-0.06,0.01-0.13,0.01-0.19-0.02l-1.67-0.81c-0.06-0.03-0.13-0.04-0.19-0.02l-1.5,0.36c-0.23,0.05-0.31,0.34-0.15,0.51l0.39,0.42
			c0.06,0.06,0.13,0.09,0.21,0.09h0.88c0.15,0,0.28,0.11,0.3,0.27l0.13,1.07c0.02,0.15,0.15,0.27,0.3,0.27h1.03
			c0.1,0,0.2-0.06,0.26-0.15l0.4-0.69c0.06-0.1,0.17-0.16,0.28-0.15l0.39,0.04c0.22,0.02,0.35,0.28,0.22,0.47
			c-0.13,0.2,0.01,0.48,0.25,0.48h2.04c0.03,0,0.06,0,0.09-0.01l2.18-0.68c0.02-0.01,0.03-0.01,0.05-0.01l0.72-0.09
			c0.03,0,0.05,0,0.08,0l0.64,0.09c0.04,0.01,0.08,0,0.12-0.01l1.61-0.45c0.08-0.02,0.15-0.08,0.19-0.17l0.42-0.93l-0.1,3.44
			l-1.43,1.06l-1.15,0.44c-0.14,0.09-0.21,0.27-0.16,0.43l0.28,0.94c0.07,0.25,0.36,0.34,0.56,0.19l0.47-0.36l0.62-0.9l0.77-0.35
			l-0.03,0.98l-0.05,0.11c-0.03,0.07-0.08,0.12-0.14,0.16l-4.36,2.53c-0.03,0.02-0.07,0.03-0.11,0.04l-4.1,0.59
			c-0.01,0-0.03,0-0.04,0h-4.72c-0.26,0-0.41,0.31-0.26,0.52l1.04,1.47c0.09,0.13,0.26,0.17,0.39,0.1l1.3-0.63
			c0.08-0.04,0.17-0.04,0.25-0.01l0.22,0.09c0.2,0.08,0.27,0.33,0.14,0.51l-0.41,0.55c-0.05,0.07-0.07,0.16-0.06,0.24l0.05,0.38
			c0.02,0.16,0.16,0.29,0.32,0.29h0.26c0.07,0,0.14-0.03,0.2-0.07l1.15-0.94c0.25-0.2,0.6,0.05,0.5,0.36v0.01
			c-0.03,0.09-0.02,0.19,0.03,0.27l0.15,0.25c0.04,0.08,0.12,0.13,0.2,0.15l1.31,0.33c0.11,0.03,0.22,0,0.3-0.08l1.08-1.07
			c0.07-0.07,0.17-0.1,0.27-0.09l0.34,0.05c0.11,0.02,0.22-0.03,0.29-0.11l0.56-0.67c0.17-0.21,0.5-0.12,0.56,0.14l0.19,0.89
			c0.03,0.16,0.18,0.27,0.34,0.26l0.66-0.05c0.17-0.01,0.29-0.16,0.29-0.33c0-0.28,0.32-0.43,0.52-0.25l0.08,0.06
			c0.13,0.11,0.31,0.1,0.43-0.02l0.69-0.71c0.01-0.01,0.02,0,0.02-0.01l-0.1,3.71c-0.91,0.42-1.85,0.76-2.82,0.99
			c-1.96,0.48-3.99,0.56-5.94,1.04c-2.44,0.59-5.25,2.12-5.76,4.89c-0.03,0.14-0.05,0.29,0,0.43c0.16,0.46,0.89,0.31,1.13-0.11
			c0.24-0.42,0.19-0.94,0.3-1.42c0.11-0.47,0.56-0.96,1-0.77c0.36,0.15,0.44,0.63,0.52,1.02c0.07,0.4,0.31,0.87,0.7,0.82
			c0.18-0.02,0.33-0.15,0.45-0.29c0.58-0.63,1.03-1.51,1.84-1.75c0.26-0.08,0.59-0.06,0.73,0.18c0.15,0.25,0,0.57-0.09,0.86
			c-0.25,0.8,0.31,1.87,1.12,1.78c0.8-0.09,1.12-1.07,1.55-1.78c0.07-0.12,0.16-0.24,0.28-0.3c0.22-0.1,0.46,0.01,0.7,0.03
			c0.81,0.09,1.36-0.8,2.01-1.32c0.44-0.35,1.01-0.54,1.57-0.53c0.2,0,0.42,0.01,0.6-0.04l-0.2,7.24c-0.31,0.25-0.65,0.43-1.07,0.59
			c-1.02,0.4-2.8,0.7-3.09,2.01c0.25,0.05,2.83-0.34,2.68-0.61c0.29,0.52,0.38,1.23,1.04,1.15L42,79.02
			c-0.02,0.02-0.04,0.03-0.06,0.04l-3.34,1.26l-4.95,1.6c-0.01,0-0.03,0.01-0.04,0.02l-2.82,1.85c-0.02,0.01-0.03,0.03-0.04,0.04
			l-1.55,2.34c-0.02,0.03-0.03,0.06-0.03,0.09v0.63c0,0.09,0.07,0.16,0.15,0.16h0.47c0.04,0,0.07-0.01,0.1-0.04l3.28-3.04l0.52-0.47
			l0.88-0.76c0.07-0.06,0.18-0.04,0.23,0.03l0.12,0.18c0.03,0.04,0.03,0.1,0.01,0.15l-0.52,1.23c-0.04,0.09,0.01,0.19,0.1,0.21
			l0.22,0.06c0.04,0.01,0.09,0.01,0.13-0.02l0.65-0.44c0.02-0.02,0.05-0.03,0.08-0.03l1.95-0.03c0.07,0,0.13-0.05,0.15-0.12
			l0.08-0.37c0.01-0.07,0.07-0.12,0.13-0.12l0.47-0.05c0.01,0,0.02,0,0.02,0h0.32c0.11,0,0.18,0.11,0.14,0.22l-0.22,0.56
			c-0.02,0.06-0.01,0.12,0.03,0.17c0.22,0.25,0.84,1.08,0.91,0.27c0.01-0.17,0.02-0.37,0.14-0.49s0.4-0.01,0.33,0.15
			c0.11,0.17,0.25-0.3,0.44-0.26c0.11,0.02,0.11,0.18,0.12,0.29c0.01,0.6,0.64,0.96,1.19,1.18c0.1,0.04,0.2,0.08,0.3,0.05
			c0.11-0.03,0.17-0.13,0.23-0.23c0.25-0.46,0.36-1.01,0.3-1.53c-0.03-0.3-0.12-0.62-0.01-0.9s0.53-0.45,0.7-0.2
			c0.07,0.1,0.07,0.23,0.07,0.35c0,0.65,0,1.3,0,1.95l-0.1,3.51c-0.15,0.1-0.32,0.23-0.53,0.45c-0.82,0.82-1.79,1.45-2.71,2.13
			c-1.45,1.06-3.16,1.4-4.79,2.11c-1.21,0.52-2.36,1.45-2.59,2.85c-0.02,0.09-0.02,0.2,0.05,0.27c0.06,0.05,0.15,0.05,0.22,0.04
			c1.9-0.22,3.72-1.15,5.04-2.57c0.15-0.16,0.42-0.31,0.53-0.13c0.03,0.05,0.04,0.12,0.05,0.19c0.05,0.38,0.31,0.71,0.66,0.83
			c1.49,0.52,2.25-1.69,2.61-2.69c0.05-0.14,0.13-0.31,0.28-0.33c0.11-0.01,0.2,0.06,0.3,0.11c0.25,0.12,0.55,0.07,0.8-0.09
			l-0.57,20.24l-0.29,4.56c2.23,1.73,4.6,3.29,7.08,4.67C49.03,119.08,48.8,117,48.71,114.9z"/>
		<path class="st0" d="M61.86,114.94c0.04,0.23,0.43,0.55,0.57,0.56c0.46,0.01,0.27-0.59,0.27-0.95c0-0.24,0.26-0.17,0.39-0.08
			c0.11,0.08,0.19,0.2,0.27,0.31c0.28,0.42,0.41,0.82,0.89,0.9c0.26,0.04,0.55,0,0.81,0c0.21,0,0.73-0.51,0.9-0.63
			c0.3,0.33,0.44,0.57,0.86,0.63c0.25,0.04,0.51,0.01,0.76,0c0-0.07,0.01-0.13,0.01-0.2c0.08,0,0.16,0,0.24,0c0-0.11,0-0.23,0-0.34
			c0.72,0.32,1.41,0.68,2.09,1.08c-0.24-0.43-0.37-0.8-0.79-1.03c-0.24-0.13-0.51-0.23-0.77-0.35l-0.69-0.17l-1.63-0.25l-2.21-0.67
			c-0.47-0.14-1.23-0.78-1.57-1.13c-0.22-0.22-0.39-0.48-0.54-0.76l-0.06-1.6c0.1-0.06,0.19-0.12,0.25-0.22
			c0.03-0.06,0.14-0.56,0.27-0.24c0.03,0.08,0.01,0.17,0,0.26c-0.04,0.27,0.06,0.53,0.22,0.74c0.04,0.05,0.11,0.09,0.17,0.06
			c0.03-0.01,0.04-0.04,0.06-0.06c0.1-0.14,0.14-0.31,0.13-0.48c0-0.07,0.01-0.17,0.08-0.17c0.03,0,0.05,0.02,0.07,0.04
			c0.14,0.15,0.22,0.36,0.31,0.55c0.1,0.19,0.24,0.37,0.45,0.41c0.2,0.04,0.39-0.07,0.57-0.18c0.14-0.08,0.37-0.17,0.47-0.29
			c0.17-0.2,0.1-0.07,0-0.28c-0.04-0.08,0.09-0.19,0.17-0.19c0.13,0,0.14,0.17,0.18,0.27c0.24,0.54,0.56,0.94,0.77,0.12
			c0.32,0.3,0.83,0.35,1.19,0.12c0.31-0.19,1.52,0.62,2.06,0.33c-0.49-0.74-1.73-1.09-2.51-1.46h-0.01l-2.03-0.62h-0.01
			c-0.77-0.37-1.53-0.75-2.3-1.12c-0.25-0.12-0.46-0.3-0.67-0.47l-0.06-1.44c0.01-0.01,0.04-0.01,0.04-0.03
			c0.01-0.03,0.03-0.06,0.05-0.07l0.27-0.14c0.01-0.01,0.03-0.01,0.04-0.01h0.21c0.03,0,0.06,0.01,0.08,0.04l0.17,0.22
			c0.03,0.04,0.09,0.05,0.14,0.02l0.21-0.16c0.06-0.05,0.16,0,0.16,0.08v0.08c0,0.06,0.04,0.1,0.1,0.1h0.25c0.05,0,0.1-0.05,0.1-0.1
			v-0.34c0-0.04-0.02-0.07-0.05-0.09l-0.9-0.54c-0.02-0.01-0.03-0.03-0.04-0.05l-0.42-1.03c-0.01-0.02-0.02-0.03-0.03-0.04
			l-0.36-0.31c-0.03-0.03-0.07-0.03-0.1-0.01l-0.02-0.53h0.04c0.02,0,0.03,0,0.05,0.01l0.92,0.38c0.05,0.02,0.1,0.01,0.13-0.03
			l0.15-0.15l0.17-0.17c0.02-0.02,0.06-0.04,0.09-0.04h0.09c0.04,0,0.08,0.02,0.1,0.06l0.25,0.39c0.05,0.08,0.17,0.07,0.22-0.01
			c0.05-0.09,0.17-0.09,0.22,0l0.15,0.28c0.02,0.03,0.04,0.05,0.07,0.06l0.06,0.02c0.08,0.02,0.16-0.04,0.16-0.12v-0.54
			c0-0.07,0.06-0.13,0.13-0.13h0.62c0.03,0,0.05,0.01,0.07,0.02l1.23,0.92c0.05,0.04,0.12,0.03,0.16-0.01l0.91-0.89
			c0.02-0.02,0.04-0.06,0.04-0.09v-0.31c0-0.07-0.06-0.13-0.14-0.13l-2.33,0.2c-0.02,0-0.03,0-0.05-0.01l-1.87-0.65
			c-0.01,0-0.03-0.01-0.04-0.02l-1.7-1.43l-0.04-1.04l0.04,0.04c0.03,0.02,0.06,0.04,0.09,0.04h0.89c0.02,0,0.05,0.01,0.07,0.02
			l0.65,0.36c0.09,0.05,0.21-0.02,0.21-0.13V99.9c0-0.13,0.16-0.2,0.25-0.1l0.38,0.45c0.05,0.05,0.12,0.06,0.18,0.03l0.1-0.06
			c0.05-0.03,0.11-0.03,0.15,0l0.12,0.08c0.03,0.02,0.08,0.03,0.12,0.02l0.47-0.14c0.02-0.01,0.05-0.01,0.07,0l0.59,0.14
			c0.05,0.01,0.1,0,0.13-0.04l0.36-0.39c0.04-0.05,0.05-0.11,0.02-0.17l-0.11-0.22c-0.05-0.1,0.02-0.21,0.12-0.21h0.45
			c0.1,0,0.17-0.11,0.13-0.21l-0.17-0.37c-0.03-0.06-0.09-0.09-0.15-0.08l-2.49,0.39c-0.04,0.01-0.07,0-0.1-0.02l-2-1.42
			c-0.02-0.02-0.04-0.04-0.05-0.07l-0.44-1.16c-0.04-0.09,0.03-0.2,0.13-0.2h0.18c0.08,0,0.14-0.06,0.14-0.14
			c0-0.14,0.17-0.2,0.25-0.09l0.22,0.29c0.03,0.04,0.08,0.06,0.12,0.05l1.17-0.1c0.02,0,0.03,0,0.05,0l0.29,0.08
			c0.07,0.02,0.14-0.02,0.16-0.08l0.09-0.23c0.01-0.03,0.04-0.06,0.07-0.07l0.5-0.24c0.02-0.01,0.04-0.02,0.05-0.04l0.34-0.43
			c0.02-0.03,0.04-0.07,0.03-0.11l-0.02-0.18c-0.01-0.1-0.11-0.16-0.2-0.11l-1.14,0.57c-0.02,0.01-0.04,0.01-0.06,0.01h-1.38
			c-0.02,0-0.04-0.01-0.06-0.02l-1.22-0.63l0,0l-0.03-0.89c0.02,0.01,0.05,0.02,0.06,0.05l0.41,0.36c0.04,0.06,0.14,0.35,0.21,0.32
			l0.08-0.04c0.1-0.05,0.2-0.5,0.13-0.61l0.12-0.07c0.03-0.02,0.4,0.24,0.45,0.3c-0.01,0.02,0.08,0.02,0.08-0.02
			c0.01-0.19-0.04-0.22,0.26-0.22c0.2,0,0.41-0.08,0.58,0.04c0.08,0.05,0.19,0.03,0.23-0.06c0.08-0.15,0.17-0.3,0.26-0.44
			c0.09-0.13-0.04-0.3-0.18-0.25c-0.37,0.14-0.75,0.25-1.15,0.28c-0.67,0.06-1.11-0.25-1.59-0.51l-0.02-0.46l0.32,0.21
			c0.01,0.01,0.03,0.01,0.05,0.01l0.44-0.13c0.01,0,0.01-0.01,0.02-0.01l0.56-0.41c0.05-0.04,0.02-0.11-0.04-0.11h-1
			c-0.01,0-0.02,0-0.02,0l-0.35-0.15l-0.03-0.71l1.25,0.32c0.03,0.01,0.06,0,0.09-0.02l0.44-0.42c0.05-0.04,0.04-0.12-0.02-0.16
			l-0.17-0.1c-0.02-0.01-0.05-0.02-0.07-0.01l-1.22,0.34c-0.03,0.01-0.07,0-0.09-0.03l-0.15-0.16c-0.02-0.02-0.04-0.01-0.06-0.01
			v-0.09h0.55c0.05,0,0.1-0.02,0.14-0.06l0.67-0.62c0.1-0.09,0.09-0.25-0.01-0.33l-0.27-0.21c-0.09-0.07-0.21-0.06-0.28,0.03
			l-0.53,0.6c-0.02,0.03-0.05,0.04-0.08,0.06l-0.19,0.07h-0.01l-0.03-0.83v0.01l0.51-1.11c0.03-0.07,0.03-0.14-0.01-0.2
			c-0.08-0.13-0.26-0.16-0.37-0.05l-0.18,0.17v-0.09v0.1l-0.28,0.26c-0.08,0.08-0.09,0.2-0.03,0.29l0.28,0.39l-0.03,1l-0.27-0.11
			c-0.02-0.01-0.04-0.02-0.05-0.04l-0.26-0.4c-0.01-0.01-0.02-0.02-0.03-0.03l-0.21-0.16c-0.03-0.02-0.06-0.03-0.09-0.02l-0.45,0.09
			c-0.11,0.02-0.13,0.18-0.02,0.22l0.28,0.12c0.01,0,0.02,0.01,0.02,0.01l0.49,0.38l0.51,0.4c0,0.01,0.01,0.01,0.02,0.01l0.04,0.03
			l-0.01,0.52h-1.09h-0.8c-0.21,0-0.29,0.28-0.11,0.4l0,0c0.04,0.03,0.07,0.07,0.09,0.11l0.04,0.13c0.04,0.12,0.18,0.18,0.29,0.12
			l0.44-0.23c0.03-0.02,0.06-0.02,0.1-0.02h0.75c0.01,0,0.02,0,0.03,0l0.22,0.03c0.01,0,0.02-0.01,0.03-0.01l-0.01,0.32l-0.73,0.7
			c-0.03,0.03-0.07,0.05-0.12,0.05H59.1h-1c-0.02,0-0.04,0-0.05,0l-0.56,0.1c-0.25,0.04-0.51,0.01-0.75,0.07
			c-0.19,0.05-0.26,0.21-0.04,0.29c0.36,0.13,0.76-0.02,1.13,0.02l0.55,0.06c0.12,0.01,0.19,0.14,0.14,0.25
			c-0.06,0.14,0.06,0.28,0.21,0.24l0.38-0.11l0.37-0.11c0.01,0,0.03-0.01,0.04-0.02l1.13-0.67c-0.02,0.15-0.02,0.31,0.02,0.44
			l-0.01,0.32c-0.02,0.01-0.05,0-0.06,0.03l0,0l-0.37,0.58c-0.01,0.02-0.03,0.03-0.05,0.04l-0.63,0.2
			c-0.02,0.01-0.04,0.02-0.06,0.04l-0.25,0.43c-0.01,0.02-0.04,0.04-0.06,0.05l-1.07,0.27L57,95.6c-0.02,0-0.03,0-0.05,0l-0.93-0.3
			c-0.09-0.03-0.16,0.07-0.11,0.15l0.33,0.5c0.02,0.03,0.05,0.04,0.08,0.04h0.56c0.05,0,0.1,0.05,0.1,0.1v0.19
			c0,0.06,0.04,0.1,0.1,0.1h0.68c0.03,0,0.06-0.02,0.08-0.04l0.2-0.28c0.03-0.04,0.08-0.05,0.12-0.03l0.6,0.32
			c0.04,0.02,0.09,0.01,0.12-0.02l0.29-0.31c0.02-0.02,0.04-0.03,0.07-0.03h0.15c0.05,0,0.1-0.05,0.1-0.1v-0.24
			c0-0.06,0.04-0.1,0.1-0.1h0.22c0.24,0,0.47-0.11,0.62-0.3l0.19-0.24l-0.04,1.35l-0.72,0.53l-0.48,0.18
			c-0.06,0.04-0.09,0.11-0.07,0.18l0.12,0.39c0.03,0.1,0.15,0.14,0.24,0.08l0.19-0.15l0.26-0.37l0.44-0.2l-0.03,0.91l-0.96,1.12
			c-0.02,0.02-0.04,0.04-0.07,0.04l-2.04,0.36c-0.04,0.01-0.08-0.01-0.11-0.04l-0.23-0.24c-0.03-0.03-0.07-0.04-0.11-0.03l-0.46,0.1
			c-0.03,0.01-0.05,0-0.08-0.01l-0.7-0.34c-0.03-0.01-0.05-0.02-0.08-0.01l-0.63,0.15c-0.09,0.02-0.13,0.14-0.06,0.21l0.16,0.18
			c0.02,0.02,0.06,0.04,0.09,0.04h0.37c0.06,0,0.12,0.05,0.12,0.11l0.05,0.45c0.01,0.06,0.06,0.11,0.12,0.11h0.43
			c0.04,0,0.08-0.02,0.11-0.06l0.17-0.29c0.02-0.04,0.07-0.07,0.12-0.06l0.16,0.02c0.09,0.01,0.14,0.12,0.09,0.2
			c-0.06,0.08,0,0.2,0.1,0.2h0.85c0.01,0,0.02,0,0.04-0.01l0.91-0.28c0.01,0,0.01,0,0.02,0l0.3-0.04c0.01,0,0.02,0,0.03,0l0.27,0.04
			c0.02,0,0.03,0,0.05,0l0.67-0.19c0.04-0.01,0.06-0.04,0.08-0.07l0.18-0.39l-0.04,1.43l-0.6,0.44l-0.48,0.18
			c-0.06,0.04-0.09,0.11-0.07,0.18l0.12,0.39c0.03,0.1,0.15,0.14,0.24,0.08l0.19-0.15l0.26-0.37l0.32-0.15l-0.01,0.41l-0.02,0.05
			c-0.01,0.03-0.03,0.05-0.06,0.07l-1.82,1.05c-0.01,0.01-0.03,0.01-0.05,0.02l-1.72,0.25c-0.01,0-0.01,0-0.02,0h-1.97
			c-0.11,0-0.17,0.13-0.11,0.22l0.43,0.61c0.04,0.05,0.11,0.07,0.17,0.04l0.54-0.26c0.03-0.02,0.07-0.02,0.11,0l0.09,0.04
			c0.08,0.03,0.11,0.14,0.06,0.21l-0.17,0.23c-0.02,0.03-0.03,0.06-0.03,0.1l0.02,0.16c0.01,0.07,0.07,0.12,0.13,0.12h0.11
			c0.03,0,0.06-0.01,0.08-0.03l0.48-0.39c0.1-0.08,0.25,0.02,0.21,0.15l0,0c-0.01,0.04-0.01,0.08,0.01,0.11l0.06,0.11
			c0.02,0.03,0.05,0.05,0.08,0.06l0.55,0.14c0.04,0.01,0.09,0,0.12-0.03l0.45-0.45c0.03-0.03,0.07-0.04,0.11-0.04l0.14,0.02
			c0.05,0.01,0.09-0.01,0.12-0.05l0.23-0.28c0.07-0.09,0.21-0.05,0.23,0.06l0.08,0.37c0.01,0.07,0.07,0.11,0.14,0.11l0.27-0.02
			c0.07-0.01,0.12-0.07,0.12-0.14c0-0.12,0.13-0.18,0.22-0.11l0.03,0.03c0.05,0.05,0.13,0.04,0.18-0.01l0.29-0.3h0.01l-0.04,1.55
			c-0.38,0.17-0.77,0.32-1.18,0.41c-0.82,0.2-1.67,0.23-2.48,0.43c-1.02,0.25-2.19,0.88-2.41,2.04c-0.01,0.06-0.02,0.12,0,0.18
			c0.07,0.19,0.37,0.13,0.47-0.05c0.1-0.18,0.08-0.39,0.13-0.59c0.05-0.2,0.23-0.4,0.42-0.32c0.15,0.06,0.18,0.26,0.22,0.43
			c0.03,0.16,0.13,0.36,0.29,0.34c0.08-0.01,0.14-0.06,0.19-0.12c0.24-0.26,0.43-0.63,0.77-0.73c0.11-0.03,0.25-0.02,0.31,0.08
			c0.06,0.11,0,0.24-0.04,0.36c-0.1,0.33,0.13,0.78,0.47,0.74s0.47-0.45,0.65-0.74c0.03-0.05,0.07-0.1,0.12-0.12
			c0.09-0.04,0.19,0,0.29,0.01c0.34,0.04,0.57-0.33,0.84-0.55c0.19-0.15,0.42-0.23,0.65-0.22c0.08,0,0.17,0,0.25-0.03l-0.08,3.02
			c-0.13,0.1-0.27,0.19-0.45,0.26c-0.43,0.17-1.17,0.29-1.29,0.84c0.1,0.02,1.18-0.14,1.12-0.25c0.12,0.22,0.16,0.51,0.44,0.47
			l-0.52,0.54c-0.01,0.01-0.01,0.01-0.02,0.02l-1.4,0.52l-2.07,0.67c-0.01,0-0.01,0-0.02,0.01l-1.18,0.77
			c-0.01,0-0.01,0.01-0.02,0.02l-0.65,0.98c-0.01,0.01-0.01,0.02-0.01,0.04v0.26c0,0.04,0.03,0.07,0.06,0.07h0.2
			c0.02,0,0.03-0.01,0.04-0.02l1.37-1.27l0.22-0.2l0.37-0.32c0.03-0.03,0.07-0.02,0.09,0.01l0.05,0.08
			c0.01,0.02,0.01,0.04,0.01,0.06l-0.22,0.51c-0.02,0.04,0,0.08,0.04,0.09l0.09,0.03c0.02,0.01,0.04,0,0.05-0.01l0.27-0.18
			c0.01-0.01,0.02-0.01,0.03-0.01l0.82-0.01c0.03,0,0.06-0.02,0.06-0.05l0.03-0.15c0.01-0.03,0.03-0.05,0.06-0.05l0.2-0.02h0.01
			h0.13c0.05,0,0.08,0.05,0.06,0.09l-0.09,0.23c-0.01,0.02,0,0.05,0.01,0.07c0.09,0.1,0.35,0.45,0.38,0.11
			c0.01-0.07,0.01-0.15,0.06-0.2c0.05-0.05,0.17,0,0.14,0.06c0.05,0.07,0.11-0.12,0.19-0.11c0.05,0.01,0.05,0.07,0.05,0.12
			c0,0.25,0.27,0.4,0.5,0.49c0.04,0.02,0.08,0.03,0.13,0.02c0.04-0.01,0.07-0.06,0.09-0.1c0.11-0.19,0.15-0.42,0.13-0.64
			c-0.01-0.13-0.05-0.26-0.01-0.38s0.22-0.19,0.29-0.08c0.03,0.04,0.03,0.1,0.03,0.15c0,0.27,0,0.54,0,0.81l-0.04,1.46
			c-0.06,0.04-0.13,0.1-0.22,0.19c-0.34,0.34-0.75,0.61-1.13,0.89c-0.61,0.44-1.32,0.58-2,0.88c-0.5,0.22-0.99,0.6-1.08,1.19
			c-0.01,0.04-0.01,0.08,0.02,0.11c0.02,0.02,0.06,0.02,0.09,0.02c0.79-0.09,1.55-0.48,2.11-1.07c0.06-0.07,0.17-0.13,0.22-0.06
			c0.01,0.02,0.02,0.05,0.02,0.08c0.02,0.16,0.13,0.3,0.28,0.35c0.62,0.22,0.94-0.7,1.09-1.12c0.02-0.06,0.05-0.13,0.12-0.14
			c0.04-0.01,0.08,0.03,0.13,0.04c0.11,0.05,0.23,0.01,0.33-0.06l-0.24,8.45l-0.01,0.19c0.85,0.28,1.7,0.54,2.57,0.78L61.86,114.94z
			 M61.85,114.83c0.02-0.01,0.03-0.03,0.05-0.04c-0.03,0.02-0.04,0.05-0.05,0.08V114.83z"/>
		<path class="st0" d="M121.84,114.19c0,0-15.88,14.63-42.01,14.63c-6.13,0-12-0.82-17.52-2.36c-0.86-0.24-1.72-0.5-2.57-0.78
			c-3.64-1.19-7.1-2.71-10.36-4.53c-2.48-1.39-4.85-2.95-7.08-4.67c-14.03-10.85-22.86-28.23-22.86-49.7
			c0-33.39,21.32-58.95,53.5-58.95c16.93,0,35.32,6.8,35.32,28.24h7.11l6.27-31.33C110.77,3.71,92.17,0,76.5,0
			C31.56,0.01,0,30.72,0,72.76c0,44.52,35.53,69.66,72.73,69.66c36.36,0,52.04-23.91,52.04-23.91L121.84,114.19z"/>
	</g>
	<g>
		<path class="st0" d="M312.04,0.1c7.29,0,15.93,1.72,20.98,2.2l-2.91,14.56h-3.3c0-9.96-8.55-13.12-16.42-13.12
			c-14.96,0-24.87,11.88-24.87,27.4c0,17.24,12.24,28.83,28.07,28.83c12.14,0,19.52-6.8,19.52-6.8l1.36,2.01
			c0,0-7.29,11.11-24.19,11.11c-17.29,0-33.8-11.69-33.8-32.38C276.49,14.37,291.15,0.1,312.04,0.1z"/>
		<path class="st0" d="M377.7,0.1c20.3,0,33.22,13.51,33.22,30.84c0,18.3-14.18,35.35-35.65,35.35c-19.91,0-32.83-14.85-32.83-32.28
			C342.44,16.77,354.97,0.1,377.7,0.1z M377.21,62.46c15.25,0,24.09-15.14,24.09-29.12c0-14.37-9.13-29.41-25.26-29.41
			c-15.15,0-23.99,13.51-23.99,27.59C352.05,45.79,361.19,62.46,377.21,62.46z"/>
		<path class="st0" d="M420.15,62.37c4.37-0.48,6.51-2.49,6.51-5.94V10.64c0-4.6,0-5.56-7.19-6.99V1.26h7.58
			c8.74,0,10.88-0.38,10.88-0.38l0.49,0.38c0,0-3.21,3.64-3.21,11.59v43.3c0,2.87-0.49,5.27-0.49,5.27h16.22
			c8.35,0,9.91-2.97,14.76-13.79h3.3l-3.98,17.53h-31.28c-4.86,0-13.6,0.29-13.6,0.29v-3.08H420.15z"/>
		<path class="st0" d="M474.93,62.37c4.37-0.48,6.51-2.49,6.51-5.94V10.64c0-4.6,0-5.56-7.19-6.99V1.26h7.58
			c8.74,0,10.88-0.38,10.88-0.38l0.49,0.38c0,0-3.21,3.64-3.21,11.59v43.3c0,2.87-0.49,5.27-0.49,5.27h16.22
			c8.35,0,9.91-2.97,14.76-13.79h3.3l-3.98,17.53h-31.28c-4.86,0-13.6,0.29-13.6,0.29v-3.08H474.93z"/>
		<path class="st0" d="M529.52,62.37c4.37-0.48,6.99-2.49,6.99-5.94V10.64c0-4.6-0.49-5.56-7.97-6.99V1.26h40.02
			c3.98,0,6.99-0.38,6.99-0.38l-3.01,16h-3.3C569.73,7.01,566.52,5,558.75,5h-12.73l-0.97,0.96v24.91h17.97l0.78-5.46l3.59-0.58
			v16.86h-4.57V34.6h-16.81l-0.97,0.96v20.5c0,2.87-0.49,5.36-0.49,5.36h15.25c8.35,0,9.52-1.82,14.38-11.88h3.3l-3.59,15.61H543.6
			c-4.86,0-14.09,0.29-14.09,0.29v-3.07H529.52z"/>
		<path class="st0" d="M621.6,0.1c8.26,0,18.55,1.82,21.76,2.11l-2.91,14.66h-3.3c-0.1-10.54-8.55-13.12-16.22-13.12
			c-17,0-25.84,13.41-25.84,28.55c0,17.34,11.95,29.89,29.82,29.89c3.11,0,6.22-0.38,9.71-1.15V47.15c0-4.6-0.39-5.75-8.94-6.99
			v-2.39h20.69l0.49,1.34c0,0-3.79,1.72-3.79,9.1v15.61c-6.31,0.96-14.96,2.49-22.05,2.49c-19.43,0-35.46-11.21-35.46-31.8
			C585.56,17.34,596.73,0.1,621.6,0.1z"/>
		<path class="st0" d="M655.5,62.37c4.37-0.48,6.99-2.49,6.99-5.94V10.64c0-4.6-0.49-5.56-7.97-6.99V1.26h40.02
			c3.98,0,6.99-0.38,6.99-0.38l-3.01,16h-3.3C695.71,7.01,692.5,5,684.73,5H672l-0.97,0.96v24.91H689l0.78-5.46l3.59-0.58v16.86
			h-4.57V34.6h-16.81l-0.97,0.96v20.5c0,2.87-0.49,5.36-0.49,5.36h15.25c8.35,0,9.52-1.82,14.38-11.88h3.3l-3.59,15.61h-30.31
			c-4.86,0-14.09,0.29-14.09,0.29v-3.07H655.5z"/>
	</g>
	<g>
		<path class="st0" d="M277.04,137.24c4.01-0.45,6.56-2.52,6.56-5.58V88.68c0-4.32-0.46-5.22-7.48-6.56v-2.25h21.15
			c16.41,0,22.61,6.65,22.61,14.48c0,8.45-7.66,14.21-12.03,16.46v1.17l13.13,18.97c3.92,5.58,5.74,5.76,8.12,5.93l1,0.09
			l-0.37,2.88h-13.22l-0.37-0.27c0,0-1.91-4.5-5.65-9.89l-11.31-16.46h-6.66l-0.91,0.9v17.53c0,2.61-0.46,4.59-0.46,4.59l8.21,0.81
			l-0.37,2.52l-21.97,0.54v-2.88H277.04z M299.29,109.72c5.47,0,11.76-4.32,11.76-13.04c0-6.83-3.92-13.31-15.14-13.31h-3.37
			l-0.91,0.9v25.45H299.29z"/>
		<path class="st0" d="M334.3,137.24c4.1-0.45,6.56-2.34,6.56-5.58V88.68c0-4.32-0.45-5.22-7.48-6.56v-2.25h37.57
			c3.74,0,6.56-0.36,6.56-0.36l-2.83,15.02h-3.1c0.46-9.26-2.55-11.15-9.85-11.15H349.8l-0.91,0.9v23.38h16.87l0.73-5.13l3.37-0.54
			v15.83h-4.29v-6.65H349.8l-0.91,0.9v19.24c0,2.7-0.46,5.04-0.46,5.04h14.32c7.84,0,8.93-1.71,13.49-11.15h3.1l-3.37,14.66h-28.45
			c-4.56,0-13.22,0.27-13.22,0.27V137.24z"/>
		<path class="st0" d="M387.63,137.24c4.1-0.45,6.56-2.34,6.56-5.58V88.68c0-4.32-0.45-5.22-7.48-6.56v-2.25h24.98
			c17.69,0,34.74,6.56,34.74,27.79c0,20.32-15.41,32.19-38.2,32.19h-7.39c-4.56,0-13.22,0.27-13.22,0.27v-2.88H387.63z
			 M408.24,136.34c21.34,0,29.18-11.69,29.18-26.62c0-15.92-9.03-26.35-26.08-26.35h-8.21l-0.91,0.9v47.03
			c0,2.7-0.46,5.04-0.46,5.04H408.24z"/>
		<path class="st0" d="M494.13,96.86l-14.04,43.79l-3.56-1.08l-20.97-52.51c-1.55-3.87-5.38-4.95-5.38-4.95v-2.25h5.56
			c5.74,0,9.39-0.36,9.39-0.36l0.37,0.36c-1,2.16-1.55,5.67-0.55,8.27l13.13,34.71c0.64,1.71,1.28,4.05,1.73,5.76l12.03-37.41
			l-1.55-4.14c-1.55-3.87-5.38-4.95-5.38-4.95v-2.25h5.56c5.74,0,9.39-0.36,9.39-0.36l0.37,0.36c-1,2.16-1.55,5.67-0.55,8.27
			l12.86,34.89c0.55,1.62,1.19,3.78,1.64,5.49l12.4-38.58c1.37-4.23,0.36-6.47-4.38-7.82v-2.25h13.86l0.36,1.26
			c0,0-3.19,1.62-5.93,9.62l-16.05,49.91l-3.56-1.08L494.13,96.86z"/>
		<path class="st0" d="M574.91,78.79c19.06,0,31.18,12.68,31.18,28.96c0,17.17-13.31,33.18-33.46,33.18
			c-18.69,0-30.82-13.94-30.82-30.3C541.81,94.44,553.57,78.79,574.91,78.79z M574.45,137.33c14.32,0,22.61-14.21,22.61-27.34
			c0-13.49-8.57-27.61-23.71-27.61c-14.22,0-22.52,12.68-22.52,25.9C550.84,121.68,559.41,137.33,574.45,137.33z"/>
		<path class="st0" d="M647.4,78.79c19.06,0,31.18,12.68,31.18,28.96c0,17.17-13.31,33.18-33.46,33.18
			c-18.69,0-30.82-13.94-30.82-30.3C614.3,94.44,626.06,78.79,647.4,78.79z M646.94,137.33c14.32,0,22.61-14.21,22.61-27.34
			c0-13.49-8.57-27.61-23.71-27.61c-14.22,0-22.52,12.68-22.52,25.9C623.32,121.68,631.9,137.33,646.94,137.33z"/>
		<path class="st0" d="M686.97,137.24c4.1-0.45,6.56-2.34,6.56-5.58V88.68c0-4.32-0.46-5.22-7.48-6.56v-2.25h24.98
			c17.69,0,34.74,6.56,34.74,27.79c0,20.32-15.41,32.19-38.2,32.19h-7.39c-4.56,0-13.22,0.27-13.22,0.27v-2.88H686.97z
			 M707.57,136.34c21.34,0,29.18-11.69,29.18-26.62c0-15.92-9.03-26.35-26.08-26.35h-8.21l-0.91,0.9v47.03
			c0,2.7-0.46,5.04-0.46,5.04H707.57z"/>
		<path class="st0" d="M756.17,123.66h3.1c0,10.97,7.02,13.85,13.22,13.85c5.93,0,11.58-2.52,11.58-9.44
			c0-15.65-28.54-15.38-28.54-33.63c0-8.9,6.84-15.65,20.33-15.65c6.47,0,13.04,1.44,15.04,1.71l-2.83,14.03h-3.1
			c0.91-6.74-2.55-12.32-10.21-12.32c-6.11,0-11.31,2.79-11.31,9.35c0,15.74,28.54,14.21,28.54,33.54
			c0,10.79-9.39,15.83-20.33,15.83c-7.93,0-17.6-2.7-17.6-9.26C754.07,130.31,754.43,129.06,756.17,123.66z"/>
	</g>
	<g>
		<path class="st0" d="M742.12,5.03c8.16,0,13.36,5.43,13.36,12.4c0,7.36-5.7,14.21-14.33,14.21c-8.01,0-13.2-5.97-13.2-12.98
			C727.94,11.73,732.98,5.03,742.12,5.03z M741.92,30.1c6.13,0,9.69-6.09,9.69-11.71c0-5.78-3.67-11.82-10.15-11.82
			c-6.09,0-9.65,5.43-9.65,11.09C731.81,23.4,735.48,30.1,741.92,30.1z"/>
		<path class="st0" d="M759.07,30.07c1.76-0.19,2.81-1.12,2.81-2.5V9.28c0-1.85-0.19-2.23-3.2-2.81V5.51h15.7
			c1.6,0,2.81-0.15,2.81-0.15l-1.21,6.43h-1.33c0.19-3.97-1.09-4.78-4.22-4.78h-4.73l-0.39,0.38v10.2h6.95l0.31-2.19l1.45-0.23v6.78
			h-1.84V19.1h-6.48l-0.39,0.38v8.09c0,1.15-0.2,2.08-0.2,2.08l4.3,0.35l-0.16,1.08l-10.19,0.23v-1.24H759.07z"/>
	</g>
	<g>
		<path class="st0" d="M720.25,65.01c1.76-0.19,2.81-1.12,2.81-2.5V41.95h-3.87c-2.69,0-3.87,0.81-5.35,4.78h-1.33l1.21-6.51
			c0,0,1.01,0.23,2.62,0.23h18.28c1.6,0,2.81-0.23,2.81-0.23l-1.21,6.51h-1.33c0.2-3.97-1.09-4.78-4.14-4.78h-3.87l-0.39,0.38v20.18
			c0,1.15-0.19,2.08-0.19,2.08l3.91,0.35l-0.16,1.08l-9.8,0.23V65.01z"/>
		<path class="st0" d="M739.54,65.01c1.76-0.19,2.81-1.12,2.81-2.5V44.22c0-1.85,0-2.23-2.89-2.81v-0.96h3.05
			c3.51,0,4.37-0.15,4.37-0.15l0.19,0.15c0,0-1.29,1.46-1.29,4.66v7.16h14.53l0.39-0.38v-7.66c0-1.85,0-2.23-2.89-2.81v-0.96h3.05
			c3.52,0,4.38-0.12,4.38-0.12l0.19,0.15c0,0-1.29,1.42-1.29,4.62v17.4c0,1.15-0.19,2.08-0.19,2.08l3.51,0.35l-0.16,1.08l-9.41,0.23
			v-1.23c1.72-0.19,2.81-1.08,2.81-2.39v-8.74h-14.53l-0.39,0.38v8.24c0,1.15-0.19,2.08-0.19,2.08l3.52,0.35l-0.16,1.08l-9.41,0.23
			L739.54,65.01L739.54,65.01z"/>
		<path class="st0" d="M770.86,65.01c1.76-0.19,2.81-1,2.81-2.39V44.21c0-1.85-0.2-2.23-3.2-2.81v-0.96h16.09
			c1.6,0,2.81-0.15,2.81-0.15l-1.21,6.43h-1.33c0.19-3.97-1.09-4.78-4.22-4.78h-5.12l-0.39,0.38v10.01h7.23l0.31-2.19l1.45-0.23
			v6.78h-1.84v-2.85h-6.76l-0.39,0.38v8.24c0,1.15-0.19,2.16-0.19,2.16h6.13c3.36,0,3.83-0.73,5.78-4.78h1.33l-1.45,6.28h-12.19
			c-1.95,0-5.66,0.12-5.66,0.12v-1.23H770.86z"/>
	</g>
</g>
</svg>