<?xml version="1.0" encoding="utf-8"?>
<!-- Generator: Adobe Illustrator 27.3.1, SVG Export Plug-In . SVG Version: 6.00 Build 0)  -->
<svg version="1.1" id="Layer_1" xmlns="http://www.w3.org/2000/svg" xmlns:xlink="http://www.w3.org/1999/xlink" x="0px" y="0px"
	 viewBox="0 0 168 197.9" style="enable-background:new 0 0 168 197.9;" xml:space="preserve">
<style type="text/css">
	.st0{fill:#2F1A45;}
	.st1{fill:#FDC522;}
	.st2{fill:#FFFFFF;}
</style>
<g id="Layer_2_00000101804728993380113920000004414091107965967007_">
	<g id="Layer_1-2">
		<rect class="st0" width="168" height="197.9"/>
		<path class="st1" d="M121.8,149.3v6.5c0,4.4-0.4,10.4-5.6,10.4c-4,0-5.4-2.4-5.4-6.4l0.1-35.6c0-4.7,1.1-7.6,5.8-7.5
			c2.8,0,4.8,3.2,4.8,9.3v4.6h15.1v-6c0-12.5-5.6-18.8-15.4-20.4c5.2-0.7,9.7-2.8,12.4-7.9c2.5-4.8,2.2-10.3,2.2-15.4v-50H119
			L118.9,89c0.1,2-0.8,2.5-3.3,2.6c-2.3,0.1-3.4-1-3.4-3.6v-9.2H99.1c-0.7-6.1-2.8-9.9-6-12.9c-3.9-3.6-9.4-6.1-15.7-10.2
			c-3.3-2.3-5.6-4.5-5.1-8.8c0.4-3.2,2.4-5.1,5.8-4.8c5.6,0.4,5.4,6.1,5.6,10.4h15.5c0.8-13.5-6.7-23.3-21.4-23.3
			c-13,0-21.2,6.9-21.2,20.4c0,6.3,1.8,10.7,4.9,14.4c3.1,3.6,7.6,6.4,12.8,9.4c4.4,2.7,9.4,5,9.4,11c0,3.7-1.7,7.2-5.7,7.2
			c-5.4,0-6.7-3.6-6.7-7.8v-5.1H55.7v7.7c0,8.2,4.9,15.8,16.3,17.7c-11.1,1.4-16.3,8.7-16.3,22.7v29.5c0,14.7,5.4,22.9,19.4,22.9
			c12.8,0,19.3-5.9,21.3-14.8c1.8,9.6,7.6,14.8,18.7,14.8c15.5,0,21.9-8.6,21.9-21v-8.8H121.8z M81.8,149.3v6.5
			c0,4.4-0.4,10.4-5.6,10.4c-4,0-5.4-2.4-5.4-6.4l0.1-35.6c0-4.7,1.1-7.6,5.8-7.5c2.8,0,4.8,3.2,4.8,9.3v4.6h14.1v18.7H81.8z
			 M96.3,119.1c-1.4-8.8-6.6-13.5-14.6-14.9c9.6-1.2,15.5-6.6,17.2-15.6c0.1,1.3,0.3,2.6,0.6,3.9c1.6,6.4,6.5,10.2,12.5,11.4
			C103.1,105.1,98,110,96.3,119.1"/>
		<path class="st1" d="M31.8,174.7c-0.1-1,0.4-2.1,1.2-2.7c0.9-0.6,1.9-0.9,3-0.9h0.5v1.7h-0.5c-0.6,0-1.2,0.1-1.7,0.4
			c-0.8,0.8-0.8,2,0,2.8c0,0,0,0,0,0c0.5,0.3,1.1,0.5,1.7,0.4c0.6,0,1.1-0.1,1.6-0.4c0.5-0.3,0.9-0.6,1.2-1c0.4-0.4,0.8-0.9,1.1-1.3
			c0.3-0.5,0.7-0.9,1.2-1.3c0.4-0.4,0.9-0.7,1.5-1c0.6-0.3,1.3-0.4,2-0.4c1.1-0.1,2.1,0.3,3,0.9c0.8,0.7,1.2,1.7,1.1,2.8
			c0.1,1-0.3,2.1-1.1,2.8c-0.9,0.6-1.9,1-3,0.9h-1v-1.7h1c0.6,0,1.2-0.1,1.7-0.5c0.8-0.8,0.8-2,0.1-2.8c0,0,0,0-0.1-0.1
			c-0.5-0.3-1.1-0.5-1.7-0.5c-0.6,0-1.1,0.1-1.6,0.4c-0.5,0.3-0.9,0.6-1.2,1c-0.4,0.4-0.8,0.8-1.1,1.3c-0.4,0.5-0.8,0.9-1.2,1.3
			c-0.4,0.4-0.9,0.7-1.5,1c-0.6,0.3-1.3,0.4-2,0.4c-1.1,0.1-2.1-0.3-3-0.9C32.1,176.8,31.7,175.8,31.8,174.7z"/>
		<path class="st1" d="M45.1,167.6l3.3,0.6v1.7L32,166.8v-2.6l16.3-3.1v1.8l-3.3,0.6L45.1,167.6z M43.5,167.4v-3.6l-9.4,1.9
			L43.5,167.4z"/>
		<path class="st1" d="M48.4,158v1.6H32v-2.3l11.8-3.8H32v-1.6h16.4v1.9L35.1,158H48.4z"/>
		<path class="st1" d="M46.7,150.5c0-0.2,0-0.3,0-0.5v-0.4c0-0.5-0.2-1-0.5-1.4c-0.5-0.4-1.1-0.6-1.7-0.5H32v-1.8h12.3
			c0.7,0,1.3,0.1,1.9,0.3c0.5,0.1,0.9,0.4,1.2,0.7c0.3,0.3,0.5,0.7,0.7,1.1c0.1,0.4,0.2,0.9,0.2,1.4c0,0.2,0,0.4,0,0.6
			c0,0.2,0,0.4,0,0.6H46.7z"/>
		<path class="st1" d="M36,144.2c-1.1,0.1-2.1-0.3-3-0.9c-1.5-1.6-1.5-4.1,0-5.6c0.9-0.7,1.9-1,3-0.9h8.5c1.1-0.1,2.1,0.3,3,0.9
			c1.5,1.6,1.5,4.1,0,5.6c-0.9,0.7-1.9,1-3,0.9H36z M44.5,142.4c0.6,0,1.2-0.1,1.7-0.5c0.8-0.8,0.8-2.1,0-2.9c0,0,0,0,0,0
			c-0.5-0.3-1.1-0.5-1.7-0.5h-8.7c-0.6,0-1.2,0.1-1.7,0.5c-0.8,0.8-0.8,2.1,0,2.9c0,0,0,0,0,0c0.5,0.3,1.1,0.5,1.7,0.5H44.5z"/>
		<path class="st1" d="M31.8,131.6c-0.1-1.1,0.4-2.1,1.2-2.8c0.9-0.6,1.9-0.9,3-0.9h0.5v1.7h-0.5c-0.6,0-1.2,0.1-1.7,0.4
			c-0.4,0.3-0.7,0.9-0.6,1.4c0,0.5,0.2,1.1,0.6,1.4c0.5,0.3,1.1,0.5,1.7,0.4c0.5,0,1.1-0.1,1.5-0.4c0.5-0.3,0.9-0.6,1.2-1
			c0.4-0.4,0.8-0.9,1.1-1.3c0.4-0.5,0.8-0.9,1.2-1.3c0.4-0.4,0.9-0.7,1.5-1c0.6-0.3,1.3-0.4,2-0.4c1.1-0.1,2.1,0.3,3,0.9
			c0.8,0.7,1.2,1.7,1.1,2.8c0.1,1-0.3,2.1-1.1,2.8c-0.9,0.6-1.9,1-3,0.9h-1v-1.7h1c0.6,0,1.2-0.1,1.7-0.5c0.8-0.8,0.8-2,0.1-2.8
			c0,0,0,0-0.1-0.1c-0.5-0.3-1.1-0.5-1.7-0.5c-0.6,0-1.1,0.1-1.6,0.4c-0.5,0.3-0.9,0.6-1.2,1c-0.4,0.4-0.8,0.8-1.1,1.3
			c-0.4,0.5-0.8,0.9-1.2,1.3c-0.4,0.4-0.9,0.7-1.5,1c-0.6,0.3-1.3,0.4-2,0.4c-1.1,0.1-2.1-0.3-3-0.9
			C32.1,133.6,31.7,132.6,31.8,131.6z"/>
		<path class="st1" d="M39.2,120.5h1.6v4h5.8v-4.9h1.7v6.7H32v-6.7h1.7v4.9h5.6L39.2,120.5z"/>
		<path class="st2" d="M31.8,114.4c-0.1-1.1,0.4-2.1,1.2-2.8c0.9-0.6,1.9-1,3-0.9h1.5v1.7h-1.6c-0.6,0-1.2,0.1-1.7,0.5
			c-0.4,0.4-0.7,0.9-0.6,1.5c0,0.6,0.2,1.1,0.6,1.4c0.5,0.3,1.1,0.5,1.7,0.5h8.7c0.6,0,1.2-0.1,1.7-0.5c0.4-0.4,0.7-0.9,0.6-1.4
			c0-0.6-0.2-1.1-0.6-1.5c-0.5-0.3-1.1-0.5-1.7-0.5h-2.1v-1.7h2c1.1-0.1,2.1,0.3,3,0.9c1.5,1.6,1.5,4,0,5.6c-0.9,0.6-1.9,1-3,0.9H36
			c-0.6,0-1.1-0.1-1.7-0.2c-0.5-0.1-0.9-0.4-1.3-0.7c-0.4-0.3-0.6-0.7-0.8-1.1C32,115.5,31.8,115,31.8,114.4z"/>
		<path class="st2" d="M32,107.2h16.4v1.8H32V107.2z"/>
		<path class="st2" d="M48.4,103H33.7v3H32v-7.9h1.7v3h14.7V103z"/>
		<path class="st2" d="M42.5,94L32,97.4v-1.9l8-2.5l-8-2.6v-1.7l10.5,3.5h5.9V94H42.5z"/>
		<path class="st2" d="M31.8,83.9c-0.1-1.1,0.4-2.1,1.2-2.8c0.9-0.6,1.9-1,3-0.9h1.5v1.7h-1.6c-0.6,0-1.2,0.1-1.7,0.4
			c-0.8,0.8-0.8,2-0.1,2.8c0,0,0.1,0.1,0.1,0.1c0.5,0.3,1.1,0.5,1.7,0.5h8.7c0.6,0,1.2-0.1,1.7-0.5c0.8-0.8,0.8-2,0.1-2.8
			c0,0-0.1-0.1-0.1-0.1c-0.5-0.3-1.1-0.5-1.7-0.4h-2.1v-1.7h2c1.1-0.1,2.1,0.3,3,0.9c1.5,1.6,1.5,4,0,5.6c-0.9,0.6-1.9,1-3,0.9H36
			c-0.6,0-1.1-0.1-1.7-0.2c-0.5-0.1-0.9-0.4-1.3-0.7c-0.4-0.3-0.6-0.7-0.8-1.2C32,85,31.8,84.4,31.8,83.9z"/>
		<path class="st2" d="M36,78.7c-1.1,0.1-2.1-0.3-3-0.9c-1.5-1.6-1.5-4.1,0-5.6c0.9-0.7,1.9-1,3-0.9h8.5c1.1-0.1,2.1,0.3,3,0.9
			c1.5,1.6,1.5,4.1,0,5.6c-0.9,0.7-1.9,1-3,0.9H36z M44.5,76.8c0.6,0,1.2-0.1,1.7-0.5c0.8-0.8,0.9-2,0.1-2.8c0,0-0.1-0.1-0.1-0.1
			c-0.5-0.3-1.2-0.5-1.8-0.4h-8.6c-0.6,0-1.2,0.1-1.7,0.5c-0.8,0.8-0.9,2-0.1,2.8c0,0,0.1,0.1,0.1,0.1c0.5,0.3,1.1,0.5,1.7,0.5
			L44.5,76.8z"/>
		<path class="st2" d="M48.4,69.4H32v-1.8h14.7v-4.7h1.7V69.4z"/>
		<path class="st2" d="M48.4,61.5H32v-1.8h14.7V55h1.7V61.5z"/>
		<path class="st2" d="M39.2,47.9h1.6v4h5.8V47h1.7v6.7H32V47h1.7v4.9h5.6L39.2,47.9z"/>
		<path class="st2" d="M31.8,41.7c-0.1-1.1,0.4-2.1,1.2-2.8c0.9-0.6,1.9-0.9,3-0.9h1.4v1.7h-1.5c-0.6,0-1.2,0.1-1.7,0.5
			c-0.4,0.4-0.7,0.9-0.6,1.5c0,0.6,0.2,1.1,0.6,1.5c0.5,0.3,1.1,0.5,1.7,0.5h8.7c0.6,0,1.2-0.1,1.7-0.5c0.4-0.4,0.7-0.9,0.6-1.5
			c0-0.6-0.2-1.1-0.6-1.5c-0.5-0.3-1.1-0.5-1.7-0.5h-3.3v1.7h-1.6V38h4.8c1.1-0.1,2.1,0.3,3,0.9c0.8,0.7,1.2,1.7,1.1,2.8
			c0.1,1-0.3,2.1-1.1,2.8c-0.9,0.6-1.9,1-3,0.9H36c-0.6,0-1.1-0.1-1.7-0.2c-0.5-0.1-0.9-0.4-1.3-0.7c-0.4-0.3-0.6-0.7-0.8-1.2
			C32,42.8,31.8,42.3,31.8,41.7z"/>
		<path class="st2" d="M39.2,30.5h1.6v4h5.8v-4.9h1.7v6.7H32v-6.7h1.7v4.9h5.6L39.2,30.5z"/>
	</g>
</g>
<polygon class="st1" points="29.1,120.7 29.1,122.4 31.4,124 31.4,122.8 "/>
</svg>
