<svg xmlns="http://www.w3.org/2000/svg" viewBox="0 0 269 48"><path d="M2.793 35.108A23.43 23.43 0 01.018 27.54L0 27.453s9.592 9.008 23.974 4.303c13.604-4.451 20.646.527 20.646.527l.04.016a23.506 23.506 0 01-3.16 5.451l-.04.058s-8.452-6.729-21.61-2.835c-12.605 3.731-17.001.21-17.001.21l-.056-.075zm1.108 2.313s3.746 3.22 16.316-1.016C31.131 32.728 40.7 39.373 40.7 39.373l.035.023c-4.29 5.005-10.64 7.996-17.73 7.996-7.874 0-14.84-3.912-19.08-9.904l-.023-.067zm41.614-6.35s-7.206-4.835-20.809-.384C10.324 35.393.14 26.015.14 26.015l-.016-.053A24.017 24.017 0 010 23.522C0 10.532 10.474 0 23.397 0c12.92 0 23.396 10.531 23.396 23.522 0 2.644-.434 5.187-1.235 7.56l-.043-.01zM1.588 25.064s8.495 8.57 22.645 4.198c13.672-4.226 20.455-.493 20.455-.493l.012-.02c.413-1.689.633-3.45.633-5.267 0-12.132-9.805-21.968-21.899-21.968-12.094 0-21.898 9.836-21.898 21.968 0 .514.018 1.024.053 1.53l-.001.052zm37.978 1.183s-6.528-1.476-16.219 1.65C13.077 31.211 6.82 26.535 6.82 26.535l-.013-.044a16.898 16.898 0 01-.305-3.205c0-9.251 7.46-16.75 16.662-16.75 9.2 0 16.66 7.499 16.66 16.75 0 .989-.085 1.956-.248 2.895l-.01.066zm-1.498-2.146c.02-.315.03-.632.03-.952 0-8.322-6.712-15.069-14.99-15.069-8.28 0-14.989 6.747-14.989 15.07 0 .512.025 1.016.074 1.516l.008.03 6.646-6.558.018-.018a1.89 1.89 0 012.508.04l.023.016.791.857 6.653-5.616.014-.01a1.886 1.886 0 011.208-.435c.479 0 .916.177 1.25.47l.017.019 10.723 10.692.016-.052zm28.166-5.173c-.08-1.042-.533-1.87-1.361-2.48-.83-.61-1.91-.915-3.242-.915-1.156 0-2.058.256-2.71.767-.651.511-.976 1.224-.976 2.136 0 .655.34 1.163 1.022 1.52.67.356 2.097.779 4.279 1.265 3.17.715 5.287 1.539 6.353 2.472 1.07.923 1.602 2.407 1.602 4.453 0 2.055-.805 3.685-2.413 4.891-1.61 1.206-3.787 1.81-6.53 1.81-2.754 0-4.908-.641-6.458-1.922-1.55-1.28-2.378-3.102-2.487-5.464h4.385c.049 1.16.469 2.055 1.258 2.68.79.626 1.89.938 3.302.938 1.45 0 2.583-.237 3.397-.707.814-.472 1.223-1.124 1.223-1.958 0-.825-.294-1.43-.882-1.818-.572-.387-1.796-.79-3.67-1.206-3.454-.774-5.762-1.612-6.927-2.515-1.156-.895-1.734-2.29-1.734-4.185 0-2.124.765-3.81 2.295-5.055 1.53-1.246 3.598-1.87 6.204-1.87 2.438 0 4.422.646 5.952 1.936 1.53 1.29 2.38 3.033 2.547 5.227h-4.429zm7.884-5.855H78.369v7.743l.34-.476c1.047-1.341 2.567-2.01 4.563-2.01 1.697 0 3.029.505 3.99 1.518.964 1.012 1.445 2.417 1.445 4.214v10.9h-4.25V24.837c0-1.003-.216-1.745-.645-2.226-.43-.483-1.089-.723-1.978-.723-1.116 0-1.971.338-2.57 1.013-.598.674-.895 1.647-.895 2.918v9.143h-4.251v-21.89zM95.983 35.35c-1.492 0-2.69-.43-3.598-1.287-.91-.86-1.363-1.989-1.363-3.389 0-1.478.408-2.663 1.229-3.55.819-.89 2.014-1.448 3.583-1.676l2.8-.387c.73-.1 1.338-.268 1.822-.506.208-.1.368-.279.48-.536a1.52 1.52 0 00.127-.79c-.059-.456-.291-.813-.696-1.072-.483-.307-1.18-.461-2.088-.461-.81 0-1.442.198-1.896.595-.455.397-.697.958-.725 1.682h-4.074c.088-1.896.73-3.315 1.925-4.258 1.195-.942 2.948-1.414 5.259-1.414 2.004 0 3.586.425 4.746 1.273 1.16.851 1.741 2.01 1.741 3.481v9.061c0 .726.059 1.235.178 1.528.119.294.355.524.71.693v.596H101.552v-.014a10.708 10.708 0 01-.37-1.922l-.015-.03c-1.333 1.588-3.06 2.383-5.184 2.383zm5.11-6.403v-1.861c-.494.278-1.146.5-1.956.67l-1.57.298c-.74.139-1.302.394-1.687.766-.386.373-.579.842-.579 1.408 0 .645.173 1.152.52 1.518.344.367.829.552 1.45.552 1.363 0 2.449-.483 3.259-1.445.159-.188.291-.467.4-.834.108-.367.163-.724.163-1.072zm17.024-5.36c0-.624-.258-1.126-.771-1.503-.514-.378-1.195-.566-2.045-.566-.82 0-1.46.141-1.92.424-.46.283-.69.678-.69 1.184 0 .357.263.665.786.923.514.248 1.428.521 2.741.82 2.607.585 4.351 1.226 5.229 1.92.883.694 1.322 1.787 1.322 3.276 0 1.588-.64 2.867-1.918 3.834-1.278.968-2.965 1.453-5.06 1.453-2.478 0-4.385-.478-5.725-1.43-1.336-.954-2.05-2.343-2.14-4.17h4.326c.029.744.358 1.327.985 1.75.626.422 1.478.632 2.555.632.85 0 1.515-.146 1.993-.439.479-.293.718-.702.718-1.229 0-.366-.232-.678-.695-.937-.465-.248-1.28-.5-2.444-.76-2.727-.615-4.549-1.265-5.467-1.95-.916-.676-1.375-1.723-1.375-3.143 0-1.608.594-2.906 1.784-3.893 1.188-.988 2.756-1.482 4.702-1.482 2.19 0 3.959.485 5.301 1.452 1.343.968 2.014 2.246 2.014 3.834h-4.206zm15.793 11.446c-.711.06-1.585.088-2.621.088-1.502 0-2.58-.269-3.237-.81-.656-.543-.985-1.428-.985-2.66v-9.916h-2.237v-2.992h2.237V14.38h4.252v4.364h2.591v2.992h-2.591v9.203c0 .377.11.625.333.744.222.119.684.18 1.384.18h.874v3.17zm6.283.317c-1.49 0-2.69-.43-3.599-1.287-.908-.86-1.361-1.989-1.361-3.389 0-1.478.408-2.663 1.228-3.55.82-.89 2.015-1.448 3.585-1.676l2.799-.387c.73-.1 1.339-.268 1.823-.506.206-.1.368-.279.48-.536.114-.26.156-.522.126-.79-.059-.456-.29-.813-.696-1.072-.484-.307-1.18-.461-2.088-.461-.81 0-1.442.198-1.896.595-.455.397-.696.958-.726 1.682h-4.074c.09-1.896.731-3.315 1.926-4.258 1.195-.942 2.948-1.414 5.259-1.414 2.005 0 3.586.425 4.747 1.273 1.16.851 1.74 2.01 1.74 3.481v9.061c0 .726.06 1.235.178 1.528.118.294.355.524.711.693v.596h-4.592v-.014a10.59 10.59 0 01-.37-1.922l-.015-.03c-1.333 1.588-3.061 2.383-5.185 2.383zm5.11-6.403v-1.861c-.494.278-1.145.5-1.955.67l-1.57.298c-.74.139-1.302.394-1.689.766-.383.373-.576.842-.576 1.408 0 .645.172 1.152.518 1.518.346.367.83.552 1.451.552 1.363 0 2.45-.483 3.259-1.445.158-.188.29-.467.4-.834.11-.367.163-.724.163-1.072zm35.354-2.366c-.276 2.53-1.262 4.541-2.955 6.03-1.693 1.49-3.849 2.235-6.465 2.235-3.06 0-5.494-1.028-7.295-3.083-1.802-2.055-2.703-4.834-2.703-8.339 0-3.574.901-6.41 2.703-8.51 1.801-2.1 4.234-3.15 7.295-3.15 2.586 0 4.73.704 6.428 2.108 1.698 1.405 2.696 3.308 2.992 5.71h-4.548c-.148-1.18-.655-2.12-1.52-2.813-.864-.696-1.965-1.044-3.3-1.044-1.692 0-3.017.679-3.975 2.033-.96 1.356-1.44 3.234-1.44 5.636 0 2.344.478 4.178 1.432 5.502.955 1.326 2.282 1.989 3.983 1.989 1.335 0 2.436-.387 3.3-1.163.865-.774 1.372-1.82 1.52-3.141h4.548zm3.616 6.492c-1.487-1.52-2.229-3.569-2.229-6.15 0-2.64.742-4.737 2.229-6.291 1.486-1.553 3.487-2.331 6.006-2.331 2.538 0 4.547.778 6.028 2.33 1.481 1.555 2.221 3.652 2.221 6.291 0 2.582-.74 4.632-2.22 6.15-1.482 1.52-3.49 2.28-6.03 2.28-2.518 0-4.519-.76-6.005-2.28zm8.894-2.547c.662-.834.992-2.05.992-3.648 0-1.638-.33-2.881-.992-3.73-.662-.848-1.624-1.273-2.888-1.273-1.265 0-2.224.425-2.88 1.273-.658.849-.986 2.092-.986 3.73 0 1.599.328 2.814.986 3.648.656.834 1.615 1.251 2.88 1.251 1.264 0 2.226-.417 2.888-1.25zm9.682-17.454H207.1v21.889H202.849v-21.89zm7.802 0H214.902v21.889h-4.251v-21.89zM224.81 35.35c-2.45 0-4.338-.76-5.665-2.278-1.33-1.518-1.993-3.683-1.993-6.492 0-2.591.677-4.619 2.029-6.083 1.354-1.464 3.229-2.196 5.629-2.196 2.458 0 4.352.746 5.68 2.24 1.327 1.495 1.992 3.622 1.992 6.381.02.318-.005.64-.074.969h-10.975c.098 1.28.38 2.238.844 2.873.592.795 1.58 1.191 2.962 1.191.642 0 1.237-.184 1.785-.55.548-.367.876-.81.985-1.326h4.325c-.366 1.647-1.212 2.939-2.541 3.872-1.328.933-2.99 1.4-4.983 1.4zm3.243-10.185c-.099-.972-.355-1.732-.771-2.278-.542-.725-1.386-1.087-2.532-1.087-1.096 0-1.93.423-2.503 1.266-.355.536-.612 1.235-.77 2.1h6.576zM243.385 38.3c1.194 0 2.053-.29 2.576-.872.524-.58.785-1.54.785-2.88v-1.996l-.34.522c-.938 1.3-2.286 1.95-4.044 1.95-2.094 0-3.784-.757-5.073-2.27-1.289-1.514-1.932-3.513-1.932-5.994 0-2.542.627-4.586 1.88-6.135 1.255-1.55 2.904-2.323 4.948-2.323 1.806 0 3.208.66 4.206 1.98.188.249.36.522.518.82v-2.369h4v15.338c0 2.561-.631 4.45-1.89 5.666-1.258 1.216-3.22 1.824-5.886 1.824-2.193 0-3.935-.43-5.229-1.288-1.294-.859-1.984-2.047-2.074-3.566h4.621c.04.555.294.96.764 1.213.468.254 1.192.38 2.17.38zm-.134-16.305c-1.105 0-1.97.425-2.591 1.273-.623.849-.934 2.028-.934 3.536 0 1.48.31 2.634.934 3.462.621.829 1.48 1.244 2.575 1.244 1.117 0 1.987-.422 2.615-1.266.628-.843.94-2.01.94-3.499 0-1.489-.312-2.653-.94-3.491-.628-.84-1.494-1.26-2.599-1.26zm17.966 13.356c-2.448 0-4.336-.76-5.664-2.278-1.329-1.518-1.992-3.683-1.992-6.492 0-2.591.675-4.619 2.029-6.083 1.353-1.464 3.228-2.196 5.627-2.196 2.46 0 4.354.746 5.682 2.24 1.327 1.495 1.992 3.622 1.992 6.381.02.318-.006.64-.074.969H257.84c.098 1.28.38 2.238.845 2.873.591.795 1.58 1.191 2.962 1.191a3.15 3.15 0 001.784-.55c.549-.367.876-.81.986-1.326h4.324c-.365 1.647-1.211 2.939-2.54 3.872-1.328.933-2.99 1.4-4.985 1.4zm3.245-10.185c-.1-.972-.355-1.732-.771-2.278-.543-.725-1.386-1.087-2.532-1.087-1.096 0-1.931.423-2.504 1.266-.354.536-.612 1.235-.769 2.1h6.576z" fill-rule="evenodd"/></svg>