<svg width="262" height="62" viewBox="0 0 262 62" fill="none" xmlns="http://www.w3.org/2000/svg">
<g clip-path="url(#clip0_274_68)">
<mask id="mask0_274_68" style="mask-type:luminance" maskUnits="userSpaceOnUse" x="3" y="2" width="223" height="91">
<path d="M225.674 2.66957H3.87061V92.3751H225.674V2.66957Z" fill="white"/>
</mask>
<g mask="url(#mask0_274_68)">
<path d="M39.426 51.8116C39.9161 50.8918 39.8861 49.802 39.466 48.9321C38.7259 47.4024 37.9458 45.9026 37.1857 44.3928C36.9856 44.0029 36.8056 43.593 36.6256 43.193C35.9455 41.6733 36.3655 40.3635 37.4057 39.1837C37.6757 38.8837 37.9858 38.5938 38.3258 38.3838C39.0659 37.9339 39.196 37.284 39.0159 36.5341C38.7659 35.5043 38.4158 34.4944 37.4457 33.8945C37.1456 33.7146 36.7556 33.6046 36.4055 33.6046C35.6754 33.6046 35.4154 33.8845 35.4654 34.6044C35.4954 35.1043 35.6854 35.5943 35.7354 36.0942C35.8054 36.7641 35.8855 37.444 35.7854 38.0939C35.7354 38.3938 35.2954 38.7637 34.9653 38.8337C34.7053 38.8937 34.3152 38.6038 34.0652 38.3838C33.7251 38.0739 33.4151 37.414 32.855 37.5339C32.825 37.5339 32.765 37.6339 32.765 37.6739C32.795 38.1638 32.895 38.6438 32.955 39.1337C32.965 39.3037 32.955 39.4736 32.885 39.6236C32.855 39.6836 32.785 40.1135 32.4449 40.0935C32.1049 40.0735 31.6448 39.5736 31.3948 39.1937C30.7747 38.2338 30.1746 37.234 29.7045 36.1942C29.2744 35.2343 29.4645 34.8144 30.3046 34.1945C30.7947 33.8345 31.3248 33.5146 31.8048 33.1447C32.0549 32.9547 32.665 32.7447 32.4749 32.3048C32.1549 31.5649 31.1047 32.0048 30.5646 32.3948C30.0146 32.7847 29.4845 33.2246 29.0244 33.7246C28.0943 34.7344 27.0041 35.3843 25.6339 35.6243C25.1238 35.7142 24.5937 35.9642 24.1937 36.2941C23.6136 36.7741 23.6436 37.194 24.1137 37.7839C24.4537 38.2038 24.8438 38.5938 25.1638 39.0337C25.7439 39.8236 25.6239 40.4835 24.8338 41.1634C24.0537 41.8333 23.5436 41.8333 22.7735 41.1634C22.4434 40.8734 22.1034 40.5935 21.7333 40.3635C21.1432 40.0035 20.5031 39.9636 19.903 40.3535C19.3029 40.7334 18.7428 41.1834 18.1427 41.5533C17.5927 41.8832 17.0326 42.2232 16.4325 42.4232C15.8224 42.6331 15.3923 42.3232 15.4023 41.6933C15.4223 40.7234 15.5023 39.7336 15.6824 38.7837C15.8524 37.8739 16.4525 37.254 17.3326 36.8541C18.2428 36.4441 18.9729 35.7642 19.463 34.8744C19.853 34.1745 19.803 33.7346 19.3329 33.4446C18.7328 33.0747 18.0627 33.2246 17.6427 33.8245C17.4927 34.0445 17.3826 34.3045 17.2426 34.5344C16.8025 35.2343 16.2225 35.4543 15.5224 35.0344C13.8721 34.0745 12.4819 31.4449 12.5119 31.155C12.5419 30.875 13.002 30.5551 13.142 30.4851C13.8321 30.1551 14.1221 29.5652 13.9921 28.7854C13.8621 27.9355 14.3322 27.5456 15.0223 27.2756C15.7724 26.9757 16.5325 26.6857 17.2726 26.3458C17.6027 26.1958 17.9727 26.0158 18.2028 25.7458C18.7428 25.116 19.3529 24.996 20.1231 25.2159C20.9032 25.4259 21.7033 25.5759 22.5034 25.7359C22.8235 25.8058 23.4036 25.9258 23.5936 25.8658C23.7736 25.8058 23.3635 25.2559 23.3035 24.956C23.2335 24.656 23.8636 24.3561 24.2937 24.566C24.9338 24.876 25.5639 25.1959 26.184 25.5459C26.7741 25.8758 27.3242 26.2758 27.9242 26.5957C28.5343 26.9357 28.8444 26.8357 29.1744 26.2458C29.9145 24.916 29.4845 23.3762 28.0743 23.0263C26.9941 22.7563 25.9039 22.5464 24.8038 22.3864C23.8336 22.2464 22.8435 22.2364 21.8633 22.1464C20.6531 22.0364 20.1731 21.6565 19.873 20.4867C19.703 19.8368 19.643 19.1569 19.503 18.497C19.3029 17.5572 18.6628 17.3172 18.1227 18.0871C17.4026 19.0869 16.8926 20.2467 16.3625 21.3766C16.2725 21.5665 16.4925 21.9365 16.6225 22.2064C16.8426 22.6563 17.1326 23.0763 17.3326 23.5362C17.5527 24.0561 17.3326 24.4261 16.7725 24.4561C16.1024 24.506 15.4223 24.516 14.7522 24.4561C12.5819 24.2561 10.4716 23.7762 8.51128 22.7663C7.66115 22.3264 7.21108 21.7365 7.22108 20.6867C7.22108 19.6168 6.97105 18.537 6.78102 17.4672C6.44097 15.6175 6.84103 14.7776 8.52128 13.9478C8.6413 13.8878 8.75132 13.7978 8.88134 13.7578C10.1215 13.3778 10.5516 12.418 10.5416 11.2582C10.5416 10.1984 11.0417 9.61845 11.9718 9.2985C12.2919 9.18852 12.5919 9.01855 12.912 8.92856C13.9221 8.63861 14.7822 8.15869 15.3823 7.26883C15.5324 7.04886 15.7424 6.8589 15.9324 6.66893C17.0326 5.62909 18.0527 5.53911 19.3229 6.35898C20.3231 6.99887 21.2932 7.68876 22.3334 8.24867C23.1735 8.7086 24.0937 8.6686 24.9638 8.17868C25.5739 7.83874 25.7039 7.38881 25.2638 6.8589C24.8738 6.39897 24.3837 6.01903 23.9236 5.6191C23.3835 5.14917 23.3135 4.71924 23.8236 4.25932C25.2038 3.01952 26.8541 2.43961 28.6944 2.76956C29.2444 2.86954 29.7645 3.32947 30.2146 3.7194C31.1647 4.54927 32.0649 5.39913 33.4351 5.50911C33.7651 5.53911 34.0852 5.83906 34.3852 6.05902C35.0653 6.54895 35.9555 6.24899 36.0855 6.07902C36.2055 5.90905 36.1055 5.64909 36.0855 5.41913C35.9955 4.3793 36.2955 3.82938 37.2457 3.40945C38.6059 2.80955 40.0661 2.71956 41.5263 2.71956C42.3664 2.71956 43.2066 2.86954 44.0367 3.01952C44.4468 3.0895 45.0669 3.29947 45.2269 3.47944C45.4569 3.84938 44.7168 4.30931 44.3267 4.46928C43.6366 4.75923 42.9265 4.9792 42.2464 5.27915C41.9264 5.41913 41.5263 5.40913 41.3763 5.86906C41.1163 6.66893 43.0466 7.53879 44.2567 6.96888C45.2569 6.49895 46.257 5.90905 47.0472 5.15917C49.4775 2.85954 52.318 2.68957 55.2884 3.47944C56.1986 3.7294 57.0287 4.51927 57.7188 5.22916C59.119 6.64893 59.8891 8.49863 60.7092 10.2783C61.1593 11.2582 61.7994 11.8381 62.7996 12.168C65.62 13.0779 67.4603 14.9776 68.3104 17.8171C68.6505 18.9669 68.8205 20.1468 68.6305 21.3266C68.5704 21.7065 68.2704 22.2464 67.9704 22.3364C67.6703 22.4264 67.1802 22.0964 66.8602 21.8465C66.5501 21.6065 66.3301 21.2266 66.0801 20.9166C65.59 20.3167 65.0299 19.9868 64.2198 20.3067C63.7797 20.4767 63.3096 20.5967 62.8496 20.6967C61.8794 20.9066 61.5094 20.6567 61.1693 19.7168C61.0693 19.4269 60.8193 19.0269 60.5992 18.9969C60.2992 18.9669 59.8591 19.1569 59.6691 19.4069C59.149 20.0368 58.5489 21.2566 58.999 21.6865C59.4491 22.1164 59.9991 21.8765 60.4992 21.9665C62.3395 22.3164 63.6997 24.3561 63.3296 26.1858C63.2096 26.7657 62.8596 27.0356 62.2595 27.0556C61.5894 27.0856 60.9093 27.1356 60.2592 27.2856C59.9991 27.3456 59.6791 27.6855 59.6291 27.9555C59.359 29.2053 60.5092 30.6251 61.7894 30.6151C62.0494 30.6151 62.4195 30.3551 62.5595 30.1151C63.1996 29.0253 63.5997 29.0753 64.6798 29.3253C64.9799 29.3953 65.2799 29.4752 65.55 29.5952C66.7102 30.1351 67.9003 30.1551 69.1305 29.8852C69.5206 29.7952 69.9507 29.7652 70.3307 29.8552C71.0908 30.0352 71.2309 30.715 70.6408 31.225C70.3607 31.4649 69.9907 31.5949 69.6906 31.8149C69.3406 32.0848 69.0305 32.4148 68.7105 32.7247C68.5504 32.8447 68.7705 32.9547 68.8305 32.9547C68.8905 32.9547 70.0507 32.9547 70.6608 32.9547C71.1008 32.9547 71.5409 32.9247 71.971 32.9847C72.9911 33.1247 73.5412 33.6946 73.6212 34.7444C73.7212 36.1242 73.7912 37.5239 73.8012 38.9037C73.8012 39.7336 73.9713 40.4935 74.3113 41.2533C75.1114 43.0331 75.6715 44.8828 75.3015 46.8724C75.0914 47.9923 74.5614 48.9121 73.6212 49.552C72.6511 50.2119 72.151 50.0619 71.7009 49.0121C71.3709 48.2322 70.7208 47.9723 69.9707 48.3822C69.5906 48.5922 69.2906 48.9421 68.9305 49.1921C68.5504 49.452 68.1604 49.772 67.7203 49.892C66.7402 50.1619 66.2301 49.782 66.0901 48.7821C66.0101 48.1822 65.97 47.5723 65.89 46.9624C65.84 46.5925 65.78 46.2125 65.64 45.8726C65.46 45.4127 65.1599 45.0527 64.5998 45.0327C64.0197 45.0127 63.6797 45.3727 63.5797 45.8526C63.2296 47.4723 62.6795 47.5423 61.1593 46.6325C60.5192 46.2525 59.9291 46.1026 59.269 46.5325C58.859 46.8025 58.4589 46.8224 58.0388 46.5325C56.5286 45.4727 55.0584 45.6626 53.5982 46.6425C52.638 47.2924 51.6679 47.9023 50.6977 48.5222C50.0976 48.9021 49.8476 49.442 49.7776 50.1319C49.7376 50.5918 49.5475 51.4517 49.4475 52.0016M52.368 41.0334C52.368 41.0334 52.308 41.1134 52.298 41.1634C52.248 41.2933 52.248 41.4333 52.248 41.5733C52.258 42.0532 52.248 42.5431 52.1979 43.0231C52.1379 43.633 51.8879 44.1329 51.3478 44.4428C50.2476 45.0627 48.5574 44.4428 48.1073 43.253C47.7606 42.3465 47.1305 41.9366 46.217 42.0232C46.117 42.0232 46.007 42.0232 45.917 42.0532C45.4469 42.1532 45.0569 42.0532 44.7768 41.6233C44.4768 41.1834 44.7568 40.8434 44.9868 40.5235C45.3369 40.0235 45.737 39.5636 46.087 39.0637C46.6271 38.3038 46.6271 37.7739 46.087 37.254C45.5669 36.7441 44.8268 36.6841 44.1567 37.174C42.7465 38.2038 42.1764 39.6936 42.0264 41.3633C41.9664 42.0132 42.2764 42.5831 42.8165 42.9331C43.5766 43.413 44.3768 43.8729 45.2069 44.2229C46.017 44.5628 46.5371 44.9727 46.6871 45.9326C46.8771 47.1624 47.6572 47.5223 48.8574 47.0824C49.1075 46.9924 49.3775 46.9024 49.5975 46.7525C50.8377 45.9326 52.0979 45.1327 53.2981 44.2629C53.7482 43.9329 54.1382 43.473 54.4383 42.9931C55.0084 42.0932 54.6583 41.0434 53.5982 40.8734C53.2581 40.8234 52.638 40.7334 52.388 41.0434M49.4975 24.536C49.3175 24.4261 48.4574 24.2461 47.9473 24.2961C47.0772 24.3761 46.207 24.566 45.3669 24.796C43.9667 25.1759 43.0065 26.0758 42.5265 27.4656C42.1364 28.5954 41.7864 29.7252 42.1064 30.935C42.4365 32.1948 43.5866 32.6147 44.6168 31.8049C45.0068 31.5049 45.3669 31.085 45.5669 30.6351C45.967 29.7452 46.317 28.8154 46.5571 27.8655C46.8071 26.8657 47.2972 26.1658 48.2573 25.7458C48.7274 25.5359 50.0876 24.866 49.4975 24.526M31.6648 27.5856C31.5048 27.8555 31.7048 28.5254 31.9149 28.8054C33.005 30.1951 34.5052 30.835 36.2355 30.925C36.8456 30.955 37.3657 30.5951 37.5957 30.0152C37.8358 29.4253 37.4757 28.9853 37.0156 28.6254C35.7454 27.6255 34.2852 27.1656 32.675 27.2456C32.3649 27.2656 31.8248 27.3156 31.6648 27.5856ZM36.8756 20.4267C36.9956 20.4967 37.1557 20.4367 37.1156 20.2467C36.8556 18.677 36.1255 17.2872 35.2654 15.9674C34.8253 15.2975 34.2852 14.6776 33.7151 14.1177C33.5151 13.9178 32.965 13.8278 32.745 13.9578C32.4549 14.1277 32.1549 14.5876 32.1749 14.8976C32.2349 15.8474 32.585 16.7073 33.3651 17.3572C34.2152 18.0571 35.0253 18.807 35.8555 19.5369C36.1955 19.8368 36.5356 20.1268 36.8756 20.4167M42.8265 21.8365C42.7165 21.5865 42.3064 21.3266 42.0564 21.0066C41.4163 20.1667 40.2561 18.2971 39.8961 18.0971C39.536 17.8971 39.536 19.0569 39.506 19.4269C39.416 20.5967 39.656 21.7265 40.1761 22.7563C40.3761 23.1663 40.7962 23.6562 41.2063 23.7462C41.7864 23.8762 42.2664 23.3662 42.5565 22.8663C42.7165 22.5964 42.9265 22.0964 42.8165 21.8365M34.7153 24.4361C35.4354 24.4461 35.8655 24.0361 35.7754 23.4162C35.6154 22.2364 33.9552 20.9866 32.785 21.1566C32.1849 21.2466 31.8548 21.7465 32.0049 22.3164C32.3149 23.4162 33.5851 24.4161 34.7053 24.4261M47.4672 32.4148C47.4672 32.4148 47.4972 32.4748 47.5272 32.5048C48.0073 33.0247 48.6074 33.5946 49.3675 33.6046C49.4475 33.6046 49.5175 33.6046 49.5975 33.5946C50.0976 33.5546 50.3777 33.1247 50.0876 32.7747C49.8176 32.4348 49.3975 32.1048 48.9875 32.0248C48.7174 31.9748 48.4474 31.8949 48.1773 31.9149C47.9173 31.9349 47.6873 32.0648 47.5172 32.2648C47.4772 32.3048 47.4572 32.3548 47.4672 32.4248" fill="white"/>
<path d="M49.4676 51.6217H97.3549C97.4249 49.432 97.1449 47.6623 96.7748 45.7426C95.1846 37.5339 91.594 30.3051 86.0132 24.0661C81.5325 19.0569 76.1917 15.1576 69.9908 12.548C68.5605 11.9481 64.85 10.6983 64.85 10.6983C64.85 10.6983 64.1199 8.73859 62.7796 7.10886C83.5828 10.8882 101.436 31.315 100.645 54.7612H4.2007C4.02068 46.7825 5.83095 39.2837 9.48151 32.0548C9.92158 33.5046 10.5617 34.6244 11.3018 35.6543C9.06145 40.6934 7.69124 45.9926 7.4312 51.6317H39.5361" fill="white"/>
</g>
<path d="M110.477 29.5952H113.547C115.048 33.3046 116.958 34.9844 120.658 34.9844C123.129 34.9844 124.529 33.8245 124.529 32.1048C124.529 30.0852 122.199 29.5952 118.708 28.7654C114.947 27.9055 110.697 26.6857 110.697 21.8165C110.697 17.7771 114.287 14.8976 118.748 14.8976C121.258 14.8976 123.419 15.7875 124.599 17.3072L125.329 14.9576H128.4V22.7063H125.329C123.869 19.0969 122.159 17.6472 119.198 17.6472C116.868 17.6472 115.608 18.9369 115.608 20.4267C115.608 22.6064 118.148 23.1063 121.599 23.9061C125.329 24.766 129.44 25.9258 129.44 30.6551C129.44 34.7944 125.989 37.7339 121.008 37.7339C118.148 37.7339 115.648 36.6041 114.357 35.0843L113.517 37.6639H110.487V29.5852L110.477 29.5952Z" fill="white"/>
<path d="M131.35 26.3458C131.35 19.5269 136.471 14.8976 143.122 14.8976C149.773 14.8976 154.894 19.3669 154.894 26.2858C154.894 33.2046 149.773 37.7339 143.122 37.7339C136.471 37.7339 131.35 33.2646 131.35 26.3458ZM148.693 26.3158C148.693 20.3267 146.702 17.6172 143.012 17.6172C139.321 17.6172 137.541 20.3267 137.541 26.3158C137.541 32.3048 139.531 35.0144 143.222 35.0144C146.912 35.0144 148.693 32.3348 148.693 26.3158Z" fill="white"/>
<path d="M167.966 15.4275V18.2371H164.515V34.3845H168.416C171.166 34.3845 171.766 33.7246 173.257 28.1955H176.007V37.194H155.694V34.3145H158.824V18.297H155.694V15.4175H167.956L167.966 15.4275Z" fill="white"/>
<path d="M193.46 30.2551H185.618L184.158 34.3245H187.049V37.204H178.237V34.3245H180.748L188.129 15.2975H193.84L201.121 34.3245H203.841V37.204H191.819V34.3245H194.92L193.46 30.2551ZM186.569 27.6455H192.559L189.669 19.5069H189.529L186.569 27.6455Z" fill="white"/>
<path d="M212.002 20.6267H211.682V34.3245H214.823V37.204H205.591V34.3245H208.582V18.307H205.591V15.4275H215.343L225.064 30.6551H225.374V18.307H222.244V15.4275H231.475V18.307H228.475V37.504H222.764L212.002 20.6267Z" fill="white"/>
<path d="M232.456 26.3458C232.456 19.5269 237.576 14.8976 244.227 14.8976C250.878 14.8976 255.999 19.3669 255.999 26.2858C255.999 33.2046 250.878 37.7339 244.227 37.7339C237.576 37.7339 232.456 33.2646 232.456 26.3458ZM249.798 26.3158C249.798 20.3267 247.808 17.6172 244.117 17.6172C240.427 17.6172 238.647 20.3267 238.647 26.3158C238.647 32.3048 240.637 35.0144 244.327 35.0144C248.018 35.0144 249.798 32.3348 249.798 26.3158Z" fill="white"/>
<path d="M110.317 51.6017C110.317 49.482 111.977 47.8223 113.927 47.8223C114.858 47.8223 115.598 48.1522 116.058 48.6722L116.278 47.8523H117.148V50.6918H116.278C115.788 49.372 115.058 48.6222 114.067 48.6222C112.867 48.6222 111.987 49.432 111.987 51.5217C111.987 53.4714 112.817 54.4912 114.267 54.4912C115.528 54.4912 116.258 53.5414 116.458 52.3216H117.398C117.198 54.2213 115.938 55.3711 114.047 55.3711C111.797 55.3711 110.317 53.7613 110.317 51.6117" fill="white"/>
<path d="M118.648 51.6017C118.648 49.402 120.348 47.8223 122.429 47.8223C124.509 47.8223 126.209 49.352 126.209 51.5817C126.209 53.8113 124.509 55.3611 122.429 55.3611C120.348 55.3611 118.648 53.8313 118.648 51.6017ZM124.549 51.5917C124.549 49.642 123.799 48.6222 122.419 48.6222C121.039 48.6222 120.308 49.662 120.308 51.5917C120.308 53.5214 121.059 54.5612 122.439 54.5612C123.819 54.5612 124.539 53.5314 124.539 51.5917" fill="white"/>
<path d="M127.459 54.3612H128.55V48.8121H127.459V47.9923H130.81L132.6 52.9315H132.65L134.421 47.9923H137.711V48.8121H136.571V54.3612H137.711V55.1811H134.11V54.3612H135.091V48.9521H134.991L132.65 55.1811H131.97L129.58 48.9521H129.48V54.3612H130.5V55.1811H127.459V54.3612Z" fill="white"/>
<path d="M139.361 54.3612H140.451V48.8121H139.361V47.9923H142.712L144.502 52.9315H144.552L146.322 47.9923H149.613V48.8121H148.473V54.3612H149.613V55.1811H146.012V54.3612H146.992V48.9521H146.892L144.552 55.1811H143.872L141.482 48.9521H141.382V54.3612H142.402V55.1811H139.361V54.3612Z" fill="white"/>
<path d="M152.163 52.8815V48.8121H151.103V47.9923H154.734V48.8121H153.643V52.5715C153.643 53.9413 154.324 54.4412 155.624 54.4412C156.214 54.4412 156.614 54.2712 156.924 53.9713C157.294 53.6213 157.394 53.1314 157.394 52.3316V48.8121H156.274V47.9923H159.354V48.8121H158.334V52.8515C158.334 54.1813 157.314 55.3511 155.274 55.3511C153.233 55.3511 152.153 54.3712 152.153 52.8715" fill="white"/>
<path d="M162.945 49.552H162.845V54.3612H163.975V55.1811H160.834V54.3612H161.915V48.8121H160.834V47.9923H163.645L167.195 53.1514H167.295V48.8121H166.165V47.9923H169.306V48.8121H168.226V55.3211H166.915L162.945 49.552Z" fill="white"/>
<path d="M171.146 54.3612H172.326V48.8121H171.146V47.9923H174.997V48.8121H173.816V54.3612H174.997V55.1811H171.146V54.3612Z" fill="white"/>
<path d="M178.297 54.3612H179.578V48.6921H179.167C178.187 48.6921 177.987 49.0021 177.477 50.6918H176.777V47.9923H183.858V50.6918H183.158C182.648 49.0021 182.448 48.6921 181.468 48.6921H181.048V54.3612H182.328V55.1811H178.307V54.3612H178.297Z" fill="white"/>
<path d="M190.959 48.8021H190.029V47.9923H192.799V48.8121H191.939L189.739 52.1816V54.3612H190.839V55.1811H187.169V54.3612H188.259V52.2316L186.128 48.8121H185.258V47.9923H188.809V48.8021H187.849L189.369 51.4117L190.959 48.8021Z" fill="white"/>
<path d="M197.56 51.6017C197.56 49.482 199.22 47.8223 201.171 47.8223C202.101 47.8223 202.841 48.1522 203.301 48.6722L203.521 47.8523H204.391V50.6918H203.521C203.031 49.372 202.301 48.6222 201.311 48.6222C200.11 48.6222 199.23 49.432 199.23 51.5217C199.23 53.4714 200.06 54.4912 201.511 54.4912C202.771 54.4912 203.501 53.5414 203.701 52.3216H204.641C204.441 54.2213 203.181 55.3711 201.291 55.3711C199.04 55.3711 197.56 53.7613 197.56 51.6117" fill="white"/>
<path d="M206.112 51.6017C206.112 49.402 207.812 47.8223 209.892 47.8223C211.972 47.8223 213.673 49.352 213.673 51.5817C213.673 53.8113 211.972 55.3611 209.892 55.3611C207.812 55.3611 206.112 53.8313 206.112 51.6017ZM212.012 51.5917C212.012 49.642 211.262 48.6222 209.882 48.6222C208.502 48.6222 207.772 49.662 207.772 51.5917C207.772 53.5214 208.522 54.5612 209.902 54.5612C211.282 54.5612 212.002 53.5314 212.002 51.5917" fill="white"/>
<path d="M218.993 47.9923V48.8021H217.773V54.3712H219.243C220.164 54.3712 220.334 54.1713 220.884 52.3815H221.574V55.1811H215.113V54.3612H216.283V48.8121H215.113V47.9923H218.993Z" fill="white"/>
<path d="M227.055 47.9923V48.8021H225.834V54.3712H227.305C228.225 54.3712 228.395 54.1713 228.945 52.3815H229.635V55.1811H223.174V54.3612H224.344V48.8121H223.174V47.9923H227.055Z" fill="white"/>
<path d="M231.005 54.3612H232.176V48.8121H231.005V47.9923H237.916V50.4319H237.186C236.816 49.1021 236.676 48.8021 235.756 48.8021H233.666V51.1417H234.386C235.146 51.1417 235.236 51.0318 235.426 50.0819H236.166V52.9715H235.426C235.266 52.0016 235.146 51.8916 234.386 51.8916H233.666V54.3812H235.716C236.796 54.3812 236.936 54.0213 237.286 52.5115H238.016V55.1911H230.995V54.3712L231.005 54.3612Z" fill="white"/>
<path d="M243.137 55.3611C240.987 55.3611 239.517 53.7413 239.517 51.5817C239.517 49.422 241.197 47.8223 243.137 47.8223C244.067 47.8223 244.777 48.1622 245.237 48.6822L245.468 47.8523H246.338V50.6518H245.398C244.927 49.352 244.227 48.6222 243.257 48.6222C242.087 48.6222 241.177 49.462 241.177 51.5217C241.177 53.4114 241.947 54.5012 243.367 54.5012C244.057 54.5012 244.457 54.1713 244.697 53.8013C244.907 53.5214 244.997 52.9915 244.997 52.5915V52.3516H243.647V51.5317H247.408V52.3516H246.458V55.2711H245.598L245.217 54.2513C244.787 54.9211 244.117 55.3611 243.127 55.3611" fill="white"/>
<path d="M248.748 54.3612H249.918V48.8121H248.748V47.9923H255.659V50.4319H254.929C254.559 49.1021 254.419 48.8021 253.499 48.8021H251.408V51.1417H252.129C252.889 51.1417 252.979 51.0318 253.169 50.0819H253.909V52.9715H253.169C253.009 52.0016 252.889 51.8916 252.129 51.8916H251.408V54.3812H253.459C254.539 54.3812 254.679 54.0213 255.029 52.5115H255.759V55.1911H248.738V54.3712L248.748 54.3612Z" fill="white"/>
</g>
<defs>
<clipPath id="clip0_274_68">
<rect width="262" height="62" fill="white"/>
</clipPath>
</defs>
</svg>
