<?xml version="1.0" encoding="UTF-8"?>
<svg id="Layer_2" data-name="Layer 2" xmlns="http://www.w3.org/2000/svg" viewBox="0 0 612.22 148.28">
  <defs>
    <style>
      .cls-1 {
        fill: #c29844;
      }

      .cls-2 {
        fill: #2b3668;
      }
    </style>
  </defs>
  <g id="Layer_1-2" data-name="Layer 1">
    <g>
      <path class="cls-1" d="m143.42,148.28c-28.31,0-47.34-16.22-47.34-40.37,0-5.03.63-9.89,1.86-14.48H0l6.72-15.31h13.58L48.78,13.19h-16.39L38.18,0h75.96l-3.44,2.57c-12.85,9.61-35.99,28.07-46.64,43.77-7.24,10.68-8.97,19.45-5.15,26.11,2.32-3.39,7.99-9.69,17.65-8.67,14.38,1.51,24.53,2.02,31.93,1.58,5.55-.32,11.09-1.95,16.03-4.7,11.17-6.23,24.45-9.52,38.42-9.52,10.28,0,18.34,1.86,24.59,5.67l2.46-3.01h21.05l-6.83,34.06h-22.46l.18-6.73c-4.96-6.77-15.37-8.21-23.3-8.21-21.27,0-36.13,13.01-36.13,31.64,0,13.22,10.39,21.11,27.79,21.11,14.06,0,26.89-7.96,31.92-19.8l.57-1.33,18.89,8.3-.38,1.22c-7.92,25.22-35.08,34.21-57.85,34.21ZM4.38,90.57h97.41l-.57,1.85c-1.51,4.86-2.27,10.07-2.27,15.49,0,10.94,4.11,20.27,11.89,26.99,7.97,6.88,19.24,10.52,32.58,10.52,21.38,0,46.78-8.17,54.73-30.99l-13.91-6.11c-5.84,12.15-19.29,20.22-33.96,20.22-18.9,0-30.64-9.18-30.64-23.97,0-20.31,16.03-34.5,38.99-34.5,8.76,0,20.38,1.7,25.92,9.82l.26.38-.12,4.73h17.19l5.69-28.35h-16.21l-3.23,3.95-1.08-.72c-5.91-3.97-13.79-5.89-24.1-5.89-13.29,0-26.44,3.25-37.03,9.15-5.31,2.96-11.28,4.71-17.26,5.06-7.56.44-17.86-.06-32.39-1.59-11-1.15-15.79,8.68-15.99,9.1l-1,2.11-1.43-1.84c-6.13-7.93-4.83-18.44,3.85-31.25,9.98-14.72,30.53-31.68,43.89-41.88H40.04l-3.28,7.47h16.39l-30.99,70.64h-13.58l-4.21,9.6Z"/>
      <path class="cls-2" d="m191.35,56.66l-3.23,3.95-1.08-.72c-5.91-3.97-13.79-5.89-24.1-5.89-13.29,0-26.44,3.25-37.03,9.15-5.31,2.96-11.28,4.71-17.26,5.06-7.56.44-17.86-.06-32.39-1.59-11-1.15-15.79,8.68-15.99,9.1l-1,2.11-1.43-1.84c-6.13-7.93-4.83-18.44,3.85-31.25,9.98-14.72,30.53-31.68,43.89-41.88H40.04l-3.28,7.47h16.39l-30.99,70.64h-13.58l-4.21,9.6h97.41l-.57,1.85c-1.51,4.86-2.27,10.07-2.27,15.49,0,10.94,4.11,20.27,11.89,26.99,7.97,6.88,19.24,10.52,32.58,10.52,21.38,0,46.78-8.17,54.73-30.99l-13.91-6.11c-5.84,12.15-19.29,20.22-33.96,20.22-18.9,0-30.64-9.18-30.64-23.97,0-20.31,16.03-34.5,38.99-34.5,8.76,0,20.38,1.7,25.92,9.82l.26.38-.12,4.73h17.19l5.69-28.35h-16.21Z"/>
      <path class="cls-2" d="m106.96,20.14l-3.52,2.31c-18.97,12.43-22.18,16.76-22.31,16.94l-.53.74,6.14.97c.56.09,1.08.37,1.47.8,1.4,1.52,3.32,2.35,5.36,2.35.26,0,.52-.01.78-.04,3.36-.35,6.09-3.04,6.48-6.39.22-1.92-.29-3.81-1.46-5.32-.9-1.17-.83-2.84.17-3.98l7.41-8.38Z"/>
      <path class="cls-1" d="m97.06,37.12c-.1,1.92-1.74,3.4-3.67,3.3-1.5-.08-2.73-1.1-3.15-2.47l4.29-4.37c1.53.44,2.61,1.88,2.52,3.53Z"/>
    </g>
    <g>
      <g>
        <path class="cls-2" d="m318.76,114.14c-2.43,2.27-6.12,4.34-10.75,4.34-7.03,0-11.66-5.02-11.66-11.24s4.67-11.21,11.5-11.21c3.89,0,7.71,1.52,10.24,3.69l-2.92,3.04c-1.94-1.68-4.67-2.72-6.93-2.72-4.28,0-7.03,3.27-7.03,7.22s2.82,7.22,7.19,7.22c2.88,0,5.57-1.52,7.42-3.37l2.95,3.01Z"/>
        <path class="cls-2" d="m348.39,96.03c6.71,0,12.08,5.02,12.08,11.18s-5.38,11.27-12.08,11.27-11.95-4.99-11.95-11.27,5.25-11.18,11.95-11.18Zm0,18.46c4.05,0,7.22-3.3,7.22-7.29s-3.17-7.16-7.22-7.16-7.09,3.24-7.09,7.16,3.11,7.29,7.09,7.29Z"/>
        <path class="cls-2" d="m385.71,96.68v17.17h12.44v3.98h-17.07v-21.15h4.63Z"/>
        <path class="cls-2" d="m422.21,96.68v17.17h12.44v3.98h-17.07v-21.15h4.63Z"/>
        <path class="cls-2" d="m466.52,108.79h-7.81v5.05h13.74v3.98h-18.37v-21.15h17.62v4.02h-12.99v4.11h7.81v3.98Z"/>
        <path class="cls-2" d="m509.34,102.7c-1.85-1.68-4.73-2.66-6.93-2.66-4.05,0-6.87,3.27-6.87,7.22,0,3.69,2.46,7.19,7.19,7.19,1.91,0,4.05-.52,5.38-1.43v-3.56h-6.38v-3.82h10.72v9.49c-2.75,2.04-6.61,3.3-9.91,3.3-6.77,0-11.82-4.99-11.82-11.21s5.12-11.21,11.66-11.21c3.34,0,7,1.33,10.04,3.79l-3.08,2.88Z"/>
        <path class="cls-2" d="m546.58,108.79h-7.81v5.05h13.74v3.98h-18.37v-21.15h17.62v4.02h-12.99v4.11h7.81v3.98Z"/>
      </g>
      <g>
        <path class="cls-1" d="m236.62,86.59v-32.79h9.69v23.97h31.29v8.81h-40.97Z"/>
        <path class="cls-1" d="m286.53,86.59v-32.79h39.42v7.56h-29.69v4.99h28.72v6.88h-28.72v5.04h30.37v8.33h-40.1Z"/>
        <path class="cls-1" d="m386.81,86.59v-22.91l-16.18,22.91h-7.85l-16.22-22.91v22.91h-9.01v-32.79h13.85l15.5,21.65,15.3-21.65h13.66v32.79h-9.06Z"/>
        <path class="cls-1" d="m429.67,87.66c-14.92,0-23.15-4.26-23.15-17.44s8.23-17.43,23.15-17.43,23.15,4.26,23.15,17.43-8.18,17.44-23.15,17.44Zm0-27.07c-10.27,0-12.93,2.52-12.93,9.64s2.66,9.59,12.93,9.59,13.03-2.52,13.03-9.59-2.66-9.64-13.03-9.64Z"/>
        <path class="cls-1" d="m485.18,87.66c-14.92,0-23.15-4.26-23.15-17.44s8.23-17.43,23.15-17.43,23.15,4.26,23.15,17.43-8.18,17.44-23.15,17.44Zm0-27.07c-10.27,0-12.93,2.52-12.93,9.64s2.66,9.59,12.93,9.59,13.03-2.52,13.03-9.59-2.66-9.64-13.03-9.64Z"/>
        <path class="cls-1" d="m550.74,86.59c-2.71-2.91-4.75-6.83-5.91-10.7h-16.13v10.7h-9.69v-32.79h28.53c9.59,0,14.19,4.21,14.19,10.75,0,4.75-2.66,8.67-7.26,9.98,1.36,3.88,3.97,8.09,7.99,12.06h-11.72Zm-22.04-25.04v7.17h18.79c2.13,0,3.97-.19,3.97-3.88,0-2.52-1.84-3.29-4.02-3.29h-18.74Z"/>
        <path class="cls-1" d="m572.12,86.59v-32.79h39.42v7.56h-29.69v4.99h28.72v6.88h-28.72v5.04h30.37v8.33h-40.1Z"/>
      </g>
    </g>
  </g>
</svg>