<?xml version="1.0" encoding="UTF-8"?>
<svg id="Layer_2" data-name="Layer 2" xmlns="http://www.w3.org/2000/svg" viewBox="0 0 567.86 151.56">
  <defs>
    <style>
      .cls-1 {
        fill: #9c2234;
      }

      .cls-2 {
        fill: #2e5198;
      }
    </style>
  </defs>
  <g id="Layer_1-2" data-name="Layer 1">
    <g>
      <g>
        <path class="cls-1" d="m151.11,84.36v-29.67c0-9.16,4.78-13.86,14.17-13.86h17.61c9.39,0,14.17,4.7,14.17,13.78,0,.63,0,.86-.08,1.17l-14.01,1.64v-.47c0-3.13-1.1-4.15-4.3-4.15h-9.16c-3.21,0-4.3,1.02-4.3,4.15v25.13c0,3.05,1.1,4.15,4.3,4.15h9.16c3.21,0,4.3-1.1,4.3-4.15v-.55l14.01,1.72c.08.31.08.47.08,1.1,0,9.16-4.78,13.86-14.17,13.86h-17.61c-9.39,0-14.17-4.7-14.17-13.86Z"/>
        <path class="cls-1" d="m253.05,54.69v29.67c0,9.16-4.78,13.86-14.17,13.86h-17.61c-9.39,0-14.17-4.7-14.17-13.86v-29.67c0-9.16,4.78-13.86,14.17-13.86h17.61c9.39,0,14.17,4.7,14.17,13.86Zm-18.4-1.88h-9.16c-3.21,0-4.3,1.02-4.3,4.15v25.13c0,3.05,1.1,4.15,4.3,4.15h9.16c3.21,0,4.3-1.1,4.3-4.15v-25.13c0-3.13-1.1-4.15-4.3-4.15Z"/>
        <path class="cls-1" d="m298.51,85.45h-19.73l-3.6,11.98h-14.4l17.61-55.82h20.59l17.61,55.82h-14.48l-3.6-11.98Zm-3.6-12.06l-6.19-20.67-6.26,20.67h12.45Z"/>
        <path class="cls-1" d="m364.84,85.45v11.98h-38.75v-55.82h14.09v43.84h24.66Z"/>
        <path class="cls-1" d="m374.32,41.62h14.09v55.82h-14.09v-55.82Z"/>
        <path class="cls-1" d="m447.43,41.62v55.82h-13.7l-19.96-32.49v32.49h-14.09v-55.82h13.62l20.04,32.49v-32.49h14.09Z"/>
        <path class="cls-1" d="m478.79,64.94h25.52v19.41c0,9.16-4.78,13.86-14.17,13.86h-17.61c-9.39,0-14.17-4.7-14.17-13.86v-29.67c0-9.16,4.78-13.86,14.17-13.86h17.61c9.39,0,14.17,4.7,14.17,13.78,0,.63,0,.86-.08,1.17l-14.01,1.64v-.47c0-3.13-1.1-4.15-4.3-4.15h-9.16c-3.21,0-4.3,1.02-4.3,4.15v25.13c0,3.05,1.1,4.15,4.3,4.15h9.16c3.21,0,4.3-1.1,4.3-4.15v-5.09h-11.43v-12.06Z"/>
        <path class="cls-1" d="m549.77,85.45h-19.73l-3.6,11.98h-14.4l17.61-55.82h20.59l17.61,55.82h-14.48l-3.6-11.98Zm-3.6-12.06l-6.19-20.67-6.26,20.67h12.45Z"/>
      </g>
      <g>
        <path class="cls-2" d="m224.59,135.95c-1.38,1.49-2.85,2.63-4.38,3.39-1.5.74-3.3,1.12-5.35,1.12-1.67,0-3.2-.41-4.56-1.23-1.39-.84-2.61-1.93-3.62-3.25-1.02-1.33-1.81-2.82-2.35-4.45-.54-1.62-.82-3.23-.82-4.81s.27-3.15.79-4.54c.52-1.38,1.26-2.59,2.2-3.61.94-1.01,2.09-1.82,3.43-2.41,2.04-.9,4.6-1.23,7.27-.51.95.26,1.89.61,2.79,1.04.91.43,1.77.95,2.57,1.54.8.58,1.5,1.22,2.1,1.9l1.36,1.55-.61-7.28-.31-.18c-3.3-1.88-6.89-2.84-10.65-2.84-2.3,0-4.54.42-6.67,1.26-2.12.84-4.04,2.02-5.7,3.51-1.67,1.49-3.02,3.28-4.01,5.32-1,2.05-1.51,4.3-1.51,6.67s.49,4.67,1.47,6.65c.97,1.97,2.29,3.67,3.93,5.06,1.63,1.38,3.53,2.46,5.64,3.21,2.11.74,4.34,1.12,6.62,1.12s4.48-.39,6.48-1.15c2-.76,3.9-1.88,5.66-3.33l.35-.29-1.33-4.36-.8.87Z"/>
        <path class="cls-2" d="m280.42,115.62c-1.65-1.37-3.57-2.42-5.72-3.14-4.25-1.42-9.1-1.5-13.39.22-2.14.85-4.06,2.04-5.7,3.53-1.65,1.49-2.99,3.28-3.98,5.32-1,2.05-1.51,4.3-1.51,6.67s.5,4.68,1.49,6.66c.99,1.97,2.31,3.66,3.93,5.03,1.62,1.37,3.51,2.44,5.62,3.19,2.11.74,4.34,1.12,6.62,1.12s4.56-.42,6.73-1.26c2.17-.84,4.12-2.01,5.79-3.48,1.68-1.48,3.05-3.26,4.08-5.3,1.04-2.06,1.56-4.33,1.56-6.77s-.51-4.77-1.52-6.75c-1-1.96-2.34-3.66-4-5.04Zm-12.42-.33c1.04,0,2.05.23,3.02.68,1,.47,1.95,1.08,2.82,1.82.86.74,1.64,1.58,2.3,2.51.66.93,1.2,1.88,1.59,2.81.31.8.56,1.61.73,2.42.18.82.31,1.67.4,2.61.02.1.03.2.03.31v.45c0,1.63-.26,3.17-.77,4.57-.5,1.39-1.24,2.62-2.18,3.65-.94,1.02-2.09,1.85-3.43,2.45-1.33.6-2.85.91-4.52.91-1.07,0-2.11-.24-3.09-.7-1.02-.48-1.98-1.12-2.86-1.9-.88-.78-1.67-1.68-2.35-2.65-.67-.97-1.2-1.95-1.57-2.93-.31-.76-.55-1.54-.71-2.31s-.27-1.59-.34-2.53c-.02-.09-.03-.18-.03-.26v-.41c0-1.62.27-3.15.79-4.54.52-1.38,1.27-2.61,2.21-3.63.94-1.02,2.09-1.84,3.42-2.43,1.33-.59,2.85-.89,4.52-.89Z"/>
        <path class="cls-2" d="m328.8,139.93c-.83.33-1.65.49-2.43.49h-7.65v-23.61c0-.83.06-1.58.19-2.23.12-.65.36-1.35.69-2.07l.45-.97h-9.2l.44.96c.34.74.57,1.44.69,2.08.13.67.19,1.42.19,2.24v22.08c0,.46-.01.85-.04,1.18-.03.32-.07.63-.13.92-.05.28-.14.57-.24.87-.11.31-.27.69-.47,1.11l-.45.97h20.03l1.89-5.61-1.38.56c-.81.33-1.67.67-2.58,1.03Z"/>
        <path class="cls-2" d="m373.6,139.93c-.83.33-1.65.49-2.43.49h-7.65v-23.61c0-.83.06-1.58.19-2.23.12-.65.36-1.35.69-2.07l.45-.97h-9.2l.44.96c.34.74.57,1.44.69,2.08.13.67.19,1.42.19,2.24v22.08c0,.46-.01.85-.04,1.18-.03.32-.07.63-.13.92-.05.28-.14.57-.24.87-.11.31-.27.69-.47,1.11l-.45.97h20.03l1.89-5.61-1.38.56c-.81.33-1.67.67-2.58,1.03Z"/>
        <path class="cls-2" d="m418.58,140.02c-.81.26-1.68.4-2.56.4h-7.79v-13.51h10.17l1.18-3.52h-11.35v-8.33h7.3c.82,0,1.64.14,2.44.41.86.29,1.71.59,2.55.9l1.52.56-2.42-5.39h-19.25l.44.96c.33.73.57,1.42.69,2.07.13.66.19,1.41.19,2.24v22.08c0,.46-.01.85-.04,1.18-.03.32-.07.63-.13.92-.05.28-.14.57-.24.86-.12.32-.27.69-.48,1.12l-.45.97h19.99l2.36-5.4-1.51.57c-.86.33-1.73.63-2.6.91Z"/>
        <path class="cls-2" d="m466.46,129.99c.22.47.42,1.02.61,1.7.18.62.27,1.2.27,1.71v6.19c-.69.3-1.4.52-2.12.65-.87.16-1.78.24-2.69.24-1.64,0-3.17-.41-4.52-1.21-1.39-.82-2.59-1.9-3.59-3.2-1-1.32-1.8-2.8-2.35-4.41-.56-1.6-.84-3.19-.84-4.73,0-1.62.26-3.17.77-4.59.51-1.41,1.24-2.64,2.18-3.67.94-1.02,2.09-1.85,3.43-2.45,2.05-.93,4.61-1.23,7.28-.55.94.24,1.88.59,2.78,1.03.91.45,1.77.97,2.58,1.56.8.58,1.5,1.22,2.1,1.9l1.36,1.55-.61-7.28-.31-.18c-3.3-1.88-6.89-2.84-10.65-2.84-2.3,0-4.55.42-6.69,1.26-2.14.84-4.06,2.02-5.71,3.51-1.65,1.49-2.99,3.28-3.98,5.32-1,2.05-1.51,4.31-1.51,6.72s.51,4.77,1.52,6.75c1,1.97,2.35,3.65,4,5.02,1.65,1.35,3.57,2.41,5.71,3.14,2.13.73,4.39,1.1,6.71,1.1,1.87,0,3.81-.19,5.78-.55,1.99-.37,3.87-1,5.57-1.87l.37-.19v-8.21c0-.5.09-1.08.27-1.71h0c.18-.65.39-1.22.61-1.7l.46-.97h-9.22l.46.97Z"/>
        <path class="cls-2" d="m520.89,139.11c-.86.33-1.73.63-2.6.91-.81.26-1.68.4-2.56.4h-7.79v-13.51h10.17l1.18-3.52h-11.35v-8.33h7.3c.82,0,1.64.14,2.44.41.86.29,1.71.59,2.55.9l1.52.56-2.42-5.39h-19.25l.44.96c.33.73.57,1.42.69,2.07.13.66.19,1.41.19,2.24v22.08c0,.46-.01.85-.04,1.18-.03.32-.07.63-.13.92-.05.28-.14.57-.24.86-.12.32-.27.69-.48,1.12l-.45.97h19.99l2.36-5.4-1.51.57Z"/>
      </g>
      <g>
        <path class="cls-2" d="m94.74,134.12c0,1.1-.9,2-2,2h-46.24c-1.1,0-2-.9-2-2v-14.73h-15.44v14.73c0,9.61,7.82,17.44,17.44,17.44h46.24c9.61,0,17.44-7.82,17.44-17.44v-23.4h-15.44v23.4ZM46.51,40.83c-9.62,0-17.44,7.82-17.44,17.44v28.34h15.44v-28.34c0-1.1.9-2,2-2h48.23v25.39h15.44v-40.83h-63.67Z"/>
        <path class="cls-2" d="m65.67,93.29c0,1.1-.9,2-2,2H17.44c-1.1,0-2-.9-2-2V17.44c0-1.1.9-2,2-2h48.23v13.87h15.44V0H17.44C7.82,0,0,7.82,0,17.44v75.85c0,9.61,7.82,17.44,17.44,17.44h46.24c9.61,0,17.44-7.82,17.44-17.44v-23.4h-15.44v23.4Z"/>
      </g>
    </g>
  </g>
</svg>