<svg id="Layer_1" data-name="Layer 1" xmlns="http://www.w3.org/2000/svg" viewBox="0 0 234 162"><defs><style>.cls-1,.cls-2{fill:#fff;}.cls-1{fill-rule:evenodd;}</style></defs><path class="cls-1" d="M84.3,134.58a4,4,0,0,0,7.08.06c1-1.43,1.47-3.72,1.47-6.87s-.5-5.48-1.49-6.9a4,4,0,0,0-7.06.09c-1,1.46-1.45,3.73-1.45,6.81s.49,5.34,1.45,6.81m-1.74-14.31a6.72,6.72,0,0,1,10.6,0,13.06,13.06,0,0,1-.08,15,6.71,6.71,0,0,1-10.67-.27,11.52,11.52,0,0,1-2.2-7.28,11.32,11.32,0,0,1,2.35-7.5"/><path class="cls-2" d="M96.63,136.89a2.86,2.86,0,0,0,1.66-.57,3.39,3.39,0,0,0,.39-2.06v-13a3.56,3.56,0,0,0-.38-2,2.32,2.32,0,0,0-1.67-.6v-.54h6.59v.54a2.76,2.76,0,0,0-1.73.52,2.87,2.87,0,0,0-.43,1.9v14a2,2,0,0,0,.12.77.75.75,0,0,0,.58.34,4.87,4.87,0,0,0,.55.06h1.1a9.25,9.25,0,0,0,4.2-.64c.73-.43,1.44-1.52,2.12-3.28h.59l-1.14,5.06H96.63Z"/><path class="cls-2" d="M110.88,136.89a2.86,2.86,0,0,0,1.66-.57,3.39,3.39,0,0,0,.39-2.06v-13a3.56,3.56,0,0,0-.38-2,2.32,2.32,0,0,0-1.67-.6v-.54h6.59v.54a2.78,2.78,0,0,0-1.73.52,2.94,2.94,0,0,0-.43,1.9v14a1.84,1.84,0,0,0,.13.77.72.72,0,0,0,.58.34,4.46,4.46,0,0,0,.54.06h1.1a9.25,9.25,0,0,0,4.2-.64c.73-.43,1.44-1.52,2.12-3.28h.59l-1.14,5.06H110.88Z"/><path class="cls-2" d="M125.13,136.89a2.93,2.93,0,0,0,1.67-.57,3.49,3.49,0,0,0,.38-2.06v-13a3.58,3.58,0,0,0-.37-2,2.33,2.33,0,0,0-1.68-.6v-.54h12.4l.08,4.19H137a4.55,4.55,0,0,0-.89-2.51,4.08,4.08,0,0,0-2.64-.57h-3.17q-.51,0-.63.21a1.66,1.66,0,0,0-.12.77v6.51h3.59c1,0,1.63-.18,1.9-.55a5.48,5.48,0,0,0,.67-2.25h.54v6.75h-.54a5.43,5.43,0,0,0-.68-2.23c-.27-.37-.9-.56-1.89-.56h-3.59v7.23c0,.58.15.92.44,1a11.44,11.44,0,0,0,2.63.16,7.26,7.26,0,0,0,3.49-.64,5.84,5.84,0,0,0,2-3.15h.65l-1.06,4.93H125.13Z"/><path class="cls-2" d="M150.42,118.23a8.62,8.62,0,0,0,1.51.47.87.87,0,0,0,.7-.24,1.83,1.83,0,0,0,.37-.7h.51l.18,6.15h-.53a11.79,11.79,0,0,0-1.49-3.17,4.28,4.28,0,0,0-3.58-1.82,5,5,0,0,0-4,2.14q-1.69,2.11-1.69,7a10.32,10.32,0,0,0,1.69,6.3,5.1,5.1,0,0,0,4.2,2.27,6.62,6.62,0,0,0,1-.1,4.82,4.82,0,0,0,1.08-.32,3,3,0,0,0,1-.58,1.21,1.21,0,0,0,.2-.74v-4.66a3.51,3.51,0,0,0-.39-2.1,2.53,2.53,0,0,0-1.66-.51v-.54h5.95v.54a1.85,1.85,0,0,0-1.15.35,2.69,2.69,0,0,0-.48,1.89v5.74c0,.34-.67.8-2,1.37a9.78,9.78,0,0,1-3.86.85,7.59,7.59,0,0,1-5.76-2.49,10.33,10.33,0,0,1-2.59-7.39,11.8,11.8,0,0,1,2.06-7,7,7,0,0,1,6-3.21,7.89,7.89,0,0,1,2.66.47"/><path class="cls-2" d="M156.23,136.89a2.93,2.93,0,0,0,1.67-.57,3.49,3.49,0,0,0,.38-2.06v-13a3.58,3.58,0,0,0-.37-2,2.33,2.33,0,0,0-1.68-.6v-.54h12.4l.08,4.19h-.6a4.64,4.64,0,0,0-.88-2.51,4.13,4.13,0,0,0-2.65-.57h-3.16c-.35,0-.56.07-.64.21a1.66,1.66,0,0,0-.12.77v6.51h3.59c1,0,1.63-.18,1.91-.55a5.68,5.68,0,0,0,.66-2.25h.54v6.75h-.54a5.43,5.43,0,0,0-.68-2.23c-.27-.37-.9-.56-1.89-.56h-3.59v7.23c0,.58.15.92.44,1a11.44,11.44,0,0,0,2.63.16,7.33,7.33,0,0,0,3.5-.64,5.89,5.89,0,0,0,2-3.15h.65l-1.06,4.93H156.23Z"/><path class="cls-1" d="M102.57,107.22a3.84,3.84,0,0,0,6.82.06c1-1.37,1.42-3.55,1.42-6.56s-.48-5.23-1.43-6.58a3.84,3.84,0,0,0-6.81.08q-1.39,2.1-1.39,6.5t1.39,6.5m-1.68-13.65a6.54,6.54,0,0,1,10.23,0,10.75,10.75,0,0,1,2.25,7.14,10.61,10.61,0,0,1-2.33,7.21,6.5,6.5,0,0,1-10.29-.26,11,11,0,0,1-2.12-7,10.8,10.8,0,0,1,2.26-7.15"/><path class="cls-2" d="M114.46,109.43a2.46,2.46,0,0,0,1.79-.78,6.23,6.23,0,0,0,.39-2.81V94.52a3.29,3.29,0,0,0-.39-2,2.5,2.5,0,0,0-1.74-.54V91.5H119l5.2,14,5-14h4.47V92a2.28,2.28,0,0,0-1.61.57,3.41,3.41,0,0,0-.36,1.93v12.39a3.44,3.44,0,0,0,.36,2,2.55,2.55,0,0,0,1.61.56v.5h-6.3v-.5c.91-.09,1.47-.29,1.69-.6a4.53,4.53,0,0,0,.34-2.24V94.07l-5.75,15.86h-.31l-5.65-15.2v11.11a5.44,5.44,0,0,0,.54,3,2.44,2.44,0,0,0,1.57.61v.5h-5.28Z"/><path class="cls-2" d="M134.45,109.43a2.44,2.44,0,0,0,1.79-.78,6.23,6.23,0,0,0,.39-2.81V94.52a3.31,3.31,0,0,0-.38-2A2.56,2.56,0,0,0,134.5,92V91.5H139l5.21,14,5-14h4.48V92a2.28,2.28,0,0,0-1.61.57,3.31,3.31,0,0,0-.37,1.93v12.39a3.34,3.34,0,0,0,.37,2,2.55,2.55,0,0,0,1.61.56v.5h-6.3v-.5c.91-.09,1.47-.29,1.69-.6a4.65,4.65,0,0,0,.34-2.24V94.07l-5.75,15.86h-.31l-5.66-15.2v11.11a5.44,5.44,0,0,0,.54,3,2.47,2.47,0,0,0,1.57.61v.5h-5.28Z"/><path class="cls-2" d="M160.88,91.5V92a2.6,2.6,0,0,0-1.68.54,3.22,3.22,0,0,0-.39,2v8.91a9.58,9.58,0,0,0,.49,3.41,3.36,3.36,0,0,0,3.41,2.23,3.62,3.62,0,0,0,3.7-2.28,10.82,10.82,0,0,0,.53-4V95.6a5.67,5.67,0,0,0-.44-2.85,2.36,2.36,0,0,0-1.67-.73V91.5H170V92a2.36,2.36,0,0,0-1.72.79,6.15,6.15,0,0,0-.39,2.79v7.24a11.58,11.58,0,0,1-.71,4.51,5,5,0,0,1-5,3,4.92,4.92,0,0,1-5-2.94,10.12,10.12,0,0,1-.72-4.16V94.52a3.24,3.24,0,0,0-.38-1.94A2.54,2.54,0,0,0,154.5,92V91.5Z"/><path class="cls-2" d="M170.68,109.43a2.44,2.44,0,0,0,1.79-.78,6,6,0,0,0,.4-2.81V93.56l-.31-.45a2.67,2.67,0,0,0-.84-.89,2.76,2.76,0,0,0-1-.2V91.5h3.86l8.66,13.41V95.6a5.36,5.36,0,0,0-.55-3,2.39,2.39,0,0,0-1.6-.58V91.5h5.28V92a2.33,2.33,0,0,0-1.71.78,5.65,5.65,0,0,0-.43,2.8v14.66h-.38L173.86,95v10.86a5.44,5.44,0,0,0,.54,3,2.44,2.44,0,0,0,1.57.61v.5h-5.29Z"/><path class="cls-2" d="M187,109.43a3.24,3.24,0,0,0,1.78-.5,3.18,3.18,0,0,0,.41-2V94.52a3.16,3.16,0,0,0-.41-2A2.66,2.66,0,0,0,187,92V91.5h6.66V92a2.66,2.66,0,0,0-1.78.53,3.16,3.16,0,0,0-.41,2v12.39a3.18,3.18,0,0,0,.41,2,3.24,3.24,0,0,0,1.78.5v.5H187Z"/><path class="cls-2" d="M194.6,91.5h12.7l.12,4.74h-.53a6.45,6.45,0,0,0-1-2.9,3.5,3.5,0,0,0-2.56-.68h-1.25v14.25a3.19,3.19,0,0,0,.4,2,3.27,3.27,0,0,0,1.78.5v.5h-6.56v-.5a2.65,2.65,0,0,0,1.78-.59,4.26,4.26,0,0,0,.36-2.25V92.66h-1.26a3.67,3.67,0,0,0-2.54.66,5.51,5.51,0,0,0-1,2.92h-.55Z"/><path class="cls-2" d="M214.68,91.5V92a2.72,2.72,0,0,0-1.18.15.74.74,0,0,0-.4.76,1.71,1.71,0,0,0,.07.45,3.33,3.33,0,0,0,.29.69l3.33,6.19L220,94a3.14,3.14,0,0,0,.25-.66,1.4,1.4,0,0,0,.07-.38.76.76,0,0,0-.52-.78,3.08,3.08,0,0,0-1-.14V91.5h4.92V92a2,2,0,0,0-1.22.5,9.59,9.59,0,0,0-1.88,2.68l-3.33,6.29v5.42a3.13,3.13,0,0,0,.42,2,3.44,3.44,0,0,0,1.9.49v.5h-6.87v-.5a2.81,2.81,0,0,0,1.88-.56,4.26,4.26,0,0,0,.38-2.28v-4.85L212,96.4a32.55,32.55,0,0,0-2.15-3.54,2,2,0,0,0-1.49-.84V91.5Z"/><path class="cls-1" d="M80.68,79.14a4.45,4.45,0,0,0,7.82.06c1.09-1.54,1.63-4,1.63-7.39s-.55-5.89-1.64-7.42a4.44,4.44,0,0,0-7.81.1q-1.61,2.36-1.6,7.32c0,3.3.53,5.75,1.6,7.33M78.75,63.75a7.58,7.58,0,0,1,11.73,0,11.94,11.94,0,0,1,2.58,8,11.84,11.84,0,0,1-2.67,8.13,7.56,7.56,0,0,1-11.8-.3,12.17,12.17,0,0,1-2.43-7.83,12,12,0,0,1,2.59-8.06"/><path class="cls-1" d="M99.31,79.14a4.45,4.45,0,0,0,7.82.06c1.09-1.54,1.63-4,1.63-7.39s-.55-5.89-1.64-7.42a4.44,4.44,0,0,0-7.81.1q-1.61,2.36-1.6,7.32c0,3.3.53,5.75,1.6,7.33M97.38,63.75a7.58,7.58,0,0,1,11.73,0,11.94,11.94,0,0,1,2.58,8A11.84,11.84,0,0,1,109,79.94a7.56,7.56,0,0,1-11.8-.3,12.17,12.17,0,0,1-2.43-7.83,12,12,0,0,1,2.59-8.06"/><path class="cls-1" d="M118.25,80.78a2.36,2.36,0,0,0,1.29.24,8.12,8.12,0,0,0,5-1.45q3-2.23,3-7.65,0-4.83-2.47-7.27a7.62,7.62,0,0,0-5.6-2.08,2.22,2.22,0,0,0-1.19.23c-.2.15-.3.49-.3,1v16a1.28,1.28,0,0,0,.3,1m-5.18.84A3.29,3.29,0,0,0,114.9,81a3.6,3.6,0,0,0,.43-2.22v-14a3.85,3.85,0,0,0-.41-2.2,2.78,2.78,0,0,0-1.85-.62v-.58h7A11.66,11.66,0,0,1,126,62.83q4.39,2.53,4.39,9a12.55,12.55,0,0,1-.8,4.46,9.15,9.15,0,0,1-2.36,3.58,7.89,7.89,0,0,1-2.1,1.39,11.82,11.82,0,0,1-4.86.89h-7.16Z"/><path class="cls-2" d="M131.57,81.62a3.27,3.27,0,0,0,1.84-.61,3.67,3.67,0,0,0,.43-2.22v-14a3.71,3.71,0,0,0-.42-2.17,2.65,2.65,0,0,0-1.85-.65v-.58h7.29V62a3.07,3.07,0,0,0-1.91.57,3,3,0,0,0-.48,2V79.69a2.1,2.1,0,0,0,.14.83.8.8,0,0,0,.64.37,5.54,5.54,0,0,0,.6.06h1.22a10.47,10.47,0,0,0,4.64-.69c.81-.46,1.59-1.63,2.35-3.52h.65l-1.26,5.44H131.57Z"/><path class="cls-1" d="M158.55,74.13l-3-8.65-2.95,8.65Zm-11.13,8.06v-.57a2,2,0,0,0,1.48-.92,26.15,26.15,0,0,0,1.71-4.24L156,61.05h.51l6.42,17.8a8.46,8.46,0,0,0,1,2.2,2.22,2.22,0,0,0,1.3.57v.57h-6.56v-.57a5.22,5.22,0,0,0,1.46-.29q.33-.18.33-.87a5.1,5.1,0,0,0-.13-.82,12.23,12.23,0,0,0-.35-1.22l-1.07-3h-6.76c-.67,2-1.07,3.31-1.2,3.77a4.08,4.08,0,0,0-.19,1.07,1.17,1.17,0,0,0,.53,1.11,3.51,3.51,0,0,0,1.23.27v.57Z"/><path class="cls-2" d="M166,81.62a2.81,2.81,0,0,0,2-.87,6.94,6.94,0,0,0,.45-3.17V63.73l-.35-.5a3,3,0,0,0-1-1A3,3,0,0,0,166,62v-.58h4.42l9.94,15.11V66c0-1.72-.21-2.85-.63-3.37a2.84,2.84,0,0,0-1.84-.66v-.58h6.06V62a2.76,2.76,0,0,0-2,.88,6.32,6.32,0,0,0-.49,3.15V82.56H181L169.6,65.34V77.58c0,1.71.2,2.83.62,3.35a2.72,2.72,0,0,0,1.8.69v.57H166Z"/><path class="cls-1" d="M189.9,80.78a2.33,2.33,0,0,0,1.29.24,8.09,8.09,0,0,0,5-1.45q3-2.23,3-7.65,0-4.83-2.47-7.27a7.63,7.63,0,0,0-5.6-2.08,2.2,2.2,0,0,0-1.19.23c-.2.15-.3.49-.3,1v16a1.28,1.28,0,0,0,.3,1m-5.19.84a3.3,3.3,0,0,0,1.84-.61,3.6,3.6,0,0,0,.43-2.22v-14a3.85,3.85,0,0,0-.41-2.2,2.79,2.79,0,0,0-1.86-.62v-.58h7a11.66,11.66,0,0,1,5.94,1.41q4.38,2.53,4.39,9a12.55,12.55,0,0,1-.8,4.46,9.06,9.06,0,0,1-2.37,3.58,7.84,7.84,0,0,1-2.09,1.39,11.89,11.89,0,0,1-4.86.89h-7.17Z"/><path class="cls-1" d="M96.9,101.39c-.11-.29-.4-.28-.73-.36-.26.14-.53.28-.62.59a16.23,16.23,0,0,0-1.32,1.17c-.25.23-.63.35-.79.68-.62.31-1.1.85-1.7,1.2-.32.19-.62.38-.91.59-.48.33-1,.51-1.44.85a3.58,3.58,0,0,1-.35.09,4.81,4.81,0,0,1-1.65.85c-.51.19-1,.49-1.47.68a6.36,6.36,0,0,0-1.38.58c-.24,0-.41.11-.58.18s-.22,0-.36.06c-.42.11-.83.34-1.26.44-.1,0-.22,0-.32,0s-.38.15-.59.2-.44.06-.64.12-.37.26-.62.12c-1.16.45-2.53.32-3.64.64-.71-.07-1.57.21-2.35.18-.32,0-.62.06-.91.06-.67,0-1.3-.08-2-.09-.23.15-.5,0-.74,0-.07,0-.13.06-.2.06-.28,0-.56-.14-.85-.15-.13,0-.25,0-.38,0s-.31-.1-.47-.12-.3,0-.45,0-.3-.11-.46-.14c-.49-.11-1.07-.15-1.59-.24-.27,0-.54-.15-.82-.2-.49-.09-1-.08-1.17-.33-.53-.12-.91-.25-1.33-.35s-.79-.15-1-.38a7.79,7.79,0,0,1-1-.32,4.05,4.05,0,0,1-.35-.21c-.15-.07-.33-.06-.47-.12a5.21,5.21,0,0,1-.68-.44c-.08,0-.2-.06-.29-.11l-1.15-.62c-.1-.06-.23-.1-.32-.15s-.18-.19-.29-.26-.27-.12-.39-.21l-.64-.5a13.5,13.5,0,0,0-1.35-.93,1.47,1.47,0,0,0-.65-.53c-.09-.32-.54-.4-.59-.74-.56-.27-.78-.88-1.32-1.17a.85.85,0,0,0-.44-.5,10.41,10.41,0,0,0-1-1.23,4.84,4.84,0,0,0-.3-.44,2.6,2.6,0,0,0-.38-.36.62.62,0,0,1-.09-.29c-.42-.27-.49-.85-.85-1.11a13,13,0,0,0-1.2-1.82c-.18-.29-.28-.64-.44-.94a2.35,2.35,0,0,1-.44-.88,3.61,3.61,0,0,0-.35-.33c-.16-.69-.72-1.18-.71-1.79-.23-.23-.25-.57-.41-.88s-.4-.57-.47-.76,0-.22,0-.32a4.53,4.53,0,0,0-.23-.44c-.23-.56-.42-1-.62-1.56-.13-.35-.34-.68-.44-1s-.18-.87-.29-1.32a6.32,6.32,0,0,1-.3-1A5.87,5.87,0,0,1,43,83.57c-.06-.24-.25-.44-.32-.68a2.91,2.91,0,0,1,0-.32,6.64,6.64,0,0,0-.32-1.09,12.47,12.47,0,0,0-.41-2c0-1.13-.62-2-.56-2.88a3.51,3.51,0,0,0-.06-.82,10.52,10.52,0,0,0-.32-1.88c0-.12,0-.1.06-.2s-.09-.22-.09-.35.06-.24.06-.39a2.62,2.62,0,0,1,0-.61c.15-.6,1.66-.6,2.29-.8a4,4,0,0,1,.91-.14,23,23,0,0,1,3-.27c.6,0,1.18-.08,1.73-.08s.8.1,1.18.08a9.7,9.7,0,0,1,1.32,0c.17,0,.34.11.53.12.53,0,1.18-.14,1.58.15a2.07,2.07,0,0,1,.82.06c.42.08.78.12,1.23.23.86.2,1.64.35,2.47.59.34.1.69.16,1,.26s.47.24.73.36.61.15.85.26.16.17.24.21.24,0,.35,0a3.51,3.51,0,0,1,.56.44,3.07,3.07,0,0,1,1.26.77,3.12,3.12,0,0,1,.41.14,3.19,3.19,0,0,1,.41,1.09c0,.14.13.25.18.38.12.34.15.72.26,1,0,.12.17.21.21.32s0,.29.06.41c.09.37.23.68.35,1s.15.49.23.73.22.49.27.71,0,.23,0,.35.24.48.32.73.11.62.21.89c0,.1.13.18.17.29.1.26.09.55.18.82a3.35,3.35,0,0,0,.15.35,10,10,0,0,0,.67,1.76,1.69,1.69,0,0,0,0,.33c.29.29.16.79.44,1a1.24,1.24,0,0,0,1,0c.38-.18.36-.55.5-1a3.78,3.78,0,0,0,.17-.35c0-.14,0-.32.06-.47s.1-.11.12-.17,0-.28,0-.41.22-.33.29-.53a7,7,0,0,0,.15-.82,4.92,4.92,0,0,1,.47-1.15,1.8,1.8,0,0,1,.18-.79A21,21,0,0,1,71.25,79c0-.68.44-1.06.5-1.64.14-.07.11-.32.29-.35a1.08,1.08,0,0,1,0-.59c0-.22.21-.35.29-.56s.07-.31.12-.47c.18-.51.32-1,.47-1.47.06-.19,0-.4.12-.58s.23-.35.29-.53,0-.28.09-.41.11-.22.15-.33c.09-.27.11-.58.2-.85,0-.11.14-.2.18-.32a4.91,4.91,0,0,0,.2-.94c.44-.66.38-1.34.83-2.08,0-.63.43-1.09.49-1.88a12.06,12.06,0,0,0,.62-1.73c0-.15,0-.3.09-.44s.1-.08.12-.12c.13-.28.16-.72.41-.91a3.84,3.84,0,0,1,.41-1.53c.06-.21.08-.42.15-.61s.17-.31.23-.47c.19-.49.12-1,.44-1.38a1.33,1.33,0,0,1,.24-.71c.22-.52.32-1.18.61-1.73.17-.81.45-1.25.62-2.08a10.1,10.1,0,0,0,.7-2c.13-.1.11-.34.27-.41.17-.77.63-1.67.73-2.44.12-.15.17-.38.29-.53a9.88,9.88,0,0,1,.39-1c.12-.35.2-.86.47-1s.46.08.67.21.41.3.65.29a14.34,14.34,0,0,1,1.52,1.14,3.37,3.37,0,0,1,1.12.83,10.54,10.54,0,0,1,1.52,1.46,4.19,4.19,0,0,0,.3.44c.13.13.32.19.44.33s.14.27.23.38.3.24.44.41a1.38,1.38,0,0,0,.44.41,3.47,3.47,0,0,0,.83.12c.23-.42-.14-.87-.27-1.32s-.11-.76-.35-1c.1-.26-.16-.56-.24-.82s0-.59-.23-.74a1,1,0,0,0-.21-.76,4.28,4.28,0,0,1-.14-.76c-.08-.34-.4-.64-.27-1a1.43,1.43,0,0,1-.2-.73,3.75,3.75,0,0,0-1.06-.44c-.27-.22-.77-.21-1-.5a2.78,2.78,0,0,1-1.17-.56c-.31,0-.49-.22-.74-.32s-.29,0-.44-.09-.31-.2-.5-.3a1.13,1.13,0,0,1-.49-.32c-.19-.29,0-.57.14-.91a10.31,10.31,0,0,0,.47-1.35c.08-.24.16-.5.24-.67s.13-.15.17-.24,0-.33.15-.41a10.18,10.18,0,0,1,.5-1.73c.07-.22.23-.4.29-.56s0-.32.06-.47.14-.21.18-.32c.15-.41.2-.81.32-1.2.25-.13.23-.52.44-.68a18.76,18.76,0,0,1,.79-2.26.51.51,0,0,1,.15-.26,6.61,6.61,0,0,1,.53-1.59c.24-.37.37-1.12.64-1.41a3,3,0,0,1,.5-1.23c.14-.26.17-.58.3-.85s.22-.27.29-.41.09-.44.18-.65.32-.52.44-.79.13-.48.23-.71.28-.37.38-.58.07-.33.15-.47a1.58,1.58,0,0,1,.79-.53,4.78,4.78,0,0,1,.53-.06c.63-.11,1.41-.47,1.2-1.14a2.19,2.19,0,0,0-1.11-.12c-1.13,0-2-.06-2.91,0-.22,0-.44,0-.64,0s-.37.09-.56.09c-.68,0-1.63,0-2.44-.12-.33.19-1.27-.19-1.41.24s.25.46.47.58a2.44,2.44,0,0,0,.59.21c.59.19,1.29.4,1.29,1a4.54,4.54,0,0,1-.53,1.58,9.36,9.36,0,0,1-.47,1.61c0,.21,0,.42-.11.62s-.18.33-.24.5c-.24.77-.47,1.57-.76,2.35-.09.23-.16.46-.24.7-.15.48-.36,1-.47,1.44,0,.11,0,.25,0,.35s-.16.2-.2.33c-.11.31-.09.71-.35.93,0,.75-.46.9-.47,1.68a8.61,8.61,0,0,0-.82,2.17c-.07.07-.11.17-.18.24-.17.7-.46,1.4-.7,2.11-.12.33-.27.67-.39,1s-.1.74-.38,1c0,0-.08,0-.09,0-.44,0-.63-.17-1-.17a11.63,11.63,0,0,0-1.71-.47c-.23,0-.47-.15-.7-.18s-.24,0-.35,0c-.33-.06-.66-.21-1-.26s-.77,0-1.15-.06c-.13,0-.27-.13-.41-.15s-.4,0-.53,0a16.94,16.94,0,0,0-1.93-.12A12.36,12.36,0,0,0,70,40.63c-.28,0-.52.12-.77.14a5.2,5.2,0,0,1-.79,0,9.4,9.4,0,0,0-1.06-.05c-.2,0-.37.15-.55.17s-.46,0-.68,0-.63.11-1,.15c-.19,0-.45,0-.61.06s-.21.12-.33.14c-.3.07-.61,0-.91.09-.11,0-.2.12-.32.15s-.5.07-.73.15-.31.18-.47.23-.35,0-.53.09-.39.18-.59.09A4.34,4.34,0,0,1,59.92,40c-.31-.51-.36-1.27-.65-1.73a.46.46,0,0,1,0-.26A1.71,1.71,0,0,1,59,36.87a8.24,8.24,0,0,1-.68-1.76c0-.2-.14-.4-.17-.59s0-.27,0-.41-.17-.21-.27-.38a6.75,6.75,0,0,1-.26-1c-.1-.32-.32-.63-.41-1s-.12-.48-.18-.67,0-.29-.09-.44-.16-.32-.2-.47,0-.2,0-.29a1.17,1.17,0,0,0-.21-.36v-.26A4.71,4.71,0,0,1,56,27.77c-.13-.28-.21-.6-.32-.91s-.27-.72-.21-.94c-.26-.3-.27-.86-.49-1.2a6.76,6.76,0,0,1-.12-1c.05-.47.61-.84,1-1.06s.58-.19.7-.38.14-.64-.12-.67c-1.12-.25-2.59,0-3.49-.09-1.34.09-2.55,0-3.84,0-.14,0-.41,0-.68,0-.56,0-1,0-1.47,0-.28,0-.56.11-.88.09-.7,0-1.34-.06-2-.06s-1.17-.14-1.35.23c.07.23,0,.49.12.68a1,1,0,0,0,.61.26c.08,0,.14.1.21.12.33.1.69.12,1,.24.64.28,1,.72,1.49.94a.63.63,0,0,0,.29.29c.3.48.74.87,1,1.41a18.75,18.75,0,0,1,1,2.49c.05.13.14.24.18.35a11.72,11.72,0,0,0,.79,2.62c-.06.18.07.32.12.5s0,.35.06.5.22.4.29.61.11.47.18.71a1.84,1.84,0,0,1,0,1.14l-.15.47c-.11.29-.26.58-.35.85-.16.44-.06,1-.38,1.29A17.48,17.48,0,0,1,48.62,39c-.08.23-.11.45-.18.68s-.13.2-.17.32,0,.29-.06.41-.23.44-.3.71a3.29,3.29,0,0,0-.17.85,3.9,3.9,0,0,0-.56,1.88,4.46,4.46,0,0,0-.41.85c0,.11,0,.26,0,.38s-.17.38-.24.59a8.75,8.75,0,0,1-.61,1.64,1.9,1.9,0,0,1-.32,1c-.11.28-.1.58-.18.85s-.18.36-.24.56,0,.4,0,.58-.16.21-.21.33,0,.32-.09.44-.29.27-.44.47-.1.32-.17.41-.22.11-.3.2-.07.25-.14.36-.29.28-.42.44l-.73,1c-.13.18-.2.4-.32.56s-.3.25-.41.41a8.78,8.78,0,0,1-1.09,1.44,1.63,1.63,0,0,1-.5.82c-.49.87-1.1,1.83-1.67,2.7A5.18,5.18,0,0,1,38,61.09c-.15.29-.21.59-.35.94-.06.14-.19.26-.26.41s-.11.33-.18.49c-.13.32-.33.6-.44.91a3,3,0,0,1-.38,1.06c.06.31-.12.45-.21.65s-.13.7-.32.7-.29-.28-.38-.53a2.55,2.55,0,0,1-.35-1.11c-.1-.14-.14-.34-.24-.47-.13-.33-.12-.7-.23-1s-.21-.34-.27-.53,0-.23-.06-.35c-.1-.31-.23-.63-.35-.94-.28-.76-.5-1.62-.76-2.41,0-.16-.15-.3-.21-.47s0-.2,0-.29-.19-.44-.26-.67A15.07,15.07,0,0,0,32,55.36c-.19-.75-.43-1.4-.68-2.14s-.45-1.38-.64-2.11a13.61,13.61,0,0,1-.59-2c-.36-.48-.32-1-.53-1.56s-.41-1.19-.56-1.7c0-.08-.09-.15-.11-.23-.08-.26-.09-.54-.18-.85s-.23-.47-.29-.74a2,2,0,0,0-.24-.73,1.83,1.83,0,0,0-.15-.68c-.09-.26-.18-.48-.29-.76-.05-.12-.15-.25-.18-.35s0-.22,0-.32a3.48,3.48,0,0,0-.17-.33c-.05-.12-.05-.28-.09-.41a6.07,6.07,0,0,1-.29-.7c0-.08,0-.17,0-.24s-.12-.25-.15-.35a9.24,9.24,0,0,0-.41-1.06c.05-.31-.21-.62-.3-.94s0-.37-.08-.55-.19-.3-.24-.47,0-.22,0-.33-.16-.33-.2-.49-.07-.42-.12-.62c-.09-.35-.34-.66-.32-1-.53-1-.64-2.26-1.15-3.29a3.26,3.26,0,0,0-.26-1c-.08-.26-.1-.52-.18-.77s-.2-.46-.26-.7,0-.26,0-.38A7,7,0,0,1,22.91,26c-.3-.38-.16-1.11-.21-1.56,0-.15-.09-.3-.12-.44a1.11,1.11,0,0,0-.08-.41c.2-.86,1.07-.95,1.82-1.23a.72.72,0,0,0,0-.82c-2-.1-3.42.12-5.46-.09-.37.22-.86.06-1.29.06a5.72,5.72,0,0,1-1.43,0,28.75,28.75,0,0,1-3.38.09c-.1,0-.22-.09-.32-.09s-.37.05-.56.06-.44,0-.59,0-.21.11-.35.15-.28,0-.38.05-.22.35-.27.47v.15c.19.52.93.42,1.35.5a4.18,4.18,0,0,1,1.06.41c.1.06.16.16.27.24s.22.09.32.17l.26.24a7.42,7.42,0,0,1,1.09,1.49,7.81,7.81,0,0,1,.61,1c.1.18.12.39.21.59s.17.36.24.56c.18.58.42,1.29.55,1.73.07.21.2.34.27.53.14.37.21.78.32,1.17,0,.16.12.33.18.5a14.23,14.23,0,0,1,.52,1.76,2.41,2.41,0,0,1,.39,1c.05.19.17.36.23.56s.16.64.26,1c.32.95.65,2,.94,3,0,.07.09.12.12.2.19.46.28,1,.44,1.41.11.29.24.57.32.85s.14.69.24,1c0,.1.1.12.15.21a3,3,0,0,1,.06.32,7.88,7.88,0,0,0,.41,1.08c.27.72.47,1.55.73,2.26.2.55.35,1,.53,1.65.23.76.45,1.5.7,2.17a3.11,3.11,0,0,1,.33,1.14,17.61,17.61,0,0,1,.76,2.18c.24.71.47,1.42.67,2.14s.5,1.39.71,2.11.48,1.44.7,2.15a4,4,0,0,1,.21.64c.05.21.17.37.23.56s.07.32.12.47c.14.41.32.83.44,1.26a8.66,8.66,0,0,1,.53,1.85c.63,1.43,1,3,1.61,4.7.14.37.3.74.44,1.14s.21.81.36,1.23.3.75.44,1.15A3.71,3.71,0,0,1,30.89,74c-.05.46-.56.79-.88,1.12-.18.18-.32.37-.5.52s-.36.34-.56.5a18.67,18.67,0,0,1-1.58,1.5c-.26.22-.46.51-.74.76s-.76.8-1.14,1.18-.43.59-.68.88c-.11.13-.29.23-.41.38A7.4,7.4,0,0,1,23,82.6c-.05.32-.32.51-.5.76s-.29.54-.46.8a16,16,0,0,1-1,1.52c-.45,1.12-1,2-1.53,3-.15.32-.25.64-.38,1a4.36,4.36,0,0,1-.35.59c0,.06,0,.15-.06.24-.12.3-.29.6-.41.9a4.3,4.3,0,0,0-.09.47,4.13,4.13,0,0,1-.21.47,7.71,7.71,0,0,1-.26.77c0,.06-.12.13-.15.2s0,.45-.09.65-.17.37-.23.56a12.82,12.82,0,0,1-.53,1.9c-.08.66-.24,1.3-.38,1.94a14.81,14.81,0,0,0-.35,1.76c0,.14,0,.28,0,.41s-.1.36-.12.53c0,.37-.07.73-.12,1s0,.23,0,.35-.12.41-.14.62c-.08.6.08,1.19,0,1.76,0,.24-.15.45-.18.67a9.78,9.78,0,0,0,0,1.21c0,.2-.07.4-.06.59s.12.38.15.58c.07.53-.06,1,0,1.53,0,.26.14.64.14.82s0,.44,0,.79c.1.92.25,1.8.41,2.73.11.57.18,1.14.27,1.7,0,.3.15.59.2.89a2.78,2.78,0,0,0,.24.82c.3,1.19.62,2.33,1,3.43a18.08,18.08,0,0,0,.91,2.38c.06.12.12.25.17.38s0,.28.09.41.18.23.24.35.11.31.17.44c.37.84,1,1.54,1.32,2.38.32.2.43.59.65.88s.49.55.67.85c.38.62,1,1.09,1.33,1.74.54.28.85.83,1.29,1.23.1.1.24.15.35.26.33.34.68.61,1,1a13,13,0,0,1,1.7,1.32c.28.21.64.36.94.56a8.25,8.25,0,0,1,.94.59c.26.22.63.33.94.55a3.76,3.76,0,0,0,.47.3c.17.09.28.22.44.32a4.61,4.61,0,0,0,.53.18c.16.07.32.23.47.29a5.2,5.2,0,0,1,.55.21,18.53,18.53,0,0,0,3.79,1.52c.41.11.79.24,1.2.33.76.15,1.5.52,2.32.64.2,0,.39,0,.59,0s.18.07.29.09.22,0,.32,0,.39.15.59.18.22,0,.32,0,.16.09.27.11.4,0,.62.06l.52.09c1,.1,2,0,3,.23a2.29,2.29,0,0,1,.94,0c1.12.12,2.33,0,3.52.12h.56a.76.76,0,0,1,.47,0h0a1.7,1.7,0,0,1,.74,0v0h.09a11.54,11.54,0,0,1,2.55-.12c.21,0,.4-.12.62-.14s.54.05.79,0a5.21,5.21,0,0,1,1.64-.09,10.46,10.46,0,0,1,2.76-.41c.15,0,.27-.13.41-.15s.35,0,.53,0a3,3,0,0,0,.5-.06,21,21,0,0,0,2.41-.47,24.11,24.11,0,0,0,3.25-.61c.51-.11.92-.24,1.35-.33a10.37,10.37,0,0,0,1-.23c.11,0,.21-.14.32-.18s.33,0,.5-.09c.46-.12.69-.19,1.12-.32a2.38,2.38,0,0,0,.62-.2,3.61,3.61,0,0,0,.41-.77c.06-.11.21-.2.26-.29s.08-.24.15-.35a1.12,1.12,0,0,0,.17-.41c.09,0,.13-.15.24-.18a3.48,3.48,0,0,1,.88-1.41,1.69,1.69,0,0,1,.59-1,1.84,1.84,0,0,1,.23-.52,4.1,4.1,0,0,1,.24-.56c.06-.11.19-.17.26-.27.2-.28.32-.59.53-.91a2.66,2.66,0,0,0,.44-.91c-.54-.5-.86.19-1.18.44-.08.07-.27.12-.35.18a6.17,6.17,0,0,0-.53.5,6.28,6.28,0,0,0-.94.85,3,3,0,0,0-.79.53c-.27.2-.55.35-.82.53s-.55.39-.85.56-.84.46-1.26.73a11.25,11.25,0,0,1-1.44.7c-.25.32-.77.32-1.12.5-.18.1-.33.25-.53.35a6.18,6.18,0,0,1-1.29.5,5,5,0,0,1-1.26.44c-.32.11-.62.29-.94.38-.63.2-1.33.35-2,.62-.64.1-1.28.25-1.84.38-.21.05-.38.05-.59.09s-.52.2-.79.24-.57-.05-.85,0c-.13,0-.25.09-.39.11a5.93,5.93,0,0,1-.73,0c-.13,0-.29.16-.44.18a3.56,3.56,0,0,1-.44-.06c-.23,0-.44.16-.68.18s-.25-.06-.38-.06a5.78,5.78,0,0,1-1.44,0c-.38.21-.85,0-1.32,0a11.46,11.46,0,0,1-1.17.06c-.1,0-.19-.07-.29-.09s-.31,0-.44,0-.21-.1-.33-.12c-.36-.06-.79.08-1-.14a2.78,2.78,0,0,1-1.06-.09c-.19,0-.4,0-.59,0s-.23-.1-.35-.12a5.06,5.06,0,0,1-.53-.06c-.16,0-.31-.13-.47-.17-.45-.13-.91-.14-1.29-.24s-.57-.23-.76-.29-.37,0-.53-.06-.19-.15-.29-.18-.2,0-.3,0a7,7,0,0,1-.73-.35c-.21-.08-.46-.07-.65-.15s-.51-.4-.79-.53-.67-.23-1-.35c-.83-.57-1.78-1.11-2.58-1.67-.25-.18-.53-.35-.76-.53s-.22-.25-.41-.23a1.47,1.47,0,0,0-.71-.56c-.62-.77-1.49-1.29-2.08-2.08-.19-.11-.32-.28-.5-.39-.12-.37-.38-.51-.62-.76s-.32-.26-.44-.41,0-.17-.09-.24-.22-.22-.32-.35c-.22-.29-.41-.49-.62-.76s-.25-.23-.35-.35-.08-.23-.14-.33-.34-.52-.5-.76-.39-.4-.53-.64-.28-.52-.44-.77-.43-.67-.65-1c-.05-.09-.18-.23-.23-.33s-.08-.3-.15-.44-.32-.42-.44-.64-.11-.26-.18-.39-.18-.23-.23-.35-.06-.46-.29-.58a21.33,21.33,0,0,0-1.12-2.41c-.08-.21-.06-.48-.26-.65,0-.1,0-.27,0-.29-.34-.65-.6-1.4-.88-2.08-.05-.12-.13-.24-.18-.36-.15-.38-.2-.83-.35-1.23-.05-.12-.17-.2-.21-.32s0-.18,0-.27c-.08-.28-.11-.54-.17-.82a2,2,0,0,1-.18-.82,1.2,1.2,0,0,0-.18-.26c0-.4-.18-.53-.26-.77s-.06-.46-.12-.67-.12-.2-.14-.3c-.11-.4-.1-.85-.18-1.26,0-.1-.09-.19-.12-.29-.14-.53-.16-1-.26-1.5a4.75,4.75,0,0,1-.15-.56c-.05-.31-.11-.9-.14-1.14,0-.07-.09-.14-.09-.21s.06-.17.06-.26-.08-.15-.09-.24a2.06,2.06,0,0,1,0-.26c0-.27-.15-.5-.15-.76,0-.46.25-1-.12-1.29a14.65,14.65,0,0,1,.12-2.12c-.21-.4.07-.86.09-1.29,0-.09-.06-.17-.06-.26,0-.38.11-.79.09-1.12,0-.16-.09-.3-.09-.44A4,4,0,0,1,22,96c0-.26.1-.52.14-.77a7,7,0,0,0,.3-1.88,7.68,7.68,0,0,0,.32-1.23c0-.13,0-.26,0-.38s.16-.25.2-.38.07-.41.15-.59.14-.21.18-.32c.1-.3.11-.59.32-.79a6.38,6.38,0,0,1,.59-1.91c0-.16.15-.3.2-.44s.06-.39.15-.56a8.7,8.7,0,0,1,.79-1.32,1.12,1.12,0,0,0,0-.29c.16-.06.18-.25.32-.33.1-.46.4-.68.59-1a4.79,4.79,0,0,1,.29-.56,3.59,3.59,0,0,0,.27-.47,22.06,22.06,0,0,1,1.41-1.85c.19-.28.4-.69.73-.76.07-.2.22-.31.29-.5.22-.08.28-.31.5-.38a15.48,15.48,0,0,1,1.85-1.77c.38.12.42.62.53,1a7.39,7.39,0,0,1,.32,1.18c.42,1,.62,2,1,3a9.61,9.61,0,0,0,.18,1c0,.17.2.32.26.5.15.46.24.82.35,1.26s.23.54.33.82c.16.46.19.95.35,1.38,0,.14.18.22.23.35s.1.51.18.74.17.26.2.38,0,.2,0,.29.14.28.18.41c.34,1.07.67,2.22,1.09,3.2a1,1,0,0,0,.06.47c.21.5.48,1,.7,1.53.09.2.2.35.26.5s0,.22.09.32c.24.54.61,1,.79,1.56.23.37.48.68.68,1s.22.4.35.59a10.58,10.58,0,0,1,.74,1.14,1.32,1.32,0,0,1,.49.53,8.83,8.83,0,0,0,1.5,1.76,5.15,5.15,0,0,0,.91,1.06,5.77,5.77,0,0,0,.53.56l.56.53.38.35c.33.33.78.53,1,.88.41.08.65.46,1,.7s.49.26.71.42A20.42,20.42,0,0,0,50,108.28c.13.07.31.1.44.18s.25.25.41.32.23,0,.32.09c.3.12.53.36.82.5s.49.08.71.17.24.23.38.3a1.45,1.45,0,0,1,.85.32,6.68,6.68,0,0,0,1.12.38c.66.18,1.27.43,1.87.56.41.09.64.17,1.06.24s.59.19.88.23.6.05.91.12c.83.18,1.74.12,2.61.38a2.72,2.72,0,0,1,1.3.15,4.85,4.85,0,0,1,1.14,0,2.89,2.89,0,0,1,.35.11c.47.09,1.09-.18,1.53.18a8.62,8.62,0,0,1,2.38,0c1.41-.09,2.8,0,4.19-.06a6,6,0,0,0,.77-.09c.33,0,.71,0,1,0s.38-.1.56-.11c.35,0,.62,0,.88,0,.69-.09,1.43-.15,2-.21.21,0,.4-.12.61-.15s.24,0,.36,0,.29-.12.44-.14a7,7,0,0,0,2.43-.36,6,6,0,0,0,1.5-.23c.94-.21,1.9-.35,2.82-.59a7.89,7.89,0,0,1,1.9-.44,3.88,3.88,0,0,1,1.47-.41c.14,0,.24-.15.38-.2.73-.26,1.59-.17,2.09-.59.21-.38.41-.7.61-1.06s.55-.81.8-1.23.49-.86.73-1.26c.08-.14.23-.22.32-.35a7.56,7.56,0,0,0,.3-.71c.15-.29.47-.48.5-.82.38-.21.41-.76.76-1,.1-.35.48-.67.32-1.08M61,43.74c.11-.1.29-.09.53-.18s.46-.17.68-.23c.44-.12.94-.28,1.35-.41a1.41,1.41,0,0,1,.41,0c.15,0,.27-.1.44-.12s.28,0,.38,0,.27-.1.41-.12.27,0,.41,0,.28-.1.41-.12c.41,0,.88,0,1.27,0s.51.1.79.12c.59.06,1.23-.17,1.67.09.26-.18.54,0,.85,0s.59,0,.88,0,.31.13.53.15.43,0,.76.05a2.14,2.14,0,0,0,.27.09c.08,0,.18,0,.26,0s.27.14.41.18c.29.08.65,0,.85.23.25-.07.43.09.62.15.41.12.85.17,1.26.29s.47.28.71.36c.08,0,.18,0,.26,0s.18.14.3.17.26,0,.35.06c.27.12.49.4.76.53s.37,0,.47.23c.14.44-.14.83-.29,1.33-.06.17-.08.38-.15.55s-.2.3-.23.44,0,.19,0,.27-.18.39-.24.61-.08.5-.15.68-.21.26-.26.41,0,.26-.06.38a12,12,0,0,1-.38,1.2c0,.05-.11.09-.12.12s0,.2,0,.3-.14.25-.17.38,0,.22,0,.32-.09.15-.12.23c-.19.51-.31,1.12-.5,1.65-.13.36-.33.72-.44,1.08a5.91,5.91,0,0,1-.59,1.85c-.19.8-.43,1.54-.67,2.26-.13.39-.28.73-.38,1.12s-.11.68-.33.85c.1.32-.23.46-.17.85a2.41,2.41,0,0,1-.21.24,1.79,1.79,0,0,1-.26,1c0,.09,0,.2,0,.3s-.31.44-.35.61,0,.34,0,.47a5.28,5.28,0,0,1-.27.53c-.14.4-.18.89-.35,1.29,0,.08-.12.13-.15.21s0,.21,0,.26-.27.54-.32.77a7,7,0,0,1-.23.73,2.92,2.92,0,0,1-.36.94,7.7,7.7,0,0,1-.52,1.82,2.1,2.1,0,0,1-.27.94c-.39.3-.64-.53-.62-1-.32-.46-.32-1.07-.64-1.53a7.38,7.38,0,0,0-.29-1,10.88,10.88,0,0,0-.71-1.91,10.83,10.83,0,0,0-.56-1.73,7.64,7.64,0,0,0-.35-.8.5.5,0,0,0-.09-.47c.06-.57-.44-.87-.41-1.43a1.08,1.08,0,0,0-.26-.3c-.35-1.31-.92-3-1.41-4.25,0-.07,0-.13,0-.24a18.21,18.21,0,0,1-.74-2c-.07-.21-.23-.41-.29-.62s0-.2,0-.29-.11-.18-.14-.3c-.09-.32-.07-.69-.18-1,0-.1-.14-.2-.18-.3s0-.13,0-.17a1.27,1.27,0,0,1-.17-.53,5,5,0,0,0-.3-.79,2.2,2.2,0,0,0-.29-.74c.07-.28-.11-.41-.18-.61s0-.15,0-.21-.1-.1-.11-.15,0-.16,0-.23-.17-.29-.21-.44,0-.28-.06-.41c-.13-.52-.37-.87-.47-1.44a7.65,7.65,0,0,0-.32-.91c-.09-.28,0-.52-.29-.68a3.89,3.89,0,0,0-.18-.85c-.05-.14-.17-.2-.21-.32s0-.18,0-.29-.23-.34,0-.56M49.59,45.68a4.67,4.67,0,0,1,.5-1.53c0-.39.29-.56.35-.88,0-.08,0-.2,0-.29s.18-.28.2-.44a11.15,11.15,0,0,0,.3-1.27c.27-.35.32-.93.58-1.29,0-.28.13-.36.15-.58.4-.18.49.22.59.58s.3.92.41,1.38a6.8,6.8,0,0,1,.5,1.56c.19.14.16.45.29.79s.36.59.18,1c-.83.78-2,1.2-2.88,2-.57.14-.94.86-1.64.86a5,5,0,0,1,.47-1.85m-8.4,22.68a30.93,30.93,0,0,1,1-3.9,7.78,7.78,0,0,1,.47-1.61c0-.09.14-.17.18-.27s0-.39.08-.58a5.09,5.09,0,0,0,.47-1.41,5.48,5.48,0,0,1,.47-.74c0-.24.18-.42.27-.64s0-.21.06-.3.31-.39.41-.61c.17-.4.31-.76.47-1.15.1-.23.14-.42.38-.53a19.21,19.21,0,0,1,2.23-3.49c0-.45.44-.56.67-.88s.3-.52.47-.73.22-.16.3-.27a10.3,10.3,0,0,1,1.32-1.46c0-.1.09,0,.14-.06a3.35,3.35,0,0,1,1.35-1.29c.25-.4.82-.48,1.06-.89a6.13,6.13,0,0,1,1.29-.44c.41,0,.39.59.5,1s.36.81.47,1.21c.06.22,0,.46.18.58,0,.58.32.89.38,1.44a9.17,9.17,0,0,1,.59,1.88,8.48,8.48,0,0,1,.44,1.35c.36.5.27,1.06.55,1.5a.74.74,0,0,0,.18.47c0,.39.2.63.29.94.19.57.31,1.16.47,1.76A13.39,13.39,0,0,1,59,61.06c.11.3.3.57.38.88a3.78,3.78,0,0,0,.06.47c.08.19.2.34.26.52s.06.4.12.62.22.44.3.68c0,.08,0,.2,0,.29s.15.24.18.35a5.43,5.43,0,0,0,.18.82c.09.24.21.45.32.68a2,2,0,0,0,.41,1.17c.11,1,.74,1.65.73,2.67-.32.25-.72,0-1-.08a1.92,1.92,0,0,0-.24,0,1.65,1.65,0,0,1-.59-.27c-.28,0-.33-.1-.61-.12a.07.07,0,0,1-.06-.11c-.1,0-.11.08-.24.06a12.57,12.57,0,0,1-1.43-.3c-.24.09-.47-.1-.71-.12-.4,0-.7-.12-1.08-.14-.85,0-1.45,0-2.15-.09-.25,0-.5-.1-.73-.12s-.43.07-.62-.09c-.87,0-2-.17-3,0a3.6,3.6,0,0,1-.44.12c-.25,0-.51-.09-.76-.09s-.55.12-.8.12a5.05,5.05,0,0,0-1.17,0c-.08,0-.16.1-.26.12-.61.11-1.29.11-1.94.2a1.52,1.52,0,0,1-.68.06,9.7,9.7,0,0,1-2.08.41c-.46-.32,0-.9-.12-1.38"/></svg>